G04*
G04 #@! TF.GenerationSoftware,Altium Limited,Altium Designer,20.0.9 (164)*
G04*
G04 Layer_Color=65535*
%FSLAX25Y25*%
%MOIN*%
G70*
G01*
G75*
%ADD10C,0.00500*%
%ADD11C,0.00984*%
%ADD12C,0.01000*%
%ADD13C,0.00787*%
%ADD14C,0.00100*%
%ADD15C,0.00600*%
%ADD16C,0.00300*%
%ADD17C,0.00400*%
%ADD18C,0.00800*%
D10*
X147472Y79900D02*
G03*
X147472Y75200I0J-2350D01*
G01*
D02*
G03*
X147472Y79900I0J2350D01*
G01*
D11*
X66984Y88217D02*
G03*
X66984Y88217I-492J0D01*
G01*
D12*
X189700Y26500D02*
G03*
X189700Y26500I-6500J0D01*
G01*
X44685Y131311D02*
X82874D01*
X44685Y114776D02*
Y131311D01*
X86024Y114776D02*
Y129736D01*
X82874Y131311D02*
X84843D01*
X86024Y129736D02*
Y131311D01*
X84843D02*
X86024D01*
X82874Y111626D02*
X86024Y114776D01*
X47835Y111626D02*
X82874D01*
X44685Y114776D02*
X47835Y111626D01*
X146685Y130811D02*
X184874D01*
X146685Y114276D02*
Y130811D01*
X188024Y114276D02*
Y129236D01*
X184874Y130811D02*
X186843D01*
X188024Y129236D02*
Y130811D01*
X186843D02*
X188024D01*
X184874Y111126D02*
X188024Y114276D01*
X149835Y111126D02*
X184874D01*
X146685Y114276D02*
X149835Y111126D01*
X96185Y130811D02*
X134374D01*
X96185Y114276D02*
Y130811D01*
X137524Y114276D02*
Y129236D01*
X134374Y130811D02*
X136343D01*
X137524Y129236D02*
Y130811D01*
X136343D02*
X137524D01*
X134374Y111126D02*
X137524Y114276D01*
X99335Y111126D02*
X134374D01*
X96185Y114276D02*
X99335Y111126D01*
X146185Y167311D02*
X184374D01*
X146185Y150776D02*
Y167311D01*
X187524Y150776D02*
Y165736D01*
X184374Y167311D02*
X186343D01*
X187524Y165736D02*
Y167311D01*
X186343D02*
X187524D01*
X184374Y147626D02*
X187524Y150776D01*
X149335Y147626D02*
X184374D01*
X146185Y150776D02*
X149335Y147626D01*
X45185Y167311D02*
X83374D01*
X45185Y150776D02*
Y167311D01*
X86524Y150776D02*
Y165736D01*
X83374Y167311D02*
X85343D01*
X86524Y165736D02*
Y167311D01*
X85343D02*
X86524D01*
X83374Y147626D02*
X86524Y150776D01*
X48335Y147626D02*
X83374D01*
X45185Y150776D02*
X48335Y147626D01*
X96685Y167311D02*
X134874D01*
X96685Y150776D02*
Y167311D01*
X138024Y150776D02*
Y165736D01*
X134874Y167311D02*
X136843D01*
X138024Y165736D02*
Y167311D01*
X136843D02*
X138024D01*
X134874Y147626D02*
X138024Y150776D01*
X99835Y147626D02*
X134874D01*
X96685Y150776D02*
X99835Y147626D01*
X164000Y44000D02*
X202000D01*
X164000Y6500D02*
Y44000D01*
Y6500D02*
X202000D01*
Y44000D01*
X208327Y162988D02*
X230374D01*
X208327Y26768D02*
Y162988D01*
Y26768D02*
X230374D01*
Y162988D01*
X6909Y29835D02*
X28957D01*
Y166055D01*
X6909D02*
X28957D01*
X6909Y29835D02*
Y166055D01*
X37666Y103332D02*
X36999Y103999D01*
X35666D01*
X35000Y103332D01*
Y100666D01*
X35666Y100000D01*
X36999D01*
X37666Y100666D01*
X38999Y103332D02*
X39665Y103999D01*
X40998D01*
X41664Y103332D01*
Y102666D01*
X40998Y101999D01*
X40332D01*
X40998D01*
X41664Y101333D01*
Y100666D01*
X40998Y100000D01*
X39665D01*
X38999Y100666D01*
X43666Y64832D02*
X42999Y65499D01*
X41666D01*
X41000Y64832D01*
Y62166D01*
X41666Y61500D01*
X42999D01*
X43666Y62166D01*
X47664Y61500D02*
X44999D01*
X47664Y64166D01*
Y64832D01*
X46998Y65499D01*
X45665D01*
X44999Y64832D01*
X52166Y103332D02*
X51499Y103999D01*
X50166D01*
X49500Y103332D01*
Y100666D01*
X50166Y100000D01*
X51499D01*
X52166Y100666D01*
X53499Y100000D02*
X54832D01*
X54165D01*
Y103999D01*
X53499Y103332D01*
X162100Y51499D02*
Y48833D01*
X163433Y47500D01*
X164766Y48833D01*
Y51499D01*
X166099Y47500D02*
Y51499D01*
X168098D01*
X168764Y50832D01*
Y49499D01*
X168098Y48833D01*
X166099D01*
X167432D02*
X168764Y47500D01*
X170097D02*
X171430D01*
X170764D01*
Y51499D01*
X170097Y50832D01*
X142500Y69499D02*
Y66166D01*
X143166Y65500D01*
X144499D01*
X145166Y66166D01*
Y69499D01*
X146499Y65500D02*
X147832D01*
X147165D01*
Y69499D01*
X146499Y68832D01*
X187000Y99500D02*
Y103499D01*
X188999D01*
X189666Y102832D01*
Y101499D01*
X188999Y100833D01*
X187000D01*
X188333D02*
X189666Y99500D01*
X190999D02*
X192332D01*
X191665D01*
Y103499D01*
X190999Y102832D01*
X39166Y163666D02*
Y166332D01*
X38499Y166999D01*
X37166D01*
X36500Y166332D01*
Y163666D01*
X37166Y163000D01*
X38499D01*
X37833Y164333D02*
X39166Y163000D01*
X38499D02*
X39166Y163666D01*
X43165Y166999D02*
X41832Y166332D01*
X40499Y164999D01*
Y163666D01*
X41165Y163000D01*
X42498D01*
X43165Y163666D01*
Y164333D01*
X42498Y164999D01*
X40499D01*
X149866Y137967D02*
Y140632D01*
X149199Y141299D01*
X147866D01*
X147200Y140632D01*
Y137967D01*
X147866Y137300D01*
X149199D01*
X148533Y138633D02*
X149866Y137300D01*
X149199D02*
X149866Y137967D01*
X153865Y141299D02*
X151199D01*
Y139299D01*
X152532Y139966D01*
X153198D01*
X153865Y139299D01*
Y137967D01*
X153198Y137300D01*
X151865D01*
X151199Y137967D01*
X47866D02*
Y140632D01*
X47199Y141299D01*
X45866D01*
X45200Y140632D01*
Y137967D01*
X45866Y137300D01*
X47199D01*
X46533Y138633D02*
X47866Y137300D01*
X47199D02*
X47866Y137967D01*
X51198Y137300D02*
Y141299D01*
X49199Y139299D01*
X51864D01*
X192666Y163666D02*
Y166332D01*
X191999Y166999D01*
X190666D01*
X190000Y166332D01*
Y163666D01*
X190666Y163000D01*
X191999D01*
X191333Y164333D02*
X192666Y163000D01*
X191999D02*
X192666Y163666D01*
X193999Y166332D02*
X194665Y166999D01*
X195998D01*
X196665Y166332D01*
Y165666D01*
X195998Y164999D01*
X195332D01*
X195998D01*
X196665Y164333D01*
Y163666D01*
X195998Y163000D01*
X194665D01*
X193999Y163666D01*
X91166D02*
Y166332D01*
X90499Y166999D01*
X89166D01*
X88500Y166332D01*
Y163666D01*
X89166Y163000D01*
X90499D01*
X89833Y164333D02*
X91166Y163000D01*
X90499D02*
X91166Y163666D01*
X95165Y163000D02*
X92499D01*
X95165Y165666D01*
Y166332D01*
X94498Y166999D01*
X93165D01*
X92499Y166332D01*
X99366Y137967D02*
Y140632D01*
X98699Y141299D01*
X97366D01*
X96700Y140632D01*
Y137967D01*
X97366Y137300D01*
X98699D01*
X98033Y138633D02*
X99366Y137300D01*
X98699D02*
X99366Y137967D01*
X100699Y137300D02*
X102032D01*
X101365D01*
Y141299D01*
X100699Y140632D01*
X38400Y30900D02*
Y34899D01*
X40399D01*
X41066Y34232D01*
Y32899D01*
X40399Y32233D01*
X38400D01*
X42399Y30900D02*
X43732D01*
X43065D01*
Y34899D01*
X42399Y34232D01*
X175500Y62499D02*
X176833D01*
X176166D01*
Y58500D01*
X175500D01*
X176833D01*
X181498Y61832D02*
X180832Y62499D01*
X179499D01*
X178832Y61832D01*
Y59166D01*
X179499Y58500D01*
X180832D01*
X181498Y59166D01*
X185497Y58500D02*
X182831D01*
X185497Y61166D01*
Y61832D01*
X184830Y62499D01*
X183497D01*
X182831Y61832D01*
X110000Y95499D02*
X111333D01*
X110667D01*
Y91500D01*
X110000D01*
X111333D01*
X115998Y94832D02*
X115332Y95499D01*
X113999D01*
X113332Y94832D01*
Y92166D01*
X113999Y91500D01*
X115332D01*
X115998Y92166D01*
X117331Y91500D02*
X118664D01*
X117997D01*
Y95499D01*
X117331Y94832D01*
D13*
X187594Y52217D02*
Y56941D01*
X187791Y58319D02*
X199209D01*
Y60681D01*
X187791D02*
X199209D01*
X187791Y58319D02*
Y60681D01*
X197500Y109500D02*
Y110400D01*
Y88600D02*
Y89500D01*
Y109500D02*
X200500D01*
Y89500D02*
Y109500D01*
X194500Y89500D02*
X200500D01*
X194500D02*
Y109500D01*
X197500D01*
X141728Y92343D02*
X148815D01*
X138272Y72100D02*
X152272D01*
X35244Y86839D02*
X40756D01*
X72594Y88906D02*
X109406D01*
Y52094D02*
Y88906D01*
X72594Y52094D02*
X109406D01*
X72594D02*
Y88906D01*
X49244Y87000D02*
X54756D01*
X44500Y68744D02*
Y74256D01*
X47500Y7500D02*
X147500D01*
Y27500D01*
X47500D02*
X147500D01*
X47500Y7500D02*
Y27500D01*
D14*
X60800Y192800D02*
X61700D01*
X24300Y192700D02*
X30200D01*
X32400D02*
X38300D01*
X40600D02*
X46400D01*
X60800D02*
X61700D01*
X24000Y192600D02*
X24100D01*
X24200D02*
X30300D01*
X30400D02*
X30500D01*
X32100D02*
X32200D01*
X32300D02*
X38400D01*
X40500D02*
X46500D01*
X60800D02*
X61700D01*
X23900Y192500D02*
X24000D01*
X24100D02*
X30400D01*
X30500D02*
X30600D01*
X32000D02*
X32100D01*
X32200D02*
X38500D01*
X40400D02*
X46600D01*
X60800D02*
X61700D01*
X24000Y192400D02*
X30500D01*
X30600D02*
X30700D01*
X31900D02*
X32000D01*
X32100D02*
X38600D01*
X40300D02*
X46700D01*
X60800D02*
X61700D01*
X23700Y192300D02*
X23800D01*
X23900D02*
X30600D01*
X30700D02*
X30800D01*
X31800D02*
X31900D01*
X32000D02*
X38700D01*
X40200D02*
X46800D01*
X60800D02*
X61700D01*
X23600Y192200D02*
X23700D01*
X23800D02*
X30700D01*
X30800D02*
X30900D01*
X31700D02*
X31800D01*
X31900D02*
X38800D01*
X40100D02*
X46900D01*
X60800D02*
X61700D01*
X23700Y192100D02*
X24500D01*
X30000D02*
X30800D01*
X31800D02*
X32600D01*
X38100D02*
X38900D01*
X40000D02*
X47000D01*
X60800D02*
X61700D01*
X23600Y192000D02*
X24400D01*
X30100D02*
X30900D01*
X31700D02*
X32500D01*
X38200D02*
X39000D01*
X39900D02*
X47100D01*
X60800D02*
X61700D01*
X23500Y191900D02*
X24300D01*
X30200D02*
X31000D01*
X31700D02*
X32400D01*
X38300D02*
X39100D01*
X39800D02*
X47200D01*
X60800D02*
X61700D01*
X23500Y191800D02*
X24200D01*
X30300D02*
X31000D01*
X31600D02*
X32300D01*
X38400D02*
X39100D01*
X39800D02*
X47300D01*
X60800D02*
X61700D01*
X23500Y191700D02*
X24100D01*
X30400D02*
X31000D01*
X31600D02*
X32200D01*
X38500D02*
X39100D01*
X39800D02*
X47200D01*
X60800D02*
X61700D01*
X23500Y191600D02*
X24100D01*
X30400D02*
X31000D01*
X31600D02*
X32200D01*
X38500D02*
X39100D01*
X39800D02*
X47200D01*
X60800D02*
X61700D01*
X23500Y191500D02*
X24100D01*
X30400D02*
X31000D01*
X31600D02*
X32200D01*
X38500D02*
X39100D01*
X39800D02*
X47200D01*
X60800D02*
X61700D01*
X23500Y191400D02*
X24100D01*
X30400D02*
X31000D01*
X31600D02*
X32200D01*
X38500D02*
X39100D01*
X39800D02*
X47200D01*
X60800D02*
X61700D01*
X23500Y191300D02*
X24100D01*
X30400D02*
X31000D01*
X31600D02*
X32200D01*
X38500D02*
X39100D01*
X39800D02*
X47200D01*
X60800D02*
X61700D01*
X23500Y191200D02*
X24100D01*
X30400D02*
X31000D01*
X31600D02*
X32200D01*
X38500D02*
X39100D01*
X39800D02*
X47200D01*
X60800D02*
X61700D01*
X23500Y191100D02*
X24100D01*
X30400D02*
X31000D01*
X31600D02*
X32200D01*
X38500D02*
X39100D01*
X39800D02*
X47200D01*
X60800D02*
X61700D01*
X23500Y191000D02*
X24100D01*
X30400D02*
X31000D01*
X31600D02*
X32200D01*
X38500D02*
X39100D01*
X39800D02*
X47200D01*
X60800D02*
X61700D01*
X23500Y190900D02*
X24100D01*
X30400D02*
X31000D01*
X31600D02*
X32200D01*
X38500D02*
X39100D01*
X39800D02*
X47200D01*
X60800D02*
X61700D01*
X23500Y190800D02*
X24100D01*
X30400D02*
X31000D01*
X31600D02*
X32200D01*
X38500D02*
X39100D01*
X39800D02*
X47200D01*
X60800D02*
X61700D01*
X23500Y190700D02*
X24100D01*
X30400D02*
X31000D01*
X31600D02*
X32200D01*
X38500D02*
X39100D01*
X39800D02*
X47200D01*
X50900D02*
X51900D01*
X56600D02*
X57700D01*
X60800D02*
X61700D01*
X64800D02*
X66000D01*
X23500Y190600D02*
X24100D01*
X30400D02*
X31000D01*
X31600D02*
X32200D01*
X38500D02*
X39100D01*
X39800D02*
X47200D01*
X50400D02*
X52400D01*
X56200D02*
X58100D01*
X60800D02*
X61700D01*
X64300D02*
X66400D01*
X71300D02*
X72100D01*
X23500Y190500D02*
X24100D01*
X30400D02*
X31000D01*
X31600D02*
X32200D01*
X38500D02*
X39100D01*
X39800D02*
X47200D01*
X50100D02*
X52600D01*
X56000D02*
X58400D01*
X60800D02*
X61700D01*
X64000D02*
X66700D01*
X69000D02*
X69800D01*
X71000D02*
X72100D01*
X23500Y190400D02*
X24100D01*
X30400D02*
X31000D01*
X31600D02*
X32200D01*
X38500D02*
X39100D01*
X39800D02*
X47200D01*
X49900D02*
X52800D01*
X55800D02*
X58600D01*
X60800D02*
X61700D01*
X63900D02*
X66900D01*
X69000D02*
X69800D01*
X70800D02*
X72100D01*
X23500Y190300D02*
X24100D01*
X30400D02*
X31000D01*
X31600D02*
X32200D01*
X38500D02*
X39100D01*
X39800D02*
X47200D01*
X49800D02*
X52900D01*
X55600D02*
X58700D01*
X60800D02*
X61700D01*
X63700D02*
X67000D01*
X69000D02*
X69800D01*
X70600D02*
X72100D01*
X23500Y190200D02*
X24100D01*
X30400D02*
X31000D01*
X31600D02*
X32200D01*
X38500D02*
X39100D01*
X39800D02*
X47200D01*
X49600D02*
X53000D01*
X55500D02*
X58900D01*
X60800D02*
X61700D01*
X63600D02*
X67100D01*
X69000D02*
X69800D01*
X70500D02*
X72100D01*
X23500Y190100D02*
X24100D01*
X30400D02*
X31000D01*
X31600D02*
X32200D01*
X38500D02*
X39100D01*
X39800D02*
X47200D01*
X49500D02*
X53100D01*
X55300D02*
X59000D01*
X60800D02*
X61700D01*
X63500D02*
X67200D01*
X69000D02*
X69800D01*
X70300D02*
X72100D01*
X23500Y190000D02*
X24100D01*
X30400D02*
X31000D01*
X31600D02*
X32200D01*
X38500D02*
X39100D01*
X39800D02*
X47200D01*
X49400D02*
X51200D01*
X51400D02*
X53200D01*
X55200D02*
X57100D01*
X57300D02*
X59100D01*
X60800D02*
X61700D01*
X63400D02*
X65200D01*
X65400D02*
X67300D01*
X69000D02*
X69800D01*
X70200D02*
X72100D01*
X23500Y189900D02*
X24100D01*
X30400D02*
X31000D01*
X31600D02*
X32200D01*
X38500D02*
X39100D01*
X39800D02*
X47200D01*
X49400D02*
X50600D01*
X52000D02*
X53300D01*
X55100D02*
X56500D01*
X57800D02*
X59200D01*
X60800D02*
X61700D01*
X63300D02*
X64600D01*
X66100D02*
X67400D01*
X69000D02*
X69800D01*
X69900D02*
X70000D01*
X70100D02*
X72100D01*
X23500Y189800D02*
X24100D01*
X30400D02*
X31000D01*
X31600D02*
X32200D01*
X38500D02*
X39100D01*
X39800D02*
X47200D01*
X49300D02*
X50400D01*
X52200D02*
X53400D01*
X55000D02*
X56300D01*
X58100D02*
X59300D01*
X60800D02*
X61700D01*
X63200D02*
X64300D01*
X66300D02*
X67400D01*
X69000D02*
X69800D01*
X70100D02*
X72000D01*
X23500Y189700D02*
X24100D01*
X30400D02*
X31000D01*
X31600D02*
X32200D01*
X38500D02*
X39100D01*
X39800D02*
X47200D01*
X49200D02*
X50200D01*
X52100D02*
X52200D01*
X52400D02*
X53400D01*
X55000D02*
X56100D01*
X58200D02*
X59400D01*
X60800D02*
X61700D01*
X63200D02*
X64200D01*
X66200D02*
X66300D01*
X66500D02*
X67500D01*
X69000D02*
X69800D01*
X70000D02*
X71200D01*
X23500Y189600D02*
X24100D01*
X30400D02*
X31000D01*
X31600D02*
X32200D01*
X38500D02*
X39100D01*
X39800D02*
X47200D01*
X49200D02*
X50100D01*
X50300D02*
X50400D01*
X52500D02*
X53500D01*
X54900D02*
X56000D01*
X58100D02*
X58200D01*
X58400D02*
X59500D01*
X60800D02*
X61700D01*
X63100D02*
X64100D01*
X64200D02*
X64300D01*
X66600D02*
X67500D01*
X69000D02*
X69800D01*
X69900D02*
X70900D01*
X23500Y189500D02*
X24100D01*
X30400D02*
X31000D01*
X31600D02*
X32200D01*
X38500D02*
X39100D01*
X39800D02*
X47200D01*
X49200D02*
X50100D01*
X50200D02*
X50300D01*
X52600D02*
X53500D01*
X54800D02*
X55900D01*
X56000D02*
X56100D01*
X58500D02*
X59500D01*
X60800D02*
X61700D01*
X63100D02*
X64000D01*
X64100D02*
X64200D01*
X66600D02*
X67600D01*
X69000D02*
X69800D01*
X69900D02*
X70800D01*
X71000D02*
X71100D01*
X23500Y189400D02*
X24100D01*
X30400D02*
X31000D01*
X31600D02*
X32200D01*
X38500D02*
X39100D01*
X39800D02*
X47200D01*
X49100D02*
X50000D01*
X50100D02*
X50200D01*
X52600D02*
X53600D01*
X54700D02*
X55800D01*
X55900D02*
X56000D01*
X58600D02*
X59600D01*
X60800D02*
X61700D01*
X63000D02*
X63900D01*
X64000D02*
X64100D01*
X66700D02*
X67600D01*
X69000D02*
X70600D01*
X70800D02*
X70900D01*
X23500Y189300D02*
X24100D01*
X30400D02*
X31000D01*
X31600D02*
X32200D01*
X38500D02*
X39100D01*
X39800D02*
X47200D01*
X49100D02*
X50000D01*
X52700D02*
X53600D01*
X54700D02*
X55700D01*
X55800D02*
X55900D01*
X58700D02*
X59700D01*
X60800D02*
X61700D01*
X63000D02*
X63900D01*
X66700D02*
X67600D01*
X67700D02*
X67800D01*
X69000D02*
X70500D01*
X23500Y189200D02*
X24100D01*
X30400D02*
X31000D01*
X31600D02*
X32200D01*
X38500D02*
X39100D01*
X39800D02*
X47200D01*
X49100D02*
X50000D01*
X52700D02*
X53600D01*
X54600D02*
X55600D01*
X55700D02*
X55800D01*
X58700D02*
X59700D01*
X60800D02*
X61700D01*
X63000D02*
X63800D01*
X66700D02*
X67600D01*
X69000D02*
X70400D01*
X70500D02*
X70600D01*
X23500Y189100D02*
X24100D01*
X30400D02*
X31000D01*
X31600D02*
X32200D01*
X38500D02*
X39100D01*
X39800D02*
X47200D01*
X49100D02*
X50000D01*
X52800D02*
X53600D01*
X54600D02*
X55500D01*
X58600D02*
X58700D01*
X58800D02*
X59800D01*
X60800D02*
X61700D01*
X62900D02*
X63800D01*
X66800D02*
X67600D01*
X69000D02*
X70300D01*
X70400D02*
X70500D01*
X23500Y189000D02*
X24100D01*
X30400D02*
X31000D01*
X31600D02*
X32200D01*
X38500D02*
X39100D01*
X39800D02*
X47200D01*
X49100D02*
X50000D01*
X52800D02*
X53700D01*
X54500D02*
X55500D01*
X58900D02*
X59800D01*
X60800D02*
X61700D01*
X62900D02*
X63800D01*
X66800D02*
X67600D01*
X69000D02*
X70200D01*
X70300D02*
X70400D01*
X23500Y188900D02*
X24100D01*
X30400D02*
X31000D01*
X31600D02*
X32200D01*
X38500D02*
X39100D01*
X39800D02*
X47200D01*
X49100D02*
X50000D01*
X52600D02*
X52700D01*
X52800D02*
X53700D01*
X54500D02*
X55400D01*
X58900D02*
X59800D01*
X60800D02*
X61700D01*
X62900D02*
X63800D01*
X66800D02*
X67600D01*
X69000D02*
X70200D01*
X23500Y188800D02*
X24100D01*
X30400D02*
X31000D01*
X31600D02*
X32200D01*
X38500D02*
X39100D01*
X39800D02*
X47200D01*
X49100D02*
X50000D01*
X50100D02*
X50200D01*
X52800D02*
X53700D01*
X54500D02*
X55400D01*
X59000D02*
X59900D01*
X60800D02*
X61700D01*
X62900D02*
X63700D01*
X66800D02*
X67600D01*
X69000D02*
X70100D01*
X23500Y188700D02*
X24100D01*
X30400D02*
X31000D01*
X31600D02*
X32200D01*
X38500D02*
X39100D01*
X39800D02*
X47200D01*
X49100D02*
X50000D01*
X54400D02*
X55300D01*
X58800D02*
X58900D01*
X59000D02*
X59900D01*
X60800D02*
X61700D01*
X62900D02*
X63700D01*
X66800D02*
X67600D01*
X69000D02*
X70000D01*
X23500Y188600D02*
X24100D01*
X30400D02*
X31000D01*
X31600D02*
X32200D01*
X38500D02*
X39100D01*
X39800D02*
X47200D01*
X49100D02*
X50100D01*
X54400D02*
X55300D01*
X59000D02*
X59900D01*
X60800D02*
X61700D01*
X66800D02*
X67600D01*
X69000D02*
X70000D01*
X70100D02*
X70200D01*
X23500Y188500D02*
X24100D01*
X30400D02*
X31000D01*
X31600D02*
X32200D01*
X38500D02*
X39100D01*
X39800D02*
X47200D01*
X49200D02*
X50200D01*
X50400D02*
X50500D01*
X54400D02*
X55300D01*
X59100D02*
X60000D01*
X60800D02*
X61700D01*
X66700D02*
X67600D01*
X69000D02*
X70000D01*
X23500Y188400D02*
X24100D01*
X30400D02*
X31000D01*
X31600D02*
X32200D01*
X38500D02*
X39100D01*
X39800D02*
X47200D01*
X49200D02*
X50400D01*
X54400D02*
X55200D01*
X59100D02*
X60000D01*
X60800D02*
X61700D01*
X66700D02*
X67600D01*
X69000D02*
X69900D01*
X23500Y188300D02*
X24100D01*
X30400D02*
X31000D01*
X31600D02*
X32200D01*
X38500D02*
X39100D01*
X39800D02*
X47200D01*
X49300D02*
X50600D01*
X54300D02*
X55200D01*
X59100D02*
X60000D01*
X60100D02*
X60200D01*
X60800D02*
X61700D01*
X66600D02*
X67600D01*
X69000D02*
X69900D01*
X23500Y188200D02*
X24100D01*
X30400D02*
X31000D01*
X31600D02*
X32200D01*
X38500D02*
X39100D01*
X39800D02*
X47200D01*
X49300D02*
X50900D01*
X54300D02*
X55200D01*
X59100D02*
X60000D01*
X60800D02*
X61700D01*
X65200D02*
X65300D01*
X66400D02*
X67600D01*
X69000D02*
X69900D01*
X23500Y188100D02*
X24100D01*
X30400D02*
X31000D01*
X31600D02*
X32200D01*
X38500D02*
X39100D01*
X39800D02*
X47200D01*
X49400D02*
X51200D01*
X54300D02*
X55200D01*
X59200D02*
X60000D01*
X60800D02*
X61700D01*
X65700D02*
X67600D01*
X69000D02*
X69900D01*
X23500Y188000D02*
X24100D01*
X30400D02*
X31000D01*
X31600D02*
X32200D01*
X38500D02*
X39100D01*
X39800D02*
X47200D01*
X49500D02*
X51700D01*
X54300D02*
X55200D01*
X59200D02*
X60000D01*
X60800D02*
X61700D01*
X64900D02*
X67600D01*
X69000D02*
X69900D01*
X23500Y187900D02*
X24100D01*
X30400D02*
X31000D01*
X31600D02*
X32200D01*
X38500D02*
X39100D01*
X39800D02*
X47200D01*
X49600D02*
X52200D01*
X54300D02*
X55200D01*
X59000D02*
X59100D01*
X59200D02*
X60100D01*
X60800D02*
X61700D01*
X64300D02*
X67600D01*
X69000D02*
X69800D01*
X23500Y187800D02*
X24100D01*
X30400D02*
X31000D01*
X31600D02*
X32200D01*
X38500D02*
X39100D01*
X39800D02*
X47200D01*
X49700D02*
X52600D01*
X54300D02*
X55100D01*
X59200D02*
X60100D01*
X60800D02*
X61700D01*
X63900D02*
X67600D01*
X69000D02*
X69800D01*
X23500Y187700D02*
X24100D01*
X30400D02*
X31000D01*
X31600D02*
X32200D01*
X38500D02*
X39100D01*
X39800D02*
X47200D01*
X49900D02*
X52800D01*
X54300D02*
X55100D01*
X59200D02*
X60100D01*
X60800D02*
X61700D01*
X63600D02*
X67600D01*
X69000D02*
X69800D01*
X23500Y187600D02*
X24100D01*
X30400D02*
X31000D01*
X31600D02*
X32200D01*
X38500D02*
X39100D01*
X39800D02*
X47200D01*
X50100D02*
X53000D01*
X54300D02*
X55100D01*
X59200D02*
X60100D01*
X60800D02*
X61700D01*
X63400D02*
X66600D01*
X66800D02*
X67600D01*
X69000D02*
X69800D01*
X23500Y187500D02*
X24100D01*
X30400D02*
X31000D01*
X31600D02*
X32200D01*
X38500D02*
X39100D01*
X39800D02*
X47200D01*
X50400D02*
X53200D01*
X54300D02*
X55100D01*
X59200D02*
X60100D01*
X60800D02*
X61700D01*
X63300D02*
X66200D01*
X66800D02*
X67600D01*
X69000D02*
X69800D01*
X23500Y187400D02*
X24100D01*
X30400D02*
X31000D01*
X31600D02*
X32200D01*
X38500D02*
X39100D01*
X39800D02*
X47200D01*
X50700D02*
X53300D01*
X54300D02*
X55100D01*
X59200D02*
X60100D01*
X60800D02*
X61700D01*
X63200D02*
X65600D01*
X66800D02*
X67600D01*
X69000D02*
X69800D01*
X23500Y187300D02*
X24100D01*
X30400D02*
X31000D01*
X31600D02*
X32200D01*
X38500D02*
X39100D01*
X39800D02*
X47200D01*
X51200D02*
X53400D01*
X54300D02*
X55100D01*
X59200D02*
X60100D01*
X60800D02*
X61700D01*
X63000D02*
X64900D01*
X66800D02*
X67600D01*
X69000D02*
X69800D01*
X23500Y187200D02*
X24100D01*
X30400D02*
X31000D01*
X31600D02*
X32200D01*
X38500D02*
X39100D01*
X39800D02*
X47200D01*
X51600D02*
X53500D01*
X54300D02*
X55200D01*
X59000D02*
X59100D01*
X59200D02*
X60100D01*
X60800D02*
X61700D01*
X63000D02*
X64500D01*
X66800D02*
X67600D01*
X69000D02*
X69800D01*
X23500Y187100D02*
X24100D01*
X30400D02*
X31000D01*
X31600D02*
X32200D01*
X38500D02*
X39100D01*
X39800D02*
X47200D01*
X52000D02*
X53600D01*
X54300D02*
X55200D01*
X59200D02*
X60000D01*
X60800D02*
X61700D01*
X62900D02*
X64200D01*
X66800D02*
X67600D01*
X69000D02*
X69800D01*
X23500Y187000D02*
X24100D01*
X30400D02*
X31000D01*
X31600D02*
X32200D01*
X38500D02*
X39100D01*
X39800D02*
X47200D01*
X52300D02*
X53700D01*
X54300D02*
X55200D01*
X59200D02*
X60000D01*
X60800D02*
X61700D01*
X62800D02*
X64000D01*
X66800D02*
X67600D01*
X69000D02*
X69800D01*
X23500Y186900D02*
X24100D01*
X30400D02*
X31000D01*
X31600D02*
X32200D01*
X38500D02*
X39100D01*
X39800D02*
X47200D01*
X52600D02*
X53700D01*
X54300D02*
X55200D01*
X59100D02*
X60000D01*
X60800D02*
X61700D01*
X62800D02*
X63800D01*
X64000D02*
X64100D01*
X66800D02*
X67600D01*
X69000D02*
X69800D01*
X23500Y186800D02*
X24100D01*
X30400D02*
X31000D01*
X31600D02*
X32200D01*
X38500D02*
X39100D01*
X39800D02*
X47200D01*
X52700D02*
X53800D01*
X54300D02*
X55200D01*
X59100D02*
X60000D01*
X60100D02*
X60200D01*
X60800D02*
X61700D01*
X62700D02*
X63700D01*
X63800D02*
X63900D01*
X66800D02*
X67600D01*
X69000D02*
X69800D01*
X23500Y186700D02*
X24100D01*
X30400D02*
X31000D01*
X31600D02*
X32200D01*
X38500D02*
X39100D01*
X39800D02*
X47200D01*
X52600D02*
X52700D01*
X52800D02*
X53800D01*
X54400D02*
X55300D01*
X59100D02*
X60000D01*
X60800D02*
X61700D01*
X62700D02*
X63600D01*
X63700D02*
X63800D01*
X66800D02*
X67600D01*
X69000D02*
X69800D01*
X23500Y186600D02*
X24100D01*
X30400D02*
X31000D01*
X31600D02*
X32200D01*
X38500D02*
X39100D01*
X39800D02*
X47200D01*
X52700D02*
X52800D01*
X52900D02*
X53800D01*
X54400D02*
X55300D01*
X59100D02*
X60000D01*
X60800D02*
X61700D01*
X62700D02*
X63600D01*
X66800D02*
X67600D01*
X69000D02*
X69800D01*
X23500Y186500D02*
X24100D01*
X30400D02*
X31000D01*
X31600D02*
X32200D01*
X38500D02*
X39100D01*
X39800D02*
X47200D01*
X48900D02*
X49700D01*
X53000D02*
X53900D01*
X54400D02*
X55300D01*
X59000D02*
X59900D01*
X60800D02*
X61700D01*
X62600D02*
X63500D01*
X66700D02*
X67600D01*
X69000D02*
X69800D01*
X23500Y186400D02*
X24200D01*
X30300D02*
X31000D01*
X31600D02*
X32300D01*
X38500D02*
X39100D01*
X39800D02*
X47300D01*
X48900D02*
X49800D01*
X53000D02*
X53900D01*
X54400D02*
X55300D01*
X59000D02*
X59900D01*
X60800D02*
X61700D01*
X62600D02*
X63500D01*
X66700D02*
X67600D01*
X69000D02*
X69800D01*
X23500Y186300D02*
X24300D01*
X30200D02*
X31000D01*
X31600D02*
X32400D01*
X38400D02*
X39100D01*
X39800D02*
X47200D01*
X48900D02*
X49800D01*
X53000D02*
X53900D01*
X54500D02*
X55400D01*
X58900D02*
X59900D01*
X60800D02*
X61700D01*
X62600D02*
X63500D01*
X66700D02*
X67600D01*
X69000D02*
X69800D01*
X23600Y186200D02*
X24400D01*
X30100D02*
X30900D01*
X31700D02*
X32500D01*
X38300D02*
X39100D01*
X39800D02*
X47200D01*
X48900D02*
X49800D01*
X53000D02*
X53900D01*
X54500D02*
X55400D01*
X58900D02*
X59800D01*
X60800D02*
X61700D01*
X62600D02*
X63500D01*
X66600D02*
X67600D01*
X69000D02*
X69800D01*
X70600D02*
X73400D01*
X23700Y186100D02*
X24500D01*
X30000D02*
X30800D01*
X31800D02*
X32600D01*
X38200D02*
X39000D01*
X39900D02*
X47100D01*
X48900D02*
X49800D01*
X53000D02*
X53900D01*
X54500D02*
X55500D01*
X55600D02*
X55700D01*
X58800D02*
X59800D01*
X60800D02*
X61700D01*
X62600D02*
X63500D01*
X66400D02*
X66500D01*
X66600D02*
X67600D01*
X69000D02*
X69800D01*
X70600D02*
X73400D01*
X23800Y186000D02*
X24600D01*
X29800D02*
X30700D01*
X31700D02*
X31800D01*
X31900D02*
X32700D01*
X35100D02*
X35200D01*
X38100D02*
X38900D01*
X39800D02*
X39900D01*
X40000D02*
X47000D01*
X47100D02*
X47200D01*
X49000D02*
X49800D01*
X53000D02*
X53900D01*
X54600D02*
X55500D01*
X58600D02*
X58700D01*
X58800D02*
X59800D01*
X60800D02*
X61700D01*
X62600D02*
X63500D01*
X66600D02*
X67600D01*
X69000D02*
X69800D01*
X70600D02*
X73400D01*
X23900Y185900D02*
X30600D01*
X31800D02*
X31900D01*
X32000D02*
X38800D01*
X39900D02*
X40000D01*
X40100D02*
X46900D01*
X47000D02*
X47100D01*
X49000D02*
X49900D01*
X53000D02*
X53900D01*
X54600D02*
X55600D01*
X58500D02*
X58600D01*
X58700D02*
X59700D01*
X60800D02*
X61700D01*
X62600D02*
X63500D01*
X66300D02*
X66400D01*
X66500D02*
X67600D01*
X69000D02*
X69800D01*
X70600D02*
X73400D01*
X24000Y185800D02*
X30500D01*
X32100D02*
X38700D01*
X40000D02*
X40100D01*
X40200D02*
X46800D01*
X46900D02*
X47000D01*
X49000D02*
X49900D01*
X52900D02*
X53800D01*
X54700D02*
X55700D01*
X55800D02*
X55900D01*
X58700D02*
X59600D01*
X60800D02*
X61700D01*
X62600D02*
X63600D01*
X66200D02*
X66300D01*
X66400D02*
X67600D01*
X69000D02*
X69800D01*
X70600D02*
X73400D01*
X24100Y185700D02*
X30400D01*
X32000D02*
X32100D01*
X32200D02*
X38600D01*
X40100D02*
X40200D01*
X40300D02*
X46700D01*
X46800D02*
X46900D01*
X49100D02*
X50000D01*
X50100D02*
X50200D01*
X52700D02*
X52800D01*
X52900D02*
X53800D01*
X54700D02*
X55800D01*
X55900D02*
X56000D01*
X58600D02*
X59600D01*
X60800D02*
X61700D01*
X62700D02*
X63600D01*
X63700D02*
X63800D01*
X66100D02*
X66200D01*
X66300D02*
X67600D01*
X69000D02*
X69800D01*
X70600D02*
X73400D01*
X24200Y185600D02*
X30300D01*
X32300D02*
X38400D01*
X40200D02*
X40300D01*
X40400D02*
X46600D01*
X46700D02*
X46800D01*
X49100D02*
X50100D01*
X50200D02*
X50300D01*
X52600D02*
X52700D01*
X52800D02*
X53800D01*
X54800D02*
X55900D01*
X56000D02*
X56100D01*
X58200D02*
X58300D01*
X58500D02*
X59500D01*
X60800D02*
X61700D01*
X62700D02*
X63700D01*
X63800D02*
X63900D01*
X66200D02*
X67600D01*
X69000D02*
X69800D01*
X70600D02*
X73400D01*
X24300Y185500D02*
X30200D01*
X32400D02*
X38400D01*
X40300D02*
X40400D01*
X40500D02*
X46500D01*
X46600D02*
X46700D01*
X49100D02*
X50200D01*
X52700D02*
X53700D01*
X54900D02*
X56000D01*
X58400D02*
X59500D01*
X60800D02*
X61700D01*
X62700D02*
X63800D01*
X63900D02*
X64000D01*
X66100D02*
X67700D01*
X69000D02*
X69800D01*
X70600D02*
X73400D01*
X49200Y185400D02*
X50300D01*
X52600D02*
X53700D01*
X55000D02*
X56100D01*
X57900D02*
X58000D01*
X58200D02*
X59400D01*
X60800D02*
X61700D01*
X62800D02*
X63900D01*
X65900D02*
X66800D01*
X66900D02*
X67700D01*
X69000D02*
X69800D01*
X70600D02*
X73400D01*
X49300Y185300D02*
X50500D01*
X52400D02*
X53600D01*
X55000D02*
X56300D01*
X58000D02*
X59300D01*
X59400D02*
X59500D01*
X60800D02*
X61700D01*
X62800D02*
X64000D01*
X65700D02*
X66700D01*
X66900D02*
X67800D01*
X68200D02*
X68300D01*
X69000D02*
X69800D01*
X70600D02*
X73400D01*
X49300Y185200D02*
X50800D01*
X52100D02*
X53500D01*
X55100D02*
X56500D01*
X57800D02*
X59200D01*
X60800D02*
X61700D01*
X62900D02*
X64200D01*
X65400D02*
X66600D01*
X66900D02*
X68300D01*
X69000D02*
X69800D01*
X70600D02*
X73400D01*
X49400Y185100D02*
X53400D01*
X55200D02*
X59100D01*
X60800D02*
X61700D01*
X63000D02*
X66500D01*
X66700D02*
X66800D01*
X66900D02*
X68300D01*
X69000D02*
X69800D01*
X70600D02*
X73400D01*
X49500Y185000D02*
X53300D01*
X55400D02*
X59000D01*
X60800D02*
X61700D01*
X63000D02*
X66400D01*
X66900D02*
X68300D01*
X69000D02*
X69800D01*
X70600D02*
X73400D01*
X24300Y184900D02*
X30200D01*
X32500D02*
X38300D01*
X40600D02*
X46400D01*
X49600D02*
X53200D01*
X55500D02*
X58900D01*
X60800D02*
X61700D01*
X63100D02*
X66300D01*
X67000D02*
X68300D01*
X69000D02*
X69800D01*
X70600D02*
X73400D01*
X24200Y184800D02*
X30300D01*
X30400D02*
X30500D01*
X32400D02*
X38400D01*
X40500D02*
X46500D01*
X49800D02*
X53100D01*
X55600D02*
X58700D01*
X60800D02*
X61700D01*
X63200D02*
X66200D01*
X67100D02*
X68300D01*
X69000D02*
X69800D01*
X70600D02*
X73400D01*
X23900Y184700D02*
X24000D01*
X24100D02*
X30400D01*
X30500D02*
X30600D01*
X32300D02*
X38500D01*
X40400D02*
X46600D01*
X50000D02*
X52900D01*
X55800D02*
X58500D01*
X60800D02*
X61700D01*
X63400D02*
X66100D01*
X67200D02*
X68300D01*
X69000D02*
X69800D01*
X70600D02*
X73400D01*
X23800Y184600D02*
X23900D01*
X24000D02*
X30500D01*
X30600D02*
X30700D01*
X32200D02*
X38500D01*
X40300D02*
X46700D01*
X50200D02*
X52700D01*
X56000D02*
X58300D01*
X60800D02*
X61700D01*
X63600D02*
X65900D01*
X67300D02*
X68300D01*
X69000D02*
X69800D01*
X70600D02*
X73400D01*
X23700Y184500D02*
X23800D01*
X23900D02*
X30600D01*
X30700D02*
X30800D01*
X32100D02*
X38400D01*
X40200D02*
X46800D01*
X50400D02*
X52400D01*
X56300D02*
X58100D01*
X63800D02*
X65600D01*
X70600D02*
X73400D01*
X23600Y184400D02*
X23700D01*
X23800D02*
X30700D01*
X30800D02*
X30900D01*
X32000D02*
X38300D01*
X38400D02*
X38500D01*
X38600D02*
X38800D01*
X40100D02*
X46900D01*
X51000D02*
X51800D01*
X56800D02*
X57600D01*
X64300D02*
X65100D01*
X70600D02*
X73400D01*
X23700Y184300D02*
X24500D01*
X30000D02*
X30800D01*
X31900D02*
X32700D01*
X37400D02*
X38200D01*
X38300D02*
X38400D01*
X38500D02*
X38900D01*
X40000D02*
X47000D01*
X52100D02*
X52200D01*
X57800D02*
X57900D01*
X70600D02*
X73400D01*
X23600Y184200D02*
X24400D01*
X30100D02*
X30900D01*
X31800D02*
X32600D01*
X37300D02*
X38100D01*
X38200D02*
X38300D01*
X38400D02*
X39000D01*
X39900D02*
X47100D01*
X70600D02*
X73400D01*
X23500Y184100D02*
X24300D01*
X30200D02*
X31000D01*
X31700D02*
X32500D01*
X37200D02*
X38000D01*
X38100D02*
X38200D01*
X38300D02*
X39100D01*
X39800D02*
X47200D01*
X70600D02*
X73400D01*
X23500Y184000D02*
X24200D01*
X30300D02*
X31000D01*
X31700D02*
X32400D01*
X37100D02*
X37900D01*
X38000D02*
X38100D01*
X38200D02*
X39200D01*
X39800D02*
X47300D01*
X70600D02*
X73400D01*
X23500Y183900D02*
X24100D01*
X30400D02*
X31000D01*
X31700D02*
X32300D01*
X37000D02*
X37800D01*
X37900D02*
X38000D01*
X38100D02*
X39200D01*
X39800D02*
X47200D01*
X70600D02*
X73400D01*
X23500Y183800D02*
X24100D01*
X30400D02*
X31000D01*
X31700D02*
X32300D01*
X36900D02*
X37700D01*
X37800D02*
X37900D01*
X38000D02*
X39200D01*
X39800D02*
X47200D01*
X70600D02*
X73400D01*
X23500Y183700D02*
X24100D01*
X30400D02*
X31000D01*
X31700D02*
X32300D01*
X36800D02*
X37600D01*
X37700D02*
X37800D01*
X37900D02*
X39200D01*
X39800D02*
X47200D01*
X62700D02*
X62800D01*
X65200D02*
X65300D01*
X70600D02*
X73400D01*
X79900D02*
X80000D01*
X82000D02*
X82100D01*
X97300D02*
X97400D01*
X23500Y183600D02*
X24100D01*
X30400D02*
X31000D01*
X31700D02*
X32300D01*
X36700D02*
X37500D01*
X37600D02*
X37700D01*
X37800D02*
X39200D01*
X39800D02*
X47200D01*
X63100D02*
X64800D01*
X70600D02*
X73400D01*
X80300D02*
X81700D01*
X97700D02*
X99300D01*
X23500Y183500D02*
X24100D01*
X30400D02*
X31000D01*
X31700D02*
X32300D01*
X36600D02*
X37400D01*
X37500D02*
X37600D01*
X37700D02*
X39200D01*
X39800D02*
X47200D01*
X62400D02*
X65700D01*
X70600D02*
X73400D01*
X73500D02*
X73600D01*
X79600D02*
X82300D01*
X92300D02*
X93200D01*
X97000D02*
X100000D01*
X23500Y183400D02*
X24100D01*
X30400D02*
X31000D01*
X31700D02*
X32300D01*
X36500D02*
X37300D01*
X37400D02*
X37500D01*
X37600D02*
X39200D01*
X39800D02*
X47200D01*
X52200D02*
X53300D01*
X62000D02*
X66100D01*
X70600D02*
X73400D01*
X79300D02*
X82700D01*
X91900D02*
X93500D01*
X96600D02*
X100400D01*
X23500Y183300D02*
X24100D01*
X30400D02*
X31000D01*
X31700D02*
X32300D01*
X36400D02*
X37200D01*
X37300D02*
X37400D01*
X37500D02*
X39200D01*
X39800D02*
X47200D01*
X51600D02*
X53800D01*
X61600D02*
X66400D01*
X68900D02*
X75300D01*
X79000D02*
X83000D01*
X91600D02*
X93500D01*
X96200D02*
X100800D01*
X23500Y183200D02*
X24100D01*
X30400D02*
X31000D01*
X31700D02*
X32300D01*
X36300D02*
X37100D01*
X37200D02*
X37300D01*
X37400D02*
X39200D01*
X39800D02*
X47200D01*
X51300D02*
X54200D01*
X61400D02*
X66700D01*
X68900D02*
X75300D01*
X78700D02*
X83300D01*
X87100D02*
X89700D01*
X91400D02*
X93500D01*
X96000D02*
X101000D01*
X23500Y183100D02*
X24100D01*
X30400D02*
X31000D01*
X31700D02*
X32300D01*
X36200D02*
X37000D01*
X37100D02*
X37200D01*
X37300D02*
X39200D01*
X39800D02*
X47200D01*
X51100D02*
X54400D01*
X55600D02*
X58300D01*
X61200D02*
X66900D01*
X68900D02*
X75300D01*
X78500D02*
X83500D01*
X87100D02*
X89700D01*
X91200D02*
X93500D01*
X95800D02*
X101200D01*
X23500Y183000D02*
X24100D01*
X30400D02*
X31000D01*
X31700D02*
X32300D01*
X36100D02*
X36900D01*
X37000D02*
X37100D01*
X37200D02*
X39200D01*
X39800D02*
X47200D01*
X50900D02*
X54600D01*
X55600D02*
X58300D01*
X61000D02*
X67100D01*
X68900D02*
X75300D01*
X78300D02*
X83700D01*
X87100D02*
X89700D01*
X91000D02*
X93500D01*
X95300D02*
X95400D01*
X95600D02*
X101400D01*
X23500Y182900D02*
X24100D01*
X30400D02*
X31000D01*
X31700D02*
X32300D01*
X36000D02*
X36800D01*
X36900D02*
X37000D01*
X37100D02*
X39200D01*
X39800D02*
X47200D01*
X50700D02*
X54800D01*
X55600D02*
X58300D01*
X60800D02*
X67200D01*
X68900D02*
X75300D01*
X78100D02*
X83800D01*
X87100D02*
X89700D01*
X90900D02*
X93500D01*
X95400D02*
X101500D01*
X23500Y182800D02*
X24100D01*
X30400D02*
X31000D01*
X31700D02*
X32300D01*
X35900D02*
X36700D01*
X36800D02*
X36900D01*
X37000D02*
X39200D01*
X39800D02*
X47200D01*
X50500D02*
X54900D01*
X55600D02*
X58300D01*
X60600D02*
X67400D01*
X67500D02*
X67600D01*
X68900D02*
X75300D01*
X78000D02*
X84000D01*
X87100D02*
X89700D01*
X90700D02*
X93500D01*
X95300D02*
X101700D01*
X23500Y182700D02*
X24100D01*
X30400D02*
X31000D01*
X31700D02*
X32300D01*
X35800D02*
X36600D01*
X36700D02*
X36800D01*
X36900D02*
X39200D01*
X39800D02*
X47200D01*
X50400D02*
X55000D01*
X55600D02*
X58300D01*
X60500D02*
X67500D01*
X68900D02*
X75300D01*
X77800D02*
X84200D01*
X87100D02*
X89700D01*
X90600D02*
X93500D01*
X95200D02*
X101800D01*
X23500Y182600D02*
X24100D01*
X30400D02*
X31000D01*
X31700D02*
X32300D01*
X35700D02*
X36500D01*
X36600D02*
X36700D01*
X36800D02*
X39200D01*
X39800D02*
X47200D01*
X50000D02*
X50100D01*
X50200D02*
X55100D01*
X55600D02*
X58300D01*
X60400D02*
X67600D01*
X67700D02*
X67800D01*
X68900D02*
X75300D01*
X77700D02*
X84300D01*
X87100D02*
X89700D01*
X90500D02*
X93500D01*
X95100D02*
X101900D01*
X23500Y182500D02*
X24100D01*
X30400D02*
X31000D01*
X31700D02*
X32300D01*
X35600D02*
X36400D01*
X36500D02*
X36600D01*
X36700D02*
X39200D01*
X39800D02*
X47200D01*
X50100D02*
X55200D01*
X55600D02*
X58300D01*
X60300D02*
X67700D01*
X67800D02*
X67900D01*
X68900D02*
X75300D01*
X77600D02*
X84400D01*
X87100D02*
X89700D01*
X90400D02*
X93500D01*
X95000D02*
X102000D01*
X23500Y182400D02*
X24100D01*
X30400D02*
X31000D01*
X31700D02*
X32300D01*
X35500D02*
X36300D01*
X36400D02*
X36500D01*
X36600D02*
X39200D01*
X39800D02*
X47200D01*
X50000D02*
X55300D01*
X55400D02*
X55500D01*
X55600D02*
X58300D01*
X60200D02*
X67800D01*
X68900D02*
X75300D01*
X77500D02*
X84500D01*
X87100D02*
X89700D01*
X90300D02*
X93500D01*
X94900D02*
X102100D01*
X23500Y182300D02*
X24100D01*
X30400D02*
X31000D01*
X31700D02*
X32300D01*
X35400D02*
X36200D01*
X36300D02*
X36400D01*
X36500D02*
X39200D01*
X39800D02*
X47200D01*
X49900D02*
X55400D01*
X55600D02*
X58300D01*
X60100D02*
X67900D01*
X68900D02*
X75300D01*
X77400D02*
X84600D01*
X87100D02*
X89700D01*
X90200D02*
X93500D01*
X94800D02*
X102200D01*
X23500Y182200D02*
X24100D01*
X30400D02*
X31000D01*
X31700D02*
X32300D01*
X35300D02*
X36100D01*
X36200D02*
X36300D01*
X36400D02*
X39200D01*
X39800D02*
X47200D01*
X49800D02*
X55500D01*
X55600D02*
X58300D01*
X60000D02*
X67900D01*
X68900D02*
X75300D01*
X77300D02*
X84700D01*
X87100D02*
X89700D01*
X89900D02*
X90000D01*
X90100D02*
X93500D01*
X94700D02*
X102300D01*
X102400D02*
X102500D01*
X23500Y182100D02*
X24100D01*
X30400D02*
X31000D01*
X31700D02*
X32300D01*
X35200D02*
X36000D01*
X36100D02*
X36200D01*
X36300D02*
X39200D01*
X39800D02*
X47200D01*
X49500D02*
X49600D01*
X49700D02*
X55500D01*
X55600D02*
X58300D01*
X59900D02*
X68000D01*
X68900D02*
X75300D01*
X77200D02*
X84800D01*
X87100D02*
X89700D01*
X90000D02*
X93500D01*
X94600D02*
X102400D01*
X23500Y182000D02*
X24100D01*
X30400D02*
X31000D01*
X31700D02*
X32300D01*
X35100D02*
X35900D01*
X36000D02*
X36100D01*
X36200D02*
X39200D01*
X39800D02*
X47200D01*
X49600D02*
X58300D01*
X59800D02*
X68000D01*
X68900D02*
X75300D01*
X77100D02*
X84900D01*
X87100D02*
X89700D01*
X90000D02*
X93500D01*
X94600D02*
X102400D01*
X23500Y181900D02*
X24100D01*
X30400D02*
X31000D01*
X31700D02*
X32300D01*
X35000D02*
X35800D01*
X35900D02*
X36000D01*
X36100D02*
X39200D01*
X39800D02*
X47200D01*
X49500D02*
X58300D01*
X59700D02*
X68100D01*
X68900D02*
X75300D01*
X77000D02*
X85000D01*
X87100D02*
X89700D01*
X89900D02*
X93500D01*
X94500D02*
X102500D01*
X23500Y181800D02*
X24100D01*
X30400D02*
X31000D01*
X31700D02*
X32300D01*
X34900D02*
X35700D01*
X35800D02*
X35900D01*
X36000D02*
X39200D01*
X39800D02*
X47200D01*
X49500D02*
X58300D01*
X59700D02*
X68100D01*
X68900D02*
X75300D01*
X76900D02*
X85100D01*
X87100D02*
X89700D01*
X89800D02*
X93500D01*
X94500D02*
X102600D01*
X23500Y181700D02*
X24100D01*
X30400D02*
X31000D01*
X31700D02*
X32300D01*
X34800D02*
X35600D01*
X35700D02*
X35800D01*
X35900D02*
X39200D01*
X39800D02*
X47200D01*
X49400D02*
X58300D01*
X59600D02*
X63300D01*
X64400D02*
X68200D01*
X68900D02*
X75300D01*
X76800D02*
X85200D01*
X87100D02*
X89700D01*
X89800D02*
X93500D01*
X94400D02*
X97900D01*
X98900D02*
X102600D01*
X23500Y181600D02*
X24100D01*
X30400D02*
X31000D01*
X31700D02*
X32300D01*
X34700D02*
X35500D01*
X35600D02*
X35700D01*
X35800D02*
X39200D01*
X39800D02*
X47200D01*
X49300D02*
X58300D01*
X59600D02*
X62900D01*
X64800D02*
X68200D01*
X68900D02*
X75300D01*
X76800D02*
X85200D01*
X87100D02*
X93500D01*
X94400D02*
X97500D01*
X99400D02*
X102700D01*
X23500Y181500D02*
X24100D01*
X30400D02*
X31000D01*
X31700D02*
X32300D01*
X34600D02*
X35400D01*
X35500D02*
X35600D01*
X35700D02*
X39200D01*
X39800D02*
X47200D01*
X49300D02*
X58300D01*
X59500D02*
X62700D01*
X65000D02*
X68200D01*
X68900D02*
X75300D01*
X76700D02*
X80700D01*
X81300D02*
X85300D01*
X87100D02*
X93500D01*
X94300D02*
X97300D01*
X99600D02*
X102700D01*
X23500Y181400D02*
X24100D01*
X30400D02*
X31000D01*
X31700D02*
X32300D01*
X34500D02*
X35300D01*
X35400D02*
X35500D01*
X35600D02*
X39200D01*
X39800D02*
X47200D01*
X49200D02*
X58300D01*
X59500D02*
X62600D01*
X64900D02*
X65000D01*
X65200D02*
X68200D01*
X70600D02*
X73400D01*
X76600D02*
X80200D01*
X81800D02*
X85400D01*
X87100D02*
X93500D01*
X94300D02*
X97200D01*
X99500D02*
X99600D01*
X99800D02*
X102700D01*
X23500Y181300D02*
X24100D01*
X30400D02*
X31000D01*
X31700D02*
X32300D01*
X34400D02*
X35200D01*
X35300D02*
X35400D01*
X35500D02*
X39200D01*
X39800D02*
X47200D01*
X49100D02*
X53200D01*
X53600D02*
X58300D01*
X59400D02*
X62400D01*
X62600D02*
X62700D01*
X65000D02*
X65100D01*
X65200D02*
X68300D01*
X70600D02*
X73400D01*
X73500D02*
X73600D01*
X76600D02*
X80000D01*
X82000D02*
X85400D01*
X87100D02*
X93500D01*
X94300D02*
X97100D01*
X99700D02*
X99800D01*
X99900D02*
X102800D01*
X23500Y181200D02*
X24100D01*
X30400D02*
X31000D01*
X31700D02*
X32300D01*
X34300D02*
X35100D01*
X35200D02*
X35300D01*
X35400D02*
X39200D01*
X39800D02*
X47200D01*
X49100D02*
X52700D01*
X54200D02*
X58300D01*
X59400D02*
X62400D01*
X62500D02*
X62600D01*
X65100D02*
X65200D01*
X65300D02*
X68300D01*
X70600D02*
X73400D01*
X76500D02*
X79800D01*
X80000D02*
X80100D01*
X82200D02*
X85500D01*
X87100D02*
X93500D01*
X94300D02*
X97100D01*
X99800D02*
X99900D01*
X100000D02*
X102800D01*
X23500Y181100D02*
X24100D01*
X30400D02*
X31000D01*
X31700D02*
X32300D01*
X34200D02*
X35000D01*
X35100D02*
X35200D01*
X35300D02*
X39200D01*
X39800D02*
X47200D01*
X49000D02*
X52500D01*
X54400D02*
X58300D01*
X59400D02*
X62300D01*
X62400D02*
X62500D01*
X65400D02*
X68300D01*
X70600D02*
X73400D01*
X76500D02*
X79600D01*
X79800D02*
X79900D01*
X82300D02*
X85500D01*
X87100D02*
X93500D01*
X94300D02*
X97000D01*
X100100D02*
X102800D01*
X23500Y181000D02*
X24100D01*
X30400D02*
X31000D01*
X31700D02*
X32300D01*
X34100D02*
X34900D01*
X35000D02*
X35100D01*
X35200D02*
X39200D01*
X39800D02*
X47200D01*
X48800D02*
X48900D01*
X49000D02*
X52300D01*
X54600D02*
X58300D01*
X59400D02*
X62300D01*
X65400D02*
X68300D01*
X70600D02*
X73400D01*
X76400D02*
X79500D01*
X82200D02*
X82300D01*
X82500D02*
X85600D01*
X87100D02*
X93500D01*
X94200D02*
X97000D01*
X100100D02*
X102800D01*
X23500Y180900D02*
X24100D01*
X30400D02*
X31000D01*
X31700D02*
X32300D01*
X34000D02*
X34800D01*
X34900D02*
X35000D01*
X35100D02*
X39200D01*
X39800D02*
X47200D01*
X48900D02*
X52200D01*
X54500D02*
X54600D01*
X54800D02*
X58300D01*
X59300D02*
X62200D01*
X65400D02*
X68300D01*
X70600D02*
X73400D01*
X76400D02*
X79400D01*
X82600D02*
X85600D01*
X87100D02*
X91900D01*
X93100D02*
X93500D01*
X94200D02*
X97000D01*
X100100D02*
X102900D01*
X23500Y180800D02*
X24100D01*
X30400D02*
X31000D01*
X31700D02*
X32300D01*
X33900D02*
X34700D01*
X34800D02*
X34900D01*
X35000D02*
X39200D01*
X39800D02*
X47200D01*
X48900D02*
X52100D01*
X52200D02*
X52300D01*
X54900D02*
X58300D01*
X59300D02*
X62200D01*
X65500D02*
X68300D01*
X70600D02*
X73400D01*
X76300D02*
X79300D01*
X82700D02*
X85700D01*
X87100D02*
X91500D01*
X94200D02*
X97000D01*
X100200D02*
X102900D01*
X23500Y180700D02*
X24100D01*
X30400D02*
X31000D01*
X31700D02*
X32300D01*
X33800D02*
X34600D01*
X34700D02*
X34800D01*
X34900D02*
X39200D01*
X39800D02*
X47200D01*
X48900D02*
X52000D01*
X52100D02*
X52200D01*
X55000D02*
X58300D01*
X59300D02*
X62100D01*
X65500D02*
X68300D01*
X70600D02*
X73400D01*
X76300D02*
X79300D01*
X82700D02*
X85700D01*
X87100D02*
X91200D01*
X94200D02*
X97100D01*
X100200D02*
X102900D01*
X23500Y180600D02*
X24100D01*
X30400D02*
X31000D01*
X31700D02*
X32300D01*
X33700D02*
X34500D01*
X34600D02*
X34700D01*
X34800D02*
X39200D01*
X39800D02*
X47200D01*
X48800D02*
X51900D01*
X52000D02*
X52100D01*
X55100D02*
X58300D01*
X59300D02*
X62100D01*
X65500D02*
X68300D01*
X70600D02*
X73400D01*
X76200D02*
X79200D01*
X79300D02*
X79400D01*
X82600D02*
X82700D01*
X82800D02*
X85800D01*
X87100D02*
X91000D01*
X94200D02*
X97100D01*
X97200D02*
X97300D01*
X100200D02*
X102900D01*
X23500Y180500D02*
X24100D01*
X30400D02*
X31000D01*
X31700D02*
X32300D01*
X33600D02*
X34400D01*
X34500D02*
X34600D01*
X34700D02*
X39200D01*
X40000D02*
X46900D01*
X48800D02*
X51800D01*
X51900D02*
X52000D01*
X55100D02*
X58300D01*
X59300D02*
X62100D01*
X65500D02*
X68300D01*
X70600D02*
X73400D01*
X76200D02*
X79100D01*
X82900D02*
X85800D01*
X87100D02*
X90900D01*
X94200D02*
X97100D01*
X100200D02*
X102900D01*
X23500Y180400D02*
X24100D01*
X30400D02*
X31000D01*
X31700D02*
X32300D01*
X33500D02*
X34300D01*
X34400D02*
X34500D01*
X34600D02*
X39200D01*
X39800D02*
X47200D01*
X48800D02*
X51700D01*
X55000D02*
X55100D01*
X55200D02*
X58300D01*
X59300D02*
X62100D01*
X65500D02*
X68300D01*
X70600D02*
X73400D01*
X76200D02*
X79100D01*
X82900D02*
X85800D01*
X87100D02*
X90700D01*
X90900D02*
X91000D01*
X94200D02*
X97200D01*
X97400D02*
X97500D01*
X23500Y180300D02*
X24100D01*
X30400D02*
X31000D01*
X31700D02*
X32300D01*
X33400D02*
X34200D01*
X34300D02*
X34400D01*
X34500D02*
X39200D01*
X39800D02*
X47200D01*
X48700D02*
X51700D01*
X55200D02*
X58300D01*
X59300D02*
X62100D01*
X65500D02*
X68300D01*
X70600D02*
X73400D01*
X76100D02*
X79000D01*
X83000D02*
X85900D01*
X87100D02*
X90600D01*
X94200D02*
X97400D01*
X23500Y180200D02*
X24100D01*
X30400D02*
X31000D01*
X31700D02*
X32300D01*
X33300D02*
X34100D01*
X34200D02*
X34300D01*
X34400D02*
X39200D01*
X39800D02*
X47200D01*
X48700D02*
X51600D01*
X55300D02*
X58300D01*
X65400D02*
X68300D01*
X70600D02*
X73400D01*
X76100D02*
X79000D01*
X83000D02*
X85900D01*
X87100D02*
X90500D01*
X94200D02*
X97500D01*
X23500Y180100D02*
X24100D01*
X30400D02*
X31000D01*
X31700D02*
X32300D01*
X33200D02*
X34000D01*
X34100D02*
X34200D01*
X34300D02*
X39200D01*
X39800D02*
X47200D01*
X48700D02*
X51600D01*
X55300D02*
X58300D01*
X65200D02*
X65300D01*
X65400D02*
X68300D01*
X70600D02*
X73400D01*
X76100D02*
X78900D01*
X83100D02*
X85900D01*
X87100D02*
X90500D01*
X94200D02*
X97700D01*
X23500Y180000D02*
X24100D01*
X30400D02*
X31000D01*
X31700D02*
X32300D01*
X33100D02*
X33900D01*
X34200D02*
X39200D01*
X39800D02*
X47200D01*
X48700D02*
X51500D01*
X55400D02*
X58300D01*
X65100D02*
X65200D01*
X65300D02*
X68300D01*
X70600D02*
X73400D01*
X76000D02*
X78900D01*
X83100D02*
X85900D01*
X87100D02*
X90400D01*
X90500D02*
X90600D01*
X94300D02*
X98000D01*
X23500Y179900D02*
X24100D01*
X30400D02*
X31000D01*
X31700D02*
X32300D01*
X33000D02*
X33800D01*
X34100D02*
X39200D01*
X39800D02*
X47200D01*
X48600D02*
X51500D01*
X55400D02*
X58300D01*
X65200D02*
X68300D01*
X70600D02*
X73400D01*
X76000D02*
X78900D01*
X83100D02*
X86000D01*
X87100D02*
X90300D01*
X94300D02*
X98400D01*
X99000D02*
X99100D01*
X23500Y179800D02*
X24100D01*
X30500D02*
X31000D01*
X31700D02*
X32300D01*
X32900D02*
X33700D01*
X34000D02*
X39200D01*
X39800D02*
X47200D01*
X48600D02*
X51500D01*
X55500D02*
X58300D01*
X65100D02*
X68300D01*
X70600D02*
X73400D01*
X76000D02*
X78800D01*
X83200D02*
X86000D01*
X87100D02*
X90300D01*
X94300D02*
X98800D01*
X23500Y179700D02*
X24100D01*
X30400D02*
X31000D01*
X31700D02*
X32300D01*
X32800D02*
X33600D01*
X33900D02*
X39200D01*
X39800D02*
X47200D01*
X48600D02*
X51400D01*
X55500D02*
X58300D01*
X64800D02*
X68300D01*
X70600D02*
X73400D01*
X76000D02*
X78800D01*
X83200D02*
X86000D01*
X87100D02*
X90200D01*
X90300D02*
X90400D01*
X94300D02*
X99300D01*
X23500Y179600D02*
X24100D01*
X30400D02*
X31000D01*
X31700D02*
X32300D01*
X32700D02*
X33500D01*
X33800D02*
X39200D01*
X39800D02*
X47200D01*
X48600D02*
X51400D01*
X55500D02*
X58300D01*
X64500D02*
X68300D01*
X70600D02*
X73400D01*
X76000D02*
X78800D01*
X83000D02*
X83100D01*
X83200D02*
X86000D01*
X87100D02*
X90200D01*
X94400D02*
X99800D01*
X23500Y179500D02*
X24100D01*
X30400D02*
X31000D01*
X31700D02*
X32300D01*
X32600D02*
X33400D01*
X33700D02*
X39200D01*
X39800D02*
X47200D01*
X48600D02*
X51400D01*
X55500D02*
X58300D01*
X64000D02*
X68300D01*
X70600D02*
X73400D01*
X75900D02*
X78800D01*
X83200D02*
X86100D01*
X87100D02*
X90100D01*
X94400D02*
X100200D01*
X23500Y179400D02*
X24100D01*
X30400D02*
X31000D01*
X31700D02*
X32300D01*
X32500D02*
X33300D01*
X33600D02*
X39200D01*
X39800D02*
X47200D01*
X48500D02*
X51400D01*
X55500D02*
X58300D01*
X62000D02*
X62100D01*
X63100D02*
X68300D01*
X70600D02*
X73400D01*
X75900D02*
X78800D01*
X83200D02*
X86100D01*
X87100D02*
X90100D01*
X94500D02*
X100600D01*
X23500Y179300D02*
X24100D01*
X30400D02*
X31000D01*
X31700D02*
X32300D01*
X32400D02*
X33200D01*
X33500D02*
X39200D01*
X39800D02*
X47200D01*
X48500D02*
X51400D01*
X55600D02*
X58300D01*
X62300D02*
X68300D01*
X70600D02*
X73400D01*
X75900D02*
X78800D01*
X83200D02*
X86100D01*
X87100D02*
X90100D01*
X94500D02*
X100900D01*
X23500Y179200D02*
X24100D01*
X30400D02*
X31000D01*
X31700D02*
X33100D01*
X33400D02*
X39200D01*
X39800D02*
X47200D01*
X48500D02*
X51300D01*
X55600D02*
X58300D01*
X61800D02*
X68300D01*
X70600D02*
X73400D01*
X75900D02*
X78700D01*
X83300D02*
X86100D01*
X87100D02*
X90000D01*
X94600D02*
X101200D01*
X23500Y179100D02*
X24100D01*
X30400D02*
X31000D01*
X31700D02*
X33000D01*
X33300D02*
X39200D01*
X39800D02*
X47200D01*
X48500D02*
X51300D01*
X55600D02*
X58300D01*
X61300D02*
X68300D01*
X70600D02*
X73400D01*
X75900D02*
X78700D01*
X83300D02*
X86100D01*
X86200D02*
X86300D01*
X87100D02*
X90000D01*
X94700D02*
X101500D01*
X23500Y179000D02*
X24100D01*
X30400D02*
X31000D01*
X31700D02*
X32900D01*
X33200D02*
X39200D01*
X39800D02*
X47200D01*
X48500D02*
X51300D01*
X55600D02*
X58300D01*
X61000D02*
X68300D01*
X70600D02*
X73400D01*
X75900D02*
X78700D01*
X83300D02*
X86100D01*
X86200D02*
X86300D01*
X87100D02*
X90000D01*
X94800D02*
X101700D01*
X23500Y178900D02*
X24100D01*
X30400D02*
X31000D01*
X31700D02*
X32800D01*
X33100D02*
X39200D01*
X39800D02*
X47200D01*
X48500D02*
X51300D01*
X55600D02*
X58300D01*
X60700D02*
X68300D01*
X70600D02*
X73400D01*
X75900D02*
X78700D01*
X83300D02*
X86100D01*
X87100D02*
X90000D01*
X94900D02*
X101900D01*
X23500Y178800D02*
X24100D01*
X30400D02*
X31000D01*
X31700D02*
X32700D01*
X33000D02*
X39200D01*
X39800D02*
X47200D01*
X48500D02*
X51300D01*
X55600D02*
X58300D01*
X60500D02*
X68300D01*
X70600D02*
X73400D01*
X75900D02*
X78700D01*
X83300D02*
X86100D01*
X87100D02*
X89900D01*
X95000D02*
X102000D01*
X23500Y178700D02*
X24100D01*
X30400D02*
X31000D01*
X31700D02*
X32600D01*
X32900D02*
X39200D01*
X39800D02*
X47200D01*
X48500D02*
X51300D01*
X55600D02*
X58300D01*
X60300D02*
X68300D01*
X70600D02*
X73400D01*
X75900D02*
X78700D01*
X83300D02*
X86100D01*
X87100D02*
X89900D01*
X95100D02*
X102200D01*
X23500Y178600D02*
X24200D01*
X30300D02*
X31000D01*
X31700D02*
X32500D01*
X32800D02*
X39200D01*
X39800D02*
X47300D01*
X48500D02*
X51300D01*
X55600D02*
X58300D01*
X60100D02*
X68300D01*
X70600D02*
X73400D01*
X75900D02*
X78700D01*
X83300D02*
X86100D01*
X87100D02*
X89900D01*
X95300D02*
X102300D01*
X23500Y178500D02*
X24300D01*
X30200D02*
X31000D01*
X31700D02*
X32400D01*
X32700D02*
X39100D01*
X39800D02*
X47200D01*
X48500D02*
X51300D01*
X55600D02*
X58300D01*
X60000D02*
X68300D01*
X70600D02*
X73400D01*
X75900D02*
X78700D01*
X83300D02*
X86100D01*
X87100D02*
X89900D01*
X90000D02*
X90100D01*
X95400D02*
X102400D01*
X23600Y178400D02*
X24400D01*
X30100D02*
X30900D01*
X31700D02*
X32300D01*
X32600D02*
X39100D01*
X39800D02*
X47200D01*
X48500D02*
X51300D01*
X55600D02*
X58300D01*
X59900D02*
X68300D01*
X70600D02*
X73400D01*
X75900D02*
X78700D01*
X83300D02*
X86100D01*
X87100D02*
X89900D01*
X90000D02*
X90100D01*
X95600D02*
X102500D01*
X23700Y178300D02*
X24500D01*
X30000D02*
X30800D01*
X31800D02*
X32200D01*
X32500D02*
X39000D01*
X39900D02*
X47100D01*
X48500D02*
X51300D01*
X55600D02*
X58300D01*
X59700D02*
X68300D01*
X70600D02*
X73400D01*
X75900D02*
X78700D01*
X83300D02*
X86100D01*
X87100D02*
X89900D01*
X95800D02*
X102600D01*
X23800Y178200D02*
X30700D01*
X31900D02*
X32100D01*
X32400D02*
X38900D01*
X39000D02*
X39100D01*
X39800D02*
X39900D01*
X40000D02*
X47000D01*
X47100D02*
X47200D01*
X48500D02*
X51300D01*
X55600D02*
X58300D01*
X59600D02*
X65400D01*
X65500D02*
X68300D01*
X70600D02*
X73400D01*
X75900D02*
X78700D01*
X83300D02*
X86100D01*
X87100D02*
X89900D01*
X96100D02*
X102700D01*
X23900Y178100D02*
X30600D01*
X32300D02*
X38800D01*
X38900D02*
X39000D01*
X39900D02*
X40000D01*
X40100D02*
X46900D01*
X47000D02*
X47100D01*
X48500D02*
X51300D01*
X55600D02*
X58300D01*
X59600D02*
X65100D01*
X65500D02*
X68300D01*
X70600D02*
X73400D01*
X75900D02*
X78700D01*
X83300D02*
X86100D01*
X87100D02*
X89900D01*
X96400D02*
X102800D01*
X24000Y178000D02*
X30500D01*
X32200D02*
X38700D01*
X38800D02*
X38900D01*
X40000D02*
X40100D01*
X40200D02*
X46800D01*
X46900D02*
X47000D01*
X48500D02*
X51300D01*
X55600D02*
X58300D01*
X59500D02*
X64800D01*
X65500D02*
X68300D01*
X70600D02*
X73400D01*
X75900D02*
X78700D01*
X83300D02*
X86100D01*
X87100D02*
X89900D01*
X96800D02*
X102900D01*
X24100Y177900D02*
X30400D01*
X32200D02*
X38600D01*
X38700D02*
X38800D01*
X40100D02*
X40200D01*
X40300D02*
X46700D01*
X46800D02*
X46900D01*
X48500D02*
X51400D01*
X55600D02*
X58300D01*
X59400D02*
X64200D01*
X65500D02*
X68300D01*
X70600D02*
X73400D01*
X75900D02*
X78700D01*
X83300D02*
X86100D01*
X86200D02*
X86300D01*
X87100D02*
X89900D01*
X97100D02*
X102900D01*
X24200Y177800D02*
X30300D01*
X32300D02*
X38500D01*
X38600D02*
X38700D01*
X40200D02*
X40300D01*
X40400D02*
X46600D01*
X46700D02*
X46800D01*
X48500D02*
X51400D01*
X55600D02*
X58300D01*
X59300D02*
X63500D01*
X65500D02*
X68300D01*
X70600D02*
X73400D01*
X75900D02*
X78700D01*
X83300D02*
X86100D01*
X87100D02*
X89900D01*
X97600D02*
X103000D01*
X24300Y177700D02*
X30200D01*
X32200D02*
X32300D01*
X32400D02*
X38400D01*
X40500D02*
X46500D01*
X48500D02*
X51400D01*
X55600D02*
X58300D01*
X59300D02*
X63000D01*
X65500D02*
X68300D01*
X70600D02*
X73400D01*
X75900D02*
X78700D01*
X83200D02*
X86100D01*
X87100D02*
X89900D01*
X98000D02*
X103000D01*
X48600Y177600D02*
X51400D01*
X55500D02*
X58300D01*
X59200D02*
X62700D01*
X63100D02*
X63200D01*
X65500D02*
X68300D01*
X70600D02*
X73400D01*
X75900D02*
X78800D01*
X83200D02*
X86100D01*
X87100D02*
X89900D01*
X97800D02*
X97900D01*
X98400D02*
X103000D01*
X48600Y177500D02*
X51400D01*
X55500D02*
X58300D01*
X59200D02*
X62400D01*
X65500D02*
X68300D01*
X70600D02*
X73400D01*
X75900D02*
X78800D01*
X83200D02*
X86100D01*
X87100D02*
X89900D01*
X98800D02*
X103100D01*
X48600Y177400D02*
X51500D01*
X55500D02*
X58300D01*
X59100D02*
X62300D01*
X65500D02*
X68300D01*
X70600D02*
X73400D01*
X76000D02*
X78800D01*
X83000D02*
X83100D01*
X83200D02*
X86000D01*
X87100D02*
X89900D01*
X99200D02*
X103100D01*
X48600Y177300D02*
X51500D01*
X55500D02*
X58300D01*
X59100D02*
X62100D01*
X62300D02*
X62400D01*
X65500D02*
X68300D01*
X70600D02*
X73400D01*
X76000D02*
X78800D01*
X83200D02*
X86000D01*
X87100D02*
X89900D01*
X99500D02*
X103100D01*
X48600Y177200D02*
X51500D01*
X55400D02*
X58300D01*
X59100D02*
X62000D01*
X65500D02*
X68300D01*
X70600D02*
X73400D01*
X76000D02*
X78800D01*
X83200D02*
X86000D01*
X87100D02*
X89900D01*
X99700D02*
X103100D01*
X24300Y177100D02*
X30200D01*
X32400D02*
X38300D01*
X40600D02*
X46400D01*
X48600D02*
X51600D01*
X55400D02*
X58300D01*
X59000D02*
X62000D01*
X65500D02*
X68300D01*
X70600D02*
X73400D01*
X76000D02*
X78900D01*
X83100D02*
X86000D01*
X87100D02*
X89900D01*
X99900D02*
X103200D01*
X24000Y177000D02*
X24100D01*
X24200D02*
X30300D01*
X30400D02*
X30500D01*
X32100D02*
X32200D01*
X32300D02*
X38400D01*
X40500D02*
X46500D01*
X48700D02*
X51600D01*
X55300D02*
X58300D01*
X59000D02*
X61900D01*
X62000D02*
X62100D01*
X65400D02*
X68300D01*
X70600D02*
X73400D01*
X76000D02*
X78900D01*
X83100D02*
X86000D01*
X87100D02*
X89900D01*
X99800D02*
X99900D01*
X100100D02*
X103200D01*
X23900Y176900D02*
X24000D01*
X24100D02*
X30400D01*
X30500D02*
X30600D01*
X32000D02*
X32100D01*
X32200D02*
X38500D01*
X40400D02*
X46600D01*
X48700D02*
X51700D01*
X55300D02*
X58300D01*
X59000D02*
X61900D01*
X65400D02*
X68300D01*
X70600D02*
X73400D01*
X76100D02*
X78900D01*
X83100D02*
X85900D01*
X87100D02*
X89900D01*
X100200D02*
X103200D01*
X23800Y176800D02*
X23900D01*
X24000D02*
X30500D01*
X30600D02*
X30700D01*
X31900D02*
X32000D01*
X32100D02*
X38600D01*
X40300D02*
X46700D01*
X48700D02*
X51700D01*
X51800D02*
X51900D01*
X55200D02*
X58300D01*
X58800D02*
X58900D01*
X59000D02*
X61800D01*
X65400D02*
X68300D01*
X70600D02*
X73400D01*
X76100D02*
X79000D01*
X83000D02*
X85900D01*
X87100D02*
X89900D01*
X94000D02*
X96700D01*
X100300D02*
X103200D01*
X23900Y176700D02*
X30600D01*
X30700D02*
X30800D01*
X32000D02*
X38700D01*
X40200D02*
X46800D01*
X48700D02*
X51800D01*
X55200D02*
X58300D01*
X59000D02*
X61800D01*
X65400D02*
X68300D01*
X70600D02*
X73400D01*
X76100D02*
X79000D01*
X83000D02*
X85900D01*
X87100D02*
X89900D01*
X94000D02*
X96700D01*
X100100D02*
X100200D01*
X100300D02*
X103200D01*
X23600Y176600D02*
X23700D01*
X23800D02*
X30700D01*
X30800D02*
X30900D01*
X31700D02*
X31800D01*
X31900D02*
X38800D01*
X40100D02*
X46900D01*
X48800D02*
X51800D01*
X54900D02*
X55000D01*
X55100D02*
X58300D01*
X59000D02*
X61800D01*
X65400D02*
X68300D01*
X70600D02*
X73400D01*
X76200D02*
X79100D01*
X82900D02*
X85800D01*
X87100D02*
X89900D01*
X94000D02*
X96700D01*
X100300D02*
X103200D01*
X23700Y176500D02*
X30800D01*
X31800D02*
X38900D01*
X40000D02*
X47000D01*
X48800D02*
X51900D01*
X52000D02*
X52100D01*
X54800D02*
X54900D01*
X55000D02*
X58300D01*
X59000D02*
X61800D01*
X65400D02*
X68300D01*
X70600D02*
X73400D01*
X76200D02*
X79100D01*
X82900D02*
X85800D01*
X87100D02*
X89900D01*
X94000D02*
X96700D01*
X100400D02*
X103200D01*
X23600Y176400D02*
X30900D01*
X31700D02*
X39000D01*
X39900D02*
X47100D01*
X48800D02*
X52000D01*
X52100D02*
X52200D01*
X54700D02*
X54800D01*
X54900D02*
X58300D01*
X59000D02*
X61800D01*
X65300D02*
X68300D01*
X70600D02*
X73400D01*
X76200D02*
X79200D01*
X79300D02*
X79400D01*
X82600D02*
X82700D01*
X82800D02*
X85800D01*
X87100D02*
X89900D01*
X94000D02*
X96700D01*
X100400D02*
X103200D01*
X23500Y176300D02*
X31000D01*
X31700D02*
X39100D01*
X39800D02*
X47200D01*
X48900D02*
X52100D01*
X54800D02*
X58300D01*
X59000D02*
X61800D01*
X65300D02*
X68300D01*
X70600D02*
X73400D01*
X76300D02*
X79200D01*
X82700D02*
X85700D01*
X87100D02*
X89900D01*
X94000D02*
X96700D01*
X100300D02*
X103100D01*
X23500Y176200D02*
X31000D01*
X31600D02*
X39100D01*
X39800D02*
X47300D01*
X48900D02*
X52200D01*
X54700D02*
X58300D01*
X59000D02*
X61800D01*
X65200D02*
X68300D01*
X70600D02*
X73400D01*
X76300D02*
X79300D01*
X82700D02*
X85700D01*
X87100D02*
X89900D01*
X94000D02*
X96800D01*
X100300D02*
X103100D01*
X23500Y176100D02*
X31000D01*
X31600D02*
X39100D01*
X39800D02*
X47200D01*
X48900D02*
X52400D01*
X54500D02*
X58300D01*
X59000D02*
X61800D01*
X65200D02*
X68300D01*
X70600D02*
X73500D01*
X76400D02*
X79400D01*
X82600D02*
X85600D01*
X87100D02*
X89900D01*
X94100D02*
X96800D01*
X100300D02*
X103100D01*
X23500Y176000D02*
X31000D01*
X31600D02*
X39100D01*
X39800D02*
X47200D01*
X49000D02*
X52500D01*
X54300D02*
X58300D01*
X59000D02*
X61800D01*
X64900D02*
X65000D01*
X65100D02*
X68300D01*
X70600D02*
X73500D01*
X73600D02*
X73700D01*
X76400D02*
X79500D01*
X82500D02*
X85600D01*
X87100D02*
X89900D01*
X94100D02*
X96900D01*
X97000D02*
X97100D01*
X100300D02*
X103100D01*
X23500Y175900D02*
X31000D01*
X31600D02*
X39100D01*
X39800D02*
X47200D01*
X49000D02*
X52800D01*
X54000D02*
X58300D01*
X58800D02*
X58900D01*
X59000D02*
X61900D01*
X64800D02*
X64900D01*
X65000D02*
X68300D01*
X70600D02*
X73600D01*
X76500D02*
X79600D01*
X79800D02*
X79900D01*
X82100D02*
X82200D01*
X82400D02*
X85500D01*
X87100D02*
X89900D01*
X94100D02*
X97000D01*
X97100D02*
X97200D01*
X100000D02*
X100100D01*
X100200D02*
X103100D01*
X23500Y175800D02*
X31000D01*
X31600D02*
X39100D01*
X39800D02*
X47200D01*
X49100D02*
X58300D01*
X58800D02*
X58900D01*
X59000D02*
X61900D01*
X64700D02*
X64800D01*
X65000D02*
X68300D01*
X70600D02*
X73800D01*
X76500D02*
X79800D01*
X82200D02*
X85500D01*
X87100D02*
X89900D01*
X94100D02*
X97100D01*
X97200D02*
X97300D01*
X99900D02*
X100000D01*
X100100D02*
X103000D01*
X23500Y175700D02*
X31000D01*
X31600D02*
X39100D01*
X39800D02*
X47200D01*
X49100D02*
X58300D01*
X59000D02*
X62000D01*
X62100D02*
X62200D01*
X64600D02*
X64700D01*
X64800D02*
X68300D01*
X70600D02*
X75300D01*
X76600D02*
X79900D01*
X82000D02*
X85400D01*
X87100D02*
X89900D01*
X94200D02*
X97200D01*
X99800D02*
X99900D01*
X100100D02*
X103000D01*
X23500Y175600D02*
X31000D01*
X31600D02*
X39100D01*
X39800D02*
X47200D01*
X49200D02*
X58300D01*
X59000D02*
X62100D01*
X62300D02*
X62400D01*
X64400D02*
X64500D01*
X64700D02*
X68300D01*
X70600D02*
X75300D01*
X76600D02*
X80200D01*
X81800D02*
X85400D01*
X87100D02*
X89900D01*
X94200D02*
X97300D01*
X99600D02*
X99700D01*
X99900D02*
X103000D01*
X23500Y175500D02*
X31000D01*
X31600D02*
X39100D01*
X39800D02*
X47200D01*
X49200D02*
X58300D01*
X59100D02*
X62200D01*
X64600D02*
X68300D01*
X70600D02*
X75300D01*
X76700D02*
X80700D01*
X81300D02*
X85300D01*
X87100D02*
X89900D01*
X94300D02*
X97500D01*
X99800D02*
X102900D01*
X23500Y175400D02*
X31000D01*
X31600D02*
X39100D01*
X39800D02*
X47200D01*
X49300D02*
X58300D01*
X59100D02*
X62400D01*
X63200D02*
X63300D01*
X63400D02*
X63600D01*
X64300D02*
X68300D01*
X68400D02*
X68500D01*
X70600D02*
X75300D01*
X76800D02*
X85200D01*
X87100D02*
X89900D01*
X94300D02*
X97700D01*
X98500D02*
X98600D01*
X98700D02*
X98800D01*
X99500D02*
X102900D01*
X23500Y175300D02*
X31000D01*
X31600D02*
X39100D01*
X39800D02*
X47200D01*
X49400D02*
X58300D01*
X59100D02*
X62800D01*
X63900D02*
X68300D01*
X68400D02*
X68500D01*
X70600D02*
X75300D01*
X76800D02*
X85200D01*
X87100D02*
X89900D01*
X94400D02*
X98200D01*
X99100D02*
X102900D01*
X23500Y175200D02*
X31000D01*
X31600D02*
X39100D01*
X39800D02*
X47200D01*
X49500D02*
X58300D01*
X59200D02*
X68300D01*
X70600D02*
X75300D01*
X76900D02*
X85100D01*
X87100D02*
X89900D01*
X94400D02*
X102800D01*
X23500Y175100D02*
X31000D01*
X31600D02*
X39100D01*
X39800D02*
X47200D01*
X49500D02*
X58300D01*
X59200D02*
X68300D01*
X70600D02*
X75300D01*
X77000D02*
X85000D01*
X87100D02*
X89900D01*
X94500D02*
X102700D01*
X23500Y175000D02*
X31000D01*
X31600D02*
X39100D01*
X39800D02*
X47200D01*
X49600D02*
X58300D01*
X59200D02*
X68300D01*
X70700D02*
X75300D01*
X77100D02*
X84900D01*
X87100D02*
X89900D01*
X94600D02*
X102700D01*
X23500Y174900D02*
X31000D01*
X31600D02*
X39100D01*
X39800D02*
X47200D01*
X49500D02*
X49600D01*
X49700D02*
X55500D01*
X55600D02*
X58300D01*
X59300D02*
X68300D01*
X70700D02*
X75300D01*
X77200D02*
X84800D01*
X87100D02*
X89900D01*
X94600D02*
X102600D01*
X23500Y174800D02*
X31000D01*
X31600D02*
X39100D01*
X39800D02*
X47200D01*
X49800D02*
X55400D01*
X55600D02*
X58300D01*
X59300D02*
X68300D01*
X70700D02*
X75300D01*
X77300D02*
X84700D01*
X87100D02*
X89900D01*
X94700D02*
X102500D01*
X23500Y174700D02*
X31000D01*
X31600D02*
X39100D01*
X39800D02*
X47200D01*
X49900D02*
X55300D01*
X55600D02*
X58300D01*
X59400D02*
X68400D01*
X70800D02*
X75300D01*
X77400D02*
X84600D01*
X87100D02*
X89900D01*
X94600D02*
X94700D01*
X94800D02*
X102400D01*
X23500Y174600D02*
X31000D01*
X31600D02*
X39100D01*
X39800D02*
X47200D01*
X50000D02*
X55200D01*
X55400D02*
X55500D01*
X55600D02*
X58300D01*
X59500D02*
X68400D01*
X70900D02*
X75300D01*
X77500D02*
X84500D01*
X87100D02*
X89900D01*
X94900D02*
X102300D01*
X23500Y174500D02*
X31000D01*
X31600D02*
X39100D01*
X39800D02*
X47200D01*
X49900D02*
X50000D01*
X50100D02*
X55100D01*
X55600D02*
X58300D01*
X59500D02*
X68400D01*
X70900D02*
X75300D01*
X77600D02*
X84400D01*
X87100D02*
X89900D01*
X94800D02*
X94900D01*
X95000D02*
X102200D01*
X23500Y174400D02*
X31000D01*
X31600D02*
X39100D01*
X39800D02*
X47200D01*
X50300D02*
X55000D01*
X55600D02*
X58300D01*
X59600D02*
X65500D01*
X65600D02*
X68400D01*
X71000D02*
X75300D01*
X77700D02*
X84300D01*
X87100D02*
X89900D01*
X95100D02*
X102100D01*
X23500Y174300D02*
X31000D01*
X31600D02*
X39100D01*
X39800D02*
X47200D01*
X50400D02*
X54900D01*
X55600D02*
X58300D01*
X59700D02*
X65400D01*
X65600D02*
X68400D01*
X71100D02*
X75300D01*
X77800D02*
X84200D01*
X84300D02*
X84400D01*
X87100D02*
X89900D01*
X95000D02*
X95100D01*
X95200D02*
X102000D01*
X23500Y174200D02*
X31000D01*
X31600D02*
X39100D01*
X39800D02*
X47200D01*
X50600D02*
X54700D01*
X55600D02*
X58300D01*
X59800D02*
X65300D01*
X65400D02*
X65500D01*
X65600D02*
X68400D01*
X71200D02*
X75300D01*
X78000D02*
X84000D01*
X87100D02*
X89900D01*
X95400D02*
X101900D01*
X23500Y174100D02*
X31000D01*
X31600D02*
X39100D01*
X39800D02*
X47200D01*
X50800D02*
X54500D01*
X55600D02*
X58300D01*
X60000D02*
X65100D01*
X65700D02*
X68500D01*
X71300D02*
X75300D01*
X78100D02*
X83800D01*
X87100D02*
X89900D01*
X95500D02*
X101700D01*
X23500Y174000D02*
X31000D01*
X31600D02*
X39100D01*
X39800D02*
X47200D01*
X51000D02*
X54300D01*
X55600D02*
X58300D01*
X60100D02*
X65000D01*
X65700D02*
X68500D01*
X71400D02*
X75300D01*
X78300D02*
X83700D01*
X87100D02*
X89900D01*
X95400D02*
X95500D01*
X95700D02*
X101600D01*
X23500Y173900D02*
X31000D01*
X31600D02*
X39100D01*
X39800D02*
X47200D01*
X51300D02*
X54000D01*
X55600D02*
X58300D01*
X60200D02*
X64800D01*
X65700D02*
X68500D01*
X71600D02*
X75300D01*
X78500D02*
X83500D01*
X87100D02*
X89900D01*
X95900D02*
X101400D01*
X23500Y173800D02*
X31000D01*
X31600D02*
X39100D01*
X39800D02*
X47200D01*
X51600D02*
X53700D01*
X55600D02*
X58300D01*
X60400D02*
X64600D01*
X65700D02*
X68600D01*
X71800D02*
X75300D01*
X78700D02*
X83300D01*
X87100D02*
X89900D01*
X96100D02*
X101200D01*
X23500Y173700D02*
X31000D01*
X31600D02*
X39100D01*
X39800D02*
X47200D01*
X52500D02*
X53000D01*
X55600D02*
X58300D01*
X60600D02*
X64300D01*
X65800D02*
X68600D01*
X72100D02*
X75300D01*
X79000D02*
X83000D01*
X87100D02*
X89900D01*
X96400D02*
X100900D01*
X23500Y173600D02*
X31000D01*
X31600D02*
X39100D01*
X39800D02*
X47200D01*
X51900D02*
X52000D01*
X55600D02*
X58300D01*
X58400D02*
X58500D01*
X60900D02*
X64000D01*
X72600D02*
X75100D01*
X79300D02*
X82700D01*
X87100D02*
X89900D01*
X96700D02*
X100600D01*
X23500Y173500D02*
X31000D01*
X31600D02*
X39100D01*
X39800D02*
X47200D01*
X55600D02*
X58300D01*
X61200D02*
X63600D01*
X79700D02*
X82300D01*
X97200D02*
X100100D01*
X23500Y173400D02*
X31000D01*
X31600D02*
X39100D01*
X39800D02*
X47200D01*
X55600D02*
X58300D01*
X61900D02*
X62900D01*
X80500D02*
X81500D01*
X98100D02*
X99200D01*
X23500Y173300D02*
X31000D01*
X31600D02*
X39100D01*
X39800D02*
X47200D01*
X55600D02*
X58300D01*
X61500D02*
X61600D01*
X97600D02*
X97700D01*
X99600D02*
X99700D01*
X23500Y173200D02*
X31000D01*
X31600D02*
X39100D01*
X39800D02*
X47200D01*
X55600D02*
X58200D01*
X23500Y173100D02*
X31000D01*
X31600D02*
X39100D01*
X39800D02*
X47200D01*
X55500D02*
X58200D01*
X23500Y173000D02*
X31000D01*
X31600D02*
X39100D01*
X39800D02*
X47200D01*
X48900D02*
X51500D01*
X55500D02*
X58200D01*
X23500Y172900D02*
X31000D01*
X31600D02*
X39100D01*
X39800D02*
X47200D01*
X48800D02*
X51600D01*
X55500D02*
X58200D01*
X23500Y172800D02*
X31000D01*
X31600D02*
X39100D01*
X39800D02*
X47200D01*
X48800D02*
X51700D01*
X55400D02*
X58200D01*
X23500Y172700D02*
X31000D01*
X31600D02*
X39100D01*
X39800D02*
X47200D01*
X48800D02*
X51700D01*
X55200D02*
X55300D01*
X55400D02*
X58100D01*
X23500Y172600D02*
X31000D01*
X31600D02*
X39100D01*
X39800D02*
X47200D01*
X48800D02*
X51700D01*
X55300D02*
X58100D01*
X23500Y172500D02*
X31000D01*
X31600D02*
X39100D01*
X39800D02*
X47200D01*
X48900D02*
X51800D01*
X55300D02*
X58100D01*
X23500Y172400D02*
X31000D01*
X31600D02*
X39100D01*
X39800D02*
X47200D01*
X48900D02*
X51800D01*
X55000D02*
X55100D01*
X55200D02*
X58100D01*
X23500Y172300D02*
X31000D01*
X31600D02*
X39100D01*
X39800D02*
X47200D01*
X48900D02*
X51900D01*
X52000D02*
X52100D01*
X54900D02*
X55000D01*
X55100D02*
X58000D01*
X23500Y172200D02*
X31000D01*
X31600D02*
X39100D01*
X39800D02*
X47200D01*
X48900D02*
X52000D01*
X52100D02*
X52200D01*
X54800D02*
X54900D01*
X55000D02*
X58000D01*
X23500Y172100D02*
X31000D01*
X31600D02*
X39100D01*
X39800D02*
X47200D01*
X49000D02*
X52100D01*
X54700D02*
X54800D01*
X54900D02*
X57900D01*
X23500Y172000D02*
X31000D01*
X31600D02*
X39100D01*
X39800D02*
X47200D01*
X49000D02*
X52200D01*
X54800D02*
X57900D01*
X23500Y171900D02*
X31000D01*
X31600D02*
X39100D01*
X39800D02*
X47200D01*
X49100D02*
X52400D01*
X54600D02*
X57800D01*
X23500Y171800D02*
X31000D01*
X31600D02*
X39100D01*
X39800D02*
X47200D01*
X49100D02*
X52700D01*
X54400D02*
X57800D01*
X23500Y171700D02*
X31000D01*
X31600D02*
X39100D01*
X39800D02*
X47200D01*
X49200D02*
X53200D01*
X53900D02*
X57700D01*
X23500Y171600D02*
X31000D01*
X31600D02*
X39100D01*
X39800D02*
X47200D01*
X49200D02*
X57600D01*
X23500Y171500D02*
X31000D01*
X31600D02*
X39100D01*
X39800D02*
X47200D01*
X49300D02*
X57600D01*
X23500Y171400D02*
X31000D01*
X31600D02*
X39100D01*
X39800D02*
X47200D01*
X49400D02*
X57500D01*
X57600D02*
X57700D01*
X23500Y171300D02*
X31000D01*
X31600D02*
X39100D01*
X39800D02*
X47200D01*
X49400D02*
X57400D01*
X23500Y171200D02*
X31000D01*
X31600D02*
X39100D01*
X39800D02*
X47200D01*
X49500D02*
X57300D01*
X23500Y171100D02*
X31000D01*
X31600D02*
X39100D01*
X39800D02*
X47200D01*
X49600D02*
X57200D01*
X23500Y171000D02*
X31000D01*
X31600D02*
X39100D01*
X39800D02*
X47200D01*
X49500D02*
X49600D01*
X49700D02*
X57100D01*
X23500Y170900D02*
X31000D01*
X31600D02*
X39100D01*
X39800D02*
X47200D01*
X49600D02*
X49700D01*
X49800D02*
X57000D01*
X23500Y170800D02*
X31000D01*
X31600D02*
X39100D01*
X39800D02*
X47300D01*
X49900D02*
X56900D01*
X23500Y170700D02*
X31000D01*
X31600D02*
X39100D01*
X39800D02*
X47200D01*
X50100D02*
X56700D01*
X56900D02*
X57000D01*
X23600Y170600D02*
X30900D01*
X31700D02*
X39100D01*
X39800D02*
X47200D01*
X50200D02*
X56600D01*
X23700Y170500D02*
X30800D01*
X31800D02*
X39000D01*
X39900D02*
X47100D01*
X50400D02*
X56400D01*
X23800Y170400D02*
X30700D01*
X31700D02*
X31800D01*
X31900D02*
X38900D01*
X39800D02*
X39900D01*
X40000D02*
X47000D01*
X47100D02*
X47200D01*
X50600D02*
X56200D01*
X23900Y170300D02*
X30600D01*
X32000D02*
X38800D01*
X39900D02*
X40000D01*
X40100D02*
X46900D01*
X47000D02*
X47100D01*
X50700D02*
X56000D01*
X24000Y170200D02*
X30500D01*
X31900D02*
X32000D01*
X32100D02*
X38700D01*
X40000D02*
X40100D01*
X40200D02*
X46800D01*
X46900D02*
X47000D01*
X50600D02*
X50700D01*
X51000D02*
X55800D01*
X24100Y170100D02*
X30400D01*
X32200D02*
X38600D01*
X40100D02*
X40200D01*
X40300D02*
X46700D01*
X46800D02*
X46900D01*
X51200D02*
X55500D01*
X24200Y170000D02*
X30300D01*
X32100D02*
X32200D01*
X32300D02*
X38500D01*
X40200D02*
X40300D01*
X40400D02*
X46600D01*
X46700D02*
X46800D01*
X51600D02*
X55200D01*
X24300Y169900D02*
X30200D01*
X32400D02*
X38400D01*
X40500D02*
X46500D01*
X52000D02*
X54700D01*
X52700Y169800D02*
X53800D01*
D15*
X182500Y68750D02*
X182250Y68999D01*
X181750D01*
X181500Y68750D01*
Y67750D01*
X181750Y67500D01*
X182250D01*
X182500Y67750D01*
Y68250D01*
X182000D01*
X183000Y67500D02*
Y68999D01*
X183999Y67500D01*
Y68999D01*
X184499D02*
Y67500D01*
X185249D01*
X185499Y67750D01*
Y68750D01*
X185249Y68999D01*
X184499D01*
X204501Y44000D02*
X206500D01*
Y45000D01*
X206167Y45333D01*
X205834D01*
X205500Y45000D01*
Y44000D01*
Y45000D01*
X205167Y45333D01*
X204834D01*
X204501Y45000D01*
Y44000D01*
X205167Y45999D02*
X206500D01*
X205834D01*
X205500Y46333D01*
X205167Y46666D01*
Y46999D01*
Y48332D02*
Y48998D01*
X205500Y49332D01*
X206500D01*
Y48332D01*
X206167Y47999D01*
X205834Y48332D01*
Y49332D01*
X206500Y49998D02*
X204501D01*
X205834D02*
X205167Y50998D01*
X205834Y49998D02*
X206500Y50998D01*
Y52997D02*
Y52331D01*
X206167Y51997D01*
X205500D01*
X205167Y52331D01*
Y52997D01*
X205500Y53330D01*
X205834D01*
Y51997D01*
X206833Y53997D02*
Y55330D01*
X204501Y55996D02*
Y56662D01*
Y56329D01*
X206500D01*
Y55996D01*
Y56662D01*
Y57662D02*
X205167D01*
Y58662D01*
X205500Y58995D01*
X206500D01*
X192834Y46833D02*
X192501Y46500D01*
Y45833D01*
X192834Y45500D01*
X194167D01*
X194500Y45833D01*
Y46500D01*
X194167Y46833D01*
X193500D01*
Y46166D01*
X194500Y47499D02*
X192501D01*
X194500Y48832D01*
X192501D01*
Y49499D02*
X194500D01*
Y50498D01*
X194167Y50832D01*
X192834D01*
X192501Y50498D01*
Y49499D01*
X204501Y62000D02*
X206500D01*
Y63000D01*
X206167Y63333D01*
X205834D01*
X205500Y63000D01*
Y62000D01*
Y63000D01*
X205167Y63333D01*
X204834D01*
X204501Y63000D01*
Y62000D01*
X205167Y63999D02*
X206500D01*
X205834D01*
X205500Y64333D01*
X205167Y64666D01*
Y64999D01*
Y66332D02*
Y66998D01*
X205500Y67332D01*
X206500D01*
Y66332D01*
X206167Y65999D01*
X205834Y66332D01*
Y67332D01*
X206500Y67998D02*
X204501D01*
X205834D02*
X205167Y68998D01*
X205834Y67998D02*
X206500Y68998D01*
Y70997D02*
Y70331D01*
X206167Y69997D01*
X205500D01*
X205167Y70331D01*
Y70997D01*
X205500Y71330D01*
X205834D01*
Y69997D01*
X206833Y71997D02*
Y73330D01*
X206500Y74329D02*
Y74996D01*
X206167Y75329D01*
X205500D01*
X205167Y74996D01*
Y74329D01*
X205500Y73996D01*
X206167D01*
X206500Y74329D01*
X205167Y75995D02*
X206167D01*
X206500Y76329D01*
Y77328D01*
X205167D01*
X204834Y78328D02*
X205167D01*
Y77995D01*
Y78661D01*
Y78328D01*
X206167D01*
X206500Y78661D01*
X163000Y80750D02*
X162750Y80999D01*
X162250D01*
X162000Y80750D01*
Y79750D01*
X162250Y79500D01*
X162750D01*
X163000Y79750D01*
Y80250D01*
X162500D01*
X163499Y79500D02*
Y80999D01*
X164499Y79500D01*
Y80999D01*
X164999D02*
Y79500D01*
X165749D01*
X165999Y79750D01*
Y80750D01*
X165749Y80999D01*
X164999D01*
X163000Y90750D02*
X162750Y91000D01*
X162250D01*
X162000Y90750D01*
Y89750D01*
X162250Y89500D01*
X162750D01*
X163000Y89750D01*
X163499Y89500D02*
Y90500D01*
X163999Y91000D01*
X164499Y90500D01*
Y89500D01*
Y90250D01*
X163499D01*
X164999Y89500D02*
Y91000D01*
X165999Y89500D01*
Y91000D01*
X166499D02*
Y89500D01*
Y90250D01*
X167498D01*
Y91000D01*
Y89500D01*
X125500Y91000D02*
X124500D01*
Y90250D01*
X125000Y90500D01*
X125250D01*
X125500Y90250D01*
Y89750D01*
X125250Y89500D01*
X124750D01*
X124500Y89750D01*
X125999Y91000D02*
Y90000D01*
X126499Y89500D01*
X126999Y90000D01*
Y91000D01*
X125500Y85750D02*
X125250Y86000D01*
X124750D01*
X124500Y85750D01*
Y84750D01*
X124750Y84500D01*
X125250D01*
X125500Y84750D01*
X125999Y84500D02*
Y85500D01*
X126499Y86000D01*
X126999Y85500D01*
Y84500D01*
Y85250D01*
X125999D01*
X127499Y84500D02*
Y86000D01*
X128499Y84500D01*
Y86000D01*
X128999D02*
Y84500D01*
X129998D01*
X124500Y79500D02*
Y80999D01*
X125250D01*
X125500Y80750D01*
Y80250D01*
X125250Y80000D01*
X124500D01*
X125000D02*
X125500Y79500D01*
X125999Y80500D02*
X126999Y79500D01*
X126499Y80000D01*
X126999Y80500D01*
X125999Y79500D01*
X163000Y85750D02*
X162750Y86000D01*
X162250D01*
X162000Y85750D01*
Y84750D01*
X162250Y84500D01*
X162750D01*
X163000Y84750D01*
Y85250D01*
X162500D01*
X163499Y84500D02*
Y86000D01*
X164499Y84500D01*
Y86000D01*
X164999D02*
Y84500D01*
X165749D01*
X165999Y84750D01*
Y85750D01*
X165749Y86000D01*
X164999D01*
X162000Y75999D02*
X163000D01*
X162500D01*
Y74500D01*
X163499Y75500D02*
X164499Y74500D01*
X163999Y75000D01*
X164499Y75500D01*
X163499Y74500D01*
X124500Y75750D02*
X124750Y75999D01*
X125250D01*
X125500Y75750D01*
Y75500D01*
X125250Y75250D01*
X125000D01*
X125250D01*
X125500Y75000D01*
Y74750D01*
X125250Y74500D01*
X124750D01*
X124500Y74750D01*
X125999Y75999D02*
Y75000D01*
X126499Y74500D01*
X126999Y75000D01*
Y75999D01*
X127499Y75750D02*
X127749Y75999D01*
X128249D01*
X128499Y75750D01*
Y75500D01*
X128249Y75250D01*
X127999D01*
X128249D01*
X128499Y75000D01*
Y74750D01*
X128249Y74500D01*
X127749D01*
X127499Y74750D01*
X206333Y18666D02*
X206000Y18999D01*
X205333D01*
X205000Y18666D01*
Y17333D01*
X205333Y17000D01*
X206000D01*
X206333Y17333D01*
Y18000D01*
X205666D01*
X206999Y17000D02*
Y18999D01*
X208332Y17000D01*
Y18999D01*
X208999D02*
Y17000D01*
X209998D01*
X210332Y17333D01*
Y18666D01*
X209998Y18999D01*
X208999D01*
X158833D02*
X157500D01*
Y18000D01*
X158167Y18333D01*
X158500D01*
X158833Y18000D01*
Y17333D01*
X158500Y17000D01*
X157833D01*
X157500Y17333D01*
X159499Y18999D02*
Y17666D01*
X160166Y17000D01*
X160832Y17666D01*
Y18999D01*
X204501Y83833D02*
Y82500D01*
X205500D01*
X205167Y83166D01*
Y83500D01*
X205500Y83833D01*
X206167D01*
X206500Y83500D01*
Y82833D01*
X206167Y82500D01*
X204501Y84499D02*
X205834D01*
X206500Y85166D01*
X205834Y85832D01*
X204501D01*
X140500Y6166D02*
X140833Y6499D01*
X141500D01*
X141833Y6166D01*
Y5833D01*
X141500Y5500D01*
X141166D01*
X141500D01*
X141833Y5166D01*
Y4833D01*
X141500Y4500D01*
X140833D01*
X140500Y4833D01*
X142499Y6499D02*
Y5166D01*
X143166Y4500D01*
X143832Y5166D01*
Y6499D01*
X144499Y6166D02*
X144832Y6499D01*
X145498D01*
X145832Y6166D01*
Y5833D01*
X145498Y5500D01*
X145165D01*
X145498D01*
X145832Y5166D01*
Y4833D01*
X145498Y4500D01*
X144832D01*
X144499Y4833D01*
X50833Y5666D02*
X50500Y5999D01*
X49833D01*
X49500Y5666D01*
Y4333D01*
X49833Y4000D01*
X50500D01*
X50833Y4333D01*
Y5000D01*
X50166D01*
X51499Y4000D02*
Y5999D01*
X52832Y4000D01*
Y5999D01*
X53499D02*
Y4000D01*
X54498D01*
X54832Y4333D01*
Y5666D01*
X54498Y5999D01*
X53499D01*
X204834Y140333D02*
X204501Y140000D01*
Y139333D01*
X204834Y139000D01*
X206167D01*
X206500Y139333D01*
Y140000D01*
X206167Y140333D01*
X206500Y140999D02*
X205167D01*
X204501Y141666D01*
X205167Y142332D01*
X206500D01*
X205500D01*
Y140999D01*
X206500Y142999D02*
X204501D01*
X206500Y144332D01*
X204501D01*
Y144998D02*
X206500D01*
Y146331D01*
X204834Y92500D02*
X204501Y92833D01*
Y93500D01*
X204834Y93833D01*
X205167D01*
X205500Y93500D01*
Y93166D01*
Y93500D01*
X205834Y93833D01*
X206167D01*
X206500Y93500D01*
Y92833D01*
X206167Y92500D01*
X204501Y94499D02*
X205834D01*
X206500Y95166D01*
X205834Y95832D01*
X204501D01*
X204834Y96499D02*
X204501Y96832D01*
Y97498D01*
X204834Y97832D01*
X205167D01*
X205500Y97498D01*
Y97165D01*
Y97498D01*
X205834Y97832D01*
X206167D01*
X206500Y97498D01*
Y96832D01*
X206167Y96499D01*
X204834Y127833D02*
X204501Y127500D01*
Y126833D01*
X204834Y126500D01*
X206167D01*
X206500Y126833D01*
Y127500D01*
X206167Y127833D01*
X206500Y128499D02*
X205167D01*
X204501Y129166D01*
X205167Y129832D01*
X206500D01*
X205500D01*
Y128499D01*
X206500Y130499D02*
X204501D01*
X206500Y131832D01*
X204501D01*
Y132498D02*
X206500D01*
X205500D01*
Y133831D01*
X204501D01*
X206500D01*
X204834Y117833D02*
X204501Y117500D01*
Y116833D01*
X204834Y116500D01*
X206167D01*
X206500Y116833D01*
Y117500D01*
X206167Y117833D01*
X205500D01*
Y117166D01*
X206500Y118499D02*
X204501D01*
X206500Y119832D01*
X204501D01*
Y120499D02*
X206500D01*
Y121498D01*
X206167Y121832D01*
X204834D01*
X204501Y121498D01*
Y120499D01*
X51333Y30666D02*
X51000Y30999D01*
X50333D01*
X50000Y30666D01*
Y29333D01*
X50333Y29000D01*
X51000D01*
X51333Y29333D01*
Y30000D01*
X50666D01*
X51999Y29000D02*
Y30999D01*
X53332Y29000D01*
Y30999D01*
X53999D02*
Y29000D01*
X54998D01*
X55332Y29333D01*
Y30666D01*
X54998Y30999D01*
X53999D01*
X32000Y106500D02*
X30001D01*
Y107500D01*
X30334Y107833D01*
X31000D01*
X31334Y107500D01*
Y106500D01*
Y107167D02*
X32000Y107833D01*
Y109499D02*
Y108833D01*
X31667Y108499D01*
X31000D01*
X30667Y108833D01*
Y109499D01*
X31000Y109832D01*
X31334D01*
Y108499D01*
X30667Y110499D02*
X32000Y111165D01*
X30667Y111832D01*
X31000Y112498D02*
Y113831D01*
X30001Y93000D02*
X32000D01*
Y94000D01*
X31667Y94333D01*
X31334D01*
X31000Y94000D01*
Y93000D01*
Y94000D01*
X30667Y94333D01*
X30334D01*
X30001Y94000D01*
Y93000D01*
X30667Y94999D02*
X32000D01*
X31334D01*
X31000Y95333D01*
X30667Y95666D01*
Y95999D01*
Y97332D02*
Y97998D01*
X31000Y98332D01*
X32000D01*
Y97332D01*
X31667Y96999D01*
X31334Y97332D01*
Y98332D01*
X32000Y98998D02*
X30001D01*
X31334D02*
X30667Y99998D01*
X31334Y98998D02*
X32000Y99998D01*
Y101997D02*
Y101331D01*
X31667Y100997D01*
X31000D01*
X30667Y101331D01*
Y101997D01*
X31000Y102330D01*
X31334D01*
Y100997D01*
X31000Y102997D02*
Y104330D01*
X30001Y81500D02*
X32000D01*
X31000D01*
Y82833D01*
X30001D01*
X32000D01*
Y83833D02*
Y84499D01*
X31667Y84832D01*
X31000D01*
X30667Y84499D01*
Y83833D01*
X31000Y83499D01*
X31667D01*
X32000Y83833D01*
X30667Y85499D02*
X32000D01*
X31334D01*
X31000Y85832D01*
X30667Y86165D01*
Y86498D01*
X32000Y87498D02*
X30667D01*
Y88498D01*
X31000Y88831D01*
X32000D01*
X31000Y89497D02*
Y90830D01*
X30001Y143500D02*
X32000D01*
Y144833D01*
X30001Y145499D02*
Y146832D01*
Y146166D01*
X32000D01*
X31000Y147499D02*
Y148832D01*
X30001Y117000D02*
X32000D01*
X31000D01*
Y118333D01*
X30001D01*
X32000D01*
Y119999D02*
Y119333D01*
X31667Y118999D01*
X31000D01*
X30667Y119333D01*
Y119999D01*
X31000Y120332D01*
X31334D01*
Y118999D01*
X30667Y121332D02*
Y121998D01*
X31000Y122332D01*
X32000D01*
Y121332D01*
X31667Y120999D01*
X31334Y121332D01*
Y122332D01*
X30001Y124331D02*
X32000D01*
Y123331D01*
X31667Y122998D01*
X31000D01*
X30667Y123331D01*
Y124331D01*
X32000Y124997D02*
Y125664D01*
Y125331D01*
X30001D01*
Y124997D01*
X30334Y126997D02*
X30667D01*
Y126663D01*
Y127330D01*
Y126997D01*
X31667D01*
X32000Y127330D01*
X31000Y128330D02*
Y129663D01*
X32000Y131500D02*
X30001D01*
Y132500D01*
X30334Y132833D01*
X31000D01*
X31334Y132500D01*
Y131500D01*
Y132167D02*
X32000Y132833D01*
X30001Y133499D02*
Y134832D01*
Y134166D01*
X32000D01*
X31000Y135499D02*
Y136832D01*
X196501Y119500D02*
X198500D01*
Y120500D01*
X198167Y120833D01*
X197834D01*
X197500Y120500D01*
Y119500D01*
Y120500D01*
X197167Y120833D01*
X196834D01*
X196501Y120500D01*
Y119500D01*
X197167Y121499D02*
X198500D01*
X197834D01*
X197500Y121833D01*
X197167Y122166D01*
Y122499D01*
Y123832D02*
Y124498D01*
X197500Y124832D01*
X198500D01*
Y123832D01*
X198167Y123499D01*
X197834Y123832D01*
Y124832D01*
X198500Y125498D02*
X196501D01*
X197834D02*
X197167Y126498D01*
X197834Y125498D02*
X198500Y126498D01*
Y128497D02*
Y127831D01*
X198167Y127497D01*
X197500D01*
X197167Y127831D01*
Y128497D01*
X197500Y128830D01*
X197834D01*
Y127497D01*
X198833Y129497D02*
Y130830D01*
X196501Y132496D02*
Y131829D01*
X196834Y131496D01*
X198167D01*
X198500Y131829D01*
Y132496D01*
X198167Y132829D01*
X196834D01*
X196501Y132496D01*
X197167Y133495D02*
X198167D01*
X198500Y133829D01*
Y134828D01*
X197167D01*
X196834Y135828D02*
X197167D01*
Y135495D01*
Y136161D01*
Y135828D01*
X198167D01*
X198500Y136161D01*
X146500Y135499D02*
Y133500D01*
X147500D01*
X147833Y133833D01*
Y134167D01*
X147500Y134500D01*
X146500D01*
X147500D01*
X147833Y134833D01*
Y135166D01*
X147500Y135499D01*
X146500D01*
X148499Y134833D02*
Y133500D01*
Y134167D01*
X148833Y134500D01*
X149166Y134833D01*
X149499D01*
X150832D02*
X151498D01*
X151832Y134500D01*
Y133500D01*
X150832D01*
X150499Y133833D01*
X150832Y134167D01*
X151832D01*
X152498Y133500D02*
Y135499D01*
Y134167D02*
X153498Y134833D01*
X152498Y134167D02*
X153498Y133500D01*
X155497D02*
X154831D01*
X154497Y133833D01*
Y134500D01*
X154831Y134833D01*
X155497D01*
X155830Y134500D01*
Y134167D01*
X154497D01*
X156497Y133167D02*
X157830D01*
X159496Y135499D02*
X158829D01*
X158496Y135166D01*
Y133833D01*
X158829Y133500D01*
X159496D01*
X159829Y133833D01*
Y135166D01*
X159496Y135499D01*
X160495Y134833D02*
Y133833D01*
X160829Y133500D01*
X161828D01*
Y134833D01*
X162828Y135166D02*
Y134833D01*
X162495D01*
X163161D01*
X162828D01*
Y133833D01*
X163161Y133500D01*
X166000Y135499D02*
Y133500D01*
X167000D01*
X167333Y133833D01*
Y134167D01*
X167000Y134500D01*
X166000D01*
X167000D01*
X167333Y134833D01*
Y135166D01*
X167000Y135499D01*
X166000D01*
X167999Y134833D02*
Y133500D01*
Y134167D01*
X168333Y134500D01*
X168666Y134833D01*
X168999D01*
X170332D02*
X170998D01*
X171332Y134500D01*
Y133500D01*
X170332D01*
X169999Y133833D01*
X170332Y134167D01*
X171332D01*
X171998Y133500D02*
Y135499D01*
Y134167D02*
X172998Y134833D01*
X171998Y134167D02*
X172998Y133500D01*
X174997D02*
X174331D01*
X173997Y133833D01*
Y134500D01*
X174331Y134833D01*
X174997D01*
X175330Y134500D01*
Y134167D01*
X173997D01*
X175997Y134500D02*
X177330D01*
X183333Y135166D02*
X183000Y135499D01*
X182333D01*
X182000Y135166D01*
Y133833D01*
X182333Y133500D01*
X183000D01*
X183333Y133833D01*
Y134500D01*
X182667D01*
X183999Y133500D02*
Y135499D01*
X185332Y133500D01*
Y135499D01*
X185999D02*
Y133500D01*
X186998D01*
X187332Y133833D01*
Y135166D01*
X186998Y135499D01*
X185999D01*
X96500Y133500D02*
Y135499D01*
X97500D01*
X97833Y135166D01*
Y134500D01*
X97500Y134167D01*
X96500D01*
X97166D02*
X97833Y133500D01*
X99499D02*
X98833D01*
X98499Y133833D01*
Y134500D01*
X98833Y134833D01*
X99499D01*
X99832Y134500D01*
Y134167D01*
X98499D01*
X100499Y134833D02*
X101165Y133500D01*
X101832Y134833D01*
X102498Y133167D02*
X103831D01*
X104831Y133500D02*
X105497D01*
X105830Y133833D01*
Y134500D01*
X105497Y134833D01*
X104831D01*
X104497Y134500D01*
Y133833D01*
X104831Y133500D01*
X106497Y134833D02*
Y133833D01*
X106830Y133500D01*
X107830D01*
Y134833D01*
X108829Y135166D02*
Y134833D01*
X108496D01*
X109163D01*
X108829D01*
Y133833D01*
X109163Y133500D01*
X132833Y135166D02*
X132500Y135499D01*
X131833D01*
X131500Y135166D01*
Y133833D01*
X131833Y133500D01*
X132500D01*
X132833Y133833D01*
Y134500D01*
X132167D01*
X133499Y133500D02*
Y135499D01*
X134832Y133500D01*
Y135499D01*
X135499D02*
Y133500D01*
X136498D01*
X136832Y133833D01*
Y135166D01*
X136498Y135499D01*
X135499D01*
X117000Y133500D02*
Y135499D01*
X118000D01*
X118333Y135166D01*
Y134500D01*
X118000Y134167D01*
X117000D01*
X117666D02*
X118333Y133500D01*
X119999D02*
X119333D01*
X118999Y133833D01*
Y134500D01*
X119333Y134833D01*
X119999D01*
X120332Y134500D01*
Y134167D01*
X118999D01*
X120999Y134833D02*
X121665Y133500D01*
X122332Y134833D01*
X122998Y134500D02*
X124331D01*
X42168Y135499D02*
Y133500D01*
Y134500D01*
X43501D01*
Y135499D01*
Y133500D01*
X45167D02*
X44500D01*
X44167Y133833D01*
Y134500D01*
X44500Y134833D01*
X45167D01*
X45500Y134500D01*
Y134167D01*
X44167D01*
X46500Y134833D02*
X47166D01*
X47499Y134500D01*
Y133500D01*
X46500D01*
X46166Y133833D01*
X46500Y134167D01*
X47499D01*
X49499Y135499D02*
Y133500D01*
X48499D01*
X48166Y133833D01*
Y134500D01*
X48499Y134833D01*
X49499D01*
X50165Y133500D02*
X50832D01*
X50498D01*
Y135499D01*
X50165D01*
X52165Y135166D02*
Y134833D01*
X51831D01*
X52498D01*
X52165D01*
Y133833D01*
X52498Y133500D01*
X53497Y133167D02*
X54830D01*
X55830Y133500D02*
X56496D01*
X56830Y133833D01*
Y134500D01*
X56496Y134833D01*
X55830D01*
X55497Y134500D01*
Y133833D01*
X55830Y133500D01*
X57496Y134833D02*
Y133833D01*
X57829Y133500D01*
X58829D01*
Y134833D01*
X59829Y135166D02*
Y134833D01*
X59496D01*
X60162D01*
X59829D01*
Y133833D01*
X60162Y133500D01*
X81833Y135166D02*
X81500Y135499D01*
X80833D01*
X80500Y135166D01*
Y133833D01*
X80833Y133500D01*
X81500D01*
X81833Y133833D01*
Y134500D01*
X81166D01*
X82499Y133500D02*
Y135499D01*
X83832Y133500D01*
Y135499D01*
X84499D02*
Y133500D01*
X85498D01*
X85832Y133833D01*
Y135166D01*
X85498Y135499D01*
X84499D01*
X65000D02*
Y133500D01*
Y134500D01*
X66333D01*
Y135499D01*
Y133500D01*
X67999D02*
X67333D01*
X66999Y133833D01*
Y134500D01*
X67333Y134833D01*
X67999D01*
X68332Y134500D01*
Y134167D01*
X66999D01*
X69332Y134833D02*
X69998D01*
X70332Y134500D01*
Y133500D01*
X69332D01*
X68999Y133833D01*
X69332Y134167D01*
X70332D01*
X72331Y135499D02*
Y133500D01*
X71331D01*
X70998Y133833D01*
Y134500D01*
X71331Y134833D01*
X72331D01*
X72997Y133500D02*
X73664D01*
X73331D01*
Y135499D01*
X72997D01*
X74997Y135166D02*
Y134833D01*
X74664D01*
X75330D01*
X74997D01*
Y133833D01*
X75330Y133500D01*
X76330Y134500D02*
X77663D01*
X45500Y145499D02*
Y143500D01*
Y144500D01*
X46833D01*
Y145499D01*
Y143500D01*
X47833D02*
X48499D01*
X48832Y143833D01*
Y144500D01*
X48499Y144833D01*
X47833D01*
X47499Y144500D01*
Y143833D01*
X47833Y143500D01*
X49499Y144833D02*
Y143500D01*
Y144167D01*
X49832Y144500D01*
X50165Y144833D01*
X50498D01*
X51498Y143500D02*
Y144833D01*
X52498D01*
X52831Y144500D01*
Y143500D01*
X53497Y143167D02*
X54830D01*
X56496Y145499D02*
X55830D01*
X55497Y145166D01*
Y143833D01*
X55830Y143500D01*
X56496D01*
X56830Y143833D01*
Y145166D01*
X56496Y145499D01*
X57496Y144833D02*
Y143833D01*
X57829Y143500D01*
X58829D01*
Y144833D01*
X59829Y145166D02*
Y144833D01*
X59496D01*
X60162D01*
X59829D01*
Y143833D01*
X60162Y143500D01*
X65000Y145499D02*
Y143500D01*
Y144500D01*
X66333D01*
Y145499D01*
Y143500D01*
X67333D02*
X67999D01*
X68332Y143833D01*
Y144500D01*
X67999Y144833D01*
X67333D01*
X66999Y144500D01*
Y143833D01*
X67333Y143500D01*
X68999Y144833D02*
Y143500D01*
Y144167D01*
X69332Y144500D01*
X69665Y144833D01*
X69998D01*
X70998Y143500D02*
Y144833D01*
X71998D01*
X72331Y144500D01*
Y143500D01*
X72997Y144500D02*
X74330D01*
X81833Y145166D02*
X81500Y145499D01*
X80833D01*
X80500Y145166D01*
Y143833D01*
X80833Y143500D01*
X81500D01*
X81833Y143833D01*
Y144500D01*
X81166D01*
X82499Y143500D02*
Y145499D01*
X83832Y143500D01*
Y145499D01*
X84499D02*
Y143500D01*
X85498D01*
X85832Y143833D01*
Y145166D01*
X85498Y145499D01*
X84499D01*
X132833Y145166D02*
X132500Y145499D01*
X131833D01*
X131500Y145166D01*
Y143833D01*
X131833Y143500D01*
X132500D01*
X132833Y143833D01*
Y144500D01*
X132167D01*
X133499Y143500D02*
Y145499D01*
X134832Y143500D01*
Y145499D01*
X135499D02*
Y143500D01*
X136498D01*
X136832Y143833D01*
Y145166D01*
X136498Y145499D01*
X135499D01*
X117000Y143500D02*
Y145499D01*
X118000D01*
X118333Y145166D01*
Y144500D01*
X118000Y144167D01*
X117000D01*
X117666D02*
X118333Y143500D01*
X118999Y145499D02*
X120332D01*
X119666D01*
Y143500D01*
X120999Y144500D02*
X122332D01*
X96500Y143500D02*
Y145499D01*
X97500D01*
X97833Y145166D01*
Y144500D01*
X97500Y144167D01*
X96500D01*
X97166D02*
X97833Y143500D01*
X98499Y145499D02*
X99832D01*
X99166D01*
Y143500D01*
X100499Y143167D02*
X101832D01*
X102831Y143500D02*
X103498D01*
X103831Y143833D01*
Y144500D01*
X103498Y144833D01*
X102831D01*
X102498Y144500D01*
Y143833D01*
X102831Y143500D01*
X104497Y144833D02*
Y143833D01*
X104831Y143500D01*
X105830D01*
Y144833D01*
X106830Y145166D02*
Y144833D01*
X106497D01*
X107163D01*
X106830D01*
Y143833D01*
X107163Y143500D01*
X183333Y145166D02*
X183000Y145499D01*
X182333D01*
X182000Y145166D01*
Y143833D01*
X182333Y143500D01*
X183000D01*
X183333Y143833D01*
Y144500D01*
X182667D01*
X183999Y143500D02*
Y145499D01*
X185332Y143500D01*
Y145499D01*
X185999D02*
Y143500D01*
X186998D01*
X187332Y143833D01*
Y145166D01*
X186998Y145499D01*
X185999D01*
X166000D02*
Y143500D01*
X167333D01*
X167999Y145499D02*
X169332D01*
X168666D01*
Y143500D01*
X169999Y144500D02*
X171332D01*
X146500Y145499D02*
Y143500D01*
X147833D01*
X148499Y145499D02*
X149832D01*
X149166D01*
Y143500D01*
X150499Y143167D02*
X151832D01*
X152831Y143500D02*
X153498D01*
X153831Y143833D01*
Y144500D01*
X153498Y144833D01*
X152831D01*
X152498Y144500D01*
Y143833D01*
X152831Y143500D01*
X154497Y144833D02*
Y143833D01*
X154831Y143500D01*
X155830D01*
Y144833D01*
X156830Y145166D02*
Y144833D01*
X156497D01*
X157163D01*
X156830D01*
Y143833D01*
X157163Y143500D01*
X140500Y30666D02*
X140833Y30999D01*
X141500D01*
X141833Y30666D01*
Y30333D01*
X141500Y30000D01*
X141166D01*
X141500D01*
X141833Y29666D01*
Y29333D01*
X141500Y29000D01*
X140833D01*
X140500Y29333D01*
X142499Y30999D02*
Y29666D01*
X143166Y29000D01*
X143832Y29666D01*
Y30999D01*
X144499Y30666D02*
X144832Y30999D01*
X145498D01*
X145832Y30666D01*
Y30333D01*
X145498Y30000D01*
X145165D01*
X145498D01*
X145832Y29666D01*
Y29333D01*
X145498Y29000D01*
X144832D01*
X144499Y29333D01*
X116833Y30666D02*
X116500Y30999D01*
X115833D01*
X115500Y30666D01*
Y30333D01*
X115833Y30000D01*
X116500D01*
X116833Y29666D01*
Y29333D01*
X116500Y29000D01*
X115833D01*
X115500Y29333D01*
X117499Y30999D02*
Y29000D01*
X118166Y29666D01*
X118832Y29000D01*
Y30999D01*
X119499D02*
Y29000D01*
X120498D01*
X120832Y29333D01*
Y30666D01*
X120498Y30999D01*
X119499D01*
X121498D02*
X122164D01*
X121831D01*
Y29000D01*
X121498D01*
X122164D01*
X124164Y30999D02*
X123497D01*
X123164Y30666D01*
Y29333D01*
X123497Y29000D01*
X124164D01*
X124497Y29333D01*
Y30666D01*
X124164Y30999D01*
X96833Y30666D02*
X96500Y30999D01*
X95833D01*
X95500Y30666D01*
Y30333D01*
X95833Y30000D01*
X96500D01*
X96833Y29666D01*
Y29333D01*
X96500Y29000D01*
X95833D01*
X95500Y29333D01*
X97499Y30999D02*
Y29000D01*
X98166Y29666D01*
X98832Y29000D01*
Y30999D01*
X100832Y30666D02*
X100498Y30999D01*
X99832D01*
X99499Y30666D01*
Y29333D01*
X99832Y29000D01*
X100498D01*
X100832Y29333D01*
X101498Y30999D02*
Y29000D01*
X102831D01*
X103497Y30999D02*
Y29000D01*
Y29666D01*
X104830Y30999D01*
X103831Y30000D01*
X104830Y29000D01*
X70500D02*
Y30999D01*
X71833Y29000D01*
Y30999D01*
X72499Y29000D02*
Y30999D01*
X73499D01*
X73832Y30666D01*
Y30000D01*
X73499Y29666D01*
X72499D01*
X73166D02*
X73832Y29000D01*
X75832Y30666D02*
X75498Y30999D01*
X74832D01*
X74499Y30666D01*
Y30333D01*
X74832Y30000D01*
X75498D01*
X75832Y29666D01*
Y29333D01*
X75498Y29000D01*
X74832D01*
X74499Y29333D01*
X76498Y30999D02*
X77831D01*
X77165D01*
Y29000D01*
D16*
X162500Y192500D02*
Y191500D01*
X163000D01*
X163166Y191667D01*
Y191833D01*
X163000Y192000D01*
X162500D01*
X163000D01*
X163166Y192166D01*
Y192333D01*
X163000Y192500D01*
X162500D01*
X163500Y191500D02*
Y192500D01*
X163999D01*
X164166Y192333D01*
Y192000D01*
X163999Y191833D01*
X163500D01*
X163833D02*
X164166Y191500D01*
X164499Y192500D02*
Y191500D01*
Y191833D01*
X165166Y192500D01*
X164666Y192000D01*
X165166Y191500D01*
X165499Y192000D02*
X166165D01*
X152000Y192500D02*
Y191500D01*
X152500D01*
X152666Y191667D01*
Y191833D01*
X152500Y192000D01*
X152000D01*
X152500D01*
X152666Y192166D01*
Y192333D01*
X152500Y192500D01*
X152000D01*
X153000Y191500D02*
Y192500D01*
X153499D01*
X153666Y192333D01*
Y192000D01*
X153499Y191833D01*
X153000D01*
X153333D02*
X153666Y191500D01*
X153999Y192500D02*
Y191500D01*
Y191833D01*
X154666Y192500D01*
X154166Y192000D01*
X154666Y191500D01*
X154999Y191333D02*
X155666D01*
X156499Y192500D02*
X156165D01*
X155999Y192333D01*
Y191667D01*
X156165Y191500D01*
X156499D01*
X156665Y191667D01*
Y192333D01*
X156499Y192500D01*
X162500Y180000D02*
Y179000D01*
X163166D01*
X163500Y180000D02*
X164166D01*
X163833D01*
Y179000D01*
X164499Y179500D02*
X165166D01*
X152000Y180000D02*
Y179000D01*
X152666D01*
X153000Y180000D02*
X153666D01*
X153333D01*
Y179000D01*
X153999Y178833D02*
X154666D01*
X155499Y180000D02*
X155166D01*
X154999Y179833D01*
Y179167D01*
X155166Y179000D01*
X155499D01*
X155666Y179167D01*
Y179833D01*
X155499Y180000D01*
X140500Y179000D02*
Y180000D01*
X141000D01*
X141166Y179833D01*
Y179500D01*
X141000Y179333D01*
X140500D01*
X140833D02*
X141166Y179000D01*
X142166Y180000D02*
X141500D01*
Y179000D01*
X142166D01*
X141500Y179500D02*
X141833D01*
X142499Y180000D02*
Y179333D01*
X142833Y179000D01*
X143166Y179333D01*
Y180000D01*
X143499Y179500D02*
X144166D01*
X130500Y179000D02*
Y180000D01*
X131000D01*
X131167Y179833D01*
Y179500D01*
X131000Y179333D01*
X130500D01*
X130833D02*
X131167Y179000D01*
X132166Y180000D02*
X131500D01*
Y179000D01*
X132166D01*
X131500Y179500D02*
X131833D01*
X132499Y180000D02*
Y179333D01*
X132833Y179000D01*
X133166Y179333D01*
Y180000D01*
X133499Y178833D02*
X134166D01*
X134999Y180000D02*
X134665D01*
X134499Y179833D01*
Y179167D01*
X134665Y179000D01*
X134999D01*
X135165Y179167D01*
Y179833D01*
X134999Y180000D01*
X140500Y191500D02*
Y192500D01*
X141000D01*
X141166Y192333D01*
Y192000D01*
X141000Y191833D01*
X140500D01*
X140833D02*
X141166Y191500D01*
X141500Y192500D02*
X142166D01*
X141833D01*
Y191500D01*
X142499Y192000D02*
X143166D01*
X130500Y191500D02*
Y192500D01*
X131000D01*
X131167Y192333D01*
Y192000D01*
X131000Y191833D01*
X130500D01*
X130833D02*
X131167Y191500D01*
X131500Y192500D02*
X132166D01*
X131833D01*
Y191500D01*
X132499Y191333D02*
X133166D01*
X133999Y192500D02*
X133666D01*
X133499Y192333D01*
Y191667D01*
X133666Y191500D01*
X133999D01*
X134166Y191667D01*
Y192333D01*
X133999Y192500D01*
X119500Y180000D02*
Y179000D01*
Y179500D01*
X120167D01*
Y180000D01*
Y179000D01*
X120500Y180000D02*
Y179000D01*
X121166D01*
X121499Y179500D02*
X122166D01*
X109500Y180000D02*
Y179000D01*
Y179500D01*
X110167D01*
Y180000D01*
Y179000D01*
X110500Y180000D02*
Y179000D01*
X111166D01*
X111499Y178833D02*
X112166D01*
X112999Y180000D02*
X112666D01*
X112499Y179833D01*
Y179167D01*
X112666Y179000D01*
X112999D01*
X113165Y179167D01*
Y179833D01*
X112999Y180000D01*
X119500Y192500D02*
Y191500D01*
Y192000D01*
X120167D01*
Y192500D01*
Y191500D01*
X120500Y192000D02*
X121166D01*
X109500Y192500D02*
Y191500D01*
Y192000D01*
X110167D01*
Y192500D01*
Y191500D01*
X110500Y191333D02*
X111166D01*
X111999Y192500D02*
X111666D01*
X111499Y192333D01*
Y191667D01*
X111666Y191500D01*
X111999D01*
X112166Y191667D01*
Y192333D01*
X111999Y192500D01*
D17*
X37000Y98250D02*
X36750Y98500D01*
X36250D01*
X36000Y98250D01*
Y97250D01*
X36250Y97000D01*
X36750D01*
X37000Y97250D01*
Y97750D01*
X36500D01*
X37499Y97000D02*
Y98500D01*
X38499Y97000D01*
Y98500D01*
X38999D02*
Y97000D01*
X39749D01*
X39999Y97250D01*
Y98250D01*
X39749Y98500D01*
X38999D01*
X51000Y98250D02*
X50750Y98500D01*
X50250D01*
X50000Y98250D01*
Y97250D01*
X50250Y97000D01*
X50750D01*
X51000Y97250D01*
Y97750D01*
X50500D01*
X51499Y97000D02*
Y98500D01*
X52499Y97000D01*
Y98500D01*
X52999D02*
Y97000D01*
X53749D01*
X53999Y97250D01*
Y98250D01*
X53749Y98500D01*
X52999D01*
X31500Y77250D02*
X31750Y77500D01*
X32250D01*
X32500Y77250D01*
Y77000D01*
X32250Y76750D01*
X32000D01*
X32250D01*
X32500Y76500D01*
Y76250D01*
X32250Y76000D01*
X31750D01*
X31500Y76250D01*
X33000Y77500D02*
Y76500D01*
X33499Y76000D01*
X33999Y76500D01*
Y77500D01*
X34499Y77250D02*
X34749Y77500D01*
X35249D01*
X35499Y77250D01*
Y77000D01*
X35249Y76750D01*
X34999D01*
X35249D01*
X35499Y76500D01*
Y76250D01*
X35249Y76000D01*
X34749D01*
X34499Y76250D01*
X31000Y71250D02*
X31250Y71500D01*
X31750D01*
X32000Y71250D01*
Y71000D01*
X31750Y70750D01*
X31500D01*
X31750D01*
X32000Y70500D01*
Y70250D01*
X31750Y70000D01*
X31250D01*
X31000Y70250D01*
X32500Y71500D02*
Y70500D01*
X32999Y70000D01*
X33499Y70500D01*
Y71500D01*
X33999Y71250D02*
X34249Y71500D01*
X34749D01*
X34999Y71250D01*
Y71000D01*
X34749Y70750D01*
X34499D01*
X34749D01*
X34999Y70500D01*
Y70250D01*
X34749Y70000D01*
X34249D01*
X33999Y70250D01*
X54000Y77250D02*
X54250Y77500D01*
X54750D01*
X55000Y77250D01*
Y77000D01*
X54750Y76750D01*
X54500D01*
X54750D01*
X55000Y76500D01*
Y76250D01*
X54750Y76000D01*
X54250D01*
X54000Y76250D01*
X55500Y77500D02*
Y76500D01*
X55999Y76000D01*
X56499Y76500D01*
Y77500D01*
X56999Y77250D02*
X57249Y77500D01*
X57749D01*
X57999Y77250D01*
Y77000D01*
X57749Y76750D01*
X57499D01*
X57749D01*
X57999Y76500D01*
Y76250D01*
X57749Y76000D01*
X57249D01*
X56999Y76250D01*
X55000Y71250D02*
X54750Y71500D01*
X54250D01*
X54000Y71250D01*
Y70250D01*
X54250Y70000D01*
X54750D01*
X55000Y70250D01*
Y70750D01*
X54500D01*
X55500Y70000D02*
Y71500D01*
X56499Y70000D01*
Y71500D01*
X56999D02*
Y70000D01*
X57749D01*
X57999Y70250D01*
Y71250D01*
X57749Y71500D01*
X56999D01*
D18*
X40832Y9500D02*
X37500D01*
X40832Y12832D01*
Y13665D01*
X39999Y14498D01*
X38333D01*
X37500Y13665D01*
X42498D02*
X43331Y14498D01*
X44998D01*
X45831Y13665D01*
Y10333D01*
X44998Y9500D01*
X43331D01*
X42498Y10333D01*
Y13665D01*
X38500Y20000D02*
X40166D01*
X39333D01*
Y24998D01*
X38500Y24165D01*
X42665D02*
X43498Y24998D01*
X45164D01*
X45998Y24165D01*
Y20833D01*
X45164Y20000D01*
X43498D01*
X42665Y20833D01*
Y24165D01*
X150000Y10500D02*
X151666D01*
X150833D01*
Y15498D01*
X150000Y14665D01*
X153500Y10500D02*
X155166D01*
X154333D01*
Y15498D01*
X153500Y14665D01*
X150000Y20500D02*
X151666D01*
X150833D01*
Y25498D01*
X150000Y24665D01*
M02*
