G04*
G04 #@! TF.GenerationSoftware,Altium Limited,Altium Designer,20.0.9 (164)*
G04*
G04 Layer_Physical_Order=1*
G04 Layer_Color=255*
%FSLAX25Y25*%
%MOIN*%
G70*
G01*
G75*
%ADD12C,0.01000*%
%ADD19R,0.02362X0.04724*%
%ADD20O,0.05709X0.02362*%
%ADD21R,0.07165X0.04016*%
%ADD22R,0.05709X0.01181*%
%ADD23R,0.01181X0.05709*%
%ADD24R,0.04016X0.07165*%
%ADD40C,0.01500*%
%ADD41C,0.05512*%
%ADD42C,0.07874*%
%ADD43C,0.13000*%
%ADD44C,0.16500*%
%ADD45C,0.05906*%
%ADD46R,0.05906X0.05906*%
%ADD47C,0.07500*%
%ADD48C,0.08000*%
%ADD49C,0.02000*%
G36*
X234971Y1529D02*
X1529D01*
Y10133D01*
X2029Y10207D01*
X2413Y8943D01*
X3272Y7336D01*
X4428Y5928D01*
X5836Y4772D01*
X7443Y3913D01*
X9187Y3384D01*
X11000Y3205D01*
X12813Y3384D01*
X14557Y3913D01*
X16164Y4772D01*
X17572Y5928D01*
X18728Y7336D01*
X19587Y8943D01*
X20116Y10687D01*
X20295Y12500D01*
X20116Y14313D01*
X19587Y16057D01*
X18728Y17664D01*
X17572Y19072D01*
X16164Y20228D01*
X14557Y21087D01*
X12813Y21616D01*
X11000Y21795D01*
X9187Y21616D01*
X7443Y21087D01*
X5836Y20228D01*
X4428Y19072D01*
X3272Y17664D01*
X2413Y16057D01*
X2029Y14793D01*
X1529Y14867D01*
Y192971D01*
X234971D01*
Y1529D01*
D02*
G37*
%LPC*%
G36*
X163500Y191039D02*
X162720Y190884D01*
X162058Y190442D01*
X161616Y189780D01*
X161461Y189000D01*
X161616Y188220D01*
X162058Y187558D01*
X162720Y187116D01*
X162828Y187095D01*
X162999Y186839D01*
X164846Y184991D01*
X164655Y184529D01*
X163634D01*
X158081Y190081D01*
X157585Y190413D01*
X157000Y190529D01*
X155311D01*
X154780Y190884D01*
X154000Y191039D01*
X153220Y190884D01*
X152558Y190442D01*
X152116Y189780D01*
X151961Y189000D01*
X152116Y188220D01*
X152558Y187558D01*
X153220Y187116D01*
X154000Y186961D01*
X154780Y187116D01*
X155311Y187471D01*
X156367D01*
X161919Y181919D01*
X162415Y181587D01*
X163000Y181471D01*
X164919D01*
X181471Y164919D01*
Y157708D01*
X180971Y157608D01*
X180813Y157990D01*
X180021Y159021D01*
X178990Y159812D01*
X177789Y160310D01*
X176500Y160480D01*
X175211Y160310D01*
X174010Y159812D01*
X172979Y159021D01*
X172187Y157990D01*
X171771Y156983D01*
X171229D01*
X170812Y157990D01*
X170021Y159021D01*
X168990Y159812D01*
X167789Y160310D01*
X166500Y160480D01*
X166405Y160467D01*
X166029Y160797D01*
Y175414D01*
X165913Y175999D01*
X165581Y176496D01*
X165530Y176547D01*
X165384Y177280D01*
X164942Y177942D01*
X164280Y178384D01*
X163500Y178539D01*
X162720Y178384D01*
X162058Y177942D01*
X161616Y177280D01*
X161461Y176500D01*
X161616Y175720D01*
X162058Y175058D01*
X162720Y174616D01*
X162971Y174566D01*
Y159360D01*
X163030Y159061D01*
X162979Y159021D01*
X162188Y157990D01*
X161771Y156983D01*
X161229D01*
X160812Y157990D01*
X160021Y159021D01*
X158990Y159812D01*
X158029Y160210D01*
Y174500D01*
X157913Y175085D01*
X157581Y175581D01*
X156081Y177081D01*
X155899Y177203D01*
X155884Y177280D01*
X155442Y177942D01*
X154780Y178384D01*
X154000Y178539D01*
X153220Y178384D01*
X152558Y177942D01*
X152116Y177280D01*
X151961Y176500D01*
X152116Y175720D01*
X152558Y175058D01*
X153220Y174616D01*
X154000Y174461D01*
X154314Y174523D01*
X154971Y173866D01*
Y160210D01*
X154010Y159812D01*
X152979Y159021D01*
X152188Y157990D01*
X151690Y156789D01*
X151520Y155500D01*
X151690Y154211D01*
X152188Y153010D01*
X152979Y151979D01*
X154010Y151188D01*
X154971Y150790D01*
Y130633D01*
X142477Y118140D01*
X142017Y118387D01*
X142039Y118500D01*
X141884Y119280D01*
X141442Y119942D01*
X140780Y120384D01*
X140000Y120539D01*
X139220Y120384D01*
X138558Y119942D01*
X138116Y119280D01*
X137961Y118500D01*
X138023Y118186D01*
X127466Y107629D01*
X104337D01*
X103752Y107513D01*
X103256Y107181D01*
X99364Y103289D01*
X99273Y103271D01*
X98777Y102940D01*
X98445Y102444D01*
X98329Y101858D01*
Y96992D01*
X95482D01*
Y105819D01*
X104251Y114588D01*
X105211Y114190D01*
X106500Y114020D01*
X107789Y114190D01*
X108990Y114688D01*
X110021Y115479D01*
X110812Y116510D01*
X111229Y117517D01*
X111771D01*
X112188Y116510D01*
X112979Y115479D01*
X114010Y114688D01*
X115211Y114190D01*
X116500Y114020D01*
X117789Y114190D01*
X118990Y114688D01*
X120021Y115479D01*
X120812Y116510D01*
X121229Y117517D01*
X121771D01*
X122187Y116510D01*
X122979Y115479D01*
X124010Y114688D01*
X125211Y114190D01*
X126500Y114020D01*
X127789Y114190D01*
X128990Y114688D01*
X130021Y115479D01*
X130813Y116510D01*
X131310Y117711D01*
X131480Y119000D01*
X131310Y120289D01*
X130813Y121490D01*
X130021Y122521D01*
X128990Y123312D01*
X127789Y123810D01*
X126500Y123980D01*
X125211Y123810D01*
X124010Y123312D01*
X122979Y122521D01*
X122187Y121490D01*
X121771Y120483D01*
X121229D01*
X120812Y121490D01*
X120021Y122521D01*
X118990Y123312D01*
X118029Y123710D01*
Y128867D01*
X143081Y153919D01*
X143413Y154415D01*
X143529Y155000D01*
Y175189D01*
X143884Y175720D01*
X144039Y176500D01*
X143884Y177280D01*
X143442Y177942D01*
X142780Y178384D01*
X142000Y178539D01*
X141220Y178384D01*
X140558Y177942D01*
X140116Y177280D01*
X139961Y176500D01*
X140042Y176090D01*
X139971Y175729D01*
X140087Y175144D01*
X140419Y174648D01*
X140471Y174613D01*
Y171346D01*
X140009Y171154D01*
X134776Y176387D01*
X134652Y177013D01*
X134210Y177674D01*
X133811Y177941D01*
X133717Y178554D01*
X142154Y186992D01*
X142780Y187116D01*
X143442Y187558D01*
X143884Y188220D01*
X144039Y189000D01*
X143884Y189780D01*
X143442Y190442D01*
X142780Y190884D01*
X142000Y191039D01*
X141220Y190884D01*
X140558Y190442D01*
X140116Y189780D01*
X139991Y189154D01*
X134491Y183654D01*
X134029Y183846D01*
Y187689D01*
X134384Y188220D01*
X134539Y189000D01*
X134384Y189780D01*
X133942Y190442D01*
X133280Y190884D01*
X132500Y191039D01*
X131720Y190884D01*
X131058Y190442D01*
X130616Y189780D01*
X130461Y189000D01*
X130616Y188220D01*
X130971Y187689D01*
Y182396D01*
X108710Y160135D01*
X108289Y160310D01*
X107000Y160480D01*
X105711Y160310D01*
X104510Y159812D01*
X103479Y159021D01*
X102688Y157990D01*
X102190Y156789D01*
X102020Y155500D01*
X102190Y154211D01*
X102688Y153010D01*
X103479Y151979D01*
X104510Y151188D01*
X105711Y150690D01*
X107000Y150520D01*
X108289Y150690D01*
X109490Y151188D01*
X110521Y151979D01*
X111312Y153010D01*
X111729Y154017D01*
X112271D01*
X112688Y153010D01*
X113479Y151979D01*
X114510Y151188D01*
X115711Y150690D01*
X117000Y150520D01*
X118289Y150690D01*
X119490Y151188D01*
X120521Y151979D01*
X121312Y153010D01*
X121729Y154017D01*
X122271D01*
X122687Y153010D01*
X123479Y151979D01*
X124510Y151188D01*
X125711Y150690D01*
X127000Y150520D01*
X128289Y150690D01*
X129490Y151188D01*
X130521Y151979D01*
X131313Y153010D01*
X131810Y154211D01*
X131980Y155500D01*
X131810Y156789D01*
X131313Y157990D01*
X130521Y159021D01*
X129490Y159812D01*
X128289Y160310D01*
X127000Y160480D01*
X125711Y160310D01*
X124510Y159812D01*
X123479Y159021D01*
X122687Y157990D01*
X122271Y156983D01*
X121729D01*
X121312Y157990D01*
X120521Y159021D01*
X119490Y159812D01*
X118529Y160210D01*
Y163366D01*
X130446Y175283D01*
X131059Y175189D01*
X131326Y174790D01*
X131987Y174348D01*
X132613Y174224D01*
X137971Y168867D01*
Y157633D01*
X105419Y125081D01*
X105087Y124585D01*
X104971Y124000D01*
Y123710D01*
X104010Y123312D01*
X102979Y122521D01*
X102188Y121490D01*
X101690Y120289D01*
X101520Y119000D01*
X101690Y117711D01*
X102088Y116751D01*
X93985Y108648D01*
X93523Y108839D01*
X93529Y119499D01*
X93484Y119725D01*
X93539Y120000D01*
X93384Y120780D01*
X92942Y121442D01*
X92280Y121884D01*
X91500Y122039D01*
X90720Y121884D01*
X90058Y121442D01*
X89616Y120780D01*
X89461Y120000D01*
X89616Y119220D01*
X90058Y118558D01*
X90470Y118283D01*
X90461Y103855D01*
X89999Y103664D01*
X79581Y114081D01*
X79085Y114413D01*
X78500Y114529D01*
X77207D01*
X77108Y115029D01*
X77490Y115188D01*
X78521Y115979D01*
X79312Y117010D01*
X79810Y118211D01*
X79980Y119500D01*
X79810Y120789D01*
X79312Y121990D01*
X78521Y123021D01*
X77490Y123812D01*
X76289Y124310D01*
X75000Y124480D01*
X73711Y124310D01*
X72510Y123812D01*
X71479Y123021D01*
X70688Y121990D01*
X70271Y120983D01*
X69729D01*
X69313Y121990D01*
X68521Y123021D01*
X67882Y123512D01*
X67838Y124175D01*
X118633Y174971D01*
X119189D01*
X119720Y174616D01*
X120500Y174461D01*
X121280Y174616D01*
X121942Y175058D01*
X122384Y175720D01*
X122539Y176500D01*
X122384Y177280D01*
X121942Y177942D01*
X121280Y178384D01*
X120500Y178539D01*
X119720Y178384D01*
X119189Y178029D01*
X118000D01*
X117415Y177913D01*
X116919Y177581D01*
X64763Y125426D01*
X64432Y124930D01*
X64324Y124391D01*
X63711Y124310D01*
X63296Y124138D01*
X63013Y124562D01*
X111890Y173439D01*
X112222Y173935D01*
X112338Y174521D01*
Y174620D01*
X112356Y174709D01*
Y175001D01*
X112442Y175058D01*
X112884Y175720D01*
X113039Y176500D01*
X112884Y177280D01*
X112442Y177942D01*
X111780Y178384D01*
X111000Y178539D01*
X110263Y178393D01*
X110234Y178415D01*
X110120Y178958D01*
X118633Y187471D01*
X119189D01*
X119720Y187116D01*
X120500Y186961D01*
X121280Y187116D01*
X121942Y187558D01*
X122384Y188220D01*
X122539Y189000D01*
X122384Y189780D01*
X121942Y190442D01*
X121280Y190884D01*
X120500Y191039D01*
X119720Y190884D01*
X119189Y190529D01*
X118000D01*
X117415Y190413D01*
X116919Y190081D01*
X112991Y186154D01*
X112529Y186346D01*
Y187689D01*
X112884Y188220D01*
X113039Y189000D01*
X112884Y189780D01*
X112442Y190442D01*
X111780Y190884D01*
X111000Y191039D01*
X110220Y190884D01*
X109558Y190442D01*
X109116Y189780D01*
X108961Y189000D01*
X109116Y188220D01*
X109471Y187689D01*
Y185480D01*
X103919Y179928D01*
X103587Y179431D01*
X103471Y178846D01*
Y176134D01*
X99366Y172029D01*
X70500D01*
X69915Y171913D01*
X69419Y171581D01*
X57749Y159912D01*
X56789Y160310D01*
X55500Y160480D01*
X54211Y160310D01*
X53010Y159812D01*
X51979Y159021D01*
X51187Y157990D01*
X50690Y156789D01*
X50520Y155500D01*
X50690Y154211D01*
X51187Y153010D01*
X51979Y151979D01*
X53010Y151188D01*
X54211Y150690D01*
X55500Y150520D01*
X56789Y150690D01*
X57990Y151188D01*
X59021Y151979D01*
X59812Y153010D01*
X60229Y154017D01*
X60771D01*
X61088Y153251D01*
X24419Y116581D01*
X24087Y116085D01*
X23971Y115500D01*
Y97484D01*
X17081Y90594D01*
X16089Y91005D01*
X14783Y91177D01*
X13478Y91005D01*
X12262Y90501D01*
X11217Y89700D01*
X10416Y88655D01*
X9912Y87439D01*
X9740Y86134D01*
X9912Y84829D01*
X10416Y83612D01*
X11217Y82568D01*
X12262Y81766D01*
X13478Y81262D01*
X14783Y81091D01*
X16089Y81262D01*
X17305Y81766D01*
X18349Y82568D01*
X19151Y83612D01*
X19655Y84829D01*
X19827Y86134D01*
X19655Y87439D01*
X19244Y88431D01*
X26581Y95769D01*
X26913Y96265D01*
X27029Y96850D01*
Y114866D01*
X63251Y151088D01*
X64211Y150690D01*
X65500Y150520D01*
X66789Y150690D01*
X67990Y151188D01*
X69021Y151979D01*
X69813Y153010D01*
X70229Y154017D01*
X70771D01*
X71188Y153010D01*
X71979Y151979D01*
X73010Y151188D01*
X74211Y150690D01*
X75500Y150520D01*
X76789Y150690D01*
X77990Y151188D01*
X79021Y151979D01*
X79813Y153010D01*
X80310Y154211D01*
X80480Y155500D01*
X80310Y156789D01*
X79813Y157990D01*
X79021Y159021D01*
X77990Y159812D01*
X76789Y160310D01*
X75500Y160480D01*
X74211Y160310D01*
X73010Y159812D01*
X71979Y159021D01*
X71188Y157990D01*
X70771Y156983D01*
X70229D01*
X69912Y157749D01*
X79533Y167371D01*
X100663D01*
X100820Y167402D01*
X101067Y166941D01*
X57743Y123618D01*
X57490Y123812D01*
X56289Y124310D01*
X55000Y124480D01*
X53711Y124310D01*
X52510Y123812D01*
X51479Y123021D01*
X50687Y121990D01*
X50190Y120789D01*
X50020Y119500D01*
X50190Y118211D01*
X50687Y117010D01*
X51479Y115979D01*
X52510Y115188D01*
X53711Y114690D01*
X55000Y114520D01*
X56289Y114690D01*
X57249Y115088D01*
X60419Y111919D01*
X60915Y111587D01*
X61500Y111471D01*
X77867D01*
X88486Y100851D01*
Y96992D01*
X76614D01*
Y93138D01*
X75736D01*
Y96992D01*
X74646D01*
Y93986D01*
X74428Y93661D01*
X74292Y92978D01*
Y90693D01*
X74268Y90570D01*
Y84982D01*
X74168Y84833D01*
X74112Y84552D01*
X77992D01*
X77936Y84833D01*
X77836Y84982D01*
Y87097D01*
X78298Y87289D01*
X80554Y85034D01*
X80616Y84720D01*
X81058Y84058D01*
X81720Y83616D01*
X82500Y83461D01*
X83280Y83616D01*
X83942Y84058D01*
X84384Y84720D01*
X84539Y85500D01*
X84477Y85814D01*
X85192Y86529D01*
X85523Y87025D01*
X85640Y87610D01*
Y89284D01*
X104234D01*
Y54736D01*
X104351Y54151D01*
X104682Y53655D01*
X106159Y52179D01*
X105967Y51717D01*
X105020D01*
X104786Y52066D01*
X99271Y57581D01*
X98775Y57913D01*
X98190Y58029D01*
X92311D01*
X91780Y58384D01*
X91154Y58508D01*
X84971Y64692D01*
X84475Y65023D01*
X83890Y65140D01*
X72216D01*
Y67925D01*
Y71862D01*
Y75799D01*
Y79736D01*
Y83673D01*
Y86854D01*
X64508D01*
Y83673D01*
Y79736D01*
Y74982D01*
X61453D01*
X60868Y74866D01*
X60371Y74534D01*
X59419Y73581D01*
X59087Y73085D01*
X58971Y72500D01*
Y34500D01*
X59087Y33915D01*
X59419Y33419D01*
X68841Y23996D01*
X68649Y23532D01*
X68513Y22500D01*
X68649Y21468D01*
X69047Y20507D01*
X69681Y19681D01*
X70507Y19047D01*
X71468Y18649D01*
X72500Y18513D01*
X73532Y18649D01*
X74493Y19047D01*
X75319Y19681D01*
X75953Y20507D01*
X76351Y21468D01*
X76487Y22500D01*
X76351Y23532D01*
X75953Y24493D01*
X75319Y25319D01*
X74493Y25953D01*
X73532Y26351D01*
X72500Y26487D01*
X71468Y26351D01*
X71004Y26159D01*
X62029Y35133D01*
Y71867D01*
X62086Y71923D01*
X64508D01*
Y69894D01*
Y65957D01*
Y62020D01*
Y62019D01*
X68362D01*
Y61264D01*
X64508D01*
Y58083D01*
Y54146D01*
X72216D01*
Y56114D01*
Y59857D01*
X73619D01*
X74963Y58513D01*
X74961Y58500D01*
X75116Y57720D01*
X75558Y57058D01*
X76220Y56616D01*
X76500Y56560D01*
Y58500D01*
X77000D01*
Y59000D01*
X78940D01*
X78884Y59280D01*
X78442Y59942D01*
X78159Y60131D01*
X78149Y60183D01*
X77762Y60762D01*
X76904Y61619D01*
X77096Y62081D01*
X83256D01*
X86846Y58491D01*
X86654Y58029D01*
X83811D01*
X83225Y57913D01*
X82729Y57581D01*
X77214Y52066D01*
X76980Y51717D01*
X74646D01*
Y44008D01*
X79796D01*
Y47805D01*
X79807Y47862D01*
X80551D01*
Y44008D01*
X103980D01*
Y41503D01*
X102896Y40419D01*
X102720Y40384D01*
X102058Y39942D01*
X101616Y39280D01*
X101560Y39000D01*
X103500D01*
Y38500D01*
X104000D01*
Y36560D01*
X104280Y36616D01*
X104942Y37058D01*
X105384Y37720D01*
X105419Y37896D01*
X106509Y38985D01*
X106971Y38794D01*
Y29133D01*
X103996Y26159D01*
X103532Y26351D01*
X102500Y26487D01*
X101468Y26351D01*
X100507Y25953D01*
X99681Y25319D01*
X99047Y24493D01*
X98649Y23532D01*
X98513Y22500D01*
X98649Y21468D01*
X99047Y20507D01*
X99681Y19681D01*
X100507Y19047D01*
X101468Y18649D01*
X102500Y18513D01*
X103532Y18649D01*
X104493Y19047D01*
X105319Y19681D01*
X105953Y20507D01*
X106351Y21468D01*
X106487Y22500D01*
X106351Y23532D01*
X106159Y23996D01*
X109581Y27419D01*
X109913Y27915D01*
X110029Y28500D01*
Y50654D01*
X110491Y50846D01*
X110971Y50366D01*
Y26145D01*
X110507Y25953D01*
X109681Y25319D01*
X109047Y24493D01*
X108649Y23532D01*
X108513Y22500D01*
X108649Y21468D01*
X109047Y20507D01*
X109681Y19681D01*
X110507Y19047D01*
X111468Y18649D01*
X112500Y18513D01*
X113532Y18649D01*
X114493Y19047D01*
X115319Y19681D01*
X115953Y20507D01*
X116351Y21468D01*
X116487Y22500D01*
X116351Y23532D01*
X115953Y24493D01*
X115319Y25319D01*
X114493Y25953D01*
X114029Y26145D01*
Y51000D01*
X113913Y51585D01*
X113581Y52081D01*
X111979Y53684D01*
X112171Y54146D01*
X117492D01*
Y56114D01*
Y60051D01*
Y63988D01*
Y67925D01*
Y71862D01*
Y75971D01*
X127000D01*
X127585Y76087D01*
X128081Y76419D01*
X130133Y78471D01*
X131269D01*
X131298Y78427D01*
X132019Y77946D01*
X132870Y77776D01*
X136217D01*
X137068Y77946D01*
X137789Y78427D01*
X138271Y79149D01*
X138441Y80000D01*
X138347Y80471D01*
X138747Y80971D01*
X139289D01*
X145711Y74548D01*
X146208Y74216D01*
X146793Y74100D01*
X152305D01*
X152754Y73427D01*
X153476Y72945D01*
X154327Y72776D01*
X157673D01*
X158524Y72945D01*
X159246Y73427D01*
X159728Y74149D01*
X159897Y75000D01*
X159728Y75851D01*
X159246Y76573D01*
X158524Y77055D01*
X157673Y77224D01*
X154327D01*
X153999Y77159D01*
X147426D01*
X141576Y83009D01*
X141768Y83471D01*
X143000D01*
X143585Y83587D01*
X144081Y83919D01*
X153119Y92956D01*
X182328D01*
X182520Y92494D01*
X181555Y91529D01*
X159274D01*
X159246Y91572D01*
X158524Y92054D01*
X157673Y92224D01*
X154327D01*
X153476Y92054D01*
X152754Y91572D01*
X152272Y90851D01*
X152103Y90000D01*
X152272Y89149D01*
X152754Y88428D01*
X153476Y87945D01*
X154327Y87776D01*
X157673D01*
X158524Y87945D01*
X159246Y88428D01*
X159274Y88471D01*
X182189D01*
X182774Y88587D01*
X183270Y88919D01*
X220203Y125851D01*
X221195Y125440D01*
X222500Y125268D01*
X223805Y125440D01*
X225022Y125944D01*
X226066Y126745D01*
X226868Y127789D01*
X227371Y129006D01*
X227543Y130311D01*
X227371Y131616D01*
X226868Y132833D01*
X226066Y133877D01*
X225022Y134678D01*
X223805Y135182D01*
X222500Y135354D01*
X221195Y135182D01*
X219978Y134678D01*
X218934Y133877D01*
X218132Y132833D01*
X218029Y132584D01*
X217529Y132683D01*
Y134988D01*
X220203Y137662D01*
X221195Y137251D01*
X222500Y137079D01*
X223805Y137251D01*
X225022Y137754D01*
X226066Y138556D01*
X226868Y139600D01*
X227371Y140817D01*
X227543Y142122D01*
X227371Y143427D01*
X226868Y144644D01*
X226066Y145688D01*
X225022Y146490D01*
X223805Y146993D01*
X222500Y147165D01*
X221195Y146993D01*
X219978Y146490D01*
X218934Y145688D01*
X218132Y144644D01*
X217629Y143427D01*
X217457Y142122D01*
X217629Y140817D01*
X218040Y139824D01*
X214919Y136703D01*
X214587Y136207D01*
X214471Y135622D01*
Y127134D01*
X201741Y114404D01*
X201270Y114640D01*
X201159Y115480D01*
X200781Y116394D01*
X200179Y117179D01*
X199394Y117781D01*
X198480Y118159D01*
X197500Y118288D01*
X196519Y118159D01*
X195606Y117781D01*
X194965Y117289D01*
X194741D01*
X194155Y117172D01*
X193659Y116841D01*
X193328Y116345D01*
X193211Y115759D01*
X193328Y115174D01*
X193659Y114678D01*
X193729Y114631D01*
X193712Y114500D01*
X193841Y113520D01*
X194219Y112606D01*
X194821Y111821D01*
X195606Y111219D01*
X196519Y110841D01*
X197360Y110730D01*
X197596Y110259D01*
X183352Y96014D01*
X152485D01*
X151900Y95898D01*
X151403Y95566D01*
X142367Y86529D01*
X137818D01*
X137789Y86572D01*
X137068Y87055D01*
X136217Y87224D01*
X132870D01*
X132019Y87055D01*
X131298Y86572D01*
X130816Y85851D01*
X130646Y85000D01*
X130740Y84529D01*
X130340Y84029D01*
X129000D01*
X128415Y83913D01*
X127919Y83581D01*
X125225Y80888D01*
X122415D01*
X122366Y81388D01*
X122485Y81411D01*
X123147Y81853D01*
X123589Y82515D01*
X123744Y83295D01*
X123589Y84076D01*
X123147Y84737D01*
X122485Y85179D01*
X121705Y85334D01*
X120924Y85179D01*
X120394Y84825D01*
X118239D01*
X118010Y85248D01*
X118229Y85649D01*
X118230Y85649D01*
X118248Y85695D01*
X118574Y86050D01*
X120062Y87539D01*
X120103Y87555D01*
X120629Y87660D01*
X120641Y87668D01*
X120720Y87616D01*
X121000Y87560D01*
Y89500D01*
Y91440D01*
X120720Y91384D01*
X120207Y91041D01*
X119947Y91093D01*
X119930D01*
X119928Y91092D01*
X119925Y91093D01*
X119918Y91093D01*
X119806Y91070D01*
X119082Y90975D01*
X118291Y90648D01*
X117680Y90179D01*
X117606Y90129D01*
X115678Y88201D01*
X115678Y88201D01*
Y88201D01*
X115360Y87833D01*
X114939Y87264D01*
X114670Y87282D01*
X114565Y87268D01*
X114453Y87283D01*
X113605Y87171D01*
X112840Y86854D01*
X109783D01*
Y85764D01*
X113638D01*
Y84886D01*
X109783D01*
Y82856D01*
X108586D01*
X108001Y82740D01*
X107793Y82601D01*
X107293Y82868D01*
Y89284D01*
X107354D01*
Y96992D01*
X103356D01*
Y100693D01*
X105633Y102971D01*
X131000D01*
X131585Y103087D01*
X132081Y103419D01*
X157581Y128919D01*
X157913Y129415D01*
X158029Y130000D01*
Y150790D01*
X158990Y151188D01*
X160021Y151979D01*
X160812Y153010D01*
X161229Y154017D01*
X161771D01*
X162188Y153010D01*
X162979Y151979D01*
X164010Y151188D01*
X165211Y150690D01*
X166500Y150520D01*
X167789Y150690D01*
X168990Y151188D01*
X170021Y151979D01*
X170812Y153010D01*
X171229Y154017D01*
X171771D01*
X172187Y153010D01*
X172979Y151979D01*
X174010Y151188D01*
X175211Y150690D01*
X176500Y150520D01*
X177789Y150690D01*
X178990Y151188D01*
X180021Y151979D01*
X180813Y153010D01*
X180971Y153392D01*
X181471Y153293D01*
Y145633D01*
X159249Y123412D01*
X158289Y123810D01*
X157000Y123980D01*
X155711Y123810D01*
X154510Y123312D01*
X153479Y122521D01*
X152688Y121490D01*
X152190Y120289D01*
X152020Y119000D01*
X152190Y117711D01*
X152688Y116510D01*
X153479Y115479D01*
X154510Y114688D01*
X155711Y114190D01*
X157000Y114020D01*
X158289Y114190D01*
X159490Y114688D01*
X160521Y115479D01*
X161312Y116510D01*
X161729Y117517D01*
X162271D01*
X162688Y116510D01*
X163479Y115479D01*
X164510Y114688D01*
X165711Y114190D01*
X167000Y114020D01*
X168289Y114190D01*
X169490Y114688D01*
X170521Y115479D01*
X171312Y116510D01*
X171729Y117517D01*
X172271D01*
X172687Y116510D01*
X173479Y115479D01*
X174510Y114688D01*
X175711Y114190D01*
X177000Y114020D01*
X178289Y114190D01*
X179490Y114688D01*
X180521Y115479D01*
X181313Y116510D01*
X181810Y117711D01*
X181980Y119000D01*
X181810Y120289D01*
X181313Y121490D01*
X180521Y122521D01*
X179490Y123312D01*
X178289Y123810D01*
X177000Y123980D01*
X175711Y123810D01*
X174510Y123312D01*
X173479Y122521D01*
X172687Y121490D01*
X172271Y120483D01*
X171729D01*
X171312Y121490D01*
X170521Y122521D01*
X169490Y123312D01*
X168529Y123710D01*
Y124297D01*
X186581Y142349D01*
X186913Y142845D01*
X187029Y143430D01*
Y166500D01*
X186913Y167085D01*
X186581Y167581D01*
X165477Y188686D01*
X165539Y189000D01*
X165384Y189780D01*
X164942Y190442D01*
X164280Y190884D01*
X163500Y191039D01*
D02*
G37*
G36*
X12000Y188795D02*
X10187Y188616D01*
X8443Y188087D01*
X6836Y187228D01*
X5428Y186072D01*
X4272Y184664D01*
X3413Y183057D01*
X2884Y181313D01*
X2705Y179500D01*
X2884Y177687D01*
X3413Y175943D01*
X4272Y174336D01*
X5428Y172928D01*
X6836Y171772D01*
X8443Y170913D01*
X10187Y170384D01*
X12000Y170205D01*
X13813Y170384D01*
X15557Y170913D01*
X17164Y171772D01*
X18572Y172928D01*
X19728Y174336D01*
X20587Y175943D01*
X21116Y177687D01*
X21295Y179500D01*
X21116Y181313D01*
X20587Y183057D01*
X19728Y184664D01*
X18572Y186072D01*
X17164Y187228D01*
X15557Y188087D01*
X13813Y188616D01*
X12000Y188795D01*
D02*
G37*
G36*
X223000Y186295D02*
X221187Y186116D01*
X219443Y185587D01*
X217836Y184728D01*
X216428Y183572D01*
X215272Y182164D01*
X214413Y180557D01*
X213884Y178813D01*
X213705Y177000D01*
X213884Y175187D01*
X214413Y173443D01*
X215272Y171836D01*
X216428Y170428D01*
X217836Y169272D01*
X219443Y168413D01*
X221187Y167884D01*
X223000Y167705D01*
X224813Y167884D01*
X226557Y168413D01*
X228164Y169272D01*
X229572Y170428D01*
X230728Y171836D01*
X231587Y173443D01*
X232116Y175187D01*
X232295Y177000D01*
X232116Y178813D01*
X231587Y180557D01*
X230728Y182164D01*
X229572Y183572D01*
X228164Y184728D01*
X226557Y185587D01*
X224813Y186116D01*
X223000Y186295D01*
D02*
G37*
G36*
X22500Y161791D02*
X21260Y161628D01*
X20105Y161149D01*
X19112Y160388D01*
X18351Y159396D01*
X17872Y158240D01*
X17709Y157000D01*
X17872Y155760D01*
X18351Y154604D01*
X19112Y153612D01*
X20105Y152851D01*
X21260Y152372D01*
X22500Y152209D01*
X23740Y152372D01*
X24895Y152851D01*
X25888Y153612D01*
X26649Y154604D01*
X27128Y155760D01*
X27291Y157000D01*
X27128Y158240D01*
X26649Y159396D01*
X25888Y160388D01*
X24895Y161149D01*
X23740Y161628D01*
X22500Y161791D01*
D02*
G37*
G36*
X214783Y158724D02*
X213543Y158561D01*
X212388Y158082D01*
X211396Y157321D01*
X210634Y156328D01*
X210156Y155173D01*
X209992Y153933D01*
X210156Y152693D01*
X210634Y151538D01*
X211396Y150545D01*
X212388Y149784D01*
X213543Y149305D01*
X214783Y149142D01*
X216023Y149305D01*
X217179Y149784D01*
X218171Y150545D01*
X218933Y151538D01*
X219411Y152693D01*
X219574Y153933D01*
X219411Y155173D01*
X218933Y156328D01*
X218171Y157321D01*
X217179Y158082D01*
X216023Y158561D01*
X214783Y158724D01*
D02*
G37*
G36*
X14783Y150232D02*
X13478Y150060D01*
X12262Y149556D01*
X11217Y148755D01*
X10416Y147710D01*
X9912Y146494D01*
X9740Y145189D01*
X9912Y143884D01*
X10416Y142667D01*
X11217Y141623D01*
X12262Y140821D01*
X13478Y140317D01*
X14783Y140146D01*
X16089Y140317D01*
X17305Y140821D01*
X18349Y141623D01*
X19151Y142667D01*
X19655Y143884D01*
X19827Y145189D01*
X19655Y146494D01*
X19151Y147710D01*
X18349Y148755D01*
X17305Y149556D01*
X16089Y150060D01*
X14783Y150232D01*
D02*
G37*
G36*
Y138421D02*
X13478Y138249D01*
X12262Y137745D01*
X11217Y136944D01*
X10416Y135899D01*
X9912Y134683D01*
X9740Y133378D01*
X9912Y132072D01*
X10416Y130856D01*
X11217Y129812D01*
X12262Y129010D01*
X13478Y128507D01*
X14783Y128335D01*
X16089Y128507D01*
X17305Y129010D01*
X18349Y129812D01*
X19151Y130856D01*
X19655Y132072D01*
X19827Y133378D01*
X19655Y134683D01*
X19151Y135899D01*
X18349Y136944D01*
X17305Y137745D01*
X16089Y138249D01*
X14783Y138421D01*
D02*
G37*
G36*
Y126610D02*
X13478Y126438D01*
X12262Y125934D01*
X11217Y125133D01*
X10416Y124088D01*
X9912Y122872D01*
X9740Y121567D01*
X9912Y120262D01*
X10416Y119045D01*
X11217Y118001D01*
X12262Y117199D01*
X13478Y116695D01*
X14783Y116524D01*
X16089Y116695D01*
X17305Y117199D01*
X18349Y118001D01*
X19151Y119045D01*
X19655Y120262D01*
X19827Y121567D01*
X19655Y122872D01*
X19151Y124088D01*
X18349Y125133D01*
X17305Y125934D01*
X16089Y126438D01*
X14783Y126610D01*
D02*
G37*
G36*
X222500Y123543D02*
X221195Y123371D01*
X219978Y122868D01*
X218934Y122066D01*
X218132Y121022D01*
X217629Y119805D01*
X217457Y118500D01*
X217629Y117195D01*
X218132Y115978D01*
X218934Y114934D01*
X219978Y114132D01*
X221195Y113629D01*
X222500Y113457D01*
X223805Y113629D01*
X225022Y114132D01*
X226066Y114934D01*
X226868Y115978D01*
X227371Y117195D01*
X227543Y118500D01*
X227371Y119805D01*
X226868Y121022D01*
X226066Y122066D01*
X225022Y122868D01*
X223805Y123371D01*
X222500Y123543D01*
D02*
G37*
G36*
X14783Y114799D02*
X13478Y114627D01*
X12262Y114123D01*
X11217Y113322D01*
X10416Y112277D01*
X9912Y111061D01*
X9740Y109756D01*
X9912Y108450D01*
X10416Y107234D01*
X11217Y106190D01*
X12262Y105388D01*
X13478Y104885D01*
X14783Y104713D01*
X16089Y104885D01*
X17305Y105388D01*
X18349Y106190D01*
X19151Y107234D01*
X19655Y108450D01*
X19827Y109756D01*
X19655Y111061D01*
X19151Y112277D01*
X18349Y113322D01*
X17305Y114123D01*
X16089Y114627D01*
X14783Y114799D01*
D02*
G37*
G36*
X222500Y111732D02*
X221195Y111560D01*
X219978Y111056D01*
X218934Y110255D01*
X218132Y109211D01*
X217629Y107994D01*
X217457Y106689D01*
X217629Y105384D01*
X218132Y104167D01*
X218934Y103123D01*
X219978Y102322D01*
X221195Y101818D01*
X222500Y101646D01*
X223805Y101818D01*
X225022Y102322D01*
X226066Y103123D01*
X226868Y104167D01*
X227371Y105384D01*
X227543Y106689D01*
X227371Y107994D01*
X226868Y109211D01*
X226066Y110255D01*
X225022Y111056D01*
X223805Y111560D01*
X222500Y111732D01*
D02*
G37*
G36*
X223000Y99855D02*
Y95378D01*
X227477D01*
X227371Y96183D01*
X226868Y97400D01*
X226066Y98444D01*
X225022Y99246D01*
X223805Y99749D01*
X223000Y99855D01*
D02*
G37*
G36*
X222000D02*
X221195Y99749D01*
X219978Y99246D01*
X218934Y98444D01*
X218132Y97400D01*
X217629Y96183D01*
X217523Y95378D01*
X222000D01*
Y99855D01*
D02*
G37*
G36*
X14783Y102988D02*
X13478Y102816D01*
X12262Y102312D01*
X11217Y101511D01*
X10416Y100466D01*
X9912Y99250D01*
X9740Y97945D01*
X9912Y96640D01*
X10416Y95423D01*
X11217Y94379D01*
X12262Y93577D01*
X13478Y93073D01*
X14783Y92902D01*
X16089Y93073D01*
X17305Y93577D01*
X18349Y94379D01*
X19151Y95423D01*
X19655Y96640D01*
X19827Y97945D01*
X19655Y99250D01*
X19151Y100466D01*
X18349Y101511D01*
X17305Y102312D01*
X16089Y102816D01*
X14783Y102988D01*
D02*
G37*
G36*
X122000Y91440D02*
Y90000D01*
X123440D01*
X123384Y90280D01*
X122942Y90942D01*
X122280Y91384D01*
X122000Y91440D01*
D02*
G37*
G36*
X227477Y94378D02*
X223000D01*
Y89901D01*
X223805Y90007D01*
X225022Y90510D01*
X226066Y91312D01*
X226868Y92356D01*
X227371Y93573D01*
X227477Y94378D01*
D02*
G37*
G36*
X222000D02*
X217523D01*
X217629Y93573D01*
X218132Y92356D01*
X218934Y91312D01*
X219978Y90510D01*
X221195Y90007D01*
X222000Y89901D01*
Y94378D01*
D02*
G37*
G36*
X56583Y95520D02*
X47417D01*
Y89504D01*
X56583D01*
Y95520D01*
D02*
G37*
G36*
X42583Y95358D02*
X33417D01*
Y89343D01*
X42583D01*
Y95358D01*
D02*
G37*
G36*
X136217Y92224D02*
X132870D01*
X132019Y92054D01*
X131298Y91572D01*
X130816Y90851D01*
X130646Y90000D01*
X130816Y89149D01*
X131298Y88428D01*
X132019Y87945D01*
X132870Y87776D01*
X136217D01*
X137068Y87945D01*
X137789Y88428D01*
X138271Y89149D01*
X138441Y90000D01*
X138271Y90851D01*
X137789Y91572D01*
X137068Y92054D01*
X136217Y92224D01*
D02*
G37*
G36*
X123440Y89000D02*
X122000D01*
Y87560D01*
X122280Y87616D01*
X122942Y88058D01*
X123384Y88720D01*
X123440Y89000D01*
D02*
G37*
G36*
X157673Y87224D02*
X154327D01*
X153476Y87055D01*
X152754Y86572D01*
X152272Y85851D01*
X152103Y85000D01*
X152272Y84149D01*
X152754Y83428D01*
X153476Y82946D01*
X154327Y82776D01*
X157673D01*
X158524Y82946D01*
X159246Y83428D01*
X159728Y84149D01*
X159897Y85000D01*
X159728Y85851D01*
X159246Y86572D01*
X158524Y87055D01*
X157673Y87224D01*
D02*
G37*
G36*
X77992Y83552D02*
X76552D01*
Y82112D01*
X76832Y82168D01*
X77494Y82610D01*
X77936Y83272D01*
X77992Y83552D01*
D02*
G37*
G36*
X75552D02*
X74112D01*
X74168Y83272D01*
X74610Y82610D01*
X75272Y82168D01*
X75552Y82112D01*
Y83552D01*
D02*
G37*
G36*
X56583Y84496D02*
X52500D01*
Y81988D01*
X56583D01*
Y84496D01*
D02*
G37*
G36*
X51500D02*
X47417D01*
Y81988D01*
X51500D01*
Y84496D01*
D02*
G37*
G36*
X42583Y84335D02*
X38500D01*
Y81827D01*
X42583D01*
Y84335D01*
D02*
G37*
G36*
X37500D02*
X33417D01*
Y81827D01*
X37500D01*
Y84335D01*
D02*
G37*
G36*
X56583Y80988D02*
X52500D01*
Y78480D01*
X56583D01*
Y80988D01*
D02*
G37*
G36*
X51500D02*
X47417D01*
Y78480D01*
X51500D01*
Y80988D01*
D02*
G37*
G36*
X42583Y80827D02*
X38500D01*
Y78319D01*
X42583D01*
Y80827D01*
D02*
G37*
G36*
X37500D02*
X33417D01*
Y78319D01*
X37500D01*
Y80827D01*
D02*
G37*
G36*
X197500Y88288D02*
X196519Y88159D01*
X195606Y87781D01*
X194821Y87179D01*
X194219Y86394D01*
X193841Y85480D01*
X193712Y84500D01*
X193841Y83520D01*
X193886Y83410D01*
X188498Y78022D01*
X188111Y77443D01*
X187976Y76760D01*
Y67783D01*
X187579D01*
Y61059D01*
X191941D01*
Y67783D01*
X191544D01*
Y76021D01*
X196410Y80886D01*
X196519Y80841D01*
X197500Y80712D01*
X198480Y80841D01*
X199394Y81219D01*
X200179Y81821D01*
X200781Y82606D01*
X200826Y82716D01*
X217503D01*
X217629Y81762D01*
X218132Y80545D01*
X218934Y79501D01*
X219978Y78699D01*
X221195Y78196D01*
X222500Y78024D01*
X223805Y78196D01*
X225022Y78699D01*
X226066Y79501D01*
X226868Y80545D01*
X227371Y81762D01*
X227543Y83067D01*
X227371Y84372D01*
X226868Y85589D01*
X226066Y86633D01*
X225022Y87435D01*
X223805Y87938D01*
X222500Y88110D01*
X221195Y87938D01*
X219978Y87435D01*
X218934Y86633D01*
X218666Y86284D01*
X200826D01*
X200781Y86394D01*
X200179Y87179D01*
X199394Y87781D01*
X198480Y88159D01*
X197500Y88288D01*
D02*
G37*
G36*
X157673Y82224D02*
X154327D01*
X153476Y82055D01*
X152754Y81573D01*
X152272Y80851D01*
X152103Y80000D01*
X152272Y79149D01*
X152754Y78427D01*
X153476Y77946D01*
X154327Y77776D01*
X157673D01*
X158524Y77946D01*
X159246Y78427D01*
X159728Y79149D01*
X159897Y80000D01*
X159728Y80851D01*
X159246Y81573D01*
X158524Y82055D01*
X157673Y82224D01*
D02*
G37*
G36*
X136217Y77224D02*
X135043D01*
Y75500D01*
X138341D01*
X138271Y75851D01*
X137789Y76573D01*
X137068Y77055D01*
X136217Y77224D01*
D02*
G37*
G36*
X134043D02*
X132870D01*
X132019Y77055D01*
X131298Y76573D01*
X130816Y75851D01*
X130746Y75500D01*
X134043D01*
Y77224D01*
D02*
G37*
G36*
X138341Y74500D02*
X135043D01*
Y72776D01*
X136217D01*
X137068Y72945D01*
X137789Y73427D01*
X138271Y74149D01*
X138341Y74500D01*
D02*
G37*
G36*
X134043D02*
X130746D01*
X130816Y74149D01*
X131298Y73427D01*
X132019Y72945D01*
X132870Y72776D01*
X134043D01*
Y74500D01*
D02*
G37*
G36*
X41996Y76083D02*
X39488D01*
Y72000D01*
X41996D01*
Y76083D01*
D02*
G37*
G36*
X38488D02*
X35980D01*
Y72000D01*
X38488D01*
Y76083D01*
D02*
G37*
G36*
X14783Y79366D02*
X13478Y79194D01*
X12262Y78690D01*
X11217Y77889D01*
X10416Y76844D01*
X9912Y75628D01*
X9740Y74323D01*
X9912Y73018D01*
X10416Y71801D01*
X11217Y70757D01*
X12262Y69955D01*
X13478Y69451D01*
X14783Y69280D01*
X16089Y69451D01*
X17305Y69955D01*
X18349Y70757D01*
X19151Y71801D01*
X19655Y73018D01*
X19827Y74323D01*
X19655Y75628D01*
X19151Y76844D01*
X18349Y77889D01*
X17305Y78690D01*
X16089Y79194D01*
X14783Y79366D01*
D02*
G37*
G36*
X53020Y76083D02*
X47004D01*
Y74504D01*
X46975Y74356D01*
X47004Y74208D01*
Y66917D01*
X53020D01*
Y76083D01*
D02*
G37*
G36*
X41996Y71000D02*
X39488D01*
Y66917D01*
X41996D01*
Y71000D01*
D02*
G37*
G36*
X38488D02*
X35980D01*
Y66917D01*
X38488D01*
Y71000D01*
D02*
G37*
G36*
X222500Y76299D02*
X221195Y76127D01*
X219978Y75624D01*
X218934Y74822D01*
X218132Y73778D01*
X217629Y72561D01*
X217457Y71256D01*
X217629Y69951D01*
X218132Y68734D01*
X218934Y67690D01*
X219978Y66888D01*
X221195Y66385D01*
X222500Y66213D01*
X223805Y66385D01*
X225022Y66888D01*
X226066Y67690D01*
X226868Y68734D01*
X227371Y69951D01*
X227543Y71256D01*
X227371Y72561D01*
X226868Y73778D01*
X226066Y74822D01*
X225022Y75624D01*
X223805Y76127D01*
X222500Y76299D01*
D02*
G37*
G36*
X14783Y67555D02*
X13478Y67383D01*
X12262Y66879D01*
X11217Y66078D01*
X10416Y65033D01*
X9912Y63817D01*
X9740Y62512D01*
X9912Y61207D01*
X10416Y59990D01*
X11217Y58946D01*
X12262Y58144D01*
X13478Y57640D01*
X14783Y57469D01*
X16089Y57640D01*
X17305Y58144D01*
X18349Y58946D01*
X19151Y59990D01*
X19655Y61207D01*
X19827Y62512D01*
X19655Y63817D01*
X19151Y65033D01*
X18349Y66078D01*
X17305Y66879D01*
X16089Y67383D01*
X14783Y67555D01*
D02*
G37*
G36*
X78940Y58000D02*
X77500D01*
Y56560D01*
X77780Y56616D01*
X78442Y57058D01*
X78884Y57720D01*
X78940Y58000D01*
D02*
G37*
G36*
X199421Y67783D02*
X195059D01*
Y61059D01*
X199421D01*
Y62892D01*
X216890D01*
X218040Y61742D01*
X217629Y60750D01*
X217457Y59445D01*
X217629Y58139D01*
X218132Y56923D01*
X218934Y55879D01*
X219978Y55077D01*
X221195Y54574D01*
X222500Y54402D01*
X223805Y54574D01*
X225022Y55077D01*
X226066Y55879D01*
X226868Y56923D01*
X227371Y58139D01*
X227543Y59445D01*
X227371Y60750D01*
X226868Y61966D01*
X226066Y63011D01*
X225022Y63812D01*
X223805Y64316D01*
X222500Y64488D01*
X221195Y64316D01*
X220203Y63905D01*
X218605Y65503D01*
X218109Y65834D01*
X217524Y65951D01*
X199421D01*
Y67783D01*
D02*
G37*
G36*
X14783Y55744D02*
X13478Y55572D01*
X12262Y55068D01*
X11217Y54267D01*
X10416Y53222D01*
X9912Y52006D01*
X9740Y50701D01*
X9912Y49395D01*
X10416Y48179D01*
X11217Y47135D01*
X12262Y46333D01*
X13478Y45829D01*
X14783Y45658D01*
X16089Y45829D01*
X17305Y46333D01*
X18349Y47135D01*
X19151Y48179D01*
X19655Y49395D01*
X19827Y50701D01*
X19655Y52006D01*
X19151Y53222D01*
X18349Y54267D01*
X17305Y55068D01*
X16089Y55572D01*
X14783Y55744D01*
D02*
G37*
G36*
X199421Y57941D02*
X187579D01*
Y51217D01*
X188230D01*
Y17893D01*
X187132Y16795D01*
X185884Y17463D01*
X184470Y17891D01*
X183000Y18036D01*
X181530Y17891D01*
X180116Y17463D01*
X178813Y16766D01*
X177671Y15829D01*
X176734Y14687D01*
X176037Y13384D01*
X175761Y12474D01*
X175239D01*
X174963Y13384D01*
X174266Y14687D01*
X173329Y15829D01*
X172187Y16766D01*
X170884Y17463D01*
X169470Y17891D01*
X168000Y18036D01*
X166530Y17891D01*
X165116Y17463D01*
X163813Y16766D01*
X162671Y15829D01*
X161734Y14687D01*
X161037Y13384D01*
X160608Y11970D01*
X160464Y10500D01*
X160608Y9030D01*
X161037Y7616D01*
X161734Y6313D01*
X162671Y5171D01*
X163813Y4234D01*
X165116Y3537D01*
X166530Y3108D01*
X168000Y2964D01*
X169470Y3108D01*
X170884Y3537D01*
X172187Y4234D01*
X173329Y5171D01*
X174266Y6313D01*
X174963Y7616D01*
X175239Y8526D01*
X175761D01*
X176037Y7616D01*
X176734Y6313D01*
X177671Y5171D01*
X178813Y4234D01*
X180116Y3537D01*
X181530Y3108D01*
X183000Y2964D01*
X184470Y3108D01*
X185884Y3537D01*
X187187Y4234D01*
X188329Y5171D01*
X189266Y6313D01*
X189963Y7616D01*
X190239Y8526D01*
X190761D01*
X191037Y7616D01*
X191734Y6313D01*
X192671Y5171D01*
X193813Y4234D01*
X195116Y3537D01*
X196530Y3108D01*
X198000Y2964D01*
X199470Y3108D01*
X200884Y3537D01*
X202187Y4234D01*
X203329Y5171D01*
X204266Y6313D01*
X204963Y7616D01*
X205392Y9030D01*
X205536Y10500D01*
X205392Y11970D01*
X204963Y13384D01*
X204266Y14687D01*
X203329Y15829D01*
X202187Y16766D01*
X200884Y17463D01*
X199470Y17891D01*
X198000Y18036D01*
X196530Y17891D01*
X195116Y17463D01*
X193813Y16766D01*
X193520Y16525D01*
X193500Y16529D01*
X192915Y16413D01*
X192419Y16081D01*
X192087Y15585D01*
X191971Y15000D01*
X191974Y14980D01*
X191734Y14687D01*
X191037Y13384D01*
X190761Y12474D01*
X190239D01*
X189963Y13384D01*
X189295Y14633D01*
X190841Y16178D01*
X191173Y16675D01*
X191289Y17260D01*
Y51217D01*
X199421D01*
Y53049D01*
X214921D01*
X218040Y49931D01*
X217629Y48939D01*
X217457Y47634D01*
X217629Y46328D01*
X218132Y45112D01*
X218934Y44068D01*
X219978Y43266D01*
X221195Y42763D01*
X222500Y42591D01*
X223805Y42763D01*
X225022Y43266D01*
X226066Y44068D01*
X226868Y45112D01*
X227371Y46328D01*
X227543Y47634D01*
X227371Y48939D01*
X226868Y50155D01*
X226066Y51200D01*
X225022Y52001D01*
X223805Y52505D01*
X222500Y52677D01*
X221195Y52505D01*
X220203Y52094D01*
X216636Y55660D01*
X216140Y55992D01*
X215555Y56108D01*
X199421D01*
Y57941D01*
D02*
G37*
G36*
X103000Y38000D02*
X101560D01*
X101616Y37720D01*
X102058Y37058D01*
X102720Y36616D01*
X103000Y36560D01*
Y38000D01*
D02*
G37*
G36*
X22500Y43681D02*
X21260Y43517D01*
X20105Y43039D01*
X19112Y42277D01*
X18351Y41285D01*
X17872Y40130D01*
X17709Y38890D01*
X17872Y37650D01*
X18351Y36494D01*
X19112Y35502D01*
X20105Y34740D01*
X21260Y34262D01*
X22500Y34099D01*
X23740Y34262D01*
X24895Y34740D01*
X25888Y35502D01*
X26649Y36494D01*
X27128Y37650D01*
X27291Y38890D01*
X27128Y40130D01*
X26649Y41285D01*
X25888Y42277D01*
X24895Y43039D01*
X23740Y43517D01*
X22500Y43681D01*
D02*
G37*
G36*
X214783Y40614D02*
X213543Y40451D01*
X212388Y39972D01*
X211396Y39211D01*
X210634Y38218D01*
X210156Y37063D01*
X209992Y35823D01*
X210156Y34583D01*
X210634Y33427D01*
X211396Y32435D01*
X212388Y31674D01*
X213543Y31195D01*
X214783Y31032D01*
X216023Y31195D01*
X217179Y31674D01*
X218171Y32435D01*
X218933Y33427D01*
X219411Y34583D01*
X219574Y35823D01*
X219411Y37063D01*
X218933Y38218D01*
X218171Y39211D01*
X217179Y39972D01*
X216023Y40451D01*
X214783Y40614D01*
D02*
G37*
G36*
X146453Y26453D02*
X143000D01*
Y23000D01*
X146453D01*
Y26453D01*
D02*
G37*
G36*
X142000D02*
X138547D01*
Y23000D01*
X142000D01*
Y26453D01*
D02*
G37*
G36*
X146453Y22000D02*
X143000D01*
Y18547D01*
X146453D01*
Y22000D01*
D02*
G37*
G36*
X142000D02*
X138547D01*
Y18547D01*
X142000D01*
Y22000D01*
D02*
G37*
G36*
X132500Y26487D02*
X131468Y26351D01*
X130507Y25953D01*
X129681Y25319D01*
X129047Y24493D01*
X128649Y23532D01*
X128513Y22500D01*
X128649Y21468D01*
X129047Y20507D01*
X129681Y19681D01*
X130507Y19047D01*
X131468Y18649D01*
X132500Y18513D01*
X133532Y18649D01*
X134493Y19047D01*
X135319Y19681D01*
X135953Y20507D01*
X136351Y21468D01*
X136487Y22500D01*
X136351Y23532D01*
X135953Y24493D01*
X135319Y25319D01*
X134493Y25953D01*
X133532Y26351D01*
X132500Y26487D01*
D02*
G37*
G36*
X122500D02*
X121468Y26351D01*
X120507Y25953D01*
X119681Y25319D01*
X119047Y24493D01*
X118649Y23532D01*
X118513Y22500D01*
X118649Y21468D01*
X119047Y20507D01*
X119681Y19681D01*
X120507Y19047D01*
X121468Y18649D01*
X122500Y18513D01*
X123532Y18649D01*
X124493Y19047D01*
X125319Y19681D01*
X125953Y20507D01*
X126351Y21468D01*
X126487Y22500D01*
X126351Y23532D01*
X125953Y24493D01*
X125319Y25319D01*
X124493Y25953D01*
X123532Y26351D01*
X122500Y26487D01*
D02*
G37*
G36*
X92500D02*
X91468Y26351D01*
X90507Y25953D01*
X89681Y25319D01*
X89047Y24493D01*
X88649Y23532D01*
X88513Y22500D01*
X88649Y21468D01*
X89047Y20507D01*
X89681Y19681D01*
X90507Y19047D01*
X91468Y18649D01*
X92500Y18513D01*
X93532Y18649D01*
X94493Y19047D01*
X95319Y19681D01*
X95953Y20507D01*
X96351Y21468D01*
X96487Y22500D01*
X96351Y23532D01*
X95953Y24493D01*
X95319Y25319D01*
X94493Y25953D01*
X93532Y26351D01*
X92500Y26487D01*
D02*
G37*
G36*
X82500D02*
X81468Y26351D01*
X80507Y25953D01*
X79681Y25319D01*
X79047Y24493D01*
X78649Y23532D01*
X78513Y22500D01*
X78649Y21468D01*
X79047Y20507D01*
X79681Y19681D01*
X80507Y19047D01*
X81468Y18649D01*
X82500Y18513D01*
X83532Y18649D01*
X84493Y19047D01*
X85319Y19681D01*
X85953Y20507D01*
X86351Y21468D01*
X86487Y22500D01*
X86351Y23532D01*
X85953Y24493D01*
X85319Y25319D01*
X84493Y25953D01*
X83532Y26351D01*
X82500Y26487D01*
D02*
G37*
G36*
X62500D02*
X61468Y26351D01*
X60507Y25953D01*
X59681Y25319D01*
X59047Y24493D01*
X58649Y23532D01*
X58513Y22500D01*
X58649Y21468D01*
X59047Y20507D01*
X59681Y19681D01*
X60507Y19047D01*
X61468Y18649D01*
X62500Y18513D01*
X63532Y18649D01*
X64493Y19047D01*
X65319Y19681D01*
X65953Y20507D01*
X66351Y21468D01*
X66487Y22500D01*
X66351Y23532D01*
X65953Y24493D01*
X65319Y25319D01*
X64493Y25953D01*
X63532Y26351D01*
X62500Y26487D01*
D02*
G37*
G36*
X52500D02*
X51468Y26351D01*
X50507Y25953D01*
X49681Y25319D01*
X49047Y24493D01*
X48649Y23532D01*
X48513Y22500D01*
X48649Y21468D01*
X49047Y20507D01*
X49681Y19681D01*
X50507Y19047D01*
X51468Y18649D01*
X52500Y18513D01*
X53532Y18649D01*
X54493Y19047D01*
X55319Y19681D01*
X55953Y20507D01*
X56351Y21468D01*
X56487Y22500D01*
X56351Y23532D01*
X55953Y24493D01*
X55319Y25319D01*
X54493Y25953D01*
X53532Y26351D01*
X52500Y26487D01*
D02*
G37*
G36*
X143000Y16421D02*
Y13000D01*
X146421D01*
X146351Y13532D01*
X145953Y14493D01*
X145319Y15319D01*
X144493Y15953D01*
X143532Y16351D01*
X143000Y16421D01*
D02*
G37*
G36*
X142000D02*
X141468Y16351D01*
X140507Y15953D01*
X139681Y15319D01*
X139047Y14493D01*
X138649Y13532D01*
X138579Y13000D01*
X142000D01*
Y16421D01*
D02*
G37*
G36*
X146421Y12000D02*
X143000D01*
Y8579D01*
X143532Y8649D01*
X144493Y9047D01*
X145319Y9681D01*
X145953Y10507D01*
X146351Y11468D01*
X146421Y12000D01*
D02*
G37*
G36*
X142000D02*
X138579D01*
X138649Y11468D01*
X139047Y10507D01*
X139681Y9681D01*
X140507Y9047D01*
X141468Y8649D01*
X142000Y8579D01*
Y12000D01*
D02*
G37*
G36*
X132500Y16487D02*
X131468Y16351D01*
X130507Y15953D01*
X129681Y15319D01*
X129047Y14493D01*
X128649Y13532D01*
X128513Y12500D01*
X128649Y11468D01*
X129047Y10507D01*
X129681Y9681D01*
X130507Y9047D01*
X131468Y8649D01*
X132500Y8513D01*
X133532Y8649D01*
X134493Y9047D01*
X135319Y9681D01*
X135953Y10507D01*
X136351Y11468D01*
X136487Y12500D01*
X136351Y13532D01*
X135953Y14493D01*
X135319Y15319D01*
X134493Y15953D01*
X133532Y16351D01*
X132500Y16487D01*
D02*
G37*
G36*
X122500D02*
X121468Y16351D01*
X120507Y15953D01*
X119681Y15319D01*
X119047Y14493D01*
X118649Y13532D01*
X118513Y12500D01*
X118649Y11468D01*
X119047Y10507D01*
X119681Y9681D01*
X120507Y9047D01*
X121468Y8649D01*
X122500Y8513D01*
X123532Y8649D01*
X124493Y9047D01*
X125319Y9681D01*
X125953Y10507D01*
X126351Y11468D01*
X126487Y12500D01*
X126351Y13532D01*
X125953Y14493D01*
X125319Y15319D01*
X124493Y15953D01*
X123532Y16351D01*
X122500Y16487D01*
D02*
G37*
G36*
X112500D02*
X111468Y16351D01*
X110507Y15953D01*
X109681Y15319D01*
X109047Y14493D01*
X108649Y13532D01*
X108513Y12500D01*
X108649Y11468D01*
X109047Y10507D01*
X109681Y9681D01*
X110507Y9047D01*
X111468Y8649D01*
X112500Y8513D01*
X113532Y8649D01*
X114493Y9047D01*
X115319Y9681D01*
X115953Y10507D01*
X116351Y11468D01*
X116487Y12500D01*
X116351Y13532D01*
X115953Y14493D01*
X115319Y15319D01*
X114493Y15953D01*
X113532Y16351D01*
X112500Y16487D01*
D02*
G37*
G36*
X102500D02*
X101468Y16351D01*
X100507Y15953D01*
X99681Y15319D01*
X99047Y14493D01*
X98649Y13532D01*
X98513Y12500D01*
X98649Y11468D01*
X99047Y10507D01*
X99681Y9681D01*
X100507Y9047D01*
X101468Y8649D01*
X102500Y8513D01*
X103532Y8649D01*
X104493Y9047D01*
X105319Y9681D01*
X105953Y10507D01*
X106351Y11468D01*
X106487Y12500D01*
X106351Y13532D01*
X105953Y14493D01*
X105319Y15319D01*
X104493Y15953D01*
X103532Y16351D01*
X102500Y16487D01*
D02*
G37*
G36*
X92500D02*
X91468Y16351D01*
X90507Y15953D01*
X89681Y15319D01*
X89047Y14493D01*
X88649Y13532D01*
X88513Y12500D01*
X88649Y11468D01*
X89047Y10507D01*
X89681Y9681D01*
X90507Y9047D01*
X91468Y8649D01*
X92500Y8513D01*
X93532Y8649D01*
X94493Y9047D01*
X95319Y9681D01*
X95953Y10507D01*
X96351Y11468D01*
X96487Y12500D01*
X96351Y13532D01*
X95953Y14493D01*
X95319Y15319D01*
X94493Y15953D01*
X93532Y16351D01*
X92500Y16487D01*
D02*
G37*
G36*
X82500D02*
X81468Y16351D01*
X80507Y15953D01*
X79681Y15319D01*
X79047Y14493D01*
X78649Y13532D01*
X78513Y12500D01*
X78649Y11468D01*
X79047Y10507D01*
X79681Y9681D01*
X80507Y9047D01*
X81468Y8649D01*
X82500Y8513D01*
X83532Y8649D01*
X84493Y9047D01*
X85319Y9681D01*
X85953Y10507D01*
X86351Y11468D01*
X86487Y12500D01*
X86351Y13532D01*
X85953Y14493D01*
X85319Y15319D01*
X84493Y15953D01*
X83532Y16351D01*
X82500Y16487D01*
D02*
G37*
G36*
X72500D02*
X71468Y16351D01*
X70507Y15953D01*
X69681Y15319D01*
X69047Y14493D01*
X68649Y13532D01*
X68513Y12500D01*
X68649Y11468D01*
X69047Y10507D01*
X69681Y9681D01*
X70507Y9047D01*
X71468Y8649D01*
X72500Y8513D01*
X73532Y8649D01*
X74493Y9047D01*
X75319Y9681D01*
X75953Y10507D01*
X76351Y11468D01*
X76487Y12500D01*
X76351Y13532D01*
X75953Y14493D01*
X75319Y15319D01*
X74493Y15953D01*
X73532Y16351D01*
X72500Y16487D01*
D02*
G37*
G36*
X62500D02*
X61468Y16351D01*
X60507Y15953D01*
X59681Y15319D01*
X59047Y14493D01*
X58649Y13532D01*
X58513Y12500D01*
X58649Y11468D01*
X59047Y10507D01*
X59681Y9681D01*
X60507Y9047D01*
X61468Y8649D01*
X62500Y8513D01*
X63532Y8649D01*
X64493Y9047D01*
X65319Y9681D01*
X65953Y10507D01*
X66351Y11468D01*
X66487Y12500D01*
X66351Y13532D01*
X65953Y14493D01*
X65319Y15319D01*
X64493Y15953D01*
X63532Y16351D01*
X62500Y16487D01*
D02*
G37*
G36*
X52500D02*
X51468Y16351D01*
X50507Y15953D01*
X49681Y15319D01*
X49047Y14493D01*
X48649Y13532D01*
X48513Y12500D01*
X48649Y11468D01*
X49047Y10507D01*
X49681Y9681D01*
X50507Y9047D01*
X51468Y8649D01*
X52500Y8513D01*
X53532Y8649D01*
X54493Y9047D01*
X55319Y9681D01*
X55953Y10507D01*
X56351Y11468D01*
X56487Y12500D01*
X56351Y13532D01*
X55953Y14493D01*
X55319Y15319D01*
X54493Y15953D01*
X53532Y16351D01*
X52500Y16487D01*
D02*
G37*
G36*
X222000Y21795D02*
X220187Y21616D01*
X218443Y21087D01*
X216836Y20228D01*
X215428Y19072D01*
X214272Y17664D01*
X213413Y16057D01*
X212884Y14313D01*
X212705Y12500D01*
X212884Y10687D01*
X213413Y8943D01*
X214272Y7336D01*
X215428Y5928D01*
X216836Y4772D01*
X218443Y3913D01*
X220187Y3384D01*
X222000Y3205D01*
X223813Y3384D01*
X225557Y3913D01*
X227164Y4772D01*
X228572Y5928D01*
X229728Y7336D01*
X230587Y8943D01*
X231116Y10687D01*
X231295Y12500D01*
X231116Y14313D01*
X230587Y16057D01*
X229728Y17664D01*
X228572Y19072D01*
X227164Y20228D01*
X225557Y21087D01*
X223813Y21616D01*
X222000Y21795D01*
D02*
G37*
%LPD*%
G36*
X76346Y168509D02*
X67749Y159912D01*
X66789Y160310D01*
X65500Y160480D01*
X64211Y160310D01*
X63010Y159812D01*
X61979Y159021D01*
X61187Y157990D01*
X60771Y156983D01*
X60229D01*
X59912Y157749D01*
X71134Y168971D01*
X76154D01*
X76346Y168509D01*
D02*
G37*
G36*
X114996Y129626D02*
X114971Y129500D01*
Y123710D01*
X114010Y123312D01*
X112979Y122521D01*
X112188Y121490D01*
X111771Y120483D01*
X111229D01*
X110812Y121490D01*
X110021Y122521D01*
X108990Y123312D01*
X108688Y123437D01*
X108591Y123928D01*
X114535Y129872D01*
X114996Y129626D01*
D02*
G37*
G36*
X100348Y52179D02*
X100157Y51717D01*
X81843D01*
X81652Y52179D01*
X84444Y54971D01*
X89689D01*
X90220Y54616D01*
X91000Y54461D01*
X91780Y54616D01*
X92311Y54971D01*
X97556D01*
X100348Y52179D01*
D02*
G37*
D12*
X154000Y189000D02*
X157000D01*
X106600Y177600D02*
X118000Y189000D01*
X14783Y86134D02*
X25500Y96850D01*
Y115500D02*
X65500Y155500D01*
X75868Y83868D02*
X76052Y84052D01*
X82000Y85500D02*
X84110Y87610D01*
X82250Y85500D02*
X82500D01*
X78205Y89545D02*
Y93138D01*
X82229Y85500D02*
X82365Y85635D01*
X82229Y85500D02*
X82250D01*
X132500Y181763D02*
Y189000D01*
X107000Y156263D02*
X132500Y181763D01*
X107000Y155500D02*
Y156263D01*
X117000Y164000D02*
X142000Y189000D01*
X132768Y176232D02*
X139500Y169500D01*
Y157000D02*
Y169500D01*
X117000Y155500D02*
Y164000D01*
X118000Y176500D02*
X120000D01*
X166500Y155500D02*
Y157360D01*
X164500Y159360D02*
X166500Y157360D01*
X164500Y159360D02*
Y175414D01*
X154000Y176500D02*
X154271D01*
X154771Y176000D01*
X155000D01*
X163000Y183000D02*
X165553D01*
X163500Y176414D02*
Y176500D01*
Y176414D02*
X164500Y175414D01*
X165553Y183000D02*
X183000Y165553D01*
X157000Y189000D02*
X163000Y183000D01*
X118000Y189000D02*
X120500D01*
X65000Y119500D02*
X65845Y120344D01*
X105000Y175500D02*
Y178846D01*
X106600Y177600D02*
X106600D01*
X110809Y174521D02*
Y174691D01*
X110826Y176291D02*
X111018Y176482D01*
X110826Y174709D02*
Y176291D01*
X110809Y174691D02*
X110826Y174709D01*
X116500Y129500D02*
X142000Y155000D01*
Y176500D01*
X106500Y124000D02*
X139500Y157000D01*
X142000Y176229D02*
Y176500D01*
X141500Y175729D02*
X142000Y176229D01*
X155000Y176000D02*
X156500Y174500D01*
X185500Y143430D02*
Y166500D01*
X106500Y119000D02*
Y124000D01*
X65845Y124345D02*
X118000Y176500D01*
X106600Y174837D02*
Y177600D01*
X143000Y85000D02*
X152485Y94485D01*
X134543Y85000D02*
X143000D01*
X152485Y94485D02*
X183985D01*
X216000Y126500D01*
X90102Y56691D02*
X90729D01*
Y56771D01*
X68362Y63610D02*
X83890D01*
X103705Y47953D02*
X103795Y47862D01*
X103705Y47953D02*
Y50985D01*
X98190Y56500D02*
X103705Y50985D01*
X91000Y56500D02*
X98190D01*
X90062Y56731D02*
X90102Y56691D01*
X83890Y63610D02*
X90729Y56771D01*
X83811Y56500D02*
X91000D01*
X78295Y50985D02*
X83811Y56500D01*
X78205Y47862D02*
X78295Y47953D01*
Y50985D01*
X113638Y83295D02*
X121705D01*
X113638Y85264D02*
X115902D01*
X119947Y89309D02*
X121309D01*
X121500Y89500D01*
X156000Y80000D02*
X157673D01*
X38000Y92350D02*
X38161Y92512D01*
X164080Y187920D02*
X185500Y166500D01*
X167000Y124930D02*
X185500Y143430D01*
X167000Y119000D02*
Y124930D01*
X183000Y145000D02*
Y165553D01*
X157000Y119000D02*
X183000Y145000D01*
X176500Y155500D02*
Y156000D01*
X156500Y155500D02*
Y174500D01*
X116500Y119000D02*
Y129500D01*
X139500Y117500D02*
Y117729D01*
X140000Y118229D01*
Y118500D01*
X128100Y106100D02*
X139500Y117500D01*
X104337Y106100D02*
X128100D01*
X100095Y101858D02*
X104337Y106100D01*
X99858Y101858D02*
X100095D01*
X65845Y120344D02*
Y124345D01*
X55788Y119500D02*
X110809Y174521D01*
X55000Y119500D02*
X55788D01*
X25500Y96850D02*
Y115500D01*
X91984Y93138D02*
X92000Y119500D01*
X100663Y168900D02*
X106600Y174837D01*
X78900Y168900D02*
X100663D01*
X65500Y155500D02*
X78900Y168900D01*
X105000Y178846D02*
X111000Y184846D01*
Y189000D01*
X100000Y170500D02*
X105000Y175500D01*
X70500Y170500D02*
X100000D01*
X55500Y155500D02*
X70500Y170500D01*
X156500Y130000D02*
Y155500D01*
X131000Y104500D02*
X156500Y130000D01*
X105000Y104500D02*
X131000D01*
X108586Y81327D02*
X113638D01*
X108000Y80741D02*
X108586Y81327D01*
X108000Y55500D02*
Y80741D01*
Y55500D02*
X112500Y51000D01*
Y22500D02*
Y51000D01*
X105764Y54736D02*
Y93138D01*
Y54736D02*
X108500Y52000D01*
X55000Y119500D02*
X61500Y113000D01*
X78500D01*
X90016Y101484D01*
X108500Y28500D02*
Y52000D01*
X99858Y93138D02*
Y101858D01*
X48504Y74356D02*
X50012Y72848D01*
Y71500D02*
Y72848D01*
X102500Y22500D02*
X108500Y28500D01*
X60500Y34500D02*
X72500Y22500D01*
X60500Y72500D02*
X61453Y73453D01*
X60500Y34500D02*
Y72500D01*
X61453Y73453D02*
X68362D01*
X78205Y89545D02*
X82250Y85500D01*
X84110Y87610D02*
Y93138D01*
X217524Y64421D02*
X222500Y59445D01*
X197240Y64421D02*
X217524D01*
X220606Y83067D02*
X222500D01*
X219173Y84500D02*
X220606Y83067D01*
X215555Y54579D02*
X222500Y47634D01*
X197240Y54579D02*
X215555D01*
X183000Y10500D02*
X189760Y17260D01*
Y54579D01*
X193000Y55079D02*
X193500Y54579D01*
Y15000D02*
X198000Y10500D01*
X135647Y90000D02*
X136276Y89371D01*
X134543Y90000D02*
X135647D01*
X146793Y75629D02*
X154268D01*
X139922Y82500D02*
X146793Y75629D01*
X216000Y126500D02*
Y135622D01*
X222500Y142122D01*
X129000Y82500D02*
X139922D01*
X154897Y75000D02*
X156000D01*
X125858Y79358D02*
X129000Y82500D01*
X154268Y75629D02*
X154897Y75000D01*
X194741Y115759D02*
X195020D01*
X196279Y114500D01*
X197500D01*
X182189Y90000D02*
X222500Y130311D01*
X156000Y90000D02*
X182189D01*
X113638Y79358D02*
X125858D01*
X129500Y80000D02*
X134543D01*
X116466Y77480D02*
X116486Y77500D01*
X113728Y77480D02*
X116466D01*
X113638Y77390D02*
X113728Y77480D01*
X116486Y77500D02*
X127000D01*
X129500Y80000D01*
X101827Y101327D02*
X105000Y104500D01*
X101827Y93138D02*
Y101327D01*
X93953Y106453D02*
X106500Y119000D01*
X93953Y93138D02*
Y106453D01*
X90016Y93138D02*
Y101484D01*
D19*
X189760Y64421D02*
D03*
X197240D02*
D03*
Y54579D02*
D03*
X193500D02*
D03*
X189760D02*
D03*
D20*
X134543Y75000D02*
D03*
Y80000D02*
D03*
Y85000D02*
D03*
Y90000D02*
D03*
X156000D02*
D03*
Y85000D02*
D03*
Y80000D02*
D03*
Y75000D02*
D03*
D21*
X38000Y92350D02*
D03*
Y81327D02*
D03*
X52000Y92512D02*
D03*
Y81488D02*
D03*
D22*
X68362Y85264D02*
D03*
Y83295D02*
D03*
Y81327D02*
D03*
Y79358D02*
D03*
Y77390D02*
D03*
Y75421D02*
D03*
Y73453D02*
D03*
Y71484D02*
D03*
Y69516D02*
D03*
Y67547D02*
D03*
Y65579D02*
D03*
Y63610D02*
D03*
Y61642D02*
D03*
Y59673D02*
D03*
Y57705D02*
D03*
Y55736D02*
D03*
X113638D02*
D03*
Y57705D02*
D03*
Y59673D02*
D03*
Y61642D02*
D03*
Y63610D02*
D03*
Y65579D02*
D03*
Y67547D02*
D03*
Y69516D02*
D03*
Y71484D02*
D03*
Y73453D02*
D03*
Y75421D02*
D03*
Y77390D02*
D03*
Y79358D02*
D03*
Y81327D02*
D03*
Y83295D02*
D03*
Y85264D02*
D03*
D23*
X76236Y47862D02*
D03*
X78205D02*
D03*
X80173D02*
D03*
X82142D02*
D03*
X84110D02*
D03*
X86079D02*
D03*
X88047D02*
D03*
X90016D02*
D03*
X91984D02*
D03*
X93953D02*
D03*
X95921D02*
D03*
X97890D02*
D03*
X99858D02*
D03*
X101827D02*
D03*
X103795D02*
D03*
X105764D02*
D03*
Y93138D02*
D03*
X103795D02*
D03*
X101827D02*
D03*
X99858D02*
D03*
X97890D02*
D03*
X95921D02*
D03*
X93953D02*
D03*
X91984D02*
D03*
X90016D02*
D03*
X88047D02*
D03*
X86079D02*
D03*
X84110D02*
D03*
X82142D02*
D03*
X80173D02*
D03*
X78205D02*
D03*
X76236D02*
D03*
D24*
X38988Y71500D02*
D03*
X50012D02*
D03*
D40*
X114978Y85474D02*
G03*
X116281Y86078I97J1497D01*
G01*
X119922Y89309D02*
G03*
X118868Y88868I8J-1500D01*
G01*
X116939Y86939D02*
G03*
X116794Y86771I1061J-1061D01*
G01*
X114553Y85501D02*
G03*
X113638Y85264I-100J-1497D01*
G01*
X76052Y84052D02*
Y90570D01*
X76077Y90594D02*
Y92978D01*
X76236Y93138D01*
X76052Y90570D02*
X76077Y90594D01*
X68362Y61642D02*
X74358D01*
X76500Y59500D01*
X105764Y40764D02*
Y47862D01*
X103500Y38500D02*
X105764Y40764D01*
X114553Y85501D02*
X114978Y85474D01*
X119930Y89309D02*
X119947D01*
X116281Y86078D02*
X116794Y86771D01*
X119922Y89309D02*
X119930Y89309D01*
X116939Y86939D02*
X118868Y88868D01*
X197500Y84500D02*
X219173D01*
X189760Y64421D02*
Y76760D01*
X197500Y84500D01*
D41*
D03*
Y114500D02*
D03*
D42*
X55000Y119500D02*
D03*
X75000D02*
D03*
X65000D02*
D03*
X157000Y119000D02*
D03*
X177000D02*
D03*
X167000D02*
D03*
X106500D02*
D03*
X126500D02*
D03*
X116500D02*
D03*
X156500Y155500D02*
D03*
X176500D02*
D03*
X166500D02*
D03*
X55500D02*
D03*
X75500D02*
D03*
X65500D02*
D03*
X107000D02*
D03*
X127000D02*
D03*
X117000D02*
D03*
D43*
X168000Y10500D02*
D03*
X198000D02*
D03*
X183000D02*
D03*
D44*
X222000Y12500D02*
D03*
X11000D02*
D03*
X223000Y177000D02*
D03*
X12000Y179500D02*
D03*
D45*
X52500Y12500D02*
D03*
X62500D02*
D03*
X72500D02*
D03*
X82500D02*
D03*
X92500D02*
D03*
X102500D02*
D03*
X112500D02*
D03*
X122500D02*
D03*
X132500D02*
D03*
X142500D02*
D03*
X52500Y22500D02*
D03*
X62500D02*
D03*
X72500D02*
D03*
X82500D02*
D03*
X92500D02*
D03*
X102500D02*
D03*
X112500D02*
D03*
X122500D02*
D03*
X132500D02*
D03*
D46*
X142500D02*
D03*
D47*
X214783Y35823D02*
D03*
Y153933D02*
D03*
X22500Y157000D02*
D03*
Y38890D02*
D03*
D48*
X222500Y142122D02*
D03*
Y130311D02*
D03*
Y118500D02*
D03*
Y106689D02*
D03*
Y94878D02*
D03*
Y83067D02*
D03*
Y71256D02*
D03*
Y59445D02*
D03*
Y47634D02*
D03*
X14783Y50701D02*
D03*
Y62512D02*
D03*
Y74323D02*
D03*
Y86134D02*
D03*
Y97945D02*
D03*
Y109756D02*
D03*
Y121567D02*
D03*
Y133378D02*
D03*
Y145189D02*
D03*
D49*
X111000Y176500D02*
D03*
X76052Y84052D02*
D03*
X82500Y85500D02*
D03*
X77000Y58500D02*
D03*
X103500Y38500D02*
D03*
X132768Y176232D02*
D03*
X120500Y176500D02*
D03*
X132500Y189000D02*
D03*
X163500Y176500D02*
D03*
X154000Y189000D02*
D03*
X120500D02*
D03*
X142000D02*
D03*
Y176500D02*
D03*
X154000D02*
D03*
X163500Y189000D02*
D03*
X193500Y54579D02*
D03*
X134500Y90000D02*
D03*
X121705Y83295D02*
D03*
X121500Y89500D02*
D03*
X156000Y80000D02*
D03*
Y85000D02*
D03*
X134500Y75000D02*
D03*
X50000Y71500D02*
D03*
X39000D02*
D03*
X37500Y81500D02*
D03*
X52000D02*
D03*
X37500Y92500D02*
D03*
X52000D02*
D03*
X140000Y118500D02*
D03*
X91500Y120000D02*
D03*
X111000Y189000D02*
D03*
X91000Y56500D02*
D03*
M02*
