G04*
G04 #@! TF.GenerationSoftware,Altium Limited,Altium Designer,20.0.9 (164)*
G04*
G04 Layer_Physical_Order=2*
G04 Layer_Color=16711680*
%FSLAX25Y25*%
%MOIN*%
G70*
G01*
G75*
%ADD12C,0.01000*%
%ADD40C,0.01500*%
%ADD41C,0.05512*%
%ADD42C,0.07874*%
%ADD43C,0.13000*%
%ADD44C,0.16500*%
%ADD45C,0.05906*%
%ADD46R,0.05906X0.05906*%
%ADD47C,0.07500*%
%ADD48C,0.08000*%
%ADD49C,0.02000*%
G36*
X234971Y1529D02*
X1529D01*
Y10133D01*
X2029Y10207D01*
X2413Y8943D01*
X3272Y7336D01*
X4428Y5928D01*
X5836Y4772D01*
X7443Y3913D01*
X9187Y3384D01*
X11000Y3205D01*
X12813Y3384D01*
X14557Y3913D01*
X16164Y4772D01*
X17572Y5928D01*
X18728Y7336D01*
X19587Y8943D01*
X20116Y10687D01*
X20295Y12500D01*
X20116Y14313D01*
X19587Y16057D01*
X18728Y17664D01*
X17572Y19072D01*
X16164Y20228D01*
X14557Y21087D01*
X12813Y21616D01*
X11000Y21795D01*
X9187Y21616D01*
X7443Y21087D01*
X5836Y20228D01*
X4428Y19072D01*
X3272Y17664D01*
X2413Y16057D01*
X2029Y14793D01*
X1529Y14867D01*
Y192971D01*
X234971D01*
Y1529D01*
D02*
G37*
%LPC*%
G36*
X163500Y191039D02*
X162720Y190884D01*
X162058Y190442D01*
X161616Y189780D01*
X161461Y189000D01*
X161616Y188220D01*
X162058Y187558D01*
X162720Y187116D01*
X163500Y186961D01*
X164280Y187116D01*
X164942Y187558D01*
X165384Y188220D01*
X165539Y189000D01*
X165384Y189780D01*
X164942Y190442D01*
X164280Y190884D01*
X163500Y191039D01*
D02*
G37*
G36*
X154000D02*
X153220Y190884D01*
X152558Y190442D01*
X152116Y189780D01*
X151961Y189000D01*
X152116Y188220D01*
X152558Y187558D01*
X153220Y187116D01*
X154000Y186961D01*
X154780Y187116D01*
X155442Y187558D01*
X155884Y188220D01*
X156039Y189000D01*
X155884Y189780D01*
X155442Y190442D01*
X154780Y190884D01*
X154000Y191039D01*
D02*
G37*
G36*
X142000D02*
X141220Y190884D01*
X140558Y190442D01*
X140116Y189780D01*
X139961Y189000D01*
X140116Y188220D01*
X140558Y187558D01*
X141220Y187116D01*
X142000Y186961D01*
X142780Y187116D01*
X143442Y187558D01*
X143884Y188220D01*
X144039Y189000D01*
X143884Y189780D01*
X143442Y190442D01*
X142780Y190884D01*
X142000Y191039D01*
D02*
G37*
G36*
X132500D02*
X131720Y190884D01*
X131058Y190442D01*
X130616Y189780D01*
X130461Y189000D01*
X130616Y188220D01*
X131058Y187558D01*
X131720Y187116D01*
X132500Y186961D01*
X133280Y187116D01*
X133942Y187558D01*
X134384Y188220D01*
X134539Y189000D01*
X134384Y189780D01*
X133942Y190442D01*
X133280Y190884D01*
X132500Y191039D01*
D02*
G37*
G36*
X120500D02*
X119720Y190884D01*
X119058Y190442D01*
X118616Y189780D01*
X118461Y189000D01*
X118616Y188220D01*
X119058Y187558D01*
X119720Y187116D01*
X120500Y186961D01*
X121280Y187116D01*
X121942Y187558D01*
X122384Y188220D01*
X122539Y189000D01*
X122384Y189780D01*
X121942Y190442D01*
X121280Y190884D01*
X120500Y191039D01*
D02*
G37*
G36*
X111000D02*
X110220Y190884D01*
X109558Y190442D01*
X109116Y189780D01*
X108961Y189000D01*
X109116Y188220D01*
X109558Y187558D01*
X110220Y187116D01*
X111000Y186961D01*
X111780Y187116D01*
X112442Y187558D01*
X112884Y188220D01*
X113039Y189000D01*
X112884Y189780D01*
X112442Y190442D01*
X111780Y190884D01*
X111000Y191039D01*
D02*
G37*
G36*
X163500Y178539D02*
X162720Y178384D01*
X162058Y177942D01*
X161616Y177280D01*
X161461Y176500D01*
X161616Y175720D01*
X162058Y175058D01*
X162720Y174616D01*
X163500Y174461D01*
X164280Y174616D01*
X164942Y175058D01*
X165384Y175720D01*
X165539Y176500D01*
X165384Y177280D01*
X164942Y177942D01*
X164280Y178384D01*
X163500Y178539D01*
D02*
G37*
G36*
X154000D02*
X153220Y178384D01*
X152558Y177942D01*
X152116Y177280D01*
X151961Y176500D01*
X152116Y175720D01*
X152558Y175058D01*
X153220Y174616D01*
X154000Y174461D01*
X154780Y174616D01*
X155442Y175058D01*
X155884Y175720D01*
X156039Y176500D01*
X155884Y177280D01*
X155442Y177942D01*
X154780Y178384D01*
X154000Y178539D01*
D02*
G37*
G36*
X142000D02*
X141220Y178384D01*
X140558Y177942D01*
X140116Y177280D01*
X139961Y176500D01*
X140116Y175720D01*
X140558Y175058D01*
X141220Y174616D01*
X142000Y174461D01*
X142780Y174616D01*
X143442Y175058D01*
X143884Y175720D01*
X144039Y176500D01*
X143884Y177280D01*
X143442Y177942D01*
X142780Y178384D01*
X142000Y178539D01*
D02*
G37*
G36*
X120500D02*
X119720Y178384D01*
X119058Y177942D01*
X118616Y177280D01*
X118461Y176500D01*
X118616Y175720D01*
X119058Y175058D01*
X119720Y174616D01*
X120500Y174461D01*
X121280Y174616D01*
X121942Y175058D01*
X122384Y175720D01*
X122539Y176500D01*
X122384Y177280D01*
X121942Y177942D01*
X121280Y178384D01*
X120500Y178539D01*
D02*
G37*
G36*
X111000D02*
X110220Y178384D01*
X109558Y177942D01*
X109116Y177280D01*
X108961Y176500D01*
X109116Y175720D01*
X109558Y175058D01*
X110220Y174616D01*
X111000Y174461D01*
X111780Y174616D01*
X112442Y175058D01*
X112884Y175720D01*
X113039Y176500D01*
X112884Y177280D01*
X112442Y177942D01*
X111780Y178384D01*
X111000Y178539D01*
D02*
G37*
G36*
X132768Y178271D02*
X131987Y178116D01*
X131326Y177674D01*
X130884Y177013D01*
X130729Y176232D01*
X130884Y175452D01*
X131326Y174790D01*
X131987Y174348D01*
X132768Y174193D01*
X133548Y174348D01*
X134210Y174790D01*
X134652Y175452D01*
X134807Y176232D01*
X134652Y177013D01*
X134210Y177674D01*
X133548Y178116D01*
X132768Y178271D01*
D02*
G37*
G36*
X12000Y188795D02*
X10187Y188616D01*
X8443Y188087D01*
X6836Y187228D01*
X5428Y186072D01*
X4272Y184664D01*
X3413Y183057D01*
X2884Y181313D01*
X2705Y179500D01*
X2884Y177687D01*
X3413Y175943D01*
X4272Y174336D01*
X5428Y172928D01*
X6836Y171772D01*
X8443Y170913D01*
X10187Y170384D01*
X12000Y170205D01*
X13813Y170384D01*
X15557Y170913D01*
X17164Y171772D01*
X18572Y172928D01*
X19728Y174336D01*
X20587Y175943D01*
X21116Y177687D01*
X21295Y179500D01*
X21116Y181313D01*
X20587Y183057D01*
X19728Y184664D01*
X18572Y186072D01*
X17164Y187228D01*
X15557Y188087D01*
X13813Y188616D01*
X12000Y188795D01*
D02*
G37*
G36*
X223000Y186295D02*
X221187Y186116D01*
X219443Y185587D01*
X217836Y184728D01*
X216428Y183572D01*
X215272Y182164D01*
X214413Y180557D01*
X213884Y178813D01*
X213705Y177000D01*
X213884Y175187D01*
X214413Y173443D01*
X215272Y171836D01*
X216428Y170428D01*
X217836Y169272D01*
X219443Y168413D01*
X221187Y167884D01*
X223000Y167705D01*
X224813Y167884D01*
X226557Y168413D01*
X228164Y169272D01*
X229572Y170428D01*
X230728Y171836D01*
X231587Y173443D01*
X232116Y175187D01*
X232295Y177000D01*
X232116Y178813D01*
X231587Y180557D01*
X230728Y182164D01*
X229572Y183572D01*
X228164Y184728D01*
X226557Y185587D01*
X224813Y186116D01*
X223000Y186295D01*
D02*
G37*
G36*
X156500Y167029D02*
X45804D01*
X45219Y166913D01*
X44723Y166581D01*
X26671Y148529D01*
X18522D01*
X18349Y148755D01*
X17305Y149556D01*
X16089Y150060D01*
X14783Y150232D01*
X13478Y150060D01*
X12262Y149556D01*
X11217Y148755D01*
X10416Y147710D01*
X9912Y146494D01*
X9740Y145189D01*
X9912Y143884D01*
X10416Y142667D01*
X11217Y141623D01*
X12262Y140821D01*
X13478Y140317D01*
X14783Y140146D01*
X16089Y140317D01*
X17305Y140821D01*
X18349Y141623D01*
X19151Y142667D01*
X19655Y143884D01*
X19827Y145189D01*
X20074Y145471D01*
X25221D01*
X25413Y145009D01*
X17783Y137379D01*
X17305Y137745D01*
X16089Y138249D01*
X14783Y138421D01*
X13478Y138249D01*
X12262Y137745D01*
X11217Y136944D01*
X10416Y135899D01*
X9912Y134683D01*
X9740Y133378D01*
X9912Y132072D01*
X10416Y130856D01*
X11217Y129812D01*
X12262Y129010D01*
X13478Y128507D01*
X14783Y128335D01*
X16089Y128507D01*
X17305Y129010D01*
X18349Y129812D01*
X19151Y130856D01*
X19655Y132072D01*
X19827Y133378D01*
X19655Y134683D01*
X19584Y134854D01*
X46701Y161971D01*
X108367D01*
X112588Y157749D01*
X112271Y156983D01*
X111729D01*
X111312Y157990D01*
X110521Y159021D01*
X109490Y159812D01*
X108289Y160310D01*
X107000Y160480D01*
X105711Y160310D01*
X104510Y159812D01*
X103479Y159021D01*
X102688Y157990D01*
X102190Y156789D01*
X102020Y155500D01*
X102190Y154211D01*
X102688Y153010D01*
X103479Y151979D01*
X104510Y151188D01*
X105711Y150690D01*
X107000Y150520D01*
X108289Y150690D01*
X109249Y151088D01*
X138471Y121867D01*
Y119811D01*
X138116Y119280D01*
X137961Y118500D01*
X138116Y117720D01*
X138558Y117058D01*
X139220Y116616D01*
X140000Y116461D01*
X140780Y116616D01*
X141442Y117058D01*
X141884Y117720D01*
X142039Y118500D01*
X141884Y119280D01*
X141529Y119811D01*
Y122500D01*
X141413Y123085D01*
X141081Y123581D01*
X111412Y153251D01*
X111729Y154017D01*
X112271D01*
X112688Y153010D01*
X113479Y151979D01*
X114510Y151188D01*
X115711Y150690D01*
X117000Y150520D01*
X118289Y150690D01*
X119490Y151188D01*
X120521Y151979D01*
X121312Y153010D01*
X121729Y154017D01*
X122271D01*
X122687Y153010D01*
X123479Y151979D01*
X124510Y151188D01*
X125711Y150690D01*
X126500Y150586D01*
Y155500D01*
Y160414D01*
X125711Y160310D01*
X124510Y159812D01*
X123479Y159021D01*
X122687Y157990D01*
X122271Y156983D01*
X121729D01*
X121312Y157990D01*
X120521Y159021D01*
X119490Y159812D01*
X118289Y160310D01*
X117000Y160480D01*
X115711Y160310D01*
X114751Y159912D01*
X111154Y163509D01*
X111346Y163971D01*
X155867D01*
X162088Y157749D01*
X161771Y156983D01*
X161229D01*
X160812Y157990D01*
X160021Y159021D01*
X158990Y159812D01*
X157789Y160310D01*
X156500Y160480D01*
X155211Y160310D01*
X154010Y159812D01*
X152979Y159021D01*
X152188Y157990D01*
X151690Y156789D01*
X151520Y155500D01*
X151690Y154211D01*
X152188Y153010D01*
X152979Y151979D01*
X154010Y151188D01*
X155211Y150690D01*
X156500Y150520D01*
X157789Y150690D01*
X158990Y151188D01*
X160021Y151979D01*
X160812Y153010D01*
X161229Y154017D01*
X161771D01*
X162188Y153010D01*
X162979Y151979D01*
X164010Y151188D01*
X165211Y150690D01*
X166500Y150520D01*
X167789Y150690D01*
X168990Y151188D01*
X170021Y151979D01*
X170812Y153010D01*
X171229Y154017D01*
X171771D01*
X172187Y153010D01*
X172979Y151979D01*
X174010Y151188D01*
X175211Y150690D01*
X176000Y150586D01*
Y155500D01*
Y160414D01*
X175211Y160310D01*
X174010Y159812D01*
X172979Y159021D01*
X172187Y157990D01*
X171771Y156983D01*
X171229D01*
X170812Y157990D01*
X170021Y159021D01*
X168990Y159812D01*
X167789Y160310D01*
X166500Y160480D01*
X165211Y160310D01*
X164251Y159912D01*
X157581Y166581D01*
X157085Y166913D01*
X156500Y167029D01*
D02*
G37*
G36*
X65500Y160480D02*
X64211Y160310D01*
X63010Y159812D01*
X61979Y159021D01*
X61187Y157990D01*
X60771Y156983D01*
X60229D01*
X59812Y157990D01*
X59021Y159021D01*
X57990Y159812D01*
X56789Y160310D01*
X55500Y160480D01*
X54211Y160310D01*
X53010Y159812D01*
X51979Y159021D01*
X51187Y157990D01*
X50690Y156789D01*
X50520Y155500D01*
X50690Y154211D01*
X51187Y153010D01*
X51979Y151979D01*
X53010Y151188D01*
X54211Y150690D01*
X55500Y150520D01*
X56789Y150690D01*
X57749Y151088D01*
X89616Y119221D01*
X89616Y119220D01*
X90058Y118558D01*
X90720Y118116D01*
X91500Y117961D01*
X92280Y118116D01*
X92942Y118558D01*
X93384Y119220D01*
X93539Y120000D01*
X93384Y120780D01*
X92942Y121442D01*
X92280Y121884D01*
X91500Y122039D01*
X91186Y121977D01*
X59912Y153251D01*
X60229Y154017D01*
X60771D01*
X61187Y153010D01*
X61979Y151979D01*
X63010Y151188D01*
X64211Y150690D01*
X65500Y150520D01*
X66789Y150690D01*
X67990Y151188D01*
X69021Y151979D01*
X69813Y153010D01*
X70229Y154017D01*
X70771D01*
X71188Y153010D01*
X71979Y151979D01*
X73010Y151188D01*
X74211Y150690D01*
X75000Y150586D01*
Y155500D01*
Y160414D01*
X74211Y160310D01*
X73010Y159812D01*
X71979Y159021D01*
X71188Y157990D01*
X70771Y156983D01*
X70229D01*
X69813Y157990D01*
X69021Y159021D01*
X67990Y159812D01*
X66789Y160310D01*
X65500Y160480D01*
D02*
G37*
G36*
X177000Y160414D02*
Y156000D01*
X181414D01*
X181310Y156789D01*
X180813Y157990D01*
X180021Y159021D01*
X178990Y159812D01*
X177789Y160310D01*
X177000Y160414D01*
D02*
G37*
G36*
X127500D02*
Y156000D01*
X131914D01*
X131810Y156789D01*
X131313Y157990D01*
X130521Y159021D01*
X129490Y159812D01*
X128289Y160310D01*
X127500Y160414D01*
D02*
G37*
G36*
X76000D02*
Y156000D01*
X80414D01*
X80310Y156789D01*
X79813Y157990D01*
X79021Y159021D01*
X77990Y159812D01*
X76789Y160310D01*
X76000Y160414D01*
D02*
G37*
G36*
X22500Y161791D02*
X21260Y161628D01*
X20105Y161149D01*
X19112Y160388D01*
X18351Y159396D01*
X17872Y158240D01*
X17709Y157000D01*
X17872Y155760D01*
X18351Y154604D01*
X19112Y153612D01*
X20105Y152851D01*
X21260Y152372D01*
X22500Y152209D01*
X23740Y152372D01*
X24895Y152851D01*
X25888Y153612D01*
X26649Y154604D01*
X27128Y155760D01*
X27291Y157000D01*
X27128Y158240D01*
X26649Y159396D01*
X25888Y160388D01*
X24895Y161149D01*
X23740Y161628D01*
X22500Y161791D01*
D02*
G37*
G36*
X181414Y155000D02*
X177000D01*
Y150586D01*
X177789Y150690D01*
X178990Y151188D01*
X180021Y151979D01*
X180813Y153010D01*
X181310Y154211D01*
X181414Y155000D01*
D02*
G37*
G36*
X131914D02*
X127500D01*
Y150586D01*
X128289Y150690D01*
X129490Y151188D01*
X130521Y151979D01*
X131313Y153010D01*
X131810Y154211D01*
X131914Y155000D01*
D02*
G37*
G36*
X80414D02*
X76000D01*
Y150586D01*
X76789Y150690D01*
X77990Y151188D01*
X79021Y151979D01*
X79813Y153010D01*
X80310Y154211D01*
X80414Y155000D01*
D02*
G37*
G36*
X214783Y158724D02*
X213543Y158561D01*
X212388Y158082D01*
X211396Y157321D01*
X210634Y156328D01*
X210156Y155173D01*
X209992Y153933D01*
X210156Y152693D01*
X210634Y151538D01*
X211396Y150545D01*
X212388Y149784D01*
X213543Y149305D01*
X214783Y149142D01*
X216023Y149305D01*
X217179Y149784D01*
X218171Y150545D01*
X218933Y151538D01*
X219411Y152693D01*
X219574Y153933D01*
X219411Y155173D01*
X218933Y156328D01*
X218171Y157321D01*
X217179Y158082D01*
X216023Y158561D01*
X214783Y158724D01*
D02*
G37*
G36*
X222500Y147165D02*
X221195Y146993D01*
X219978Y146490D01*
X218934Y145688D01*
X218132Y144644D01*
X217629Y143427D01*
X217457Y142122D01*
X217629Y140817D01*
X218132Y139600D01*
X218934Y138556D01*
X219978Y137754D01*
X221195Y137251D01*
X222500Y137079D01*
X223805Y137251D01*
X225022Y137754D01*
X226066Y138556D01*
X226868Y139600D01*
X227371Y140817D01*
X227543Y142122D01*
X227371Y143427D01*
X226868Y144644D01*
X226066Y145688D01*
X225022Y146490D01*
X223805Y146993D01*
X222500Y147165D01*
D02*
G37*
G36*
Y135354D02*
X221195Y135182D01*
X219978Y134678D01*
X218934Y133877D01*
X218132Y132833D01*
X217629Y131616D01*
X217457Y130311D01*
X217629Y129006D01*
X218132Y127789D01*
X218934Y126745D01*
X219978Y125944D01*
X221195Y125440D01*
X222500Y125268D01*
X223805Y125440D01*
X225022Y125944D01*
X226066Y126745D01*
X226868Y127789D01*
X227371Y129006D01*
X227543Y130311D01*
X227371Y131616D01*
X226868Y132833D01*
X226066Y133877D01*
X225022Y134678D01*
X223805Y135182D01*
X222500Y135354D01*
D02*
G37*
G36*
X58500Y127529D02*
X47500D01*
X46915Y127413D01*
X46419Y127081D01*
X44366Y125029D01*
X18611D01*
X18453Y124998D01*
X18349Y125133D01*
X17305Y125934D01*
X16089Y126438D01*
X14783Y126610D01*
X13478Y126438D01*
X12262Y125934D01*
X11217Y125133D01*
X10416Y124088D01*
X9912Y122872D01*
X9740Y121567D01*
X9912Y120262D01*
X10416Y119045D01*
X11217Y118001D01*
X12262Y117199D01*
X13478Y116695D01*
X14783Y116524D01*
X16089Y116695D01*
X17305Y117199D01*
X18349Y118001D01*
X19151Y119045D01*
X19655Y120262D01*
X19827Y121567D01*
X19823Y121595D01*
X20153Y121971D01*
X45000D01*
X45585Y122087D01*
X46081Y122419D01*
X48134Y124471D01*
X52793D01*
X52892Y123971D01*
X52510Y123812D01*
X51479Y123021D01*
X50687Y121990D01*
X50190Y120789D01*
X50020Y119500D01*
X50190Y118211D01*
X50687Y117010D01*
X51479Y115979D01*
X52510Y115188D01*
X53711Y114690D01*
X55000Y114520D01*
X56289Y114690D01*
X57490Y115188D01*
X58521Y115979D01*
X59312Y117010D01*
X59729Y118017D01*
X60271D01*
X60688Y117010D01*
X61479Y115979D01*
X62510Y115188D01*
X63711Y114690D01*
X65000Y114520D01*
X66289Y114690D01*
X67490Y115188D01*
X68521Y115979D01*
X69313Y117010D01*
X69729Y118017D01*
X70271D01*
X70688Y117010D01*
X71479Y115979D01*
X72510Y115188D01*
X73711Y114690D01*
X74500Y114586D01*
Y119500D01*
Y124414D01*
X73711Y124310D01*
X72510Y123812D01*
X71479Y123021D01*
X70688Y121990D01*
X70271Y120983D01*
X69729D01*
X69313Y121990D01*
X68521Y123021D01*
X67490Y123812D01*
X66289Y124310D01*
X65000Y124480D01*
X63711Y124310D01*
X62751Y123912D01*
X59581Y127081D01*
X59085Y127413D01*
X58500Y127529D01*
D02*
G37*
G36*
X185000Y127029D02*
X163500D01*
X162915Y126913D01*
X162419Y126581D01*
X159249Y123412D01*
X158289Y123810D01*
X157000Y123980D01*
X155711Y123810D01*
X154510Y123312D01*
X153479Y122521D01*
X152688Y121490D01*
X152190Y120289D01*
X152020Y119000D01*
X152190Y117711D01*
X152688Y116510D01*
X153479Y115479D01*
X154510Y114688D01*
X155711Y114190D01*
X157000Y114020D01*
X158289Y114190D01*
X159490Y114688D01*
X160521Y115479D01*
X161312Y116510D01*
X161729Y117517D01*
X162271D01*
X162588Y116751D01*
X145367Y99529D01*
X19539D01*
X19151Y100466D01*
X18349Y101511D01*
X17305Y102312D01*
X16089Y102816D01*
X14783Y102988D01*
X13478Y102816D01*
X12262Y102312D01*
X11217Y101511D01*
X10416Y100466D01*
X9912Y99250D01*
X9740Y97945D01*
X9912Y96640D01*
X10416Y95423D01*
X11217Y94379D01*
X12262Y93577D01*
X13478Y93073D01*
X14783Y92902D01*
X16089Y93073D01*
X17305Y93577D01*
X18349Y94379D01*
X19151Y95423D01*
X19585Y96471D01*
X146000D01*
X146585Y96587D01*
X147081Y96919D01*
X164751Y114588D01*
X165711Y114190D01*
X167000Y114020D01*
X168289Y114190D01*
X169490Y114688D01*
X170521Y115479D01*
X171312Y116510D01*
X171729Y117517D01*
X172271D01*
X172687Y116510D01*
X173479Y115479D01*
X174510Y114688D01*
X175711Y114190D01*
X176500Y114086D01*
Y119000D01*
X177000D01*
Y119500D01*
X181914D01*
X181810Y120289D01*
X181313Y121490D01*
X180521Y122521D01*
X179490Y123312D01*
X179108Y123471D01*
X179208Y123971D01*
X184367D01*
X193726Y114611D01*
X193712Y114500D01*
X193841Y113520D01*
X194219Y112606D01*
X194821Y111821D01*
X195606Y111219D01*
X196519Y110841D01*
X197500Y110712D01*
X198480Y110841D01*
X198845Y110992D01*
X212471Y97366D01*
Y68000D01*
X212587Y67415D01*
X212919Y66919D01*
X218056Y61781D01*
X217629Y60750D01*
X217457Y59445D01*
X217629Y58139D01*
X218132Y56923D01*
X218934Y55879D01*
X219978Y55077D01*
X221195Y54574D01*
X222500Y54402D01*
X223805Y54574D01*
X225022Y55077D01*
X226066Y55879D01*
X226868Y56923D01*
X227371Y58139D01*
X227543Y59445D01*
X227371Y60750D01*
X226868Y61966D01*
X226066Y63011D01*
X225022Y63812D01*
X223805Y64316D01*
X222500Y64488D01*
X221195Y64316D01*
X220242Y63921D01*
X215529Y68634D01*
Y98000D01*
X215413Y98585D01*
X215081Y99081D01*
X201008Y113155D01*
X201159Y113520D01*
X201288Y114500D01*
X201159Y115480D01*
X200781Y116394D01*
X200179Y117179D01*
X199394Y117781D01*
X198480Y118159D01*
X197500Y118288D01*
X196519Y118159D01*
X195606Y117781D01*
X195196Y117467D01*
X186081Y126581D01*
X185585Y126913D01*
X185000Y127029D01*
D02*
G37*
G36*
X116500Y123980D02*
X115211Y123810D01*
X114010Y123312D01*
X112979Y122521D01*
X112188Y121490D01*
X111771Y120483D01*
X111229D01*
X110812Y121490D01*
X110021Y122521D01*
X108990Y123312D01*
X107789Y123810D01*
X106500Y123980D01*
X105211Y123810D01*
X104010Y123312D01*
X102979Y122521D01*
X102188Y121490D01*
X101690Y120289D01*
X101520Y119000D01*
X101690Y117711D01*
X102188Y116510D01*
X102979Y115479D01*
X104010Y114688D01*
X105211Y114190D01*
X106500Y114020D01*
X107789Y114190D01*
X108990Y114688D01*
X110021Y115479D01*
X110812Y116510D01*
X111229Y117517D01*
X111771D01*
X112088Y116751D01*
X106677Y111340D01*
X19539D01*
X19151Y112277D01*
X18349Y113322D01*
X17305Y114123D01*
X16089Y114627D01*
X14783Y114799D01*
X13478Y114627D01*
X12262Y114123D01*
X11217Y113322D01*
X10416Y112277D01*
X9912Y111061D01*
X9740Y109756D01*
X9912Y108450D01*
X10416Y107234D01*
X11217Y106190D01*
X12262Y105388D01*
X13478Y104885D01*
X14783Y104713D01*
X16089Y104885D01*
X17305Y105388D01*
X18349Y106190D01*
X19151Y107234D01*
X19585Y108282D01*
X107311D01*
X107896Y108398D01*
X108392Y108730D01*
X114251Y114588D01*
X115211Y114190D01*
X116500Y114020D01*
X117789Y114190D01*
X118990Y114688D01*
X120021Y115479D01*
X120812Y116510D01*
X121229Y117517D01*
X121771D01*
X122187Y116510D01*
X122979Y115479D01*
X124010Y114688D01*
X125211Y114190D01*
X126000Y114086D01*
Y119000D01*
Y123914D01*
X125211Y123810D01*
X124010Y123312D01*
X122979Y122521D01*
X122187Y121490D01*
X121771Y120483D01*
X121229D01*
X120812Y121490D01*
X120021Y122521D01*
X118990Y123312D01*
X117789Y123810D01*
X116500Y123980D01*
D02*
G37*
G36*
X75500Y124414D02*
Y120000D01*
X79914D01*
X79810Y120789D01*
X79312Y121990D01*
X78521Y123021D01*
X77490Y123812D01*
X76289Y124310D01*
X75500Y124414D01*
D02*
G37*
G36*
X127000Y123914D02*
Y119500D01*
X131414D01*
X131310Y120289D01*
X130813Y121490D01*
X130021Y122521D01*
X128990Y123312D01*
X127789Y123810D01*
X127000Y123914D01*
D02*
G37*
G36*
X223000Y123477D02*
Y119000D01*
X227477D01*
X227371Y119805D01*
X226868Y121022D01*
X226066Y122066D01*
X225022Y122868D01*
X223805Y123371D01*
X223000Y123477D01*
D02*
G37*
G36*
X222000D02*
X221195Y123371D01*
X219978Y122868D01*
X218934Y122066D01*
X218132Y121022D01*
X217629Y119805D01*
X217523Y119000D01*
X222000D01*
Y123477D01*
D02*
G37*
G36*
X79914Y119000D02*
X75500D01*
Y114586D01*
X76289Y114690D01*
X77490Y115188D01*
X78521Y115979D01*
X79312Y117010D01*
X79810Y118211D01*
X79914Y119000D01*
D02*
G37*
G36*
X181914Y118500D02*
X177500D01*
Y114086D01*
X178289Y114190D01*
X179490Y114688D01*
X180521Y115479D01*
X181313Y116510D01*
X181810Y117711D01*
X181914Y118500D01*
D02*
G37*
G36*
X131414D02*
X127000D01*
Y114086D01*
X127789Y114190D01*
X128990Y114688D01*
X130021Y115479D01*
X130813Y116510D01*
X131310Y117711D01*
X131414Y118500D01*
D02*
G37*
G36*
X227477Y118000D02*
X223000D01*
Y113523D01*
X223805Y113629D01*
X225022Y114132D01*
X226066Y114934D01*
X226868Y115978D01*
X227371Y117195D01*
X227477Y118000D01*
D02*
G37*
G36*
X222000D02*
X217523D01*
X217629Y117195D01*
X218132Y115978D01*
X218934Y114934D01*
X219978Y114132D01*
X221195Y113629D01*
X222000Y113523D01*
Y118000D01*
D02*
G37*
G36*
X222500Y111732D02*
X221195Y111560D01*
X219978Y111056D01*
X218934Y110255D01*
X218132Y109211D01*
X217629Y107994D01*
X217457Y106689D01*
X217629Y105384D01*
X218132Y104167D01*
X218934Y103123D01*
X219978Y102322D01*
X221195Y101818D01*
X222500Y101646D01*
X223805Y101818D01*
X225022Y102322D01*
X226066Y103123D01*
X226868Y104167D01*
X227371Y105384D01*
X227543Y106689D01*
X227371Y107994D01*
X226868Y109211D01*
X226066Y110255D01*
X225022Y111056D01*
X223805Y111560D01*
X222500Y111732D01*
D02*
G37*
G36*
X7000Y125029D02*
X6415Y124913D01*
X5919Y124581D01*
X5587Y124085D01*
X5471Y123500D01*
Y98516D01*
X5587Y97930D01*
X5919Y97434D01*
X6415Y97103D01*
X7000Y96986D01*
X7585Y97103D01*
X8081Y97434D01*
X8413Y97930D01*
X8529Y98516D01*
Y123500D01*
X8413Y124085D01*
X8081Y124581D01*
X7585Y124913D01*
X7000Y125029D01*
D02*
G37*
G36*
X52500Y94440D02*
Y93000D01*
X53940D01*
X53884Y93280D01*
X53442Y93942D01*
X52780Y94384D01*
X52500Y94440D01*
D02*
G37*
G36*
X51500D02*
X51220Y94384D01*
X50558Y93942D01*
X50116Y93280D01*
X50060Y93000D01*
X51500D01*
Y94440D01*
D02*
G37*
G36*
X38000D02*
Y93000D01*
X39440D01*
X39384Y93280D01*
X38942Y93942D01*
X38280Y94384D01*
X38000Y94440D01*
D02*
G37*
G36*
X37000D02*
X36720Y94384D01*
X36058Y93942D01*
X35616Y93280D01*
X35560Y93000D01*
X37000D01*
Y94440D01*
D02*
G37*
G36*
X53940Y92000D02*
X52500D01*
Y90560D01*
X52780Y90616D01*
X53442Y91058D01*
X53884Y91720D01*
X53940Y92000D01*
D02*
G37*
G36*
X51500D02*
X50060D01*
X50116Y91720D01*
X50558Y91058D01*
X51220Y90616D01*
X51500Y90560D01*
Y92000D01*
D02*
G37*
G36*
X39440D02*
X38000D01*
Y90560D01*
X38280Y90616D01*
X38942Y91058D01*
X39384Y91720D01*
X39440Y92000D01*
D02*
G37*
G36*
X37000D02*
X35560D01*
X35616Y91720D01*
X36058Y91058D01*
X36720Y90616D01*
X37000Y90560D01*
Y92000D01*
D02*
G37*
G36*
X222500Y99921D02*
X221195Y99749D01*
X219978Y99246D01*
X218934Y98444D01*
X218132Y97400D01*
X217629Y96183D01*
X217457Y94878D01*
X217629Y93573D01*
X218132Y92356D01*
X218934Y91312D01*
X219978Y90510D01*
X221195Y90007D01*
X222500Y89835D01*
X223805Y90007D01*
X225022Y90510D01*
X226066Y91312D01*
X226868Y92356D01*
X227371Y93573D01*
X227543Y94878D01*
X227371Y96183D01*
X226868Y97400D01*
X226066Y98444D01*
X225022Y99246D01*
X223805Y99749D01*
X222500Y99921D01*
D02*
G37*
G36*
X121500Y91539D02*
X120720Y91384D01*
X120058Y90942D01*
X119616Y90280D01*
X119461Y89500D01*
X119616Y88720D01*
X120058Y88058D01*
X120720Y87616D01*
X121500Y87461D01*
X122280Y87616D01*
X122942Y88058D01*
X123384Y88720D01*
X123539Y89500D01*
X123384Y90280D01*
X122942Y90942D01*
X122280Y91384D01*
X121500Y91539D01*
D02*
G37*
G36*
X83000Y87440D02*
Y86000D01*
X84440D01*
X84384Y86280D01*
X83942Y86942D01*
X83280Y87384D01*
X83000Y87440D01*
D02*
G37*
G36*
X82000D02*
X81720Y87384D01*
X81058Y86942D01*
X80616Y86280D01*
X80560Y86000D01*
X82000D01*
Y87440D01*
D02*
G37*
G36*
X156500Y86940D02*
Y85500D01*
X157940D01*
X157884Y85780D01*
X157442Y86442D01*
X156780Y86884D01*
X156500Y86940D01*
D02*
G37*
G36*
X155500D02*
X155220Y86884D01*
X154558Y86442D01*
X154116Y85780D01*
X154060Y85500D01*
X155500D01*
Y86940D01*
D02*
G37*
G36*
X122205Y85235D02*
Y83795D01*
X123644D01*
X123589Y84076D01*
X123147Y84737D01*
X122485Y85179D01*
X122205Y85235D01*
D02*
G37*
G36*
X121205D02*
X120924Y85179D01*
X120263Y84737D01*
X119821Y84076D01*
X119765Y83795D01*
X121205D01*
Y85235D01*
D02*
G37*
G36*
X84440Y85000D02*
X83000D01*
Y83560D01*
X83280Y83616D01*
X83942Y84058D01*
X84384Y84720D01*
X84440Y85000D01*
D02*
G37*
G36*
X82000D02*
X80560D01*
X80616Y84720D01*
X81058Y84058D01*
X81720Y83616D01*
X82000Y83560D01*
Y85000D01*
D02*
G37*
G36*
X157940Y84500D02*
X156500D01*
Y83060D01*
X156780Y83116D01*
X157442Y83558D01*
X157884Y84220D01*
X157940Y84500D01*
D02*
G37*
G36*
X155500D02*
X154060D01*
X154116Y84220D01*
X154558Y83558D01*
X155220Y83116D01*
X155500Y83060D01*
Y84500D01*
D02*
G37*
G36*
X76052Y86091D02*
X75272Y85936D01*
X74610Y85494D01*
X74168Y84833D01*
X74013Y84052D01*
X74168Y83272D01*
X74610Y82610D01*
X75272Y82168D01*
X76052Y82013D01*
X76832Y82168D01*
X77494Y82610D01*
X77936Y83272D01*
X78091Y84052D01*
X77936Y84833D01*
X77494Y85494D01*
X76832Y85936D01*
X76052Y86091D01*
D02*
G37*
G36*
X123644Y82795D02*
X122205D01*
Y81356D01*
X122485Y81411D01*
X123147Y81853D01*
X123589Y82515D01*
X123644Y82795D01*
D02*
G37*
G36*
X121205D02*
X119765D01*
X119821Y82515D01*
X120263Y81853D01*
X120924Y81411D01*
X121205Y81356D01*
Y82795D01*
D02*
G37*
G36*
X14783Y91177D02*
X13478Y91005D01*
X12262Y90501D01*
X11217Y89700D01*
X10416Y88655D01*
X9912Y87439D01*
X9740Y86134D01*
X9912Y84829D01*
X10416Y83612D01*
X11217Y82568D01*
X12262Y81766D01*
X13478Y81262D01*
X14783Y81091D01*
X16089Y81262D01*
X17305Y81766D01*
X18349Y82568D01*
X19151Y83612D01*
X19655Y84829D01*
X19827Y86134D01*
X19655Y87439D01*
X19151Y88655D01*
X18349Y89700D01*
X17305Y90501D01*
X16089Y91005D01*
X14783Y91177D01*
D02*
G37*
G36*
X156500Y81940D02*
Y80500D01*
X157940D01*
X157884Y80780D01*
X157442Y81442D01*
X156780Y81884D01*
X156500Y81940D01*
D02*
G37*
G36*
X155500D02*
X155220Y81884D01*
X154558Y81442D01*
X154116Y80780D01*
X154060Y80500D01*
X155500D01*
Y81940D01*
D02*
G37*
G36*
X52000Y83539D02*
X51220Y83384D01*
X50558Y82942D01*
X50116Y82280D01*
X49961Y81500D01*
X50116Y80720D01*
X50558Y80058D01*
X51220Y79616D01*
X52000Y79461D01*
X52780Y79616D01*
X53442Y80058D01*
X53884Y80720D01*
X54039Y81500D01*
X53884Y82280D01*
X53442Y82942D01*
X52780Y83384D01*
X52000Y83539D01*
D02*
G37*
G36*
X37500D02*
X36720Y83384D01*
X36058Y82942D01*
X35616Y82280D01*
X35461Y81500D01*
X35616Y80720D01*
X36058Y80058D01*
X36720Y79616D01*
X37500Y79461D01*
X38280Y79616D01*
X38942Y80058D01*
X39384Y80720D01*
X39539Y81500D01*
X39384Y82280D01*
X38942Y82942D01*
X38280Y83384D01*
X37500Y83539D01*
D02*
G37*
G36*
X157940Y79500D02*
X156500D01*
Y78060D01*
X156780Y78116D01*
X157442Y78558D01*
X157884Y79220D01*
X157940Y79500D01*
D02*
G37*
G36*
X155500D02*
X154060D01*
X154116Y79220D01*
X154558Y78558D01*
X155220Y78116D01*
X155500Y78060D01*
Y79500D01*
D02*
G37*
G36*
X222500Y88110D02*
X221195Y87938D01*
X219978Y87435D01*
X218934Y86633D01*
X218132Y85589D01*
X217629Y84372D01*
X217457Y83067D01*
X217629Y81762D01*
X218132Y80545D01*
X218934Y79501D01*
X219978Y78699D01*
X221195Y78196D01*
X222500Y78024D01*
X223805Y78196D01*
X225022Y78699D01*
X226066Y79501D01*
X226868Y80545D01*
X227371Y81762D01*
X227543Y83067D01*
X227371Y84372D01*
X226868Y85589D01*
X226066Y86633D01*
X225022Y87435D01*
X223805Y87938D01*
X222500Y88110D01*
D02*
G37*
G36*
X134500Y77039D02*
X133720Y76884D01*
X133058Y76442D01*
X132616Y75780D01*
X132461Y75000D01*
X132616Y74220D01*
X133058Y73558D01*
X133720Y73116D01*
X134500Y72961D01*
X135280Y73116D01*
X135942Y73558D01*
X136384Y74220D01*
X136539Y75000D01*
X136384Y75780D01*
X135942Y76442D01*
X135280Y76884D01*
X134500Y77039D01*
D02*
G37*
G36*
X50500Y73440D02*
Y72000D01*
X51940D01*
X51884Y72280D01*
X51442Y72942D01*
X50780Y73384D01*
X50500Y73440D01*
D02*
G37*
G36*
X49500D02*
X49220Y73384D01*
X48558Y72942D01*
X48116Y72280D01*
X48060Y72000D01*
X49500D01*
Y73440D01*
D02*
G37*
G36*
X51940Y71000D02*
X50500D01*
Y69560D01*
X50780Y69616D01*
X51442Y70058D01*
X51884Y70720D01*
X51940Y71000D01*
D02*
G37*
G36*
X49500D02*
X48060D01*
X48116Y70720D01*
X48558Y70058D01*
X49220Y69616D01*
X49500Y69560D01*
Y71000D01*
D02*
G37*
G36*
X39000Y73539D02*
X38220Y73384D01*
X37558Y72942D01*
X37116Y72280D01*
X36961Y71500D01*
X37116Y70720D01*
X37558Y70058D01*
X38220Y69616D01*
X39000Y69461D01*
X39780Y69616D01*
X40442Y70058D01*
X40884Y70720D01*
X41039Y71500D01*
X40884Y72280D01*
X40442Y72942D01*
X39780Y73384D01*
X39000Y73539D01*
D02*
G37*
G36*
X14783Y79366D02*
X13478Y79194D01*
X12262Y78690D01*
X11217Y77889D01*
X10416Y76844D01*
X9912Y75628D01*
X9740Y74323D01*
X9912Y73018D01*
X10416Y71801D01*
X11217Y70757D01*
X12262Y69955D01*
X13478Y69451D01*
X14783Y69280D01*
X16089Y69451D01*
X17305Y69955D01*
X18349Y70757D01*
X19151Y71801D01*
X19655Y73018D01*
X19827Y74323D01*
X19655Y75628D01*
X19151Y76844D01*
X18349Y77889D01*
X17305Y78690D01*
X16089Y79194D01*
X14783Y79366D01*
D02*
G37*
G36*
X222500Y76299D02*
X221195Y76127D01*
X219978Y75624D01*
X218934Y74822D01*
X218132Y73778D01*
X217629Y72561D01*
X217457Y71256D01*
X217629Y69951D01*
X218132Y68734D01*
X218934Y67690D01*
X219978Y66888D01*
X221195Y66385D01*
X222500Y66213D01*
X223805Y66385D01*
X225022Y66888D01*
X226066Y67690D01*
X226868Y68734D01*
X227371Y69951D01*
X227543Y71256D01*
X227371Y72561D01*
X226868Y73778D01*
X226066Y74822D01*
X225022Y75624D01*
X223805Y76127D01*
X222500Y76299D01*
D02*
G37*
G36*
X14783Y67555D02*
X13478Y67383D01*
X12262Y66879D01*
X11217Y66078D01*
X10416Y65033D01*
X9912Y63817D01*
X9740Y62512D01*
X9912Y61207D01*
X10416Y59990D01*
X11217Y58946D01*
X12262Y58144D01*
X13478Y57640D01*
X14783Y57469D01*
X16089Y57640D01*
X17305Y58144D01*
X18349Y58946D01*
X19151Y59990D01*
X19655Y61207D01*
X19827Y62512D01*
X19655Y63817D01*
X19151Y65033D01*
X18349Y66078D01*
X17305Y66879D01*
X16089Y67383D01*
X14783Y67555D01*
D02*
G37*
G36*
X91500Y58440D02*
Y57000D01*
X92940D01*
X92884Y57280D01*
X92442Y57942D01*
X91780Y58384D01*
X91500Y58440D01*
D02*
G37*
G36*
X90500D02*
X90220Y58384D01*
X89558Y57942D01*
X89116Y57280D01*
X89060Y57000D01*
X90500D01*
Y58440D01*
D02*
G37*
G36*
X77000Y60539D02*
X76220Y60384D01*
X75558Y59942D01*
X75116Y59280D01*
X74961Y58500D01*
X75116Y57720D01*
X75558Y57058D01*
X76220Y56616D01*
X77000Y56461D01*
X77780Y56616D01*
X78442Y57058D01*
X78884Y57720D01*
X79039Y58500D01*
X78884Y59280D01*
X78442Y59942D01*
X77780Y60384D01*
X77000Y60539D01*
D02*
G37*
G36*
X134500Y92039D02*
X133720Y91884D01*
X133058Y91442D01*
X132616Y90780D01*
X132461Y90000D01*
X132616Y89220D01*
X133058Y88558D01*
X133720Y88116D01*
X134500Y87961D01*
X135280Y88116D01*
X135430Y88216D01*
X183928D01*
X188905Y83238D01*
X188905Y83238D01*
X189484Y82851D01*
X190167Y82716D01*
X194174D01*
X194219Y82606D01*
X194821Y81821D01*
X195606Y81219D01*
X195716Y81174D01*
Y55763D01*
X195216Y55611D01*
X194942Y56021D01*
X194280Y56463D01*
X194000Y56519D01*
Y54579D01*
Y52639D01*
X194280Y52695D01*
X194942Y53137D01*
X195216Y53547D01*
X195716Y53395D01*
Y40739D01*
X171897Y16921D01*
X170884Y17463D01*
X169470Y17891D01*
X168000Y18036D01*
X166530Y17891D01*
X165116Y17463D01*
X163813Y16766D01*
X162671Y15829D01*
X161734Y14687D01*
X161037Y13384D01*
X160608Y11970D01*
X160464Y10500D01*
X160608Y9030D01*
X161037Y7616D01*
X161734Y6313D01*
X162671Y5171D01*
X163813Y4234D01*
X165116Y3537D01*
X166530Y3108D01*
X168000Y2964D01*
X169470Y3108D01*
X170884Y3537D01*
X172187Y4234D01*
X173329Y5171D01*
X174266Y6313D01*
X174963Y7616D01*
X175239Y8526D01*
X175761D01*
X176037Y7616D01*
X176734Y6313D01*
X177671Y5171D01*
X178813Y4234D01*
X180116Y3537D01*
X181530Y3108D01*
X183000Y2964D01*
X184470Y3108D01*
X185884Y3537D01*
X187187Y4234D01*
X188329Y5171D01*
X189266Y6313D01*
X189963Y7616D01*
X190239Y8526D01*
X190761D01*
X191037Y7616D01*
X191734Y6313D01*
X192671Y5171D01*
X193813Y4234D01*
X195116Y3537D01*
X196530Y3108D01*
X197500Y3013D01*
Y10500D01*
Y17987D01*
X196530Y17891D01*
X195116Y17463D01*
X193813Y16766D01*
X192671Y15829D01*
X191734Y14687D01*
X191037Y13384D01*
X190761Y12474D01*
X190239D01*
X189963Y13384D01*
X189266Y14687D01*
X188329Y15829D01*
X187187Y16766D01*
X185884Y17463D01*
X184470Y17891D01*
X183000Y18036D01*
X181530Y17891D01*
X180116Y17463D01*
X178813Y16766D01*
X177671Y15829D01*
X176734Y14687D01*
X176037Y13384D01*
X175761Y12474D01*
X175239D01*
X174963Y13384D01*
X174421Y14398D01*
X198762Y38738D01*
X199148Y39317D01*
X199284Y40000D01*
Y81174D01*
X199394Y81219D01*
X200179Y81821D01*
X200781Y82606D01*
X201159Y83520D01*
X201288Y84500D01*
X201159Y85480D01*
X200781Y86394D01*
X200179Y87179D01*
X199394Y87781D01*
X198480Y88159D01*
X197500Y88288D01*
X196519Y88159D01*
X195606Y87781D01*
X194821Y87179D01*
X194219Y86394D01*
X194174Y86284D01*
X190906D01*
X185928Y91262D01*
X185350Y91649D01*
X184667Y91784D01*
X135430D01*
X135280Y91884D01*
X134500Y92039D01*
D02*
G37*
G36*
X193000Y56519D02*
X192720Y56463D01*
X192058Y56021D01*
X191616Y55359D01*
X191560Y55079D01*
X193000D01*
Y56519D01*
D02*
G37*
G36*
X92940Y56000D02*
X91500D01*
Y54560D01*
X91780Y54616D01*
X92442Y55058D01*
X92884Y55720D01*
X92940Y56000D01*
D02*
G37*
G36*
X90500D02*
X89060D01*
X89116Y55720D01*
X89558Y55058D01*
X90220Y54616D01*
X90500Y54560D01*
Y56000D01*
D02*
G37*
G36*
X193000Y54079D02*
X191560D01*
X191616Y53798D01*
X192058Y53137D01*
X192720Y52695D01*
X193000Y52639D01*
Y54079D01*
D02*
G37*
G36*
X14783Y55744D02*
X13478Y55572D01*
X12262Y55068D01*
X11217Y54267D01*
X10416Y53222D01*
X9912Y52006D01*
X9740Y50701D01*
X9912Y49395D01*
X10416Y48179D01*
X11217Y47135D01*
X12262Y46333D01*
X13478Y45829D01*
X14783Y45658D01*
X16089Y45829D01*
X17305Y46333D01*
X18349Y47135D01*
X19151Y48179D01*
X19655Y49395D01*
X19827Y50701D01*
X19655Y52006D01*
X19151Y53222D01*
X18349Y54267D01*
X17305Y55068D01*
X16089Y55572D01*
X14783Y55744D01*
D02*
G37*
G36*
X222500Y52677D02*
X221195Y52505D01*
X219978Y52001D01*
X218934Y51200D01*
X218132Y50155D01*
X217629Y48939D01*
X217457Y47634D01*
X217629Y46328D01*
X218132Y45112D01*
X218934Y44068D01*
X219978Y43266D01*
X221195Y42763D01*
X222500Y42591D01*
X223805Y42763D01*
X225022Y43266D01*
X226066Y44068D01*
X226868Y45112D01*
X227371Y46328D01*
X227543Y47634D01*
X227371Y48939D01*
X226868Y50155D01*
X226066Y51200D01*
X225022Y52001D01*
X223805Y52505D01*
X222500Y52677D01*
D02*
G37*
G36*
X103500Y40539D02*
X102720Y40384D01*
X102058Y39942D01*
X101616Y39280D01*
X101461Y38500D01*
X101616Y37720D01*
X102058Y37058D01*
X102720Y36616D01*
X103500Y36461D01*
X104280Y36616D01*
X104942Y37058D01*
X105384Y37720D01*
X105539Y38500D01*
X105384Y39280D01*
X104942Y39942D01*
X104280Y40384D01*
X103500Y40539D01*
D02*
G37*
G36*
X22500Y43681D02*
X21260Y43517D01*
X20105Y43039D01*
X19112Y42277D01*
X18351Y41285D01*
X17872Y40130D01*
X17709Y38890D01*
X17872Y37650D01*
X18351Y36494D01*
X19112Y35502D01*
X20105Y34740D01*
X21260Y34262D01*
X22500Y34099D01*
X23740Y34262D01*
X24895Y34740D01*
X25888Y35502D01*
X26649Y36494D01*
X27128Y37650D01*
X27291Y38890D01*
X27128Y40130D01*
X26649Y41285D01*
X25888Y42277D01*
X24895Y43039D01*
X23740Y43517D01*
X22500Y43681D01*
D02*
G37*
G36*
X214783Y40614D02*
X213543Y40451D01*
X212388Y39972D01*
X211396Y39211D01*
X210634Y38218D01*
X210156Y37063D01*
X209992Y35823D01*
X210156Y34583D01*
X210634Y33427D01*
X211396Y32435D01*
X212388Y31674D01*
X213543Y31195D01*
X214783Y31032D01*
X216023Y31195D01*
X217179Y31674D01*
X218171Y32435D01*
X218933Y33427D01*
X219411Y34583D01*
X219574Y35823D01*
X219411Y37063D01*
X218933Y38218D01*
X218171Y39211D01*
X217179Y39972D01*
X216023Y40451D01*
X214783Y40614D01*
D02*
G37*
G36*
X83000Y26421D02*
Y23000D01*
X86421D01*
X86351Y23532D01*
X85953Y24493D01*
X85319Y25319D01*
X84493Y25953D01*
X83532Y26351D01*
X83000Y26421D01*
D02*
G37*
G36*
X63000D02*
Y23000D01*
X66421D01*
X66351Y23532D01*
X65953Y24493D01*
X65319Y25319D01*
X64493Y25953D01*
X63532Y26351D01*
X63000Y26421D01*
D02*
G37*
G36*
X133000D02*
Y23000D01*
X136421D01*
X136351Y23532D01*
X135953Y24493D01*
X135319Y25319D01*
X134493Y25953D01*
X133532Y26351D01*
X133000Y26421D01*
D02*
G37*
G36*
X123000D02*
Y23000D01*
X126421D01*
X126351Y23532D01*
X125953Y24493D01*
X125319Y25319D01*
X124493Y25953D01*
X123532Y26351D01*
X123000Y26421D01*
D02*
G37*
G36*
X93000D02*
Y23000D01*
X96421D01*
X96351Y23532D01*
X95953Y24493D01*
X95319Y25319D01*
X94493Y25953D01*
X93532Y26351D01*
X93000Y26421D01*
D02*
G37*
G36*
X53000D02*
Y23000D01*
X56421D01*
X56351Y23532D01*
X55953Y24493D01*
X55319Y25319D01*
X54493Y25953D01*
X53532Y26351D01*
X53000Y26421D01*
D02*
G37*
G36*
X82000D02*
X81468Y26351D01*
X80507Y25953D01*
X79681Y25319D01*
X79047Y24493D01*
X78649Y23532D01*
X78579Y23000D01*
X82000D01*
Y26421D01*
D02*
G37*
G36*
X62000D02*
X61468Y26351D01*
X60507Y25953D01*
X59681Y25319D01*
X59047Y24493D01*
X58649Y23532D01*
X58579Y23000D01*
X62000D01*
Y26421D01*
D02*
G37*
G36*
X132000D02*
X131468Y26351D01*
X130507Y25953D01*
X129681Y25319D01*
X129047Y24493D01*
X128649Y23532D01*
X128579Y23000D01*
X132000D01*
Y26421D01*
D02*
G37*
G36*
X122000D02*
X121468Y26351D01*
X120507Y25953D01*
X119681Y25319D01*
X119047Y24493D01*
X118649Y23532D01*
X118579Y23000D01*
X122000D01*
Y26421D01*
D02*
G37*
G36*
X92000D02*
X91468Y26351D01*
X90507Y25953D01*
X89681Y25319D01*
X89047Y24493D01*
X88649Y23532D01*
X88579Y23000D01*
X92000D01*
Y26421D01*
D02*
G37*
G36*
X52000D02*
X51468Y26351D01*
X50507Y25953D01*
X49681Y25319D01*
X49047Y24493D01*
X48649Y23532D01*
X48579Y23000D01*
X52000D01*
Y26421D01*
D02*
G37*
G36*
X66421Y22000D02*
X63000D01*
Y18579D01*
X63532Y18649D01*
X64493Y19047D01*
X65319Y19681D01*
X65953Y20507D01*
X66351Y21468D01*
X66421Y22000D01*
D02*
G37*
G36*
X56421D02*
X53000D01*
Y18579D01*
X53532Y18649D01*
X54493Y19047D01*
X55319Y19681D01*
X55953Y20507D01*
X56351Y21468D01*
X56421Y22000D01*
D02*
G37*
G36*
X136421D02*
X133000D01*
Y18579D01*
X133532Y18649D01*
X134493Y19047D01*
X135319Y19681D01*
X135953Y20507D01*
X136351Y21468D01*
X136421Y22000D01*
D02*
G37*
G36*
X126421D02*
X123000D01*
Y18579D01*
X123532Y18649D01*
X124493Y19047D01*
X125319Y19681D01*
X125953Y20507D01*
X126351Y21468D01*
X126421Y22000D01*
D02*
G37*
G36*
X96421D02*
X93000D01*
Y18579D01*
X93532Y18649D01*
X94493Y19047D01*
X95319Y19681D01*
X95953Y20507D01*
X96351Y21468D01*
X96421Y22000D01*
D02*
G37*
G36*
X86421D02*
X83000D01*
Y18579D01*
X83532Y18649D01*
X84493Y19047D01*
X85319Y19681D01*
X85953Y20507D01*
X86351Y21468D01*
X86421Y22000D01*
D02*
G37*
G36*
X62000D02*
X58579D01*
X58649Y21468D01*
X59047Y20507D01*
X59681Y19681D01*
X60507Y19047D01*
X61468Y18649D01*
X62000Y18579D01*
Y22000D01*
D02*
G37*
G36*
X52000D02*
X48579D01*
X48649Y21468D01*
X49047Y20507D01*
X49681Y19681D01*
X50507Y19047D01*
X51468Y18649D01*
X52000Y18579D01*
Y22000D01*
D02*
G37*
G36*
X132000D02*
X128579D01*
X128649Y21468D01*
X129047Y20507D01*
X129681Y19681D01*
X130507Y19047D01*
X131468Y18649D01*
X132000Y18579D01*
Y22000D01*
D02*
G37*
G36*
X122000D02*
X118579D01*
X118649Y21468D01*
X119047Y20507D01*
X119681Y19681D01*
X120507Y19047D01*
X121468Y18649D01*
X122000Y18579D01*
Y22000D01*
D02*
G37*
G36*
X92000D02*
X88579D01*
X88649Y21468D01*
X89047Y20507D01*
X89681Y19681D01*
X90507Y19047D01*
X91468Y18649D01*
X92000Y18579D01*
Y22000D01*
D02*
G37*
G36*
X82000D02*
X78579D01*
X78649Y21468D01*
X79047Y20507D01*
X79681Y19681D01*
X80507Y19047D01*
X81468Y18649D01*
X82000Y18579D01*
Y22000D01*
D02*
G37*
G36*
X146453Y26453D02*
X138547D01*
Y18547D01*
X146453D01*
Y26453D01*
D02*
G37*
G36*
X112500Y26487D02*
X111468Y26351D01*
X110507Y25953D01*
X109681Y25319D01*
X109047Y24493D01*
X108649Y23532D01*
X108513Y22500D01*
X108649Y21468D01*
X109047Y20507D01*
X109681Y19681D01*
X110507Y19047D01*
X111468Y18649D01*
X112500Y18513D01*
X113532Y18649D01*
X114493Y19047D01*
X115319Y19681D01*
X115953Y20507D01*
X116351Y21468D01*
X116487Y22500D01*
X116351Y23532D01*
X115953Y24493D01*
X115319Y25319D01*
X114493Y25953D01*
X113532Y26351D01*
X112500Y26487D01*
D02*
G37*
G36*
X102500D02*
X101468Y26351D01*
X100507Y25953D01*
X99681Y25319D01*
X99047Y24493D01*
X98649Y23532D01*
X98513Y22500D01*
X98649Y21468D01*
X99047Y20507D01*
X99681Y19681D01*
X100507Y19047D01*
X101468Y18649D01*
X102500Y18513D01*
X103532Y18649D01*
X104493Y19047D01*
X105319Y19681D01*
X105953Y20507D01*
X106351Y21468D01*
X106487Y22500D01*
X106351Y23532D01*
X105953Y24493D01*
X105319Y25319D01*
X104493Y25953D01*
X103532Y26351D01*
X102500Y26487D01*
D02*
G37*
G36*
X72500D02*
X71468Y26351D01*
X70507Y25953D01*
X69681Y25319D01*
X69047Y24493D01*
X68649Y23532D01*
X68513Y22500D01*
X68649Y21468D01*
X69047Y20507D01*
X69681Y19681D01*
X70507Y19047D01*
X71468Y18649D01*
X72500Y18513D01*
X73532Y18649D01*
X74493Y19047D01*
X75319Y19681D01*
X75953Y20507D01*
X76351Y21468D01*
X76487Y22500D01*
X76351Y23532D01*
X75953Y24493D01*
X75319Y25319D01*
X74493Y25953D01*
X73532Y26351D01*
X72500Y26487D01*
D02*
G37*
G36*
X83000Y16421D02*
Y13000D01*
X86421D01*
X86351Y13532D01*
X85953Y14493D01*
X85319Y15319D01*
X84493Y15953D01*
X83532Y16351D01*
X83000Y16421D01*
D02*
G37*
G36*
X63000D02*
Y13000D01*
X66421D01*
X66351Y13532D01*
X65953Y14493D01*
X65319Y15319D01*
X64493Y15953D01*
X63532Y16351D01*
X63000Y16421D01*
D02*
G37*
G36*
X133000D02*
Y13000D01*
X136421D01*
X136351Y13532D01*
X135953Y14493D01*
X135319Y15319D01*
X134493Y15953D01*
X133532Y16351D01*
X133000Y16421D01*
D02*
G37*
G36*
X123000D02*
Y13000D01*
X126421D01*
X126351Y13532D01*
X125953Y14493D01*
X125319Y15319D01*
X124493Y15953D01*
X123532Y16351D01*
X123000Y16421D01*
D02*
G37*
G36*
X113000D02*
Y13000D01*
X116421D01*
X116351Y13532D01*
X115953Y14493D01*
X115319Y15319D01*
X114493Y15953D01*
X113532Y16351D01*
X113000Y16421D01*
D02*
G37*
G36*
X103000D02*
Y13000D01*
X106421D01*
X106351Y13532D01*
X105953Y14493D01*
X105319Y15319D01*
X104493Y15953D01*
X103532Y16351D01*
X103000Y16421D01*
D02*
G37*
G36*
X93000D02*
Y13000D01*
X96421D01*
X96351Y13532D01*
X95953Y14493D01*
X95319Y15319D01*
X94493Y15953D01*
X93532Y16351D01*
X93000Y16421D01*
D02*
G37*
G36*
X73000D02*
Y13000D01*
X76421D01*
X76351Y13532D01*
X75953Y14493D01*
X75319Y15319D01*
X74493Y15953D01*
X73532Y16351D01*
X73000Y16421D01*
D02*
G37*
G36*
X53000D02*
Y13000D01*
X56421D01*
X56351Y13532D01*
X55953Y14493D01*
X55319Y15319D01*
X54493Y15953D01*
X53532Y16351D01*
X53000Y16421D01*
D02*
G37*
G36*
X62000D02*
X61468Y16351D01*
X60507Y15953D01*
X59681Y15319D01*
X59047Y14493D01*
X58649Y13532D01*
X58579Y13000D01*
X62000D01*
Y16421D01*
D02*
G37*
G36*
X82000D02*
X81468Y16351D01*
X80507Y15953D01*
X79681Y15319D01*
X79047Y14493D01*
X78649Y13532D01*
X78579Y13000D01*
X82000D01*
Y16421D01*
D02*
G37*
G36*
X132000D02*
X131468Y16351D01*
X130507Y15953D01*
X129681Y15319D01*
X129047Y14493D01*
X128649Y13532D01*
X128579Y13000D01*
X132000D01*
Y16421D01*
D02*
G37*
G36*
X122000D02*
X121468Y16351D01*
X120507Y15953D01*
X119681Y15319D01*
X119047Y14493D01*
X118649Y13532D01*
X118579Y13000D01*
X122000D01*
Y16421D01*
D02*
G37*
G36*
X112000D02*
X111468Y16351D01*
X110507Y15953D01*
X109681Y15319D01*
X109047Y14493D01*
X108649Y13532D01*
X108579Y13000D01*
X112000D01*
Y16421D01*
D02*
G37*
G36*
X102000D02*
X101468Y16351D01*
X100507Y15953D01*
X99681Y15319D01*
X99047Y14493D01*
X98649Y13532D01*
X98579Y13000D01*
X102000D01*
Y16421D01*
D02*
G37*
G36*
X92000D02*
X91468Y16351D01*
X90507Y15953D01*
X89681Y15319D01*
X89047Y14493D01*
X88649Y13532D01*
X88579Y13000D01*
X92000D01*
Y16421D01*
D02*
G37*
G36*
X52000D02*
X51468Y16351D01*
X50507Y15953D01*
X49681Y15319D01*
X49047Y14493D01*
X48649Y13532D01*
X48579Y13000D01*
X52000D01*
Y16421D01*
D02*
G37*
G36*
X72000D02*
X71468Y16351D01*
X70507Y15953D01*
X69681Y15319D01*
X69047Y14493D01*
X68649Y13532D01*
X68579Y13000D01*
X72000D01*
Y16421D01*
D02*
G37*
G36*
X198500Y17987D02*
Y11000D01*
X205487D01*
X205392Y11970D01*
X204963Y13384D01*
X204266Y14687D01*
X203329Y15829D01*
X202187Y16766D01*
X200884Y17463D01*
X199470Y17891D01*
X198500Y17987D01*
D02*
G37*
G36*
X136421Y12000D02*
X133000D01*
Y8579D01*
X133532Y8649D01*
X134493Y9047D01*
X135319Y9681D01*
X135953Y10507D01*
X136351Y11468D01*
X136421Y12000D01*
D02*
G37*
G36*
X126421D02*
X123000D01*
Y8579D01*
X123532Y8649D01*
X124493Y9047D01*
X125319Y9681D01*
X125953Y10507D01*
X126351Y11468D01*
X126421Y12000D01*
D02*
G37*
G36*
X116421D02*
X113000D01*
Y8579D01*
X113532Y8649D01*
X114493Y9047D01*
X115319Y9681D01*
X115953Y10507D01*
X116351Y11468D01*
X116421Y12000D01*
D02*
G37*
G36*
X106421D02*
X103000D01*
Y8579D01*
X103532Y8649D01*
X104493Y9047D01*
X105319Y9681D01*
X105953Y10507D01*
X106351Y11468D01*
X106421Y12000D01*
D02*
G37*
G36*
X96421D02*
X93000D01*
Y8579D01*
X93532Y8649D01*
X94493Y9047D01*
X95319Y9681D01*
X95953Y10507D01*
X96351Y11468D01*
X96421Y12000D01*
D02*
G37*
G36*
X86421D02*
X83000D01*
Y8579D01*
X83532Y8649D01*
X84493Y9047D01*
X85319Y9681D01*
X85953Y10507D01*
X86351Y11468D01*
X86421Y12000D01*
D02*
G37*
G36*
X76421D02*
X73000D01*
Y8579D01*
X73532Y8649D01*
X74493Y9047D01*
X75319Y9681D01*
X75953Y10507D01*
X76351Y11468D01*
X76421Y12000D01*
D02*
G37*
G36*
X66421D02*
X63000D01*
Y8579D01*
X63532Y8649D01*
X64493Y9047D01*
X65319Y9681D01*
X65953Y10507D01*
X66351Y11468D01*
X66421Y12000D01*
D02*
G37*
G36*
X56421D02*
X53000D01*
Y8579D01*
X53532Y8649D01*
X54493Y9047D01*
X55319Y9681D01*
X55953Y10507D01*
X56351Y11468D01*
X56421Y12000D01*
D02*
G37*
G36*
X62000D02*
X58579D01*
X58649Y11468D01*
X59047Y10507D01*
X59681Y9681D01*
X60507Y9047D01*
X61468Y8649D01*
X62000Y8579D01*
Y12000D01*
D02*
G37*
G36*
X52000D02*
X48579D01*
X48649Y11468D01*
X49047Y10507D01*
X49681Y9681D01*
X50507Y9047D01*
X51468Y8649D01*
X52000Y8579D01*
Y12000D01*
D02*
G37*
G36*
X132000D02*
X128579D01*
X128649Y11468D01*
X129047Y10507D01*
X129681Y9681D01*
X130507Y9047D01*
X131468Y8649D01*
X132000Y8579D01*
Y12000D01*
D02*
G37*
G36*
X122000D02*
X118579D01*
X118649Y11468D01*
X119047Y10507D01*
X119681Y9681D01*
X120507Y9047D01*
X121468Y8649D01*
X122000Y8579D01*
Y12000D01*
D02*
G37*
G36*
X112000D02*
X108579D01*
X108649Y11468D01*
X109047Y10507D01*
X109681Y9681D01*
X110507Y9047D01*
X111468Y8649D01*
X112000Y8579D01*
Y12000D01*
D02*
G37*
G36*
X102000D02*
X98579D01*
X98649Y11468D01*
X99047Y10507D01*
X99681Y9681D01*
X100507Y9047D01*
X101468Y8649D01*
X102000Y8579D01*
Y12000D01*
D02*
G37*
G36*
X92000D02*
X88579D01*
X88649Y11468D01*
X89047Y10507D01*
X89681Y9681D01*
X90507Y9047D01*
X91468Y8649D01*
X92000Y8579D01*
Y12000D01*
D02*
G37*
G36*
X82000D02*
X78579D01*
X78649Y11468D01*
X79047Y10507D01*
X79681Y9681D01*
X80507Y9047D01*
X81468Y8649D01*
X82000Y8579D01*
Y12000D01*
D02*
G37*
G36*
X72000D02*
X68579D01*
X68649Y11468D01*
X69047Y10507D01*
X69681Y9681D01*
X70507Y9047D01*
X71468Y8649D01*
X72000Y8579D01*
Y12000D01*
D02*
G37*
G36*
X142500Y16487D02*
X141468Y16351D01*
X140507Y15953D01*
X139681Y15319D01*
X139047Y14493D01*
X138649Y13532D01*
X138513Y12500D01*
X138649Y11468D01*
X139047Y10507D01*
X139681Y9681D01*
X140507Y9047D01*
X141468Y8649D01*
X142500Y8513D01*
X143532Y8649D01*
X144493Y9047D01*
X145319Y9681D01*
X145953Y10507D01*
X146351Y11468D01*
X146487Y12500D01*
X146351Y13532D01*
X145953Y14493D01*
X145319Y15319D01*
X144493Y15953D01*
X143532Y16351D01*
X142500Y16487D01*
D02*
G37*
G36*
X222000Y21795D02*
X220187Y21616D01*
X218443Y21087D01*
X216836Y20228D01*
X215428Y19072D01*
X214272Y17664D01*
X213413Y16057D01*
X212884Y14313D01*
X212705Y12500D01*
X212884Y10687D01*
X213413Y8943D01*
X214272Y7336D01*
X215428Y5928D01*
X216836Y4772D01*
X218443Y3913D01*
X220187Y3384D01*
X222000Y3205D01*
X223813Y3384D01*
X225557Y3913D01*
X227164Y4772D01*
X228572Y5928D01*
X229728Y7336D01*
X230587Y8943D01*
X231116Y10687D01*
X231295Y12500D01*
X231116Y14313D01*
X230587Y16057D01*
X229728Y17664D01*
X228572Y19072D01*
X227164Y20228D01*
X225557Y21087D01*
X223813Y21616D01*
X222000Y21795D01*
D02*
G37*
G36*
X205487Y10000D02*
X198500D01*
Y3013D01*
X199470Y3108D01*
X200884Y3537D01*
X202187Y4234D01*
X203329Y5171D01*
X204266Y6313D01*
X204963Y7616D01*
X205392Y9030D01*
X205487Y10000D01*
D02*
G37*
%LPD*%
D12*
X18611Y123500D02*
X45000D01*
X14783Y121567D02*
X16678D01*
X45000Y123500D02*
X47500Y126000D01*
X16678Y121567D02*
X18611Y123500D01*
X16000Y109811D02*
X107311D01*
X116500Y119000D01*
X146000Y98000D02*
X167000Y119000D01*
X16000Y98000D02*
X146000D01*
X27304Y147000D02*
X45804Y165500D01*
X18489Y147000D02*
X27304D01*
X45804Y165500D02*
X156500D01*
X166500Y155500D01*
X185000Y125500D02*
X196750Y113750D01*
X157000Y119000D02*
X163500Y125500D01*
X185000D01*
X140000Y118500D02*
Y122500D01*
X107000Y155500D02*
X140000Y122500D01*
X16000Y145244D02*
X16733D01*
X18489Y147000D01*
X7000Y98516D02*
Y123500D01*
X13882Y87035D02*
X14783Y86134D01*
X91000Y120000D02*
X91500D01*
X55500Y155500D02*
X91000Y120000D01*
X65063Y155063D02*
X65500Y155500D01*
X58500Y126000D02*
X65000Y119500D01*
X47500Y126000D02*
X58500D01*
X16000Y133433D02*
X46067Y163500D01*
X109000D01*
X117000Y155500D01*
X214000Y68000D02*
X222500Y59500D01*
Y59445D02*
Y59500D01*
X214000Y68000D02*
Y98000D01*
X197500Y114500D02*
X214000Y98000D01*
D40*
X184667Y90000D02*
X190167Y84500D01*
X197500D01*
X134500Y90000D02*
X184667D01*
X168000Y10500D02*
X197500Y40000D01*
Y84500D01*
D41*
D03*
Y114500D02*
D03*
D42*
X55000Y119500D02*
D03*
X75000D02*
D03*
X65000D02*
D03*
X157000Y119000D02*
D03*
X177000D02*
D03*
X167000D02*
D03*
X106500D02*
D03*
X126500D02*
D03*
X116500D02*
D03*
X156500Y155500D02*
D03*
X176500D02*
D03*
X166500D02*
D03*
X55500D02*
D03*
X75500D02*
D03*
X65500D02*
D03*
X107000D02*
D03*
X127000D02*
D03*
X117000D02*
D03*
D43*
X168000Y10500D02*
D03*
X198000D02*
D03*
X183000D02*
D03*
D44*
X222000Y12500D02*
D03*
X11000D02*
D03*
X223000Y177000D02*
D03*
X12000Y179500D02*
D03*
D45*
X52500Y12500D02*
D03*
X62500D02*
D03*
X72500D02*
D03*
X82500D02*
D03*
X92500D02*
D03*
X102500D02*
D03*
X112500D02*
D03*
X122500D02*
D03*
X132500D02*
D03*
X142500D02*
D03*
X52500Y22500D02*
D03*
X62500D02*
D03*
X72500D02*
D03*
X82500D02*
D03*
X92500D02*
D03*
X102500D02*
D03*
X112500D02*
D03*
X122500D02*
D03*
X132500D02*
D03*
D46*
X142500D02*
D03*
D47*
X214783Y35823D02*
D03*
Y153933D02*
D03*
X22500Y157000D02*
D03*
Y38890D02*
D03*
D48*
X222500Y142122D02*
D03*
Y130311D02*
D03*
Y118500D02*
D03*
Y106689D02*
D03*
Y94878D02*
D03*
Y83067D02*
D03*
Y71256D02*
D03*
Y59445D02*
D03*
Y47634D02*
D03*
X14783Y50701D02*
D03*
Y62512D02*
D03*
Y74323D02*
D03*
Y86134D02*
D03*
Y97945D02*
D03*
Y109756D02*
D03*
Y121567D02*
D03*
Y133378D02*
D03*
Y145189D02*
D03*
D49*
X111000Y176500D02*
D03*
X76052Y84052D02*
D03*
X82500Y85500D02*
D03*
X77000Y58500D02*
D03*
X103500Y38500D02*
D03*
X132768Y176232D02*
D03*
X120500Y176500D02*
D03*
X132500Y189000D02*
D03*
X163500Y176500D02*
D03*
X154000Y189000D02*
D03*
X120500D02*
D03*
X142000D02*
D03*
Y176500D02*
D03*
X154000D02*
D03*
X163500Y189000D02*
D03*
X193500Y54579D02*
D03*
X134500Y90000D02*
D03*
X121705Y83295D02*
D03*
X121500Y89500D02*
D03*
X156000Y80000D02*
D03*
Y85000D02*
D03*
X134500Y75000D02*
D03*
X50000Y71500D02*
D03*
X39000D02*
D03*
X37500Y81500D02*
D03*
X52000D02*
D03*
X37500Y92500D02*
D03*
X52000D02*
D03*
X140000Y118500D02*
D03*
X91500Y120000D02*
D03*
X111000Y189000D02*
D03*
X91000Y56500D02*
D03*
M02*
