M48
;Layer_Color=9474304
;FILE_FORMAT=2:5
INCH,LZ
;TYPE=PLATED
T1F00S00C0.00800
T2F00S00C0.01000
T3F00S00C0.03346
T4F00S00C0.03543
T5F00S00C0.03937
T6F00S00C0.04000
T7F00S00C0.04100
T8F00S00C0.05000
T9F00S00C0.07000
T10F00S00C0.12500
%
T01
X01035Y00385
X0091Y00565
X0077Y00585
X0076052Y0084052
X00825Y00855
X0121705Y0083295
X01215Y00895
T02
X01935Y0054579
X0156Y008
Y0085
X01345Y009
Y0075
X014Y01185
X00915Y012
X0111Y01765
X01205
Y0189
X0111
X01325
X0142
X0154
X01635
Y01765
X0154
X0142
X0132768Y0176232
X0052Y00925
Y00815
X005Y00715
X0039
X00375Y00815
Y00925
T03
X01975Y00845
Y01145
T04
X00525Y00125
Y00225
X00625
Y00125
X00725
X00825
X00925
X01025
X01125
X01225
X01325
X01425
Y00225
X01325
X01225
X01125
X01025
X00925
X00825
X00725
T05
X0065Y01195
X0075
X01065Y0119
X01165
X01265
X0157
X0167
X0177
X01765Y01555
X01665
X01565
X0127
X0117
X0107
X00755
X00655
X00555
X0055Y01195
T06
X0014783Y0050701
X02225Y0059445
Y0071256
Y0083067
Y0094878
Y0106689
Y01185
Y0130311
Y0142122
X0014783Y0133378
Y0121567
Y0109756
Y0097945
Y0086134
Y0074323
Y0062512
T07
X02225Y0047634
X0014783Y0145189
T08
X00225Y003889
X0214783Y0035823
Y0153933
X00225Y0157
T09
X0168Y00105
X0183
X0198
T10
X0011Y00125
X0222
X0223Y0177
X0012Y01795
M30
