G04*
G04 #@! TF.GenerationSoftware,Altium Limited,Altium Designer,19.1.5 (86)*
G04*
G04 Layer_Color=255*
%FSLAX25Y25*%
%MOIN*%
G70*
G01*
G75*
%ADD19R,0.02362X0.04724*%
%ADD20O,0.05709X0.02362*%
%ADD21R,0.07165X0.04016*%
%ADD22R,0.05709X0.01181*%
%ADD23R,0.01181X0.05709*%
%ADD24R,0.04016X0.07165*%
%ADD40C,0.05512*%
%ADD41C,0.07874*%
%ADD42C,0.16500*%
%ADD43C,0.05906*%
%ADD44R,0.05906X0.05906*%
%ADD45C,0.07500*%
%ADD46C,0.08000*%
D19*
X189760Y64421D02*
D03*
X197240D02*
D03*
Y54579D02*
D03*
X193500D02*
D03*
X189760D02*
D03*
D20*
X134543Y75000D02*
D03*
Y80000D02*
D03*
Y85000D02*
D03*
Y90000D02*
D03*
X156000D02*
D03*
Y85000D02*
D03*
Y80000D02*
D03*
Y75000D02*
D03*
D21*
X38000Y92350D02*
D03*
Y81327D02*
D03*
X52000Y92512D02*
D03*
Y81488D02*
D03*
D22*
X68362Y85264D02*
D03*
Y83295D02*
D03*
Y81327D02*
D03*
Y79358D02*
D03*
Y77390D02*
D03*
Y75421D02*
D03*
Y73453D02*
D03*
Y71484D02*
D03*
Y69516D02*
D03*
Y67547D02*
D03*
Y65579D02*
D03*
Y63610D02*
D03*
Y61642D02*
D03*
Y59673D02*
D03*
Y57705D02*
D03*
Y55736D02*
D03*
X113638D02*
D03*
Y57705D02*
D03*
Y59673D02*
D03*
Y61642D02*
D03*
Y63610D02*
D03*
Y65579D02*
D03*
Y67547D02*
D03*
Y69516D02*
D03*
Y71484D02*
D03*
Y73453D02*
D03*
Y75421D02*
D03*
Y77390D02*
D03*
Y79358D02*
D03*
Y81327D02*
D03*
Y83295D02*
D03*
Y85264D02*
D03*
D23*
X76236Y47862D02*
D03*
X78205D02*
D03*
X80173D02*
D03*
X82142D02*
D03*
X84110D02*
D03*
X86079D02*
D03*
X88047D02*
D03*
X90016D02*
D03*
X91984D02*
D03*
X93953D02*
D03*
X95921D02*
D03*
X97890D02*
D03*
X99858D02*
D03*
X101827D02*
D03*
X103795D02*
D03*
X105764D02*
D03*
Y93138D02*
D03*
X103795D02*
D03*
X101827D02*
D03*
X99858D02*
D03*
X97890D02*
D03*
X95921D02*
D03*
X93953D02*
D03*
X91984D02*
D03*
X90016D02*
D03*
X88047D02*
D03*
X86079D02*
D03*
X84110D02*
D03*
X82142D02*
D03*
X80173D02*
D03*
X78205D02*
D03*
X76236D02*
D03*
D24*
X38988Y71500D02*
D03*
X50012D02*
D03*
D40*
X197500Y84500D02*
D03*
Y114500D02*
D03*
D41*
X55000Y119500D02*
D03*
X75000D02*
D03*
X65000D02*
D03*
X157000Y119000D02*
D03*
X177000D02*
D03*
X167000D02*
D03*
X156500Y155500D02*
D03*
X176500D02*
D03*
X166500D02*
D03*
X55500D02*
D03*
X75500D02*
D03*
X65500D02*
D03*
D42*
X222000Y12500D02*
D03*
X12000D02*
D03*
X222000Y177000D02*
D03*
X12000Y179500D02*
D03*
D43*
X52500Y12500D02*
D03*
X62500D02*
D03*
X72500D02*
D03*
X82500D02*
D03*
X92500D02*
D03*
X102500D02*
D03*
X112500D02*
D03*
X122500D02*
D03*
X132500D02*
D03*
X142500D02*
D03*
X52500Y22500D02*
D03*
X62500D02*
D03*
X72500D02*
D03*
X82500D02*
D03*
X92500D02*
D03*
X102500D02*
D03*
X112500D02*
D03*
X122500D02*
D03*
X132500D02*
D03*
D44*
X142500D02*
D03*
D45*
X214783Y35823D02*
D03*
Y153933D02*
D03*
X22500Y157000D02*
D03*
Y38890D02*
D03*
D46*
X222500Y142122D02*
D03*
Y130311D02*
D03*
Y118500D02*
D03*
Y106689D02*
D03*
Y94878D02*
D03*
Y83067D02*
D03*
Y71256D02*
D03*
Y59445D02*
D03*
Y47634D02*
D03*
X14783Y50701D02*
D03*
Y62512D02*
D03*
Y74323D02*
D03*
Y86134D02*
D03*
Y97945D02*
D03*
Y109756D02*
D03*
Y121567D02*
D03*
Y133378D02*
D03*
Y145189D02*
D03*
M02*
