M48
;Layer_Color=9474304
;FILE_FORMAT=2:5
INCH,LZ
;TYPE=PLATED
T1F00S00C0.00800
T2F00S00C0.01000
T3F00S00C0.03346
T4F00S00C0.03543
T5F00S00C0.04000
T6F00S00C0.04100
T7F00S00C0.04500
T8F00S00C0.05000
T9F00S00C0.12500
%
T01
X01035Y00385
X0122079Y0054079
X0120937Y0082527
X01215Y00895
X00825Y00855
X0076052Y0084052
X0077Y00585
X0091Y00565
T02
X013Y0076
X0141Y009
X0150234Y0082809
X01935Y0059
X01855Y01765
X0176
X01635
X0154
X01405
X0131
X0119
X01095
X0099858Y0111142
X007125Y01395
X0045Y00925
Y0081
X00555Y00735
X0033
T03
X01975Y00845
Y01145
T04
X00525Y00125
Y00225
X00625
Y00125
X00725
X00825
X00925
X01025
X01125
X01225
X01325
X01425
Y00225
X01325
X01225
X01125
X01025
X00925
X00825
X00725
T05
X0014783Y0050701
X02225Y0059445
Y0071256
Y0083067
Y0094878
Y0106689
Y01185
Y0130311
Y0142122
X0014783Y0133378
Y0121567
Y0109756
Y0097945
Y0086134
Y0074323
Y0062512
T06
X02225Y0047634
X0014783Y0145189
T07
X0065Y01195
X0075
X00755Y01555
X00655
X01565
X01665
X01765
X0177Y0119
X0167
X0157
X0055Y01195
X00555Y01555
T08
X00225Y003889
X0214783Y0035823
Y0153933
X00225Y0157
T09
X0012Y00125
X0222
Y0177
X0012Y01795
M30
