G04*
G04 #@! TF.GenerationSoftware,Altium Limited,Altium Designer,19.1.5 (86)*
G04*
G04 Layer_Physical_Order=2*
G04 Layer_Color=16711680*
%FSLAX25Y25*%
%MOIN*%
G70*
G01*
G75*
%ADD13C,0.01000*%
%ADD39C,0.01500*%
%ADD40C,0.05512*%
%ADD41C,0.07874*%
%ADD42C,0.16500*%
%ADD43C,0.05906*%
%ADD44R,0.05906X0.05906*%
%ADD45C,0.07500*%
%ADD46C,0.08000*%
%ADD47C,0.02000*%
G36*
X235379Y1122D02*
X1122D01*
Y193378D01*
X235379D01*
Y1122D01*
D02*
G37*
%LPC*%
G36*
X185500Y178539D02*
X184720Y178384D01*
X184058Y177942D01*
X183616Y177280D01*
X183461Y176500D01*
X183616Y175720D01*
X184058Y175058D01*
X184720Y174616D01*
X185500Y174461D01*
X186280Y174616D01*
X186942Y175058D01*
X187384Y175720D01*
X187539Y176500D01*
X187384Y177280D01*
X186942Y177942D01*
X186280Y178384D01*
X185500Y178539D01*
D02*
G37*
G36*
X176000D02*
X175220Y178384D01*
X174558Y177942D01*
X174116Y177280D01*
X173961Y176500D01*
X174116Y175720D01*
X174558Y175058D01*
X175220Y174616D01*
X176000Y174461D01*
X176780Y174616D01*
X177442Y175058D01*
X177884Y175720D01*
X178039Y176500D01*
X177884Y177280D01*
X177442Y177942D01*
X176780Y178384D01*
X176000Y178539D01*
D02*
G37*
G36*
X163500D02*
X162720Y178384D01*
X162058Y177942D01*
X161616Y177280D01*
X161461Y176500D01*
X161616Y175720D01*
X162058Y175058D01*
X162720Y174616D01*
X163500Y174461D01*
X164280Y174616D01*
X164942Y175058D01*
X165384Y175720D01*
X165539Y176500D01*
X165384Y177280D01*
X164942Y177942D01*
X164280Y178384D01*
X163500Y178539D01*
D02*
G37*
G36*
X154000D02*
X153220Y178384D01*
X152558Y177942D01*
X152116Y177280D01*
X151961Y176500D01*
X152116Y175720D01*
X152558Y175058D01*
X153220Y174616D01*
X154000Y174461D01*
X154780Y174616D01*
X155442Y175058D01*
X155884Y175720D01*
X156039Y176500D01*
X155884Y177280D01*
X155442Y177942D01*
X154780Y178384D01*
X154000Y178539D01*
D02*
G37*
G36*
X140500D02*
X139720Y178384D01*
X139058Y177942D01*
X138616Y177280D01*
X138461Y176500D01*
X138616Y175720D01*
X139058Y175058D01*
X139720Y174616D01*
X140500Y174461D01*
X141280Y174616D01*
X141942Y175058D01*
X142384Y175720D01*
X142539Y176500D01*
X142384Y177280D01*
X141942Y177942D01*
X141280Y178384D01*
X140500Y178539D01*
D02*
G37*
G36*
X131000D02*
X130220Y178384D01*
X129558Y177942D01*
X129116Y177280D01*
X128961Y176500D01*
X129116Y175720D01*
X129558Y175058D01*
X130220Y174616D01*
X131000Y174461D01*
X131780Y174616D01*
X132442Y175058D01*
X132884Y175720D01*
X133039Y176500D01*
X132884Y177280D01*
X132442Y177942D01*
X131780Y178384D01*
X131000Y178539D01*
D02*
G37*
G36*
X119000D02*
X118220Y178384D01*
X117558Y177942D01*
X117116Y177280D01*
X116961Y176500D01*
X117116Y175720D01*
X117558Y175058D01*
X118220Y174616D01*
X119000Y174461D01*
X119780Y174616D01*
X120442Y175058D01*
X120884Y175720D01*
X121039Y176500D01*
X120884Y177280D01*
X120442Y177942D01*
X119780Y178384D01*
X119000Y178539D01*
D02*
G37*
G36*
X109500D02*
X108720Y178384D01*
X108058Y177942D01*
X107616Y177280D01*
X107461Y176500D01*
X107616Y175720D01*
X108058Y175058D01*
X108720Y174616D01*
X109500Y174461D01*
X110280Y174616D01*
X110942Y175058D01*
X111384Y175720D01*
X111539Y176500D01*
X111384Y177280D01*
X110942Y177942D01*
X110280Y178384D01*
X109500Y178539D01*
D02*
G37*
G36*
X12000Y188795D02*
X10187Y188616D01*
X8443Y188087D01*
X6836Y187228D01*
X5428Y186072D01*
X4272Y184664D01*
X3413Y183057D01*
X2884Y181313D01*
X2705Y179500D01*
X2884Y177687D01*
X3413Y175943D01*
X4272Y174336D01*
X5428Y172928D01*
X6836Y171772D01*
X8443Y170913D01*
X10187Y170384D01*
X12000Y170205D01*
X13813Y170384D01*
X15557Y170913D01*
X17164Y171772D01*
X18572Y172928D01*
X19728Y174336D01*
X20587Y175943D01*
X21116Y177687D01*
X21295Y179500D01*
X21116Y181313D01*
X20587Y183057D01*
X19728Y184664D01*
X18572Y186072D01*
X17164Y187228D01*
X15557Y188087D01*
X13813Y188616D01*
X12000Y188795D01*
D02*
G37*
G36*
X222000Y186295D02*
X220187Y186116D01*
X218443Y185587D01*
X216836Y184728D01*
X215428Y183572D01*
X214272Y182164D01*
X213413Y180557D01*
X212884Y178813D01*
X212705Y177000D01*
X212884Y175187D01*
X213413Y173443D01*
X214272Y171836D01*
X215428Y170428D01*
X216836Y169272D01*
X218443Y168413D01*
X220187Y167884D01*
X222000Y167705D01*
X223813Y167884D01*
X225557Y168413D01*
X227164Y169272D01*
X228572Y170428D01*
X229728Y171836D01*
X230587Y173443D01*
X231116Y175187D01*
X231295Y177000D01*
X231116Y178813D01*
X230587Y180557D01*
X229728Y182164D01*
X228572Y183572D01*
X227164Y184728D01*
X225557Y185587D01*
X223813Y186116D01*
X222000Y186295D01*
D02*
G37*
G36*
X156500Y166622D02*
X156500Y166622D01*
X45804D01*
X45804Y166622D01*
X45375Y166536D01*
X45011Y166293D01*
X45011Y166293D01*
X26840Y148122D01*
X18835D01*
X18349Y148755D01*
X17305Y149556D01*
X16089Y150060D01*
X14783Y150232D01*
X13478Y150060D01*
X12262Y149556D01*
X11217Y148755D01*
X10416Y147710D01*
X9912Y146494D01*
X9740Y145189D01*
X9912Y143884D01*
X10416Y142667D01*
X11217Y141623D01*
X12262Y140821D01*
X13478Y140317D01*
X14783Y140146D01*
X16089Y140317D01*
X17305Y140821D01*
X18349Y141623D01*
X19151Y142667D01*
X19655Y143884D01*
X19827Y145189D01*
X19785Y145502D01*
X20115Y145878D01*
X27304D01*
X27304Y145878D01*
X27733Y145964D01*
X28097Y146207D01*
X46269Y164378D01*
X156035D01*
X162290Y158124D01*
X162188Y157990D01*
X161771Y156983D01*
X161229D01*
X160812Y157990D01*
X160021Y159021D01*
X158990Y159812D01*
X157789Y160310D01*
X156500Y160480D01*
X155211Y160310D01*
X154010Y159812D01*
X152979Y159021D01*
X152188Y157990D01*
X151690Y156789D01*
X151520Y155500D01*
X151690Y154211D01*
X152188Y153010D01*
X152979Y151979D01*
X154010Y151188D01*
X155211Y150690D01*
X156500Y150520D01*
X157789Y150690D01*
X158990Y151188D01*
X160021Y151979D01*
X160812Y153010D01*
X161229Y154017D01*
X161771D01*
X162188Y153010D01*
X162979Y151979D01*
X164010Y151188D01*
X165211Y150690D01*
X166500Y150520D01*
X167789Y150690D01*
X168990Y151188D01*
X170021Y151979D01*
X170812Y153010D01*
X171229Y154017D01*
X171771D01*
X172187Y153010D01*
X172979Y151979D01*
X174010Y151188D01*
X175211Y150690D01*
X176000Y150586D01*
Y155500D01*
Y160414D01*
X175211Y160310D01*
X174010Y159812D01*
X172979Y159021D01*
X172187Y157990D01*
X171771Y156983D01*
X171229D01*
X170812Y157990D01*
X170021Y159021D01*
X168990Y159812D01*
X167789Y160310D01*
X166500Y160480D01*
X165211Y160310D01*
X164010Y159812D01*
X163876Y159710D01*
X157293Y166293D01*
X156929Y166536D01*
X156500Y166622D01*
D02*
G37*
G36*
X65500Y160480D02*
X64211Y160310D01*
X63010Y159812D01*
X61979Y159021D01*
X61187Y157990D01*
X60771Y156983D01*
X60229D01*
X59812Y157990D01*
X59021Y159021D01*
X57990Y159812D01*
X56789Y160310D01*
X55500Y160480D01*
X54211Y160310D01*
X53010Y159812D01*
X51979Y159021D01*
X51187Y157990D01*
X50690Y156789D01*
X50520Y155500D01*
X50690Y154211D01*
X51187Y153010D01*
X51979Y151979D01*
X53010Y151188D01*
X54211Y150690D01*
X55500Y150520D01*
X56789Y150690D01*
X57990Y151188D01*
X59021Y151979D01*
X59812Y153010D01*
X60229Y154017D01*
X60771D01*
X61187Y153010D01*
X61979Y151979D01*
X63010Y151188D01*
X64211Y150690D01*
X65500Y150520D01*
X66789Y150690D01*
X67990Y151188D01*
X69021Y151979D01*
X69813Y153010D01*
X70229Y154017D01*
X70771D01*
X71188Y153010D01*
X71979Y151979D01*
X73010Y151188D01*
X74211Y150690D01*
X75000Y150586D01*
Y155500D01*
Y160414D01*
X74211Y160310D01*
X73010Y159812D01*
X71979Y159021D01*
X71188Y157990D01*
X70771Y156983D01*
X70229D01*
X69813Y157990D01*
X69021Y159021D01*
X67990Y159812D01*
X66789Y160310D01*
X65500Y160480D01*
D02*
G37*
G36*
X177000Y160414D02*
Y156000D01*
X181414D01*
X181310Y156789D01*
X180813Y157990D01*
X180021Y159021D01*
X178990Y159812D01*
X177789Y160310D01*
X177000Y160414D01*
D02*
G37*
G36*
X76000D02*
Y156000D01*
X80414D01*
X80310Y156789D01*
X79813Y157990D01*
X79021Y159021D01*
X77990Y159812D01*
X76789Y160310D01*
X76000Y160414D01*
D02*
G37*
G36*
X22500Y161791D02*
X21260Y161628D01*
X20105Y161149D01*
X19112Y160388D01*
X18351Y159396D01*
X17872Y158240D01*
X17709Y157000D01*
X17872Y155760D01*
X18351Y154604D01*
X19112Y153612D01*
X20105Y152851D01*
X21260Y152372D01*
X22500Y152209D01*
X23740Y152372D01*
X24895Y152851D01*
X25888Y153612D01*
X26649Y154604D01*
X27128Y155760D01*
X27291Y157000D01*
X27128Y158240D01*
X26649Y159396D01*
X25888Y160388D01*
X24895Y161149D01*
X23740Y161628D01*
X22500Y161791D01*
D02*
G37*
G36*
X181414Y155000D02*
X177000D01*
Y150586D01*
X177789Y150690D01*
X178990Y151188D01*
X180021Y151979D01*
X180813Y153010D01*
X181310Y154211D01*
X181414Y155000D01*
D02*
G37*
G36*
X80414D02*
X76000D01*
Y150586D01*
X76789Y150690D01*
X77990Y151188D01*
X79021Y151979D01*
X79813Y153010D01*
X80310Y154211D01*
X80414Y155000D01*
D02*
G37*
G36*
X214783Y158724D02*
X213543Y158561D01*
X212388Y158082D01*
X211396Y157321D01*
X210634Y156328D01*
X210156Y155173D01*
X209992Y153933D01*
X210156Y152693D01*
X210634Y151538D01*
X211396Y150545D01*
X212388Y149784D01*
X213543Y149305D01*
X214783Y149142D01*
X216023Y149305D01*
X217179Y149784D01*
X218171Y150545D01*
X218933Y151538D01*
X219411Y152693D01*
X219574Y153933D01*
X219411Y155173D01*
X218933Y156328D01*
X218171Y157321D01*
X217179Y158082D01*
X216023Y158561D01*
X214783Y158724D01*
D02*
G37*
G36*
X222500Y147165D02*
X221195Y146993D01*
X219978Y146490D01*
X218934Y145688D01*
X218132Y144644D01*
X217629Y143427D01*
X217457Y142122D01*
X217629Y140817D01*
X218132Y139600D01*
X218934Y138556D01*
X219978Y137754D01*
X221195Y137251D01*
X222500Y137079D01*
X223805Y137251D01*
X225022Y137754D01*
X226066Y138556D01*
X226868Y139600D01*
X227371Y140817D01*
X227543Y142122D01*
X227371Y143427D01*
X226868Y144644D01*
X226066Y145688D01*
X225022Y146490D01*
X223805Y146993D01*
X222500Y147165D01*
D02*
G37*
G36*
X14783Y138421D02*
X13478Y138249D01*
X12262Y137745D01*
X11217Y136944D01*
X10416Y135899D01*
X9912Y134683D01*
X9740Y133378D01*
X9912Y132072D01*
X10416Y130856D01*
X11217Y129812D01*
X12262Y129010D01*
X13478Y128507D01*
X14783Y128335D01*
X16089Y128507D01*
X17305Y129010D01*
X18349Y129812D01*
X19151Y130856D01*
X19655Y132072D01*
X19827Y133378D01*
X19655Y134683D01*
X19151Y135899D01*
X18349Y136944D01*
X17305Y137745D01*
X16089Y138249D01*
X14783Y138421D01*
D02*
G37*
G36*
X185000Y126622D02*
X185000Y126622D01*
X163500D01*
X163500Y126622D01*
X163071Y126536D01*
X162707Y126293D01*
X162707Y126293D01*
X159624Y123210D01*
X159490Y123312D01*
X158289Y123810D01*
X157000Y123980D01*
X155711Y123810D01*
X154510Y123312D01*
X153479Y122521D01*
X152688Y121490D01*
X152190Y120289D01*
X152020Y119000D01*
X152190Y117711D01*
X152688Y116510D01*
X153479Y115479D01*
X154510Y114688D01*
X155711Y114190D01*
X157000Y114020D01*
X158289Y114190D01*
X159490Y114688D01*
X160521Y115479D01*
X161312Y116510D01*
X161729Y117517D01*
X162271D01*
X162688Y116510D01*
X162790Y116376D01*
X145535Y99122D01*
X19672D01*
X19655Y99250D01*
X19151Y100466D01*
X18349Y101511D01*
X17305Y102312D01*
X16089Y102816D01*
X14783Y102988D01*
X13478Y102816D01*
X12262Y102312D01*
X11217Y101511D01*
X10416Y100466D01*
X9912Y99250D01*
X9740Y97945D01*
X9912Y96640D01*
X10416Y95423D01*
X11217Y94379D01*
X12262Y93577D01*
X13478Y93073D01*
X14783Y92902D01*
X16089Y93073D01*
X17305Y93577D01*
X18349Y94379D01*
X19151Y95423D01*
X19655Y96640D01*
X19686Y96878D01*
X146000D01*
X146000Y96878D01*
X146429Y96964D01*
X146793Y97207D01*
X164376Y114790D01*
X164510Y114688D01*
X165711Y114190D01*
X167000Y114020D01*
X168289Y114190D01*
X169490Y114688D01*
X170521Y115479D01*
X171312Y116510D01*
X171729Y117517D01*
X172271D01*
X172687Y116510D01*
X173479Y115479D01*
X174510Y114688D01*
X175711Y114190D01*
X176500Y114086D01*
Y119000D01*
X177000D01*
Y119500D01*
X181914D01*
X181810Y120289D01*
X181313Y121490D01*
X180521Y122521D01*
X179490Y123312D01*
X178289Y123810D01*
X177768Y123878D01*
X177801Y124378D01*
X184535D01*
X193793Y115120D01*
X193712Y114500D01*
X193841Y113520D01*
X194219Y112606D01*
X194821Y111821D01*
X195606Y111219D01*
X196519Y110841D01*
X197500Y110712D01*
X198480Y110841D01*
X199253Y111161D01*
X212878Y97535D01*
Y68000D01*
X212878Y68000D01*
X212964Y67571D01*
X213207Y67207D01*
X218269Y62145D01*
X218132Y61966D01*
X217629Y60750D01*
X217457Y59445D01*
X217629Y58139D01*
X218132Y56923D01*
X218934Y55879D01*
X219978Y55077D01*
X221195Y54574D01*
X222500Y54402D01*
X223805Y54574D01*
X225022Y55077D01*
X226066Y55879D01*
X226868Y56923D01*
X227371Y58139D01*
X227543Y59445D01*
X227371Y60750D01*
X226868Y61966D01*
X226066Y63011D01*
X225022Y63812D01*
X223805Y64316D01*
X222500Y64488D01*
X221195Y64316D01*
X219978Y63812D01*
X219863Y63723D01*
X215122Y68465D01*
Y98000D01*
X215036Y98429D01*
X214793Y98793D01*
X214793Y98793D01*
X200839Y112747D01*
X201159Y113520D01*
X201288Y114500D01*
X201159Y115480D01*
X200781Y116394D01*
X200179Y117179D01*
X199394Y117781D01*
X198480Y118159D01*
X197500Y118288D01*
X196519Y118159D01*
X195606Y117781D01*
X194870Y117216D01*
X185793Y126293D01*
X185429Y126536D01*
X185000Y126622D01*
D02*
G37*
G36*
X222500Y135354D02*
X221195Y135182D01*
X219978Y134678D01*
X218934Y133877D01*
X218132Y132833D01*
X217629Y131616D01*
X217457Y130311D01*
X217629Y129006D01*
X218132Y127789D01*
X218934Y126745D01*
X219978Y125944D01*
X221195Y125440D01*
X222500Y125268D01*
X223805Y125440D01*
X225022Y125944D01*
X226066Y126745D01*
X226868Y127789D01*
X227371Y129006D01*
X227543Y130311D01*
X227371Y131616D01*
X226868Y132833D01*
X226066Y133877D01*
X225022Y134678D01*
X223805Y135182D01*
X222500Y135354D01*
D02*
G37*
G36*
X58500Y127122D02*
X58500Y127122D01*
X47500D01*
X47071Y127036D01*
X46707Y126793D01*
X46707Y126793D01*
X44535Y124622D01*
X18742D01*
X18349Y125133D01*
X17305Y125934D01*
X16089Y126438D01*
X14783Y126610D01*
X13478Y126438D01*
X12262Y125934D01*
X11217Y125133D01*
X10416Y124088D01*
X9912Y122872D01*
X9740Y121567D01*
X9912Y120262D01*
X10416Y119045D01*
X11217Y118001D01*
X12262Y117199D01*
X13478Y116695D01*
X14783Y116524D01*
X16089Y116695D01*
X17305Y117199D01*
X18349Y118001D01*
X19151Y119045D01*
X19655Y120262D01*
X19827Y121567D01*
X19769Y122002D01*
X20099Y122378D01*
X45000D01*
X45000Y122378D01*
X45429Y122464D01*
X45793Y122707D01*
X47965Y124878D01*
X54199D01*
X54232Y124378D01*
X53711Y124310D01*
X52510Y123812D01*
X51479Y123021D01*
X50687Y121990D01*
X50190Y120789D01*
X50020Y119500D01*
X50190Y118211D01*
X50687Y117010D01*
X51479Y115979D01*
X52510Y115188D01*
X53711Y114690D01*
X55000Y114520D01*
X56289Y114690D01*
X57490Y115188D01*
X58521Y115979D01*
X59312Y117010D01*
X59729Y118017D01*
X60271D01*
X60688Y117010D01*
X61479Y115979D01*
X62510Y115188D01*
X63711Y114690D01*
X65000Y114520D01*
X66289Y114690D01*
X67490Y115188D01*
X68521Y115979D01*
X69313Y117010D01*
X69729Y118017D01*
X70271D01*
X70688Y117010D01*
X71479Y115979D01*
X72510Y115188D01*
X73711Y114690D01*
X74500Y114586D01*
Y119500D01*
Y124414D01*
X73711Y124310D01*
X72510Y123812D01*
X71479Y123021D01*
X70688Y121990D01*
X70271Y120983D01*
X69729D01*
X69313Y121990D01*
X68521Y123021D01*
X67490Y123812D01*
X66289Y124310D01*
X65000Y124480D01*
X63711Y124310D01*
X62510Y123812D01*
X62376Y123710D01*
X59293Y126793D01*
X58929Y127036D01*
X58500Y127122D01*
D02*
G37*
G36*
X75500Y124414D02*
Y120000D01*
X79914D01*
X79810Y120789D01*
X79312Y121990D01*
X78521Y123021D01*
X77490Y123812D01*
X76289Y124310D01*
X75500Y124414D01*
D02*
G37*
G36*
X223000Y123477D02*
Y119000D01*
X227477D01*
X227371Y119805D01*
X226868Y121022D01*
X226066Y122066D01*
X225022Y122868D01*
X223805Y123371D01*
X223000Y123477D01*
D02*
G37*
G36*
X222000D02*
X221195Y123371D01*
X219978Y122868D01*
X218934Y122066D01*
X218132Y121022D01*
X217629Y119805D01*
X217523Y119000D01*
X222000D01*
Y123477D01*
D02*
G37*
G36*
X79914Y119000D02*
X75500D01*
Y114586D01*
X76289Y114690D01*
X77490Y115188D01*
X78521Y115979D01*
X79312Y117010D01*
X79810Y118211D01*
X79914Y119000D01*
D02*
G37*
G36*
X181914Y118500D02*
X177500D01*
Y114086D01*
X178289Y114190D01*
X179490Y114688D01*
X180521Y115479D01*
X181313Y116510D01*
X181810Y117711D01*
X181914Y118500D01*
D02*
G37*
G36*
X227477Y118000D02*
X223000D01*
Y113523D01*
X223805Y113629D01*
X225022Y114132D01*
X226066Y114934D01*
X226868Y115978D01*
X227371Y117195D01*
X227477Y118000D01*
D02*
G37*
G36*
X222000D02*
X217523D01*
X217629Y117195D01*
X218132Y115978D01*
X218934Y114934D01*
X219978Y114132D01*
X221195Y113629D01*
X222000Y113523D01*
Y118000D01*
D02*
G37*
G36*
X71250Y141539D02*
X70470Y141384D01*
X69808Y140942D01*
X69366Y140280D01*
X69211Y139500D01*
X69366Y138720D01*
X69808Y138058D01*
X70470Y137616D01*
X71250Y137461D01*
X71628Y137536D01*
X97853Y111311D01*
X97819Y111142D01*
X97974Y110361D01*
X98416Y109700D01*
X99078Y109258D01*
X99858Y109103D01*
X100639Y109258D01*
X101300Y109700D01*
X101742Y110361D01*
X101897Y111142D01*
X101742Y111922D01*
X101300Y112584D01*
X100639Y113026D01*
X99858Y113181D01*
X99272Y113064D01*
X73214Y139122D01*
X73289Y139500D01*
X73134Y140280D01*
X72692Y140942D01*
X72030Y141384D01*
X71250Y141539D01*
D02*
G37*
G36*
X14783Y114799D02*
X13478Y114627D01*
X12262Y114123D01*
X11217Y113322D01*
X10416Y112277D01*
X9912Y111061D01*
X9740Y109756D01*
X9912Y108450D01*
X10416Y107234D01*
X11217Y106190D01*
X12262Y105388D01*
X13478Y104885D01*
X14783Y104713D01*
X16089Y104885D01*
X17305Y105388D01*
X18349Y106190D01*
X19151Y107234D01*
X19655Y108450D01*
X19827Y109756D01*
X19655Y111061D01*
X19151Y112277D01*
X18349Y113322D01*
X17305Y114123D01*
X16089Y114627D01*
X14783Y114799D01*
D02*
G37*
G36*
X222500Y111732D02*
X221195Y111560D01*
X219978Y111056D01*
X218934Y110255D01*
X218132Y109211D01*
X217629Y107994D01*
X217457Y106689D01*
X217629Y105384D01*
X218132Y104167D01*
X218934Y103123D01*
X219978Y102322D01*
X221195Y101818D01*
X222500Y101646D01*
X223805Y101818D01*
X225022Y102322D01*
X226066Y103123D01*
X226868Y104167D01*
X227371Y105384D01*
X227543Y106689D01*
X227371Y107994D01*
X226868Y109211D01*
X226066Y110255D01*
X225022Y111056D01*
X223805Y111560D01*
X222500Y111732D01*
D02*
G37*
G36*
X7000Y124622D02*
X6571Y124536D01*
X6207Y124293D01*
X5964Y123929D01*
X5878Y123500D01*
Y98516D01*
X5964Y98087D01*
X6207Y97723D01*
X6571Y97479D01*
X7000Y97394D01*
X7429Y97479D01*
X7793Y97723D01*
X8036Y98087D01*
X8122Y98516D01*
Y123500D01*
X8036Y123929D01*
X7793Y124293D01*
X7429Y124536D01*
X7000Y124622D01*
D02*
G37*
G36*
X45500Y94440D02*
Y93000D01*
X46940D01*
X46884Y93280D01*
X46442Y93942D01*
X45780Y94384D01*
X45500Y94440D01*
D02*
G37*
G36*
X44500D02*
X44220Y94384D01*
X43558Y93942D01*
X43116Y93280D01*
X43060Y93000D01*
X44500D01*
Y94440D01*
D02*
G37*
G36*
X46940Y92000D02*
X45500D01*
Y90560D01*
X45780Y90616D01*
X46442Y91058D01*
X46884Y91720D01*
X46940Y92000D01*
D02*
G37*
G36*
X44500D02*
X43060D01*
X43116Y91720D01*
X43558Y91058D01*
X44220Y90616D01*
X44500Y90560D01*
Y92000D01*
D02*
G37*
G36*
X222500Y99921D02*
X221195Y99749D01*
X219978Y99246D01*
X218934Y98444D01*
X218132Y97400D01*
X217629Y96183D01*
X217457Y94878D01*
X217629Y93573D01*
X218132Y92356D01*
X218934Y91312D01*
X219978Y90510D01*
X221195Y90007D01*
X222500Y89835D01*
X223805Y90007D01*
X225022Y90510D01*
X226066Y91312D01*
X226868Y92356D01*
X227371Y93573D01*
X227543Y94878D01*
X227371Y96183D01*
X226868Y97400D01*
X226066Y98444D01*
X225022Y99246D01*
X223805Y99749D01*
X222500Y99921D01*
D02*
G37*
G36*
X83000Y87440D02*
Y86000D01*
X84440D01*
X84384Y86280D01*
X83942Y86942D01*
X83280Y87384D01*
X83000Y87440D01*
D02*
G37*
G36*
X82000D02*
X81720Y87384D01*
X81058Y86942D01*
X80616Y86280D01*
X80560Y86000D01*
X82000D01*
Y87440D01*
D02*
G37*
G36*
X84440Y85000D02*
X83000D01*
Y83560D01*
X83280Y83616D01*
X83942Y84058D01*
X84384Y84720D01*
X84440Y85000D01*
D02*
G37*
G36*
X82000D02*
X80560D01*
X80616Y84720D01*
X81058Y84058D01*
X81720Y83616D01*
X82000Y83560D01*
Y85000D01*
D02*
G37*
G36*
X150734Y84748D02*
Y83309D01*
X152174D01*
X152118Y83589D01*
X151676Y84251D01*
X151015Y84693D01*
X150734Y84748D01*
D02*
G37*
G36*
X149734D02*
X149454Y84693D01*
X148792Y84251D01*
X148350Y83589D01*
X148294Y83309D01*
X149734D01*
Y84748D01*
D02*
G37*
G36*
X121437Y84467D02*
Y83027D01*
X122877D01*
X122821Y83308D01*
X122379Y83969D01*
X121717Y84411D01*
X121437Y84467D01*
D02*
G37*
G36*
X120437D02*
X120157Y84411D01*
X119495Y83969D01*
X119053Y83308D01*
X118997Y83027D01*
X120437D01*
Y84467D01*
D02*
G37*
G36*
X76052Y86091D02*
X75272Y85936D01*
X74610Y85494D01*
X74168Y84833D01*
X74013Y84052D01*
X74168Y83272D01*
X74610Y82610D01*
X75272Y82168D01*
X76052Y82013D01*
X76832Y82168D01*
X77494Y82610D01*
X77936Y83272D01*
X78091Y84052D01*
X77936Y84833D01*
X77494Y85494D01*
X76832Y85936D01*
X76052Y86091D01*
D02*
G37*
G36*
X152174Y82309D02*
X150734D01*
Y80869D01*
X151015Y80925D01*
X151676Y81367D01*
X152118Y82028D01*
X152174Y82309D01*
D02*
G37*
G36*
X149734D02*
X148294D01*
X148350Y82028D01*
X148792Y81367D01*
X149454Y80925D01*
X149734Y80869D01*
Y82309D01*
D02*
G37*
G36*
X141000Y92039D02*
X140220Y91884D01*
X139558Y91442D01*
X139116Y90780D01*
X138961Y90000D01*
X139116Y89220D01*
X139558Y88558D01*
X140220Y88116D01*
X141000Y87961D01*
X141780Y88116D01*
X142442Y88558D01*
X142486Y88624D01*
X184097D01*
X189193Y83527D01*
X189193Y83527D01*
X189640Y83228D01*
X190167Y83124D01*
X194005D01*
X194219Y82606D01*
X194821Y81821D01*
X195606Y81219D01*
X196519Y80841D01*
X197500Y80712D01*
X198480Y80841D01*
X199394Y81219D01*
X200179Y81821D01*
X200781Y82606D01*
X201159Y83520D01*
X201288Y84500D01*
X201159Y85480D01*
X200781Y86394D01*
X200179Y87179D01*
X199394Y87781D01*
X198480Y88159D01*
X197500Y88288D01*
X196519Y88159D01*
X195606Y87781D01*
X194821Y87179D01*
X194219Y86394D01*
X194005Y85876D01*
X190737D01*
X185640Y90973D01*
X185193Y91272D01*
X184667Y91376D01*
X142486D01*
X142442Y91442D01*
X141780Y91884D01*
X141000Y92039D01*
D02*
G37*
G36*
X122877Y82027D02*
X121437D01*
Y80588D01*
X121717Y80643D01*
X122379Y81085D01*
X122821Y81747D01*
X122877Y82027D01*
D02*
G37*
G36*
X120437D02*
X118997D01*
X119053Y81747D01*
X119495Y81085D01*
X120157Y80643D01*
X120437Y80588D01*
Y82027D01*
D02*
G37*
G36*
X45000Y83039D02*
X44220Y82884D01*
X43558Y82442D01*
X43116Y81780D01*
X42961Y81000D01*
X43116Y80220D01*
X43558Y79558D01*
X44220Y79116D01*
X45000Y78961D01*
X45780Y79116D01*
X46442Y79558D01*
X46884Y80220D01*
X47039Y81000D01*
X46884Y81780D01*
X46442Y82442D01*
X45780Y82884D01*
X45000Y83039D01*
D02*
G37*
G36*
X222500Y88110D02*
X221195Y87938D01*
X219978Y87435D01*
X218934Y86633D01*
X218132Y85589D01*
X217629Y84372D01*
X217457Y83067D01*
X217629Y81762D01*
X218132Y80545D01*
X218934Y79501D01*
X219978Y78699D01*
X221195Y78196D01*
X222500Y78024D01*
X223805Y78196D01*
X225022Y78699D01*
X226066Y79501D01*
X226868Y80545D01*
X227371Y81762D01*
X227543Y83067D01*
X227371Y84372D01*
X226868Y85589D01*
X226066Y86633D01*
X225022Y87435D01*
X223805Y87938D01*
X222500Y88110D01*
D02*
G37*
G36*
X56000Y75440D02*
Y74000D01*
X57440D01*
X57384Y74280D01*
X56942Y74942D01*
X56280Y75384D01*
X56000Y75440D01*
D02*
G37*
G36*
X55000D02*
X54720Y75384D01*
X54058Y74942D01*
X53616Y74280D01*
X53560Y74000D01*
X55000D01*
Y75440D01*
D02*
G37*
G36*
X121500Y91539D02*
X120720Y91384D01*
X120058Y90942D01*
X119616Y90280D01*
X119461Y89500D01*
X119616Y88720D01*
X120058Y88058D01*
X120378Y87844D01*
Y87500D01*
X120378Y87500D01*
X120464Y87071D01*
X120707Y86707D01*
X128878Y78535D01*
Y77656D01*
X128558Y77442D01*
X128116Y76780D01*
X127961Y76000D01*
X128116Y75220D01*
X128558Y74558D01*
X129220Y74116D01*
X130000Y73961D01*
X130780Y74116D01*
X131442Y74558D01*
X131884Y75220D01*
X132039Y76000D01*
X131884Y76780D01*
X131442Y77442D01*
X131122Y77656D01*
Y79000D01*
X131122Y79000D01*
X131036Y79429D01*
X130793Y79793D01*
X130793Y79793D01*
X122905Y87681D01*
X122942Y88058D01*
X123384Y88720D01*
X123539Y89500D01*
X123384Y90280D01*
X122942Y90942D01*
X122280Y91384D01*
X121500Y91539D01*
D02*
G37*
G36*
X57440Y73000D02*
X56000D01*
Y71560D01*
X56280Y71616D01*
X56942Y72058D01*
X57384Y72720D01*
X57440Y73000D01*
D02*
G37*
G36*
X55000D02*
X53560D01*
X53616Y72720D01*
X54058Y72058D01*
X54720Y71616D01*
X55000Y71560D01*
Y73000D01*
D02*
G37*
G36*
X33000Y75539D02*
X32220Y75384D01*
X31558Y74942D01*
X31116Y74280D01*
X30961Y73500D01*
X31116Y72720D01*
X31558Y72058D01*
X32220Y71616D01*
X33000Y71461D01*
X33780Y71616D01*
X34442Y72058D01*
X34884Y72720D01*
X35039Y73500D01*
X34884Y74280D01*
X34442Y74942D01*
X33780Y75384D01*
X33000Y75539D01*
D02*
G37*
G36*
X14783Y79366D02*
X13478Y79194D01*
X12262Y78690D01*
X11217Y77889D01*
X10416Y76844D01*
X9912Y75628D01*
X9740Y74323D01*
X9912Y73018D01*
X10416Y71801D01*
X11217Y70757D01*
X12262Y69955D01*
X13478Y69451D01*
X14783Y69280D01*
X16089Y69451D01*
X17305Y69955D01*
X18349Y70757D01*
X19151Y71801D01*
X19655Y73018D01*
X19827Y74323D01*
X19655Y75628D01*
X19151Y76844D01*
X18349Y77889D01*
X17305Y78690D01*
X16089Y79194D01*
X14783Y79366D01*
D02*
G37*
G36*
X222500Y76299D02*
X221195Y76127D01*
X219978Y75624D01*
X218934Y74822D01*
X218132Y73778D01*
X217629Y72561D01*
X217457Y71256D01*
X217629Y69951D01*
X218132Y68734D01*
X218934Y67690D01*
X219978Y66888D01*
X221195Y66385D01*
X222500Y66213D01*
X223805Y66385D01*
X225022Y66888D01*
X226066Y67690D01*
X226868Y68734D01*
X227371Y69951D01*
X227543Y71256D01*
X227371Y72561D01*
X226868Y73778D01*
X226066Y74822D01*
X225022Y75624D01*
X223805Y76127D01*
X222500Y76299D01*
D02*
G37*
G36*
X194000Y60940D02*
Y59500D01*
X195440D01*
X195384Y59780D01*
X194942Y60442D01*
X194280Y60884D01*
X194000Y60940D01*
D02*
G37*
G36*
X193000D02*
X192720Y60884D01*
X192058Y60442D01*
X191616Y59780D01*
X191560Y59500D01*
X193000D01*
Y60940D01*
D02*
G37*
G36*
X14783Y67555D02*
X13478Y67383D01*
X12262Y66879D01*
X11217Y66078D01*
X10416Y65033D01*
X9912Y63817D01*
X9740Y62512D01*
X9912Y61207D01*
X10416Y59990D01*
X11217Y58946D01*
X12262Y58144D01*
X13478Y57640D01*
X14783Y57469D01*
X16089Y57640D01*
X17305Y58144D01*
X18349Y58946D01*
X19151Y59990D01*
X19655Y61207D01*
X19827Y62512D01*
X19655Y63817D01*
X19151Y65033D01*
X18349Y66078D01*
X17305Y66879D01*
X16089Y67383D01*
X14783Y67555D01*
D02*
G37*
G36*
X195440Y58500D02*
X194000D01*
Y57060D01*
X194280Y57116D01*
X194942Y57558D01*
X195384Y58220D01*
X195440Y58500D01*
D02*
G37*
G36*
X193000D02*
X191560D01*
X191616Y58220D01*
X192058Y57558D01*
X192720Y57116D01*
X193000Y57060D01*
Y58500D01*
D02*
G37*
G36*
X91500Y58440D02*
Y57000D01*
X92940D01*
X92884Y57280D01*
X92442Y57942D01*
X91780Y58384D01*
X91500Y58440D01*
D02*
G37*
G36*
X90500D02*
X90220Y58384D01*
X89558Y57942D01*
X89116Y57280D01*
X89060Y57000D01*
X90500D01*
Y58440D01*
D02*
G37*
G36*
X77000Y60539D02*
X76220Y60384D01*
X75558Y59942D01*
X75116Y59280D01*
X74961Y58500D01*
X75116Y57720D01*
X75558Y57058D01*
X76220Y56616D01*
X77000Y56461D01*
X77780Y56616D01*
X78442Y57058D01*
X78884Y57720D01*
X79039Y58500D01*
X78884Y59280D01*
X78442Y59942D01*
X77780Y60384D01*
X77000Y60539D01*
D02*
G37*
G36*
X14783Y91177D02*
X13478Y91005D01*
X12262Y90501D01*
X11217Y89700D01*
X10416Y88655D01*
X9912Y87439D01*
X9740Y86134D01*
X9912Y84829D01*
X10416Y83612D01*
X11217Y82568D01*
X12262Y81766D01*
X13478Y81262D01*
X14783Y81091D01*
X16089Y81262D01*
X17305Y81766D01*
X17452Y81879D01*
X46124Y53207D01*
X46124Y53207D01*
X46488Y52964D01*
X46917Y52878D01*
X46917Y52878D01*
X120475D01*
X120637Y52637D01*
X121298Y52195D01*
X122079Y52040D01*
X122859Y52195D01*
X123521Y52637D01*
X123963Y53298D01*
X124118Y54079D01*
X123963Y54859D01*
X123521Y55521D01*
X122859Y55963D01*
X122079Y56118D01*
X121298Y55963D01*
X120637Y55521D01*
X120370Y55122D01*
X93015D01*
X92779Y55563D01*
X92884Y55720D01*
X92940Y56000D01*
X89060D01*
X89116Y55720D01*
X89221Y55563D01*
X88985Y55122D01*
X47382D01*
X19038Y83465D01*
X19151Y83612D01*
X19655Y84829D01*
X19827Y86134D01*
X19655Y87439D01*
X19151Y88655D01*
X18349Y89700D01*
X17305Y90501D01*
X16089Y91005D01*
X14783Y91177D01*
D02*
G37*
G36*
Y55744D02*
X13478Y55572D01*
X12262Y55068D01*
X11217Y54267D01*
X10416Y53222D01*
X9912Y52006D01*
X9740Y50701D01*
X9912Y49395D01*
X10416Y48179D01*
X11217Y47135D01*
X12262Y46333D01*
X13478Y45829D01*
X14783Y45658D01*
X16089Y45829D01*
X17305Y46333D01*
X18349Y47135D01*
X19151Y48179D01*
X19655Y49395D01*
X19827Y50701D01*
X19655Y52006D01*
X19151Y53222D01*
X18349Y54267D01*
X17305Y55068D01*
X16089Y55572D01*
X14783Y55744D01*
D02*
G37*
G36*
X222500Y52677D02*
X221195Y52505D01*
X219978Y52001D01*
X218934Y51200D01*
X218132Y50155D01*
X217629Y48939D01*
X217457Y47634D01*
X217629Y46328D01*
X218132Y45112D01*
X218934Y44068D01*
X219978Y43266D01*
X221195Y42763D01*
X222500Y42591D01*
X223805Y42763D01*
X225022Y43266D01*
X226066Y44068D01*
X226868Y45112D01*
X227371Y46328D01*
X227543Y47634D01*
X227371Y48939D01*
X226868Y50155D01*
X226066Y51200D01*
X225022Y52001D01*
X223805Y52505D01*
X222500Y52677D01*
D02*
G37*
G36*
X103500Y40539D02*
X102720Y40384D01*
X102058Y39942D01*
X101616Y39280D01*
X101461Y38500D01*
X101616Y37720D01*
X102058Y37058D01*
X102720Y36616D01*
X103500Y36461D01*
X104280Y36616D01*
X104942Y37058D01*
X105384Y37720D01*
X105539Y38500D01*
X105384Y39280D01*
X104942Y39942D01*
X104280Y40384D01*
X103500Y40539D01*
D02*
G37*
G36*
X22500Y43681D02*
X21260Y43517D01*
X20105Y43039D01*
X19112Y42277D01*
X18351Y41285D01*
X17872Y40130D01*
X17709Y38890D01*
X17872Y37650D01*
X18351Y36494D01*
X19112Y35502D01*
X20105Y34740D01*
X21260Y34262D01*
X22500Y34099D01*
X23740Y34262D01*
X24895Y34740D01*
X25888Y35502D01*
X26649Y36494D01*
X27128Y37650D01*
X27291Y38890D01*
X27128Y40130D01*
X26649Y41285D01*
X25888Y42277D01*
X24895Y43039D01*
X23740Y43517D01*
X22500Y43681D01*
D02*
G37*
G36*
X214783Y40614D02*
X213543Y40451D01*
X212388Y39972D01*
X211396Y39211D01*
X210634Y38218D01*
X210156Y37063D01*
X209992Y35823D01*
X210156Y34583D01*
X210634Y33427D01*
X211396Y32435D01*
X212388Y31674D01*
X213543Y31195D01*
X214783Y31032D01*
X216023Y31195D01*
X217179Y31674D01*
X218171Y32435D01*
X218933Y33427D01*
X219411Y34583D01*
X219574Y35823D01*
X219411Y37063D01*
X218933Y38218D01*
X218171Y39211D01*
X217179Y39972D01*
X216023Y40451D01*
X214783Y40614D01*
D02*
G37*
G36*
X83000Y26421D02*
Y23000D01*
X86421D01*
X86351Y23532D01*
X85953Y24493D01*
X85319Y25319D01*
X84493Y25953D01*
X83532Y26351D01*
X83000Y26421D01*
D02*
G37*
G36*
X63000D02*
Y23000D01*
X66421D01*
X66351Y23532D01*
X65953Y24493D01*
X65319Y25319D01*
X64493Y25953D01*
X63532Y26351D01*
X63000Y26421D01*
D02*
G37*
G36*
X133000D02*
Y23000D01*
X136421D01*
X136351Y23532D01*
X135953Y24493D01*
X135319Y25319D01*
X134493Y25953D01*
X133532Y26351D01*
X133000Y26421D01*
D02*
G37*
G36*
X123000D02*
Y23000D01*
X126421D01*
X126351Y23532D01*
X125953Y24493D01*
X125319Y25319D01*
X124493Y25953D01*
X123532Y26351D01*
X123000Y26421D01*
D02*
G37*
G36*
X93000D02*
Y23000D01*
X96421D01*
X96351Y23532D01*
X95953Y24493D01*
X95319Y25319D01*
X94493Y25953D01*
X93532Y26351D01*
X93000Y26421D01*
D02*
G37*
G36*
X53000D02*
Y23000D01*
X56421D01*
X56351Y23532D01*
X55953Y24493D01*
X55319Y25319D01*
X54493Y25953D01*
X53532Y26351D01*
X53000Y26421D01*
D02*
G37*
G36*
X82000D02*
X81468Y26351D01*
X80507Y25953D01*
X79681Y25319D01*
X79047Y24493D01*
X78649Y23532D01*
X78579Y23000D01*
X82000D01*
Y26421D01*
D02*
G37*
G36*
X62000D02*
X61468Y26351D01*
X60507Y25953D01*
X59681Y25319D01*
X59047Y24493D01*
X58649Y23532D01*
X58579Y23000D01*
X62000D01*
Y26421D01*
D02*
G37*
G36*
X132000D02*
X131468Y26351D01*
X130507Y25953D01*
X129681Y25319D01*
X129047Y24493D01*
X128649Y23532D01*
X128579Y23000D01*
X132000D01*
Y26421D01*
D02*
G37*
G36*
X122000D02*
X121468Y26351D01*
X120507Y25953D01*
X119681Y25319D01*
X119047Y24493D01*
X118649Y23532D01*
X118579Y23000D01*
X122000D01*
Y26421D01*
D02*
G37*
G36*
X92000D02*
X91468Y26351D01*
X90507Y25953D01*
X89681Y25319D01*
X89047Y24493D01*
X88649Y23532D01*
X88579Y23000D01*
X92000D01*
Y26421D01*
D02*
G37*
G36*
X52000D02*
X51468Y26351D01*
X50507Y25953D01*
X49681Y25319D01*
X49047Y24493D01*
X48649Y23532D01*
X48579Y23000D01*
X52000D01*
Y26421D01*
D02*
G37*
G36*
X66421Y22000D02*
X63000D01*
Y18579D01*
X63532Y18649D01*
X64493Y19047D01*
X65319Y19681D01*
X65953Y20507D01*
X66351Y21468D01*
X66421Y22000D01*
D02*
G37*
G36*
X56421D02*
X53000D01*
Y18579D01*
X53532Y18649D01*
X54493Y19047D01*
X55319Y19681D01*
X55953Y20507D01*
X56351Y21468D01*
X56421Y22000D01*
D02*
G37*
G36*
X136421D02*
X133000D01*
Y18579D01*
X133532Y18649D01*
X134493Y19047D01*
X135319Y19681D01*
X135953Y20507D01*
X136351Y21468D01*
X136421Y22000D01*
D02*
G37*
G36*
X126421D02*
X123000D01*
Y18579D01*
X123532Y18649D01*
X124493Y19047D01*
X125319Y19681D01*
X125953Y20507D01*
X126351Y21468D01*
X126421Y22000D01*
D02*
G37*
G36*
X96421D02*
X93000D01*
Y18579D01*
X93532Y18649D01*
X94493Y19047D01*
X95319Y19681D01*
X95953Y20507D01*
X96351Y21468D01*
X96421Y22000D01*
D02*
G37*
G36*
X86421D02*
X83000D01*
Y18579D01*
X83532Y18649D01*
X84493Y19047D01*
X85319Y19681D01*
X85953Y20507D01*
X86351Y21468D01*
X86421Y22000D01*
D02*
G37*
G36*
X62000D02*
X58579D01*
X58649Y21468D01*
X59047Y20507D01*
X59681Y19681D01*
X60507Y19047D01*
X61468Y18649D01*
X62000Y18579D01*
Y22000D01*
D02*
G37*
G36*
X52000D02*
X48579D01*
X48649Y21468D01*
X49047Y20507D01*
X49681Y19681D01*
X50507Y19047D01*
X51468Y18649D01*
X52000Y18579D01*
Y22000D01*
D02*
G37*
G36*
X132000D02*
X128579D01*
X128649Y21468D01*
X129047Y20507D01*
X129681Y19681D01*
X130507Y19047D01*
X131468Y18649D01*
X132000Y18579D01*
Y22000D01*
D02*
G37*
G36*
X122000D02*
X118579D01*
X118649Y21468D01*
X119047Y20507D01*
X119681Y19681D01*
X120507Y19047D01*
X121468Y18649D01*
X122000Y18579D01*
Y22000D01*
D02*
G37*
G36*
X92000D02*
X88579D01*
X88649Y21468D01*
X89047Y20507D01*
X89681Y19681D01*
X90507Y19047D01*
X91468Y18649D01*
X92000Y18579D01*
Y22000D01*
D02*
G37*
G36*
X82000D02*
X78579D01*
X78649Y21468D01*
X79047Y20507D01*
X79681Y19681D01*
X80507Y19047D01*
X81468Y18649D01*
X82000Y18579D01*
Y22000D01*
D02*
G37*
G36*
X146453Y26453D02*
X138547D01*
Y18547D01*
X146453D01*
Y26453D01*
D02*
G37*
G36*
X112500Y26487D02*
X111468Y26351D01*
X110507Y25953D01*
X109681Y25319D01*
X109047Y24493D01*
X108649Y23532D01*
X108513Y22500D01*
X108649Y21468D01*
X109047Y20507D01*
X109681Y19681D01*
X110507Y19047D01*
X111468Y18649D01*
X112500Y18513D01*
X113532Y18649D01*
X114493Y19047D01*
X115319Y19681D01*
X115953Y20507D01*
X116351Y21468D01*
X116487Y22500D01*
X116351Y23532D01*
X115953Y24493D01*
X115319Y25319D01*
X114493Y25953D01*
X113532Y26351D01*
X112500Y26487D01*
D02*
G37*
G36*
X102500D02*
X101468Y26351D01*
X100507Y25953D01*
X99681Y25319D01*
X99047Y24493D01*
X98649Y23532D01*
X98513Y22500D01*
X98649Y21468D01*
X99047Y20507D01*
X99681Y19681D01*
X100507Y19047D01*
X101468Y18649D01*
X102500Y18513D01*
X103532Y18649D01*
X104493Y19047D01*
X105319Y19681D01*
X105953Y20507D01*
X106351Y21468D01*
X106487Y22500D01*
X106351Y23532D01*
X105953Y24493D01*
X105319Y25319D01*
X104493Y25953D01*
X103532Y26351D01*
X102500Y26487D01*
D02*
G37*
G36*
X72500D02*
X71468Y26351D01*
X70507Y25953D01*
X69681Y25319D01*
X69047Y24493D01*
X68649Y23532D01*
X68513Y22500D01*
X68649Y21468D01*
X69047Y20507D01*
X69681Y19681D01*
X70507Y19047D01*
X71468Y18649D01*
X72500Y18513D01*
X73532Y18649D01*
X74493Y19047D01*
X75319Y19681D01*
X75953Y20507D01*
X76351Y21468D01*
X76487Y22500D01*
X76351Y23532D01*
X75953Y24493D01*
X75319Y25319D01*
X74493Y25953D01*
X73532Y26351D01*
X72500Y26487D01*
D02*
G37*
G36*
X83000Y16421D02*
Y13000D01*
X86421D01*
X86351Y13532D01*
X85953Y14493D01*
X85319Y15319D01*
X84493Y15953D01*
X83532Y16351D01*
X83000Y16421D01*
D02*
G37*
G36*
X63000D02*
Y13000D01*
X66421D01*
X66351Y13532D01*
X65953Y14493D01*
X65319Y15319D01*
X64493Y15953D01*
X63532Y16351D01*
X63000Y16421D01*
D02*
G37*
G36*
X133000D02*
Y13000D01*
X136421D01*
X136351Y13532D01*
X135953Y14493D01*
X135319Y15319D01*
X134493Y15953D01*
X133532Y16351D01*
X133000Y16421D01*
D02*
G37*
G36*
X123000D02*
Y13000D01*
X126421D01*
X126351Y13532D01*
X125953Y14493D01*
X125319Y15319D01*
X124493Y15953D01*
X123532Y16351D01*
X123000Y16421D01*
D02*
G37*
G36*
X113000D02*
Y13000D01*
X116421D01*
X116351Y13532D01*
X115953Y14493D01*
X115319Y15319D01*
X114493Y15953D01*
X113532Y16351D01*
X113000Y16421D01*
D02*
G37*
G36*
X103000D02*
Y13000D01*
X106421D01*
X106351Y13532D01*
X105953Y14493D01*
X105319Y15319D01*
X104493Y15953D01*
X103532Y16351D01*
X103000Y16421D01*
D02*
G37*
G36*
X93000D02*
Y13000D01*
X96421D01*
X96351Y13532D01*
X95953Y14493D01*
X95319Y15319D01*
X94493Y15953D01*
X93532Y16351D01*
X93000Y16421D01*
D02*
G37*
G36*
X73000D02*
Y13000D01*
X76421D01*
X76351Y13532D01*
X75953Y14493D01*
X75319Y15319D01*
X74493Y15953D01*
X73532Y16351D01*
X73000Y16421D01*
D02*
G37*
G36*
X53000D02*
Y13000D01*
X56421D01*
X56351Y13532D01*
X55953Y14493D01*
X55319Y15319D01*
X54493Y15953D01*
X53532Y16351D01*
X53000Y16421D01*
D02*
G37*
G36*
X62000D02*
X61468Y16351D01*
X60507Y15953D01*
X59681Y15319D01*
X59047Y14493D01*
X58649Y13532D01*
X58579Y13000D01*
X62000D01*
Y16421D01*
D02*
G37*
G36*
X82000D02*
X81468Y16351D01*
X80507Y15953D01*
X79681Y15319D01*
X79047Y14493D01*
X78649Y13532D01*
X78579Y13000D01*
X82000D01*
Y16421D01*
D02*
G37*
G36*
X132000D02*
X131468Y16351D01*
X130507Y15953D01*
X129681Y15319D01*
X129047Y14493D01*
X128649Y13532D01*
X128579Y13000D01*
X132000D01*
Y16421D01*
D02*
G37*
G36*
X122000D02*
X121468Y16351D01*
X120507Y15953D01*
X119681Y15319D01*
X119047Y14493D01*
X118649Y13532D01*
X118579Y13000D01*
X122000D01*
Y16421D01*
D02*
G37*
G36*
X112000D02*
X111468Y16351D01*
X110507Y15953D01*
X109681Y15319D01*
X109047Y14493D01*
X108649Y13532D01*
X108579Y13000D01*
X112000D01*
Y16421D01*
D02*
G37*
G36*
X102000D02*
X101468Y16351D01*
X100507Y15953D01*
X99681Y15319D01*
X99047Y14493D01*
X98649Y13532D01*
X98579Y13000D01*
X102000D01*
Y16421D01*
D02*
G37*
G36*
X92000D02*
X91468Y16351D01*
X90507Y15953D01*
X89681Y15319D01*
X89047Y14493D01*
X88649Y13532D01*
X88579Y13000D01*
X92000D01*
Y16421D01*
D02*
G37*
G36*
X52000D02*
X51468Y16351D01*
X50507Y15953D01*
X49681Y15319D01*
X49047Y14493D01*
X48649Y13532D01*
X48579Y13000D01*
X52000D01*
Y16421D01*
D02*
G37*
G36*
X72000D02*
X71468Y16351D01*
X70507Y15953D01*
X69681Y15319D01*
X69047Y14493D01*
X68649Y13532D01*
X68579Y13000D01*
X72000D01*
Y16421D01*
D02*
G37*
G36*
X136421Y12000D02*
X133000D01*
Y8579D01*
X133532Y8649D01*
X134493Y9047D01*
X135319Y9681D01*
X135953Y10507D01*
X136351Y11468D01*
X136421Y12000D01*
D02*
G37*
G36*
X126421D02*
X123000D01*
Y8579D01*
X123532Y8649D01*
X124493Y9047D01*
X125319Y9681D01*
X125953Y10507D01*
X126351Y11468D01*
X126421Y12000D01*
D02*
G37*
G36*
X116421D02*
X113000D01*
Y8579D01*
X113532Y8649D01*
X114493Y9047D01*
X115319Y9681D01*
X115953Y10507D01*
X116351Y11468D01*
X116421Y12000D01*
D02*
G37*
G36*
X106421D02*
X103000D01*
Y8579D01*
X103532Y8649D01*
X104493Y9047D01*
X105319Y9681D01*
X105953Y10507D01*
X106351Y11468D01*
X106421Y12000D01*
D02*
G37*
G36*
X96421D02*
X93000D01*
Y8579D01*
X93532Y8649D01*
X94493Y9047D01*
X95319Y9681D01*
X95953Y10507D01*
X96351Y11468D01*
X96421Y12000D01*
D02*
G37*
G36*
X86421D02*
X83000D01*
Y8579D01*
X83532Y8649D01*
X84493Y9047D01*
X85319Y9681D01*
X85953Y10507D01*
X86351Y11468D01*
X86421Y12000D01*
D02*
G37*
G36*
X76421D02*
X73000D01*
Y8579D01*
X73532Y8649D01*
X74493Y9047D01*
X75319Y9681D01*
X75953Y10507D01*
X76351Y11468D01*
X76421Y12000D01*
D02*
G37*
G36*
X66421D02*
X63000D01*
Y8579D01*
X63532Y8649D01*
X64493Y9047D01*
X65319Y9681D01*
X65953Y10507D01*
X66351Y11468D01*
X66421Y12000D01*
D02*
G37*
G36*
X56421D02*
X53000D01*
Y8579D01*
X53532Y8649D01*
X54493Y9047D01*
X55319Y9681D01*
X55953Y10507D01*
X56351Y11468D01*
X56421Y12000D01*
D02*
G37*
G36*
X62000D02*
X58579D01*
X58649Y11468D01*
X59047Y10507D01*
X59681Y9681D01*
X60507Y9047D01*
X61468Y8649D01*
X62000Y8579D01*
Y12000D01*
D02*
G37*
G36*
X52000D02*
X48579D01*
X48649Y11468D01*
X49047Y10507D01*
X49681Y9681D01*
X50507Y9047D01*
X51468Y8649D01*
X52000Y8579D01*
Y12000D01*
D02*
G37*
G36*
X132000D02*
X128579D01*
X128649Y11468D01*
X129047Y10507D01*
X129681Y9681D01*
X130507Y9047D01*
X131468Y8649D01*
X132000Y8579D01*
Y12000D01*
D02*
G37*
G36*
X122000D02*
X118579D01*
X118649Y11468D01*
X119047Y10507D01*
X119681Y9681D01*
X120507Y9047D01*
X121468Y8649D01*
X122000Y8579D01*
Y12000D01*
D02*
G37*
G36*
X112000D02*
X108579D01*
X108649Y11468D01*
X109047Y10507D01*
X109681Y9681D01*
X110507Y9047D01*
X111468Y8649D01*
X112000Y8579D01*
Y12000D01*
D02*
G37*
G36*
X102000D02*
X98579D01*
X98649Y11468D01*
X99047Y10507D01*
X99681Y9681D01*
X100507Y9047D01*
X101468Y8649D01*
X102000Y8579D01*
Y12000D01*
D02*
G37*
G36*
X92000D02*
X88579D01*
X88649Y11468D01*
X89047Y10507D01*
X89681Y9681D01*
X90507Y9047D01*
X91468Y8649D01*
X92000Y8579D01*
Y12000D01*
D02*
G37*
G36*
X82000D02*
X78579D01*
X78649Y11468D01*
X79047Y10507D01*
X79681Y9681D01*
X80507Y9047D01*
X81468Y8649D01*
X82000Y8579D01*
Y12000D01*
D02*
G37*
G36*
X72000D02*
X68579D01*
X68649Y11468D01*
X69047Y10507D01*
X69681Y9681D01*
X70507Y9047D01*
X71468Y8649D01*
X72000Y8579D01*
Y12000D01*
D02*
G37*
G36*
X142500Y16487D02*
X141468Y16351D01*
X140507Y15953D01*
X139681Y15319D01*
X139047Y14493D01*
X138649Y13532D01*
X138513Y12500D01*
X138649Y11468D01*
X139047Y10507D01*
X139681Y9681D01*
X140507Y9047D01*
X141468Y8649D01*
X142500Y8513D01*
X143532Y8649D01*
X144493Y9047D01*
X145319Y9681D01*
X145953Y10507D01*
X146351Y11468D01*
X146487Y12500D01*
X146351Y13532D01*
X145953Y14493D01*
X145319Y15319D01*
X144493Y15953D01*
X143532Y16351D01*
X142500Y16487D01*
D02*
G37*
G36*
X222000Y21795D02*
X220187Y21616D01*
X218443Y21087D01*
X216836Y20228D01*
X215428Y19072D01*
X214272Y17664D01*
X213413Y16057D01*
X212884Y14313D01*
X212705Y12500D01*
X212884Y10687D01*
X213413Y8943D01*
X214272Y7336D01*
X215428Y5928D01*
X216836Y4772D01*
X218443Y3913D01*
X220187Y3384D01*
X222000Y3205D01*
X223813Y3384D01*
X225557Y3913D01*
X227164Y4772D01*
X228572Y5928D01*
X229728Y7336D01*
X230587Y8943D01*
X231116Y10687D01*
X231295Y12500D01*
X231116Y14313D01*
X230587Y16057D01*
X229728Y17664D01*
X228572Y19072D01*
X227164Y20228D01*
X225557Y21087D01*
X223813Y21616D01*
X222000Y21795D01*
D02*
G37*
G36*
X12000D02*
X10187Y21616D01*
X8443Y21087D01*
X6836Y20228D01*
X5428Y19072D01*
X4272Y17664D01*
X3413Y16057D01*
X2884Y14313D01*
X2705Y12500D01*
X2884Y10687D01*
X3413Y8943D01*
X4272Y7336D01*
X5428Y5928D01*
X6836Y4772D01*
X8443Y3913D01*
X10187Y3384D01*
X12000Y3205D01*
X13813Y3384D01*
X15557Y3913D01*
X17164Y4772D01*
X18572Y5928D01*
X19728Y7336D01*
X20587Y8943D01*
X21116Y10687D01*
X21295Y12500D01*
X21116Y14313D01*
X20587Y16057D01*
X19728Y17664D01*
X18572Y19072D01*
X17164Y20228D01*
X15557Y21087D01*
X13813Y21616D01*
X12000Y21795D01*
D02*
G37*
%LPD*%
D13*
X46917Y54000D02*
X122000D01*
X14783Y86134D02*
X46917Y54000D01*
X122000D02*
X122079Y54079D01*
X45804Y165500D02*
X156500D01*
X166500Y155500D01*
X27304Y147000D02*
X45804Y165500D01*
X16733Y145244D02*
X18489Y147000D01*
X16000Y145244D02*
X16733D01*
X18489Y147000D02*
X27304D01*
X71250Y139500D02*
X99608Y111142D01*
X99858D01*
X121500Y87500D02*
Y89500D01*
Y87500D02*
X130000Y79000D01*
Y76000D02*
Y79000D01*
X16000Y98000D02*
X146000D01*
X167000Y119000D01*
X18611Y123500D02*
X45000D01*
X14783Y121567D02*
X16678D01*
X45000Y123500D02*
X47500Y126000D01*
X16678Y121567D02*
X18611Y123500D01*
X185000Y125500D02*
X196750Y113750D01*
X157000Y119000D02*
X163500Y125500D01*
X185000D01*
X7000Y98516D02*
Y123500D01*
X13882Y87035D02*
X14783Y86134D01*
X58500Y126000D02*
X65000Y119500D01*
X47500Y126000D02*
X58500D01*
X214000Y68000D02*
X222500Y59500D01*
Y59445D02*
Y59500D01*
X214000Y68000D02*
Y98000D01*
X197500Y114500D02*
X214000Y98000D01*
D39*
X141000Y90000D02*
X184667D01*
X190167Y84500D01*
X197500D01*
D40*
D03*
Y114500D02*
D03*
D41*
X55000Y119500D02*
D03*
X75000D02*
D03*
X65000D02*
D03*
X157000Y119000D02*
D03*
X177000D02*
D03*
X167000D02*
D03*
X156500Y155500D02*
D03*
X176500D02*
D03*
X166500D02*
D03*
X55500D02*
D03*
X75500D02*
D03*
X65500D02*
D03*
D42*
X222000Y12500D02*
D03*
X12000D02*
D03*
X222000Y177000D02*
D03*
X12000Y179500D02*
D03*
D43*
X52500Y12500D02*
D03*
X62500D02*
D03*
X72500D02*
D03*
X82500D02*
D03*
X92500D02*
D03*
X102500D02*
D03*
X112500D02*
D03*
X122500D02*
D03*
X132500D02*
D03*
X142500D02*
D03*
X52500Y22500D02*
D03*
X62500D02*
D03*
X72500D02*
D03*
X82500D02*
D03*
X92500D02*
D03*
X102500D02*
D03*
X112500D02*
D03*
X122500D02*
D03*
X132500D02*
D03*
D44*
X142500D02*
D03*
D45*
X214783Y35823D02*
D03*
Y153933D02*
D03*
X22500Y157000D02*
D03*
Y38890D02*
D03*
D46*
X222500Y142122D02*
D03*
Y130311D02*
D03*
Y118500D02*
D03*
Y106689D02*
D03*
Y94878D02*
D03*
Y83067D02*
D03*
Y71256D02*
D03*
Y59445D02*
D03*
Y47634D02*
D03*
X14783Y50701D02*
D03*
Y62512D02*
D03*
Y74323D02*
D03*
Y86134D02*
D03*
Y97945D02*
D03*
Y109756D02*
D03*
Y121567D02*
D03*
Y133378D02*
D03*
Y145189D02*
D03*
D47*
X122079Y54079D02*
D03*
X71250Y139500D02*
D03*
X99858Y111142D02*
D03*
X121500Y89500D02*
D03*
X185500Y176500D02*
D03*
X140500D02*
D03*
X109500D02*
D03*
X193500Y59000D02*
D03*
X150234Y82809D02*
D03*
X130000Y76000D02*
D03*
X120937Y82527D02*
D03*
X141000Y90000D02*
D03*
X55500Y73500D02*
D03*
X33000D02*
D03*
X45000Y81000D02*
D03*
Y92500D02*
D03*
X131000Y176500D02*
D03*
X76052Y84052D02*
D03*
X82500Y85500D02*
D03*
X77000Y58500D02*
D03*
X103500Y38500D02*
D03*
X163500Y176500D02*
D03*
X176000D02*
D03*
X119000D02*
D03*
X154000D02*
D03*
X91000Y56500D02*
D03*
M02*
