G04*
G04 #@! TF.GenerationSoftware,Altium Limited,Altium Designer,19.1.5 (86)*
G04*
G04 Layer_Color=16711935*
%FSLAX25Y25*%
%MOIN*%
G70*
G01*
G75*
%ADD31C,0.06312*%
%ADD32C,0.08674*%
%ADD33C,0.17300*%
%ADD34C,0.06706*%
%ADD35R,0.06706X0.06706*%
%ADD36C,0.08300*%
%ADD37C,0.08800*%
%ADD38C,0.02800*%
D31*
X197500Y84500D02*
D03*
Y114500D02*
D03*
D32*
X55000Y119500D02*
D03*
X75000D02*
D03*
X65000D02*
D03*
X157000Y119000D02*
D03*
X177000D02*
D03*
X167000D02*
D03*
X156500Y155500D02*
D03*
X176500D02*
D03*
X166500D02*
D03*
X55500D02*
D03*
X75500D02*
D03*
X65500D02*
D03*
D33*
X222000Y12500D02*
D03*
X12000D02*
D03*
X222000Y177000D02*
D03*
X12000Y179500D02*
D03*
D34*
X52500Y12500D02*
D03*
X62500D02*
D03*
X72500D02*
D03*
X82500D02*
D03*
X92500D02*
D03*
X102500D02*
D03*
X112500D02*
D03*
X122500D02*
D03*
X132500D02*
D03*
X142500D02*
D03*
X52500Y22500D02*
D03*
X62500D02*
D03*
X72500D02*
D03*
X82500D02*
D03*
X92500D02*
D03*
X102500D02*
D03*
X112500D02*
D03*
X122500D02*
D03*
X132500D02*
D03*
D35*
X142500D02*
D03*
D36*
X214783Y35823D02*
D03*
Y153933D02*
D03*
X22500Y157000D02*
D03*
Y38890D02*
D03*
D37*
X222500Y142122D02*
D03*
Y130311D02*
D03*
Y118500D02*
D03*
Y106689D02*
D03*
Y94878D02*
D03*
Y83067D02*
D03*
Y71256D02*
D03*
Y59445D02*
D03*
Y47634D02*
D03*
X14783Y50701D02*
D03*
Y62512D02*
D03*
Y74323D02*
D03*
Y86134D02*
D03*
Y97945D02*
D03*
Y109756D02*
D03*
Y121567D02*
D03*
Y133378D02*
D03*
Y145189D02*
D03*
D38*
X122079Y54079D02*
D03*
X71250Y139500D02*
D03*
X99858Y111142D02*
D03*
X121500Y89500D02*
D03*
X185500Y176500D02*
D03*
X140500D02*
D03*
X109500D02*
D03*
X193500Y59000D02*
D03*
X150234Y82809D02*
D03*
X130000Y76000D02*
D03*
X120937Y82527D02*
D03*
X141000Y90000D02*
D03*
X55500Y73500D02*
D03*
X33000D02*
D03*
X45000Y81000D02*
D03*
Y92500D02*
D03*
X131000Y176500D02*
D03*
X76052Y84052D02*
D03*
X82500Y85500D02*
D03*
X77000Y58500D02*
D03*
X103500Y38500D02*
D03*
X163500Y176500D02*
D03*
X176000D02*
D03*
X119000D02*
D03*
X154000D02*
D03*
X91000Y56500D02*
D03*
M02*
