G04*
G04 #@! TF.GenerationSoftware,Altium Limited,Altium Designer,19.1.5 (86)*
G04*
G04 Layer_Physical_Order=1*
G04 Layer_Color=255*
%FSLAX25Y25*%
%MOIN*%
G70*
G01*
G75*
%ADD13C,0.01000*%
%ADD19R,0.02362X0.04724*%
%ADD20O,0.05709X0.02362*%
%ADD21R,0.07165X0.04016*%
%ADD22R,0.05709X0.01181*%
%ADD23R,0.01181X0.05709*%
%ADD24R,0.04016X0.07165*%
%ADD39C,0.01500*%
%ADD40C,0.05512*%
%ADD41C,0.07874*%
%ADD42C,0.16500*%
%ADD43C,0.05906*%
%ADD44R,0.05906X0.05906*%
%ADD45C,0.07500*%
%ADD46C,0.08000*%
%ADD47C,0.02000*%
G36*
X235379Y1122D02*
X1122D01*
Y193378D01*
X235379D01*
Y1122D01*
D02*
G37*
%LPC*%
G36*
X12000Y188795D02*
X10187Y188616D01*
X8443Y188087D01*
X6836Y187228D01*
X5428Y186072D01*
X4272Y184664D01*
X3413Y183057D01*
X2884Y181313D01*
X2705Y179500D01*
X2884Y177687D01*
X3413Y175943D01*
X4272Y174336D01*
X5428Y172928D01*
X6836Y171772D01*
X8443Y170913D01*
X10187Y170384D01*
X12000Y170205D01*
X13813Y170384D01*
X15557Y170913D01*
X17164Y171772D01*
X18572Y172928D01*
X19728Y174336D01*
X20587Y175943D01*
X21116Y177687D01*
X21295Y179500D01*
X21116Y181313D01*
X20587Y183057D01*
X19728Y184664D01*
X18572Y186072D01*
X17164Y187228D01*
X15557Y188087D01*
X13813Y188616D01*
X12000Y188795D01*
D02*
G37*
G36*
X222000Y186295D02*
X220187Y186116D01*
X218443Y185587D01*
X216836Y184728D01*
X215428Y183572D01*
X214272Y182164D01*
X213413Y180557D01*
X212884Y178813D01*
X212705Y177000D01*
X212884Y175187D01*
X213413Y173443D01*
X214272Y171836D01*
X215428Y170428D01*
X216836Y169272D01*
X218443Y168413D01*
X220187Y167884D01*
X222000Y167705D01*
X223813Y167884D01*
X225557Y168413D01*
X227164Y169272D01*
X228572Y170428D01*
X229728Y171836D01*
X230587Y173443D01*
X231116Y175187D01*
X231295Y177000D01*
X231116Y178813D01*
X230587Y180557D01*
X229728Y182164D01*
X228572Y183572D01*
X227164Y184728D01*
X225557Y185587D01*
X223813Y186116D01*
X222000Y186295D01*
D02*
G37*
G36*
X22500Y161791D02*
X21260Y161628D01*
X20105Y161149D01*
X19112Y160388D01*
X18351Y159396D01*
X17872Y158240D01*
X17709Y157000D01*
X17872Y155760D01*
X18351Y154604D01*
X19112Y153612D01*
X20105Y152851D01*
X21260Y152372D01*
X22500Y152209D01*
X23740Y152372D01*
X24895Y152851D01*
X25888Y153612D01*
X26649Y154604D01*
X27128Y155760D01*
X27291Y157000D01*
X27128Y158240D01*
X26649Y159396D01*
X25888Y160388D01*
X24895Y161149D01*
X23740Y161628D01*
X22500Y161791D01*
D02*
G37*
G36*
X214783Y158724D02*
X213543Y158561D01*
X212388Y158082D01*
X211396Y157321D01*
X210634Y156328D01*
X210156Y155173D01*
X209992Y153933D01*
X210156Y152693D01*
X210634Y151538D01*
X211396Y150545D01*
X212388Y149784D01*
X213543Y149305D01*
X214783Y149142D01*
X216023Y149305D01*
X217179Y149784D01*
X218171Y150545D01*
X218933Y151538D01*
X219411Y152693D01*
X219574Y153933D01*
X219411Y155173D01*
X218933Y156328D01*
X218171Y157321D01*
X217179Y158082D01*
X216023Y158561D01*
X214783Y158724D01*
D02*
G37*
G36*
X14783Y150232D02*
X13478Y150060D01*
X12262Y149556D01*
X11217Y148755D01*
X10416Y147710D01*
X9912Y146494D01*
X9740Y145189D01*
X9912Y143884D01*
X10416Y142667D01*
X11217Y141623D01*
X12262Y140821D01*
X13478Y140317D01*
X14783Y140146D01*
X16089Y140317D01*
X17305Y140821D01*
X18349Y141623D01*
X19151Y142667D01*
X19655Y143884D01*
X19827Y145189D01*
X19655Y146494D01*
X19151Y147710D01*
X18349Y148755D01*
X17305Y149556D01*
X16089Y150060D01*
X14783Y150232D01*
D02*
G37*
G36*
Y138421D02*
X13478Y138249D01*
X12262Y137745D01*
X11217Y136944D01*
X10416Y135899D01*
X9912Y134683D01*
X9740Y133378D01*
X9912Y132072D01*
X10416Y130856D01*
X11217Y129812D01*
X12262Y129010D01*
X13478Y128507D01*
X14783Y128335D01*
X16089Y128507D01*
X17305Y129010D01*
X18349Y129812D01*
X19151Y130856D01*
X19655Y132072D01*
X19827Y133378D01*
X19655Y134683D01*
X19151Y135899D01*
X18349Y136944D01*
X17305Y137745D01*
X16089Y138249D01*
X14783Y138421D01*
D02*
G37*
G36*
X185500Y178539D02*
X184720Y178384D01*
X184058Y177942D01*
X183616Y177280D01*
X183461Y176500D01*
X183616Y175720D01*
X184058Y175058D01*
X184378Y174844D01*
Y137965D01*
X169624Y123210D01*
X169490Y123312D01*
X168289Y123810D01*
X167000Y123980D01*
X165711Y123810D01*
X164510Y123312D01*
X163479Y122521D01*
X162688Y121490D01*
X162271Y120483D01*
X161729D01*
X161312Y121490D01*
X161210Y121624D01*
X183293Y143707D01*
X183293Y143707D01*
X183536Y144071D01*
X183622Y144500D01*
X183622Y144500D01*
Y170000D01*
X183622Y170000D01*
X183536Y170429D01*
X183293Y170793D01*
X183293Y170793D01*
X177964Y176122D01*
X178039Y176500D01*
X177884Y177280D01*
X177442Y177942D01*
X176780Y178384D01*
X176000Y178539D01*
X175220Y178384D01*
X174558Y177942D01*
X174116Y177280D01*
X173961Y176500D01*
X174116Y175720D01*
X174558Y175058D01*
X175220Y174616D01*
X176000Y174461D01*
X176378Y174536D01*
X181378Y169535D01*
Y157930D01*
X180878Y157831D01*
X180813Y157990D01*
X180021Y159021D01*
X178990Y159812D01*
X177789Y160310D01*
X176500Y160480D01*
X175211Y160310D01*
X174010Y159812D01*
X172979Y159021D01*
X172187Y157990D01*
X171771Y156983D01*
X171229D01*
X170812Y157990D01*
X170021Y159021D01*
X168990Y159812D01*
X167789Y160310D01*
X166500Y160480D01*
X165998Y160413D01*
X165622Y160743D01*
Y175414D01*
X165536Y175843D01*
X165438Y175991D01*
X165539Y176500D01*
X165384Y177280D01*
X164942Y177942D01*
X164280Y178384D01*
X163500Y178539D01*
X162720Y178384D01*
X162058Y177942D01*
X161616Y177280D01*
X161461Y176500D01*
X161616Y175720D01*
X162058Y175058D01*
X162720Y174616D01*
X163378Y174485D01*
Y159360D01*
X163378Y159360D01*
X163384Y159332D01*
X162979Y159021D01*
X162188Y157990D01*
X161771Y156983D01*
X161229D01*
X160812Y157990D01*
X160021Y159021D01*
X158990Y159812D01*
X157789Y160310D01*
X157622Y160332D01*
Y174500D01*
X157622Y174500D01*
X157536Y174929D01*
X157293Y175293D01*
X156027Y176559D01*
X155884Y177280D01*
X155442Y177942D01*
X154780Y178384D01*
X154000Y178539D01*
X153220Y178384D01*
X152558Y177942D01*
X152116Y177280D01*
X151961Y176500D01*
X152116Y175720D01*
X152558Y175058D01*
X153220Y174616D01*
X154000Y174461D01*
X154780Y174616D01*
X154791Y174623D01*
X155378Y174035D01*
Y160332D01*
X155211Y160310D01*
X154010Y159812D01*
X152979Y159021D01*
X152188Y157990D01*
X151690Y156789D01*
X151520Y155500D01*
X151690Y154211D01*
X152188Y153010D01*
X152979Y151979D01*
X154010Y151188D01*
X155211Y150690D01*
X155378Y150668D01*
Y130465D01*
X130535Y105622D01*
X105000D01*
X104571Y105536D01*
X104207Y105293D01*
X104207Y105293D01*
X101480Y102566D01*
X100980Y102773D01*
Y109486D01*
X101300Y109700D01*
X101742Y110361D01*
X101897Y111142D01*
X101742Y111922D01*
X101300Y112584D01*
X100639Y113026D01*
X99858Y113181D01*
X99078Y113026D01*
X98416Y112584D01*
X97974Y111922D01*
X97819Y111142D01*
X97974Y110361D01*
X98416Y109700D01*
X98737Y109486D01*
Y96992D01*
X91137D01*
Y101484D01*
X91137Y101484D01*
X91052Y101913D01*
X90809Y102277D01*
X79293Y113793D01*
X78929Y114036D01*
X78500Y114122D01*
X78500Y114122D01*
X75801D01*
X75768Y114622D01*
X76289Y114690D01*
X77490Y115188D01*
X78521Y115979D01*
X79312Y117010D01*
X79810Y118211D01*
X79980Y119500D01*
X79810Y120789D01*
X79312Y121990D01*
X78521Y123021D01*
X77490Y123812D01*
X76289Y124310D01*
X75000Y124480D01*
X73711Y124310D01*
X72510Y123812D01*
X71479Y123021D01*
X70688Y121990D01*
X70271Y120983D01*
X69729D01*
X69313Y121990D01*
X69210Y122124D01*
X92927Y145840D01*
X110962D01*
X110962Y145840D01*
X111391Y145926D01*
X111755Y146169D01*
X140122Y174536D01*
X140500Y174461D01*
X141280Y174616D01*
X141942Y175058D01*
X142384Y175720D01*
X142539Y176500D01*
X142384Y177280D01*
X141942Y177942D01*
X141280Y178384D01*
X140500Y178539D01*
X139720Y178384D01*
X139058Y177942D01*
X138616Y177280D01*
X138461Y176500D01*
X138536Y176122D01*
X110497Y148083D01*
X104823D01*
X104632Y148546D01*
X130622Y174536D01*
X131000Y174461D01*
X131780Y174616D01*
X132442Y175058D01*
X132884Y175720D01*
X133039Y176500D01*
X132884Y177280D01*
X132442Y177942D01*
X131780Y178384D01*
X131000Y178539D01*
X130220Y178384D01*
X129558Y177942D01*
X129116Y177280D01*
X128961Y176500D01*
X129036Y176122D01*
X102597Y149683D01*
X94423D01*
X94232Y150145D01*
X118622Y174536D01*
X119000Y174461D01*
X119780Y174616D01*
X120442Y175058D01*
X120884Y175720D01*
X121039Y176500D01*
X120884Y177280D01*
X120442Y177942D01*
X119780Y178384D01*
X119000Y178539D01*
X118220Y178384D01*
X117558Y177942D01*
X117116Y177280D01*
X116961Y176500D01*
X117036Y176122D01*
X92498Y151584D01*
X79262D01*
X79102Y152085D01*
X79813Y153010D01*
X80310Y154211D01*
X80480Y155500D01*
X80310Y156789D01*
X79813Y157990D01*
X79021Y159021D01*
X77990Y159812D01*
X76789Y160310D01*
X75500Y160480D01*
X74211Y160310D01*
X73010Y159812D01*
X71979Y159021D01*
X71188Y157990D01*
X70771Y156983D01*
X70229D01*
X69813Y157990D01*
X69021Y159021D01*
X67990Y159812D01*
X66789Y160310D01*
X65500Y160480D01*
X64211Y160310D01*
X63010Y159812D01*
X61979Y159021D01*
X61187Y157990D01*
X60771Y156983D01*
X60229D01*
X59812Y157990D01*
X59710Y158124D01*
X62965Y161378D01*
X92500D01*
X92500Y161378D01*
X92929Y161464D01*
X93293Y161707D01*
X106965Y175378D01*
X107844D01*
X108058Y175058D01*
X108720Y174616D01*
X109500Y174461D01*
X110280Y174616D01*
X110942Y175058D01*
X111384Y175720D01*
X111539Y176500D01*
X111384Y177280D01*
X110942Y177942D01*
X110280Y178384D01*
X109500Y178539D01*
X108720Y178384D01*
X108058Y177942D01*
X107844Y177622D01*
X106500D01*
X106500Y177622D01*
X106071Y177536D01*
X105707Y177293D01*
X92035Y163622D01*
X62500D01*
X62071Y163536D01*
X61707Y163293D01*
X61707Y163293D01*
X58124Y159710D01*
X57990Y159812D01*
X56789Y160310D01*
X55500Y160480D01*
X54211Y160310D01*
X53010Y159812D01*
X51979Y159021D01*
X51187Y157990D01*
X50690Y156789D01*
X50520Y155500D01*
X50690Y154211D01*
X51187Y153010D01*
X51979Y151979D01*
X53010Y151188D01*
X54211Y150690D01*
X55500Y150520D01*
X56789Y150690D01*
X57980Y151184D01*
X69286Y139878D01*
X69211Y139500D01*
X69366Y138720D01*
X69808Y138058D01*
X70470Y137616D01*
X70764Y137557D01*
X70929Y137015D01*
X57624Y123710D01*
X57490Y123812D01*
X56289Y124310D01*
X55000Y124480D01*
X53711Y124310D01*
X52510Y123812D01*
X51479Y123021D01*
X50687Y121990D01*
X50190Y120789D01*
X50020Y119500D01*
X50190Y118211D01*
X50687Y117010D01*
X51479Y115979D01*
X52510Y115188D01*
X53711Y114690D01*
X55000Y114520D01*
X56289Y114690D01*
X57490Y115188D01*
X57624Y115290D01*
X60707Y112207D01*
X60707Y112207D01*
X61071Y111964D01*
X61500Y111878D01*
X61500Y111878D01*
X78035D01*
X88894Y101020D01*
Y96992D01*
X76614D01*
Y93138D01*
X76236D01*
Y92638D01*
X74646D01*
Y89284D01*
X74676D01*
Y85538D01*
X74610Y85494D01*
X74168Y84833D01*
X74112Y84552D01*
X77992D01*
X77936Y84833D01*
X77494Y85494D01*
X77429Y85538D01*
Y88082D01*
X77890Y88273D01*
X80494Y85669D01*
X80461Y85500D01*
X80616Y84720D01*
X81058Y84058D01*
X81720Y83616D01*
X82500Y83461D01*
X83280Y83616D01*
X83942Y84058D01*
X84384Y84720D01*
X84539Y85500D01*
X84384Y86280D01*
X84377Y86291D01*
X84903Y86817D01*
X84903Y86817D01*
X85146Y87181D01*
X85232Y87610D01*
Y89284D01*
X104642D01*
Y54736D01*
X104642Y54736D01*
X104728Y54307D01*
X104971Y53943D01*
X106735Y52179D01*
X106544Y51717D01*
X106264D01*
Y47862D01*
X105386D01*
Y51717D01*
X104539D01*
X104498Y51778D01*
X104498Y51778D01*
X98983Y57293D01*
X98619Y57536D01*
X98190Y57622D01*
X98190Y57622D01*
X92656D01*
X92442Y57942D01*
X91780Y58384D01*
X91000Y58539D01*
X90622Y58464D01*
X84683Y64403D01*
X84319Y64646D01*
X83890Y64732D01*
X83890Y64732D01*
X72216D01*
Y67925D01*
Y71862D01*
Y75799D01*
Y79736D01*
Y83673D01*
Y86854D01*
X64508D01*
Y83673D01*
Y81705D01*
Y77768D01*
Y74574D01*
X61453D01*
X61024Y74489D01*
X60660Y74246D01*
X60660Y74246D01*
X59707Y73293D01*
X59464Y72929D01*
X59378Y72500D01*
X59378Y72500D01*
Y34500D01*
X59378Y34500D01*
X59464Y34071D01*
X59707Y33707D01*
X69010Y24404D01*
X68649Y23532D01*
X68513Y22500D01*
X68649Y21468D01*
X69047Y20507D01*
X69681Y19681D01*
X70507Y19047D01*
X71468Y18649D01*
X72500Y18513D01*
X73532Y18649D01*
X74493Y19047D01*
X75319Y19681D01*
X75953Y20507D01*
X76351Y21468D01*
X76487Y22500D01*
X76351Y23532D01*
X75953Y24493D01*
X75319Y25319D01*
X74493Y25953D01*
X73532Y26351D01*
X72500Y26487D01*
X71468Y26351D01*
X70596Y25990D01*
X61622Y34965D01*
Y72035D01*
X61917Y72331D01*
X64508D01*
Y69894D01*
Y65957D01*
Y62020D01*
Y62019D01*
X68362D01*
Y61264D01*
X64508D01*
Y58083D01*
Y54146D01*
X72216D01*
Y56114D01*
Y60265D01*
X73788D01*
X75053Y59000D01*
X78940D01*
X78884Y59280D01*
X78442Y59942D01*
X77780Y60384D01*
X77495Y60441D01*
X77473Y60473D01*
X75920Y62027D01*
X76111Y62489D01*
X83425D01*
X87830Y58083D01*
X87639Y57622D01*
X83811D01*
X83811Y57622D01*
X83381Y57536D01*
X83017Y57293D01*
X83017Y57293D01*
X77502Y51778D01*
X77461Y51717D01*
X74646D01*
Y44008D01*
X79796D01*
Y47862D01*
X80551D01*
Y44008D01*
X104387D01*
Y41334D01*
X104000Y40947D01*
Y39000D01*
X105947D01*
X106737Y39790D01*
X106737Y39790D01*
X106878Y40002D01*
X107378Y39850D01*
Y28965D01*
X104404Y25990D01*
X103532Y26351D01*
X102500Y26487D01*
X101468Y26351D01*
X100507Y25953D01*
X99681Y25319D01*
X99047Y24493D01*
X98649Y23532D01*
X98513Y22500D01*
X98649Y21468D01*
X99047Y20507D01*
X99681Y19681D01*
X100507Y19047D01*
X101468Y18649D01*
X102500Y18513D01*
X103532Y18649D01*
X104493Y19047D01*
X105319Y19681D01*
X105953Y20507D01*
X106351Y21468D01*
X106487Y22500D01*
X106351Y23532D01*
X105990Y24404D01*
X109293Y27707D01*
X109293Y27707D01*
X109536Y28071D01*
X109622Y28500D01*
X109622Y28500D01*
Y51585D01*
X110122Y51792D01*
X111378Y50535D01*
Y26314D01*
X110507Y25953D01*
X109681Y25319D01*
X109047Y24493D01*
X108649Y23532D01*
X108513Y22500D01*
X108649Y21468D01*
X109047Y20507D01*
X109681Y19681D01*
X110507Y19047D01*
X111468Y18649D01*
X112500Y18513D01*
X113532Y18649D01*
X114493Y19047D01*
X115319Y19681D01*
X115953Y20507D01*
X116351Y21468D01*
X116487Y22500D01*
X116351Y23532D01*
X115953Y24493D01*
X115319Y25319D01*
X114493Y25953D01*
X113622Y26314D01*
Y51000D01*
X113622Y51000D01*
X113536Y51429D01*
X113293Y51793D01*
X113293Y51793D01*
X111402Y53684D01*
X111594Y54146D01*
X117492D01*
Y56114D01*
Y60051D01*
Y63988D01*
Y67925D01*
Y71862D01*
Y76378D01*
X127000D01*
X127000Y76378D01*
X127429Y76464D01*
X127561Y76552D01*
X127638Y76500D01*
X130000D01*
Y76000D01*
X130500D01*
Y74060D01*
X130780Y74116D01*
X130846Y74103D01*
X131298Y73427D01*
X132019Y72945D01*
X132870Y72776D01*
X134043D01*
Y75000D01*
Y77224D01*
X132870D01*
X132019Y77055D01*
X131799Y76907D01*
X131442Y77442D01*
X130780Y77884D01*
X130000Y78039D01*
X129791Y77998D01*
X129544Y78458D01*
X129965Y78878D01*
X130996D01*
X131298Y78427D01*
X132019Y77946D01*
X132870Y77776D01*
X136217D01*
X137068Y77946D01*
X137789Y78427D01*
X138271Y79149D01*
X138441Y80000D01*
X138271Y80851D01*
X138213Y80937D01*
X138449Y81378D01*
X139457D01*
X146000Y74836D01*
X146000Y74836D01*
X146364Y74593D01*
X146793Y74508D01*
X146793Y74508D01*
X152201D01*
X152272Y74149D01*
X152754Y73427D01*
X153476Y72945D01*
X154327Y72776D01*
X157673D01*
X158524Y72945D01*
X159246Y73427D01*
X159728Y74149D01*
X159897Y75000D01*
X159728Y75851D01*
X159246Y76573D01*
X158524Y77055D01*
X157673Y77224D01*
X154327D01*
X153476Y77055D01*
X153021Y76751D01*
X147257D01*
X140715Y83293D01*
X140587Y83378D01*
X140739Y83878D01*
X143000D01*
X143000Y83878D01*
X143429Y83964D01*
X143793Y84207D01*
X152950Y93363D01*
X183313D01*
X183504Y92901D01*
X181724Y91122D01*
X159547D01*
X159246Y91572D01*
X158524Y92054D01*
X157673Y92224D01*
X154327D01*
X153476Y92054D01*
X152754Y91572D01*
X152272Y90851D01*
X152103Y90000D01*
X152272Y89149D01*
X152754Y88428D01*
X153476Y87945D01*
X154327Y87776D01*
X157673D01*
X158524Y87945D01*
X159246Y88428D01*
X159547Y88878D01*
X182189D01*
X182189Y88878D01*
X182618Y88964D01*
X182982Y89207D01*
X219831Y126056D01*
X219978Y125944D01*
X221195Y125440D01*
X222500Y125268D01*
X223805Y125440D01*
X225022Y125944D01*
X226066Y126745D01*
X226868Y127789D01*
X227371Y129006D01*
X227543Y130311D01*
X227371Y131616D01*
X226868Y132833D01*
X226066Y133877D01*
X225022Y134678D01*
X223805Y135182D01*
X222500Y135354D01*
X221195Y135182D01*
X219978Y134678D01*
X218934Y133877D01*
X218132Y132833D01*
X217629Y131616D01*
X217621Y131562D01*
X217122Y131595D01*
Y135157D01*
X219831Y137867D01*
X219978Y137754D01*
X221195Y137251D01*
X222500Y137079D01*
X223805Y137251D01*
X225022Y137754D01*
X226066Y138556D01*
X226868Y139600D01*
X227371Y140817D01*
X227543Y142122D01*
X227371Y143427D01*
X226868Y144644D01*
X226066Y145688D01*
X225022Y146490D01*
X223805Y146993D01*
X222500Y147165D01*
X221195Y146993D01*
X219978Y146490D01*
X218934Y145688D01*
X218132Y144644D01*
X217629Y143427D01*
X217457Y142122D01*
X217629Y140817D01*
X218132Y139600D01*
X218245Y139453D01*
X215207Y136415D01*
X214964Y136051D01*
X214878Y135622D01*
X214879Y135622D01*
Y126965D01*
X201698Y113785D01*
X201225Y114018D01*
X201288Y114500D01*
X201159Y115480D01*
X200781Y116394D01*
X200179Y117179D01*
X199394Y117781D01*
X198480Y118159D01*
X197500Y118288D01*
X196519Y118159D01*
X195606Y117781D01*
X194821Y117179D01*
X194566Y116846D01*
X194311Y116796D01*
X193948Y116552D01*
X193704Y116189D01*
X193619Y115759D01*
X193704Y115330D01*
X193802Y115184D01*
X193712Y114500D01*
X193841Y113520D01*
X194219Y112606D01*
X194821Y111821D01*
X195606Y111219D01*
X196519Y110841D01*
X197500Y110712D01*
X197982Y110775D01*
X198215Y110302D01*
X183520Y95606D01*
X152485D01*
X152485Y95606D01*
X152056Y95521D01*
X151692Y95278D01*
X151692Y95278D01*
X142535Y86122D01*
X138090D01*
X137789Y86572D01*
X137068Y87055D01*
X136217Y87224D01*
X132870D01*
X132019Y87055D01*
X131298Y86572D01*
X130816Y85851D01*
X130646Y85000D01*
X130816Y84149D01*
X130873Y84062D01*
X130638Y83622D01*
X129000D01*
X129000Y83622D01*
X128571Y83536D01*
X128207Y83293D01*
X128207Y83293D01*
X125394Y80480D01*
X122372D01*
X122221Y80980D01*
X122379Y81085D01*
X122821Y81747D01*
X122976Y82527D01*
X122821Y83308D01*
X122379Y83969D01*
X121717Y84411D01*
X120937Y84567D01*
X120157Y84411D01*
X120104Y84376D01*
X119899Y84417D01*
X119899Y84417D01*
X117492D01*
Y84886D01*
X109783D01*
Y82448D01*
X108586D01*
X108157Y82363D01*
X107793Y82120D01*
X107793Y82120D01*
X107385Y81713D01*
X106885Y81920D01*
Y89284D01*
X107354D01*
Y96992D01*
X102948D01*
Y100862D01*
X105465Y103378D01*
X131000D01*
X131000Y103378D01*
X131429Y103464D01*
X131793Y103707D01*
X157293Y129207D01*
X157293Y129207D01*
X157536Y129571D01*
X157622Y130000D01*
X157622Y130000D01*
Y150668D01*
X157789Y150690D01*
X158990Y151188D01*
X160021Y151979D01*
X160812Y153010D01*
X161229Y154017D01*
X161771D01*
X162188Y153010D01*
X162979Y151979D01*
X164010Y151188D01*
X165211Y150690D01*
X166500Y150520D01*
X167789Y150690D01*
X168990Y151188D01*
X170021Y151979D01*
X170812Y153010D01*
X171229Y154017D01*
X171771D01*
X172187Y153010D01*
X172979Y151979D01*
X174010Y151188D01*
X175211Y150690D01*
X176500Y150520D01*
X177789Y150690D01*
X178990Y151188D01*
X180021Y151979D01*
X180813Y153010D01*
X180878Y153170D01*
X181378Y153070D01*
Y144965D01*
X159624Y123210D01*
X159490Y123312D01*
X158289Y123810D01*
X157000Y123980D01*
X155711Y123810D01*
X154510Y123312D01*
X153479Y122521D01*
X152688Y121490D01*
X152190Y120289D01*
X152020Y119000D01*
X152190Y117711D01*
X152688Y116510D01*
X153479Y115479D01*
X154510Y114688D01*
X155711Y114190D01*
X157000Y114020D01*
X158289Y114190D01*
X159490Y114688D01*
X160521Y115479D01*
X161312Y116510D01*
X161729Y117517D01*
X162271D01*
X162688Y116510D01*
X163479Y115479D01*
X164510Y114688D01*
X165711Y114190D01*
X167000Y114020D01*
X168289Y114190D01*
X169490Y114688D01*
X170521Y115479D01*
X171312Y116510D01*
X171729Y117517D01*
X172271D01*
X172687Y116510D01*
X173479Y115479D01*
X174510Y114688D01*
X175711Y114190D01*
X177000Y114020D01*
X178289Y114190D01*
X179490Y114688D01*
X180521Y115479D01*
X181313Y116510D01*
X181810Y117711D01*
X181980Y119000D01*
X181810Y120289D01*
X181313Y121490D01*
X180521Y122521D01*
X179490Y123312D01*
X178289Y123810D01*
X177000Y123980D01*
X175711Y123810D01*
X174510Y123312D01*
X173479Y122521D01*
X172687Y121490D01*
X172271Y120483D01*
X171729D01*
X171312Y121490D01*
X171210Y121624D01*
X186293Y136707D01*
X186293Y136707D01*
X186536Y137071D01*
X186622Y137500D01*
X186622Y137500D01*
Y174844D01*
X186942Y175058D01*
X187384Y175720D01*
X187539Y176500D01*
X187384Y177280D01*
X186942Y177942D01*
X186280Y178384D01*
X185500Y178539D01*
D02*
G37*
G36*
X14783Y126610D02*
X13478Y126438D01*
X12262Y125934D01*
X11217Y125133D01*
X10416Y124088D01*
X9912Y122872D01*
X9740Y121567D01*
X9912Y120262D01*
X10416Y119045D01*
X11217Y118001D01*
X12262Y117199D01*
X13478Y116695D01*
X14783Y116524D01*
X16089Y116695D01*
X17305Y117199D01*
X18349Y118001D01*
X19151Y119045D01*
X19655Y120262D01*
X19827Y121567D01*
X19655Y122872D01*
X19151Y124088D01*
X18349Y125133D01*
X17305Y125934D01*
X16089Y126438D01*
X14783Y126610D01*
D02*
G37*
G36*
X222500Y123543D02*
X221195Y123371D01*
X219978Y122868D01*
X218934Y122066D01*
X218132Y121022D01*
X217629Y119805D01*
X217457Y118500D01*
X217629Y117195D01*
X218132Y115978D01*
X218934Y114934D01*
X219978Y114132D01*
X221195Y113629D01*
X222500Y113457D01*
X223805Y113629D01*
X225022Y114132D01*
X226066Y114934D01*
X226868Y115978D01*
X227371Y117195D01*
X227543Y118500D01*
X227371Y119805D01*
X226868Y121022D01*
X226066Y122066D01*
X225022Y122868D01*
X223805Y123371D01*
X222500Y123543D01*
D02*
G37*
G36*
X14783Y114799D02*
X13478Y114627D01*
X12262Y114123D01*
X11217Y113322D01*
X10416Y112277D01*
X9912Y111061D01*
X9740Y109756D01*
X9912Y108450D01*
X10416Y107234D01*
X11217Y106190D01*
X12262Y105388D01*
X13478Y104885D01*
X14783Y104713D01*
X16089Y104885D01*
X17305Y105388D01*
X18349Y106190D01*
X19151Y107234D01*
X19655Y108450D01*
X19827Y109756D01*
X19655Y111061D01*
X19151Y112277D01*
X18349Y113322D01*
X17305Y114123D01*
X16089Y114627D01*
X14783Y114799D01*
D02*
G37*
G36*
X222500Y111732D02*
X221195Y111560D01*
X219978Y111056D01*
X218934Y110255D01*
X218132Y109211D01*
X217629Y107994D01*
X217457Y106689D01*
X217629Y105384D01*
X218132Y104167D01*
X218934Y103123D01*
X219978Y102322D01*
X221195Y101818D01*
X222500Y101646D01*
X223805Y101818D01*
X225022Y102322D01*
X226066Y103123D01*
X226868Y104167D01*
X227371Y105384D01*
X227543Y106689D01*
X227371Y107994D01*
X226868Y109211D01*
X226066Y110255D01*
X225022Y111056D01*
X223805Y111560D01*
X222500Y111732D01*
D02*
G37*
G36*
X223000Y99855D02*
Y95378D01*
X227477D01*
X227371Y96183D01*
X226868Y97400D01*
X226066Y98444D01*
X225022Y99246D01*
X223805Y99749D01*
X223000Y99855D01*
D02*
G37*
G36*
X222000D02*
X221195Y99749D01*
X219978Y99246D01*
X218934Y98444D01*
X218132Y97400D01*
X217629Y96183D01*
X217523Y95378D01*
X222000D01*
Y99855D01*
D02*
G37*
G36*
X75736Y96992D02*
X74646D01*
Y93638D01*
X75736D01*
Y96992D01*
D02*
G37*
G36*
X56583Y95520D02*
X47417D01*
Y93622D01*
X46656D01*
X46442Y93942D01*
X45780Y94384D01*
X45000Y94539D01*
X44220Y94384D01*
X43558Y93942D01*
X43344Y93622D01*
X42583D01*
Y95358D01*
X33417D01*
Y89343D01*
X42583D01*
Y91378D01*
X43344D01*
X43558Y91058D01*
X44220Y90616D01*
X45000Y90461D01*
X45780Y90616D01*
X46442Y91058D01*
X46656Y91378D01*
X47417D01*
Y89504D01*
X56583D01*
Y95520D01*
D02*
G37*
G36*
X14783Y102988D02*
X13478Y102816D01*
X12262Y102312D01*
X11217Y101511D01*
X10416Y100466D01*
X9912Y99250D01*
X9740Y97945D01*
X9912Y96640D01*
X10416Y95423D01*
X11217Y94379D01*
X12262Y93577D01*
X13478Y93073D01*
X14783Y92902D01*
X16089Y93073D01*
X17305Y93577D01*
X18349Y94379D01*
X19151Y95423D01*
X19655Y96640D01*
X19827Y97945D01*
X19655Y99250D01*
X19151Y100466D01*
X18349Y101511D01*
X17305Y102312D01*
X16089Y102816D01*
X14783Y102988D01*
D02*
G37*
G36*
X122000Y91440D02*
Y90000D01*
X123440D01*
X123384Y90280D01*
X122942Y90942D01*
X122280Y91384D01*
X122000Y91440D01*
D02*
G37*
G36*
X227477Y94378D02*
X223000D01*
Y89901D01*
X223805Y90007D01*
X225022Y90510D01*
X226066Y91312D01*
X226868Y92356D01*
X227371Y93573D01*
X227477Y94378D01*
D02*
G37*
G36*
X222000D02*
X217523D01*
X217629Y93573D01*
X218132Y92356D01*
X218934Y91312D01*
X219978Y90510D01*
X221195Y90007D01*
X222000Y89901D01*
Y94378D01*
D02*
G37*
G36*
X136217Y92224D02*
X132870D01*
X132019Y92054D01*
X131298Y91572D01*
X130816Y90851D01*
X130646Y90000D01*
X130816Y89149D01*
X131298Y88428D01*
X132019Y87945D01*
X132870Y87776D01*
X136217D01*
X137068Y87945D01*
X137789Y88428D01*
X138090Y88878D01*
X139344D01*
X139558Y88558D01*
X140220Y88116D01*
X141000Y87961D01*
X141780Y88116D01*
X142442Y88558D01*
X142884Y89220D01*
X143039Y90000D01*
X142884Y90780D01*
X142442Y91442D01*
X141780Y91884D01*
X141000Y92039D01*
X140220Y91884D01*
X139558Y91442D01*
X139344Y91122D01*
X138090D01*
X137789Y91572D01*
X137068Y92054D01*
X136217Y92224D01*
D02*
G37*
G36*
X123440Y89000D02*
X122000D01*
Y87560D01*
X122280Y87616D01*
X122942Y88058D01*
X123384Y88720D01*
X123440Y89000D01*
D02*
G37*
G36*
X121000Y91440D02*
X120720Y91384D01*
X120058Y90942D01*
X119881Y90678D01*
X119871Y90676D01*
X119186Y90585D01*
X118493Y90298D01*
X117914Y89854D01*
X117894Y89841D01*
X116320Y88266D01*
X115966Y87913D01*
X115966Y87913D01*
Y87913D01*
X115688Y87590D01*
X115187Y86913D01*
X115158Y86909D01*
X115069Y86865D01*
X114643Y86875D01*
X114565Y86865D01*
X114453Y86879D01*
X114263Y86854D01*
X114138D01*
Y85764D01*
X117761D01*
X117901Y85952D01*
X117917Y85940D01*
X117917D01*
X117923Y85955D01*
X118262Y86315D01*
X119489Y87543D01*
X119853Y87885D01*
X120103Y87886D01*
X120394Y87833D01*
X120720Y87616D01*
X121000Y87560D01*
Y89500D01*
Y91440D01*
D02*
G37*
G36*
X113138Y86854D02*
X109783D01*
Y85764D01*
X113138D01*
Y86854D01*
D02*
G37*
G36*
X157673Y87224D02*
X154327D01*
X153476Y87055D01*
X152754Y86572D01*
X152272Y85851D01*
X152103Y85000D01*
X152209Y84468D01*
X152163Y84422D01*
X151676Y84251D01*
X151015Y84693D01*
X150234Y84848D01*
X149454Y84693D01*
X148792Y84251D01*
X148350Y83589D01*
X148195Y82809D01*
X148350Y82028D01*
X148792Y81367D01*
X149454Y80925D01*
X150234Y80769D01*
X150993Y80920D01*
X152150Y79764D01*
X152272Y79149D01*
X152754Y78427D01*
X153476Y77946D01*
X154327Y77776D01*
X157673D01*
X158524Y77946D01*
X159246Y78427D01*
X159728Y79149D01*
X159897Y80000D01*
X159728Y80851D01*
X159246Y81573D01*
X158524Y82055D01*
X157673Y82224D01*
X154327D01*
X153724Y82104D01*
X153499Y82524D01*
X153827Y82876D01*
X154327Y82776D01*
X157673D01*
X158524Y82946D01*
X159246Y83428D01*
X159728Y84149D01*
X159897Y85000D01*
X159728Y85851D01*
X159246Y86572D01*
X158524Y87055D01*
X157673Y87224D01*
D02*
G37*
G36*
X51500Y84496D02*
X47417D01*
Y82122D01*
X46656D01*
X46442Y82442D01*
X45780Y82884D01*
X45500Y82940D01*
Y81000D01*
Y79060D01*
X45780Y79116D01*
X46442Y79558D01*
X46656Y79878D01*
X47417D01*
Y78480D01*
X51500D01*
Y81488D01*
Y84496D01*
D02*
G37*
G36*
X77992Y83552D02*
X76552D01*
Y82112D01*
X76832Y82168D01*
X77494Y82610D01*
X77936Y83272D01*
X77992Y83552D01*
D02*
G37*
G36*
X75552D02*
X74112D01*
X74168Y83272D01*
X74610Y82610D01*
X75272Y82168D01*
X75552Y82112D01*
Y83552D01*
D02*
G37*
G36*
X56583Y84496D02*
X52500D01*
Y81988D01*
X56583D01*
Y84496D01*
D02*
G37*
G36*
X37500Y84335D02*
X33417D01*
Y81827D01*
X37500D01*
Y84335D01*
D02*
G37*
G36*
X14783Y91177D02*
X13478Y91005D01*
X12262Y90501D01*
X11217Y89700D01*
X10416Y88655D01*
X9912Y87439D01*
X9740Y86134D01*
X9912Y84829D01*
X10416Y83612D01*
X11217Y82568D01*
X12262Y81766D01*
X13478Y81262D01*
X14783Y81091D01*
X16089Y81262D01*
X17305Y81766D01*
X18349Y82568D01*
X19151Y83612D01*
X19655Y84829D01*
X19827Y86134D01*
X19655Y87439D01*
X19151Y88655D01*
X18349Y89700D01*
X17305Y90501D01*
X16089Y91005D01*
X14783Y91177D01*
D02*
G37*
G36*
X42583Y84335D02*
X38500D01*
Y81327D01*
Y78319D01*
X42583D01*
Y79878D01*
X43344D01*
X43558Y79558D01*
X44220Y79116D01*
X44500Y79060D01*
Y81000D01*
Y82940D01*
X44220Y82884D01*
X43558Y82442D01*
X43344Y82122D01*
X42583D01*
Y84335D01*
D02*
G37*
G36*
X56583Y80988D02*
X52500D01*
Y78480D01*
X56583D01*
Y80988D01*
D02*
G37*
G36*
X37500Y80827D02*
X33417D01*
Y78319D01*
X37500D01*
Y80827D01*
D02*
G37*
G36*
X197500Y88288D02*
X196519Y88159D01*
X195606Y87781D01*
X194821Y87179D01*
X194219Y86394D01*
X193841Y85480D01*
X193712Y84500D01*
X193841Y83520D01*
X194055Y83002D01*
X188786Y77733D01*
X188488Y77286D01*
X188383Y76760D01*
Y67783D01*
X187579D01*
Y61059D01*
X191941D01*
Y67783D01*
X191136D01*
Y76190D01*
X196002Y81055D01*
X196519Y80841D01*
X197500Y80712D01*
X198480Y80841D01*
X199394Y81219D01*
X200179Y81821D01*
X200781Y82606D01*
X200995Y83124D01*
X217407D01*
X217457Y83067D01*
X217629Y81762D01*
X218132Y80545D01*
X218934Y79501D01*
X219978Y78699D01*
X221195Y78196D01*
X222500Y78024D01*
X223805Y78196D01*
X225022Y78699D01*
X226066Y79501D01*
X226868Y80545D01*
X227371Y81762D01*
X227543Y83067D01*
X227371Y84372D01*
X226868Y85589D01*
X226066Y86633D01*
X225022Y87435D01*
X223805Y87938D01*
X222500Y88110D01*
X221195Y87938D01*
X219978Y87435D01*
X218934Y86633D01*
X218353Y85876D01*
X200995D01*
X200781Y86394D01*
X200179Y87179D01*
X199394Y87781D01*
X198480Y88159D01*
X197500Y88288D01*
D02*
G37*
G36*
X136217Y77224D02*
X135043D01*
Y75500D01*
X138341D01*
X138271Y75851D01*
X137789Y76573D01*
X137068Y77055D01*
X136217Y77224D01*
D02*
G37*
G36*
X38488Y76083D02*
X35980D01*
Y74622D01*
X34656D01*
X34442Y74942D01*
X33780Y75384D01*
X33500Y75440D01*
Y73500D01*
Y71560D01*
X33780Y71616D01*
X34442Y72058D01*
X34656Y72378D01*
X35980D01*
Y72000D01*
X38488D01*
Y76083D01*
D02*
G37*
G36*
X129500Y75500D02*
X128060D01*
X128116Y75220D01*
X128558Y74558D01*
X129220Y74116D01*
X129500Y74060D01*
Y75500D01*
D02*
G37*
G36*
X32500Y75440D02*
X32220Y75384D01*
X31558Y74942D01*
X31116Y74280D01*
X31060Y74000D01*
X32500D01*
Y75440D01*
D02*
G37*
G36*
X138341Y74500D02*
X135043D01*
Y72776D01*
X136217D01*
X137068Y72945D01*
X137789Y73427D01*
X138271Y74149D01*
X138341Y74500D01*
D02*
G37*
G36*
X41996Y76083D02*
X39488D01*
Y72000D01*
X41996D01*
Y76083D01*
D02*
G37*
G36*
X32500Y73000D02*
X31060D01*
X31116Y72720D01*
X31558Y72058D01*
X32220Y71616D01*
X32500Y71560D01*
Y73000D01*
D02*
G37*
G36*
X53020Y76083D02*
X47004D01*
Y66917D01*
X53020D01*
Y72378D01*
X53844D01*
X54058Y72058D01*
X54720Y71616D01*
X55500Y71461D01*
X56280Y71616D01*
X56942Y72058D01*
X57384Y72720D01*
X57539Y73500D01*
X57384Y74280D01*
X56942Y74942D01*
X56280Y75384D01*
X55500Y75539D01*
X54720Y75384D01*
X54058Y74942D01*
X53844Y74622D01*
X53020D01*
Y76083D01*
D02*
G37*
G36*
X14783Y79366D02*
X13478Y79194D01*
X12262Y78690D01*
X11217Y77889D01*
X10416Y76844D01*
X9912Y75628D01*
X9740Y74323D01*
X9912Y73018D01*
X10416Y71801D01*
X11217Y70757D01*
X12262Y69955D01*
X13478Y69451D01*
X14783Y69280D01*
X16089Y69451D01*
X17305Y69955D01*
X18349Y70757D01*
X19151Y71801D01*
X19655Y73018D01*
X19827Y74323D01*
X19655Y75628D01*
X19151Y76844D01*
X18349Y77889D01*
X17305Y78690D01*
X16089Y79194D01*
X14783Y79366D01*
D02*
G37*
G36*
X41996Y71000D02*
X39488D01*
Y66917D01*
X41996D01*
Y71000D01*
D02*
G37*
G36*
X38488D02*
X35980D01*
Y66917D01*
X38488D01*
Y71000D01*
D02*
G37*
G36*
X222500Y76299D02*
X221195Y76127D01*
X219978Y75624D01*
X218934Y74822D01*
X218132Y73778D01*
X217629Y72561D01*
X217457Y71256D01*
X217629Y69951D01*
X218132Y68734D01*
X218934Y67690D01*
X219978Y66888D01*
X221195Y66385D01*
X222500Y66213D01*
X223805Y66385D01*
X225022Y66888D01*
X226066Y67690D01*
X226868Y68734D01*
X227371Y69951D01*
X227543Y71256D01*
X227371Y72561D01*
X226868Y73778D01*
X226066Y74822D01*
X225022Y75624D01*
X223805Y76127D01*
X222500Y76299D01*
D02*
G37*
G36*
X14783Y67555D02*
X13478Y67383D01*
X12262Y66879D01*
X11217Y66078D01*
X10416Y65033D01*
X9912Y63817D01*
X9740Y62512D01*
X9912Y61207D01*
X10416Y59990D01*
X11217Y58946D01*
X12262Y58144D01*
X13478Y57640D01*
X14783Y57469D01*
X16089Y57640D01*
X17305Y58144D01*
X18349Y58946D01*
X19151Y59990D01*
X19655Y61207D01*
X19827Y62512D01*
X19655Y63817D01*
X19151Y65033D01*
X18349Y66078D01*
X17305Y66879D01*
X16089Y67383D01*
X14783Y67555D01*
D02*
G37*
G36*
X78940Y58000D02*
X77500D01*
Y56560D01*
X77780Y56616D01*
X78442Y57058D01*
X78884Y57720D01*
X78940Y58000D01*
D02*
G37*
G36*
X76500D02*
X75060D01*
X75116Y57720D01*
X75558Y57058D01*
X76220Y56616D01*
X76500Y56560D01*
Y58000D01*
D02*
G37*
G36*
X193500Y61039D02*
X192720Y60884D01*
X192058Y60442D01*
X191616Y59780D01*
X191461Y59000D01*
X191572Y58441D01*
X191247Y57941D01*
X187579D01*
Y55200D01*
X123735D01*
X123521Y55521D01*
X122859Y55963D01*
X122079Y56118D01*
X121298Y55963D01*
X120637Y55521D01*
X120195Y54859D01*
X120040Y54079D01*
X120195Y53298D01*
X120637Y52637D01*
X121298Y52195D01*
X122079Y52040D01*
X122859Y52195D01*
X123521Y52637D01*
X123735Y52957D01*
X187579D01*
Y51217D01*
X199421D01*
Y53457D01*
X215090D01*
X218245Y50302D01*
X218132Y50155D01*
X217629Y48939D01*
X217457Y47634D01*
X217629Y46328D01*
X218132Y45112D01*
X218934Y44068D01*
X219978Y43266D01*
X221195Y42763D01*
X222500Y42591D01*
X223805Y42763D01*
X225022Y43266D01*
X226066Y44068D01*
X226868Y45112D01*
X227371Y46328D01*
X227543Y47634D01*
X227371Y48939D01*
X226868Y50155D01*
X226066Y51200D01*
X225022Y52001D01*
X223805Y52505D01*
X222500Y52677D01*
X221195Y52505D01*
X219978Y52001D01*
X219831Y51889D01*
X216348Y55372D01*
X215984Y55615D01*
X215555Y55700D01*
X215555Y55700D01*
X199421D01*
Y57941D01*
X195753D01*
X195428Y58441D01*
X195539Y59000D01*
X195384Y59780D01*
X194942Y60442D01*
X194280Y60884D01*
X193500Y61039D01*
D02*
G37*
G36*
X199421Y67783D02*
X195059D01*
Y61059D01*
X199421D01*
Y63300D01*
X217059D01*
X218245Y62113D01*
X218132Y61966D01*
X217629Y60750D01*
X217457Y59445D01*
X217629Y58139D01*
X218132Y56923D01*
X218934Y55879D01*
X219978Y55077D01*
X221195Y54574D01*
X222500Y54402D01*
X223805Y54574D01*
X225022Y55077D01*
X226066Y55879D01*
X226868Y56923D01*
X227371Y58139D01*
X227543Y59445D01*
X227371Y60750D01*
X226868Y61966D01*
X226066Y63011D01*
X225022Y63812D01*
X223805Y64316D01*
X222500Y64488D01*
X221195Y64316D01*
X219978Y63812D01*
X219831Y63700D01*
X218317Y65214D01*
X217953Y65457D01*
X217524Y65543D01*
X217524Y65543D01*
X199421D01*
Y67783D01*
D02*
G37*
G36*
X14783Y55744D02*
X13478Y55572D01*
X12262Y55068D01*
X11217Y54267D01*
X10416Y53222D01*
X9912Y52006D01*
X9740Y50701D01*
X9912Y49395D01*
X10416Y48179D01*
X11217Y47135D01*
X12262Y46333D01*
X13478Y45829D01*
X14783Y45658D01*
X16089Y45829D01*
X17305Y46333D01*
X18349Y47135D01*
X19151Y48179D01*
X19655Y49395D01*
X19827Y50701D01*
X19655Y52006D01*
X19151Y53222D01*
X18349Y54267D01*
X17305Y55068D01*
X16089Y55572D01*
X14783Y55744D01*
D02*
G37*
G36*
X103000Y40440D02*
X102720Y40384D01*
X102058Y39942D01*
X101616Y39280D01*
X101560Y39000D01*
X103000D01*
Y40440D01*
D02*
G37*
G36*
X105440Y38000D02*
X104000D01*
Y36560D01*
X104280Y36616D01*
X104942Y37058D01*
X105384Y37720D01*
X105440Y38000D01*
D02*
G37*
G36*
X103000D02*
X101560D01*
X101616Y37720D01*
X102058Y37058D01*
X102720Y36616D01*
X103000Y36560D01*
Y38000D01*
D02*
G37*
G36*
X22500Y43681D02*
X21260Y43517D01*
X20105Y43039D01*
X19112Y42277D01*
X18351Y41285D01*
X17872Y40130D01*
X17709Y38890D01*
X17872Y37650D01*
X18351Y36494D01*
X19112Y35502D01*
X20105Y34740D01*
X21260Y34262D01*
X22500Y34099D01*
X23740Y34262D01*
X24895Y34740D01*
X25888Y35502D01*
X26649Y36494D01*
X27128Y37650D01*
X27291Y38890D01*
X27128Y40130D01*
X26649Y41285D01*
X25888Y42277D01*
X24895Y43039D01*
X23740Y43517D01*
X22500Y43681D01*
D02*
G37*
G36*
X214783Y40614D02*
X213543Y40451D01*
X212388Y39972D01*
X211396Y39211D01*
X210634Y38218D01*
X210156Y37063D01*
X209992Y35823D01*
X210156Y34583D01*
X210634Y33427D01*
X211396Y32435D01*
X212388Y31674D01*
X213543Y31195D01*
X214783Y31032D01*
X216023Y31195D01*
X217179Y31674D01*
X218171Y32435D01*
X218933Y33427D01*
X219411Y34583D01*
X219574Y35823D01*
X219411Y37063D01*
X218933Y38218D01*
X218171Y39211D01*
X217179Y39972D01*
X216023Y40451D01*
X214783Y40614D01*
D02*
G37*
G36*
X146453Y26453D02*
X143000D01*
Y23000D01*
X146453D01*
Y26453D01*
D02*
G37*
G36*
X142000D02*
X138547D01*
Y23000D01*
X142000D01*
Y26453D01*
D02*
G37*
G36*
X146453Y22000D02*
X143000D01*
Y18547D01*
X146453D01*
Y22000D01*
D02*
G37*
G36*
X142000D02*
X138547D01*
Y18547D01*
X142000D01*
Y22000D01*
D02*
G37*
G36*
X132500Y26487D02*
X131468Y26351D01*
X130507Y25953D01*
X129681Y25319D01*
X129047Y24493D01*
X128649Y23532D01*
X128513Y22500D01*
X128649Y21468D01*
X129047Y20507D01*
X129681Y19681D01*
X130507Y19047D01*
X131468Y18649D01*
X132500Y18513D01*
X133532Y18649D01*
X134493Y19047D01*
X135319Y19681D01*
X135953Y20507D01*
X136351Y21468D01*
X136487Y22500D01*
X136351Y23532D01*
X135953Y24493D01*
X135319Y25319D01*
X134493Y25953D01*
X133532Y26351D01*
X132500Y26487D01*
D02*
G37*
G36*
X122500D02*
X121468Y26351D01*
X120507Y25953D01*
X119681Y25319D01*
X119047Y24493D01*
X118649Y23532D01*
X118513Y22500D01*
X118649Y21468D01*
X119047Y20507D01*
X119681Y19681D01*
X120507Y19047D01*
X121468Y18649D01*
X122500Y18513D01*
X123532Y18649D01*
X124493Y19047D01*
X125319Y19681D01*
X125953Y20507D01*
X126351Y21468D01*
X126487Y22500D01*
X126351Y23532D01*
X125953Y24493D01*
X125319Y25319D01*
X124493Y25953D01*
X123532Y26351D01*
X122500Y26487D01*
D02*
G37*
G36*
X92500D02*
X91468Y26351D01*
X90507Y25953D01*
X89681Y25319D01*
X89047Y24493D01*
X88649Y23532D01*
X88513Y22500D01*
X88649Y21468D01*
X89047Y20507D01*
X89681Y19681D01*
X90507Y19047D01*
X91468Y18649D01*
X92500Y18513D01*
X93532Y18649D01*
X94493Y19047D01*
X95319Y19681D01*
X95953Y20507D01*
X96351Y21468D01*
X96487Y22500D01*
X96351Y23532D01*
X95953Y24493D01*
X95319Y25319D01*
X94493Y25953D01*
X93532Y26351D01*
X92500Y26487D01*
D02*
G37*
G36*
X82500D02*
X81468Y26351D01*
X80507Y25953D01*
X79681Y25319D01*
X79047Y24493D01*
X78649Y23532D01*
X78513Y22500D01*
X78649Y21468D01*
X79047Y20507D01*
X79681Y19681D01*
X80507Y19047D01*
X81468Y18649D01*
X82500Y18513D01*
X83532Y18649D01*
X84493Y19047D01*
X85319Y19681D01*
X85953Y20507D01*
X86351Y21468D01*
X86487Y22500D01*
X86351Y23532D01*
X85953Y24493D01*
X85319Y25319D01*
X84493Y25953D01*
X83532Y26351D01*
X82500Y26487D01*
D02*
G37*
G36*
X62500D02*
X61468Y26351D01*
X60507Y25953D01*
X59681Y25319D01*
X59047Y24493D01*
X58649Y23532D01*
X58513Y22500D01*
X58649Y21468D01*
X59047Y20507D01*
X59681Y19681D01*
X60507Y19047D01*
X61468Y18649D01*
X62500Y18513D01*
X63532Y18649D01*
X64493Y19047D01*
X65319Y19681D01*
X65953Y20507D01*
X66351Y21468D01*
X66487Y22500D01*
X66351Y23532D01*
X65953Y24493D01*
X65319Y25319D01*
X64493Y25953D01*
X63532Y26351D01*
X62500Y26487D01*
D02*
G37*
G36*
X52500D02*
X51468Y26351D01*
X50507Y25953D01*
X49681Y25319D01*
X49047Y24493D01*
X48649Y23532D01*
X48513Y22500D01*
X48649Y21468D01*
X49047Y20507D01*
X49681Y19681D01*
X50507Y19047D01*
X51468Y18649D01*
X52500Y18513D01*
X53532Y18649D01*
X54493Y19047D01*
X55319Y19681D01*
X55953Y20507D01*
X56351Y21468D01*
X56487Y22500D01*
X56351Y23532D01*
X55953Y24493D01*
X55319Y25319D01*
X54493Y25953D01*
X53532Y26351D01*
X52500Y26487D01*
D02*
G37*
G36*
X143000Y16421D02*
Y13000D01*
X146421D01*
X146351Y13532D01*
X145953Y14493D01*
X145319Y15319D01*
X144493Y15953D01*
X143532Y16351D01*
X143000Y16421D01*
D02*
G37*
G36*
X142000D02*
X141468Y16351D01*
X140507Y15953D01*
X139681Y15319D01*
X139047Y14493D01*
X138649Y13532D01*
X138579Y13000D01*
X142000D01*
Y16421D01*
D02*
G37*
G36*
X146421Y12000D02*
X143000D01*
Y8579D01*
X143532Y8649D01*
X144493Y9047D01*
X145319Y9681D01*
X145953Y10507D01*
X146351Y11468D01*
X146421Y12000D01*
D02*
G37*
G36*
X142000D02*
X138579D01*
X138649Y11468D01*
X139047Y10507D01*
X139681Y9681D01*
X140507Y9047D01*
X141468Y8649D01*
X142000Y8579D01*
Y12000D01*
D02*
G37*
G36*
X132500Y16487D02*
X131468Y16351D01*
X130507Y15953D01*
X129681Y15319D01*
X129047Y14493D01*
X128649Y13532D01*
X128513Y12500D01*
X128649Y11468D01*
X129047Y10507D01*
X129681Y9681D01*
X130507Y9047D01*
X131468Y8649D01*
X132500Y8513D01*
X133532Y8649D01*
X134493Y9047D01*
X135319Y9681D01*
X135953Y10507D01*
X136351Y11468D01*
X136487Y12500D01*
X136351Y13532D01*
X135953Y14493D01*
X135319Y15319D01*
X134493Y15953D01*
X133532Y16351D01*
X132500Y16487D01*
D02*
G37*
G36*
X122500D02*
X121468Y16351D01*
X120507Y15953D01*
X119681Y15319D01*
X119047Y14493D01*
X118649Y13532D01*
X118513Y12500D01*
X118649Y11468D01*
X119047Y10507D01*
X119681Y9681D01*
X120507Y9047D01*
X121468Y8649D01*
X122500Y8513D01*
X123532Y8649D01*
X124493Y9047D01*
X125319Y9681D01*
X125953Y10507D01*
X126351Y11468D01*
X126487Y12500D01*
X126351Y13532D01*
X125953Y14493D01*
X125319Y15319D01*
X124493Y15953D01*
X123532Y16351D01*
X122500Y16487D01*
D02*
G37*
G36*
X112500D02*
X111468Y16351D01*
X110507Y15953D01*
X109681Y15319D01*
X109047Y14493D01*
X108649Y13532D01*
X108513Y12500D01*
X108649Y11468D01*
X109047Y10507D01*
X109681Y9681D01*
X110507Y9047D01*
X111468Y8649D01*
X112500Y8513D01*
X113532Y8649D01*
X114493Y9047D01*
X115319Y9681D01*
X115953Y10507D01*
X116351Y11468D01*
X116487Y12500D01*
X116351Y13532D01*
X115953Y14493D01*
X115319Y15319D01*
X114493Y15953D01*
X113532Y16351D01*
X112500Y16487D01*
D02*
G37*
G36*
X102500D02*
X101468Y16351D01*
X100507Y15953D01*
X99681Y15319D01*
X99047Y14493D01*
X98649Y13532D01*
X98513Y12500D01*
X98649Y11468D01*
X99047Y10507D01*
X99681Y9681D01*
X100507Y9047D01*
X101468Y8649D01*
X102500Y8513D01*
X103532Y8649D01*
X104493Y9047D01*
X105319Y9681D01*
X105953Y10507D01*
X106351Y11468D01*
X106487Y12500D01*
X106351Y13532D01*
X105953Y14493D01*
X105319Y15319D01*
X104493Y15953D01*
X103532Y16351D01*
X102500Y16487D01*
D02*
G37*
G36*
X92500D02*
X91468Y16351D01*
X90507Y15953D01*
X89681Y15319D01*
X89047Y14493D01*
X88649Y13532D01*
X88513Y12500D01*
X88649Y11468D01*
X89047Y10507D01*
X89681Y9681D01*
X90507Y9047D01*
X91468Y8649D01*
X92500Y8513D01*
X93532Y8649D01*
X94493Y9047D01*
X95319Y9681D01*
X95953Y10507D01*
X96351Y11468D01*
X96487Y12500D01*
X96351Y13532D01*
X95953Y14493D01*
X95319Y15319D01*
X94493Y15953D01*
X93532Y16351D01*
X92500Y16487D01*
D02*
G37*
G36*
X82500D02*
X81468Y16351D01*
X80507Y15953D01*
X79681Y15319D01*
X79047Y14493D01*
X78649Y13532D01*
X78513Y12500D01*
X78649Y11468D01*
X79047Y10507D01*
X79681Y9681D01*
X80507Y9047D01*
X81468Y8649D01*
X82500Y8513D01*
X83532Y8649D01*
X84493Y9047D01*
X85319Y9681D01*
X85953Y10507D01*
X86351Y11468D01*
X86487Y12500D01*
X86351Y13532D01*
X85953Y14493D01*
X85319Y15319D01*
X84493Y15953D01*
X83532Y16351D01*
X82500Y16487D01*
D02*
G37*
G36*
X72500D02*
X71468Y16351D01*
X70507Y15953D01*
X69681Y15319D01*
X69047Y14493D01*
X68649Y13532D01*
X68513Y12500D01*
X68649Y11468D01*
X69047Y10507D01*
X69681Y9681D01*
X70507Y9047D01*
X71468Y8649D01*
X72500Y8513D01*
X73532Y8649D01*
X74493Y9047D01*
X75319Y9681D01*
X75953Y10507D01*
X76351Y11468D01*
X76487Y12500D01*
X76351Y13532D01*
X75953Y14493D01*
X75319Y15319D01*
X74493Y15953D01*
X73532Y16351D01*
X72500Y16487D01*
D02*
G37*
G36*
X62500D02*
X61468Y16351D01*
X60507Y15953D01*
X59681Y15319D01*
X59047Y14493D01*
X58649Y13532D01*
X58513Y12500D01*
X58649Y11468D01*
X59047Y10507D01*
X59681Y9681D01*
X60507Y9047D01*
X61468Y8649D01*
X62500Y8513D01*
X63532Y8649D01*
X64493Y9047D01*
X65319Y9681D01*
X65953Y10507D01*
X66351Y11468D01*
X66487Y12500D01*
X66351Y13532D01*
X65953Y14493D01*
X65319Y15319D01*
X64493Y15953D01*
X63532Y16351D01*
X62500Y16487D01*
D02*
G37*
G36*
X52500D02*
X51468Y16351D01*
X50507Y15953D01*
X49681Y15319D01*
X49047Y14493D01*
X48649Y13532D01*
X48513Y12500D01*
X48649Y11468D01*
X49047Y10507D01*
X49681Y9681D01*
X50507Y9047D01*
X51468Y8649D01*
X52500Y8513D01*
X53532Y8649D01*
X54493Y9047D01*
X55319Y9681D01*
X55953Y10507D01*
X56351Y11468D01*
X56487Y12500D01*
X56351Y13532D01*
X55953Y14493D01*
X55319Y15319D01*
X54493Y15953D01*
X53532Y16351D01*
X52500Y16487D01*
D02*
G37*
G36*
X222000Y21795D02*
X220187Y21616D01*
X218443Y21087D01*
X216836Y20228D01*
X215428Y19072D01*
X214272Y17664D01*
X213413Y16057D01*
X212884Y14313D01*
X212705Y12500D01*
X212884Y10687D01*
X213413Y8943D01*
X214272Y7336D01*
X215428Y5928D01*
X216836Y4772D01*
X218443Y3913D01*
X220187Y3384D01*
X222000Y3205D01*
X223813Y3384D01*
X225557Y3913D01*
X227164Y4772D01*
X228572Y5928D01*
X229728Y7336D01*
X230587Y8943D01*
X231116Y10687D01*
X231295Y12500D01*
X231116Y14313D01*
X230587Y16057D01*
X229728Y17664D01*
X228572Y19072D01*
X227164Y20228D01*
X225557Y21087D01*
X223813Y21616D01*
X222000Y21795D01*
D02*
G37*
G36*
X12000D02*
X10187Y21616D01*
X8443Y21087D01*
X6836Y20228D01*
X5428Y19072D01*
X4272Y17664D01*
X3413Y16057D01*
X2884Y14313D01*
X2705Y12500D01*
X2884Y10687D01*
X3413Y8943D01*
X4272Y7336D01*
X5428Y5928D01*
X6836Y4772D01*
X8443Y3913D01*
X10187Y3384D01*
X12000Y3205D01*
X13813Y3384D01*
X15557Y3913D01*
X17164Y4772D01*
X18572Y5928D01*
X19728Y7336D01*
X20587Y8943D01*
X21116Y10687D01*
X21295Y12500D01*
X21116Y14313D01*
X20587Y16057D01*
X19728Y17664D01*
X18572Y19072D01*
X17164Y20228D01*
X15557Y21087D01*
X13813Y21616D01*
X12000Y21795D01*
D02*
G37*
%LPD*%
G36*
X61187Y153010D02*
X61979Y151979D01*
X63010Y151188D01*
X64211Y150690D01*
X65500Y150520D01*
X66789Y150690D01*
X67990Y151188D01*
X68124Y151290D01*
X69744Y149670D01*
X69744Y149670D01*
X70108Y149427D01*
X70537Y149341D01*
X70537Y149341D01*
X82602D01*
X82793Y148880D01*
X73735Y139821D01*
X73193Y139986D01*
X73134Y140280D01*
X72692Y140942D01*
X72030Y141384D01*
X71250Y141539D01*
X70872Y141464D01*
X59601Y152735D01*
X59812Y153010D01*
X60229Y154017D01*
X60771D01*
X61187Y153010D01*
D02*
G37*
G36*
X90892Y146978D02*
X67624Y123710D01*
X67490Y123812D01*
X66289Y124310D01*
X65000Y124480D01*
X63711Y124310D01*
X62510Y123812D01*
X61479Y123021D01*
X60688Y121990D01*
X60271Y120983D01*
X59729D01*
X59312Y121990D01*
X59210Y122124D01*
X84526Y147440D01*
X90701D01*
X90892Y146978D01*
D02*
G37*
G36*
X100925Y52179D02*
X100734Y51717D01*
X81266D01*
X81075Y52179D01*
X84275Y55378D01*
X89344D01*
X89558Y55058D01*
X90220Y54616D01*
X91000Y54461D01*
X91780Y54616D01*
X92442Y55058D01*
X92656Y55378D01*
X97725D01*
X100925Y52179D01*
D02*
G37*
D13*
X122079Y54079D02*
X189260D01*
X108000Y55500D02*
X112500Y51000D01*
X108500Y28500D02*
Y52000D01*
X105764Y54736D02*
X108500Y52000D01*
X112500Y22500D02*
Y51000D01*
X105764Y54736D02*
Y93138D01*
X108000Y55500D02*
Y80741D01*
X65000Y119500D02*
X92462Y146962D01*
X110962D01*
X140500Y176500D01*
X130826Y176291D02*
X131018Y176482D01*
X84062Y148562D02*
X103062D01*
X131000Y176500D01*
X55000Y119500D02*
X84062Y148562D01*
X55500Y155250D02*
X71250Y139500D01*
X55500Y155250D02*
Y155500D01*
X121309Y89309D02*
X121500Y89500D01*
X119947Y89309D02*
X121309D01*
X105000Y104500D02*
X131000D01*
X156500Y130000D01*
X101827Y101327D02*
X105000Y104500D01*
X101827Y93138D02*
Y101327D01*
X99858Y93138D02*
Y111142D01*
X55500Y155500D02*
X62500Y162500D01*
X106500Y176500D02*
X109500D01*
X92500Y162500D02*
X106500Y176500D01*
X62500Y162500D02*
X92500D01*
X65500Y155500D02*
X70537Y150463D01*
X92963D01*
X119000Y176500D01*
X157000Y119000D02*
X182500Y144500D01*
X176000Y176500D02*
X182500Y170000D01*
Y144500D02*
Y170000D01*
X156500Y130000D02*
Y155500D01*
X185500Y137500D02*
Y176500D01*
X167000Y119000D02*
X185500Y137500D01*
X193500Y54579D02*
Y59000D01*
X193000Y55079D02*
X193500Y54579D01*
X150234Y82809D02*
X150691D01*
X154327Y85000D02*
X156000D01*
X154060D02*
X154327D01*
X152327Y83000D02*
X154327Y85000D01*
X150426Y83000D02*
X152327D01*
X150234Y82809D02*
X150426Y83000D01*
X155739Y80261D02*
X156000Y80000D01*
X150691Y82809D02*
X153239Y80261D01*
X155739D01*
X134283Y75261D02*
X134543Y75000D01*
X131010Y75261D02*
X134283D01*
X130271Y76000D02*
X131010Y75261D01*
X130000Y76000D02*
X130271D01*
X113638Y83295D02*
X119899D01*
X120666Y82527D01*
X120937D01*
X134543Y90000D02*
X141000D01*
X50012Y72174D02*
Y72848D01*
Y72174D02*
X51338Y73500D01*
X55500D01*
X38988Y71500D02*
Y71992D01*
X37480Y73500D02*
X38988Y71992D01*
X33000Y73500D02*
X37480D01*
X51512Y81000D02*
X52000Y81488D01*
X45000Y81000D02*
X51512D01*
X38000Y81327D02*
X38327Y81000D01*
X45000D01*
X51988Y92500D02*
X52000Y92512D01*
X45000Y92500D02*
X51988D01*
X38000Y92350D02*
X38150Y92500D01*
X45000D01*
X75868Y83868D02*
X76052Y84052D01*
X82000Y85500D02*
X84110Y87610D01*
X82250Y85500D02*
X82500D01*
X78205Y89545D02*
Y93138D01*
X82229Y85500D02*
X82365Y85635D01*
X82229Y85500D02*
X82250D01*
X166500Y155500D02*
Y157360D01*
X164500Y159360D02*
X166500Y157360D01*
X164500Y159360D02*
Y175414D01*
X154000Y176500D02*
X154271D01*
X154771Y176000D01*
X155000D01*
X163500Y176414D02*
Y176500D01*
Y176414D02*
X164500Y175414D01*
X155000Y176000D02*
X156500Y174500D01*
X143000Y85000D02*
X152485Y94485D01*
X134543Y85000D02*
X143000D01*
X152485Y94485D02*
X183985D01*
X216000Y126500D01*
X90102Y56691D02*
X90729D01*
Y56771D01*
X68362Y63610D02*
X83890D01*
X103705Y47953D02*
X103795Y47862D01*
X103705Y47953D02*
Y50985D01*
X98190Y56500D02*
X103705Y50985D01*
X91000Y56500D02*
X98190D01*
X90062Y56731D02*
X90102Y56691D01*
X83890Y63610D02*
X90729Y56771D01*
X83811Y56500D02*
X91000D01*
X78295Y50985D02*
X83811Y56500D01*
X78205Y47862D02*
X78295Y47953D01*
Y50985D01*
X113638Y85264D02*
X115902D01*
X176500Y155500D02*
Y156000D01*
X156500Y155500D02*
Y174500D01*
X108586Y81327D02*
X113638D01*
X108000Y80741D02*
X108586Y81327D01*
X55000Y119500D02*
X61500Y113000D01*
X78500D01*
X90016Y101484D01*
X48504Y74356D02*
X50012Y72848D01*
X102500Y22500D02*
X108500Y28500D01*
X60500Y34500D02*
X72500Y22500D01*
X60500Y72500D02*
X61453Y73453D01*
X60500Y34500D02*
Y72500D01*
X61453Y73453D02*
X68362D01*
X78205Y89545D02*
X82250Y85500D01*
X84110Y87610D02*
Y93138D01*
X217524Y64421D02*
X222500Y59445D01*
X197240Y64421D02*
X217524D01*
X220606Y83067D02*
X222500D01*
X219173Y84500D02*
X220606Y83067D01*
X215555Y54579D02*
X222500Y47634D01*
X197240Y54579D02*
X215555D01*
X146793Y75629D02*
X154268D01*
X139922Y82500D02*
X146793Y75629D01*
X216000Y126500D02*
Y135622D01*
X222500Y142122D01*
X129000Y82500D02*
X139922D01*
X154897Y75000D02*
X156000D01*
X125858Y79358D02*
X129000Y82500D01*
X154268Y75629D02*
X154897Y75000D01*
X194741Y115759D02*
X195020D01*
X196279Y114500D01*
X197500D01*
X182189Y90000D02*
X222500Y130311D01*
X156000Y90000D02*
X182189D01*
X113638Y79358D02*
X125858D01*
X129500Y80000D02*
X134543D01*
X116466Y77480D02*
X116486Y77500D01*
X113728Y77480D02*
X116466D01*
X113638Y77390D02*
X113728Y77480D01*
X116486Y77500D02*
X127000D01*
X129500Y80000D01*
X90016Y93138D02*
Y101484D01*
D19*
X189760Y64421D02*
D03*
X197240D02*
D03*
Y54579D02*
D03*
X193500D02*
D03*
X189760D02*
D03*
D20*
X134543Y75000D02*
D03*
Y80000D02*
D03*
Y85000D02*
D03*
Y90000D02*
D03*
X156000D02*
D03*
Y85000D02*
D03*
Y80000D02*
D03*
Y75000D02*
D03*
D21*
X38000Y92350D02*
D03*
Y81327D02*
D03*
X52000Y92512D02*
D03*
Y81488D02*
D03*
D22*
X68362Y85264D02*
D03*
Y83295D02*
D03*
Y81327D02*
D03*
Y79358D02*
D03*
Y77390D02*
D03*
Y75421D02*
D03*
Y73453D02*
D03*
Y71484D02*
D03*
Y69516D02*
D03*
Y67547D02*
D03*
Y65579D02*
D03*
Y63610D02*
D03*
Y61642D02*
D03*
Y59673D02*
D03*
Y57705D02*
D03*
Y55736D02*
D03*
X113638D02*
D03*
Y57705D02*
D03*
Y59673D02*
D03*
Y61642D02*
D03*
Y63610D02*
D03*
Y65579D02*
D03*
Y67547D02*
D03*
Y69516D02*
D03*
Y71484D02*
D03*
Y73453D02*
D03*
Y75421D02*
D03*
Y77390D02*
D03*
Y79358D02*
D03*
Y81327D02*
D03*
Y83295D02*
D03*
Y85264D02*
D03*
D23*
X76236Y47862D02*
D03*
X78205D02*
D03*
X80173D02*
D03*
X82142D02*
D03*
X84110D02*
D03*
X86079D02*
D03*
X88047D02*
D03*
X90016D02*
D03*
X91984D02*
D03*
X93953D02*
D03*
X95921D02*
D03*
X97890D02*
D03*
X99858D02*
D03*
X101827D02*
D03*
X103795D02*
D03*
X105764D02*
D03*
Y93138D02*
D03*
X103795D02*
D03*
X101827D02*
D03*
X99858D02*
D03*
X97890D02*
D03*
X95921D02*
D03*
X93953D02*
D03*
X91984D02*
D03*
X90016D02*
D03*
X88047D02*
D03*
X86079D02*
D03*
X84110D02*
D03*
X82142D02*
D03*
X80173D02*
D03*
X78205D02*
D03*
X76236D02*
D03*
D24*
X38988Y71500D02*
D03*
X50012D02*
D03*
D39*
X119922Y89309D02*
G03*
X118868Y88868I8J-1500D01*
G01*
X114978Y85474D02*
G03*
X116281Y86078I97J1497D01*
G01*
X116939Y86939D02*
G03*
X116794Y86771I1061J-1061D01*
G01*
X114553Y85501D02*
G03*
X113638Y85264I-100J-1497D01*
G01*
X119930Y89309D02*
X119947D01*
X119922Y89309D02*
X119930Y89309D01*
X76052Y84052D02*
Y90570D01*
X76077Y90594D02*
Y92978D01*
X76236Y93138D01*
X76052Y90570D02*
X76077Y90594D01*
X68362Y61642D02*
X74358D01*
X76500Y59500D01*
X105764Y40764D02*
Y47862D01*
X103500Y38500D02*
X105764Y40764D01*
X114553Y85501D02*
X114978Y85474D01*
X116281Y86078D02*
X116794Y86771D01*
X116939Y86939D02*
X118868Y88868D01*
X197500Y84500D02*
X219173D01*
X189760Y64421D02*
Y76760D01*
X197500Y84500D01*
D40*
D03*
Y114500D02*
D03*
D41*
X55000Y119500D02*
D03*
X75000D02*
D03*
X65000D02*
D03*
X157000Y119000D02*
D03*
X177000D02*
D03*
X167000D02*
D03*
X156500Y155500D02*
D03*
X176500D02*
D03*
X166500D02*
D03*
X55500D02*
D03*
X75500D02*
D03*
X65500D02*
D03*
D42*
X222000Y12500D02*
D03*
X12000D02*
D03*
X222000Y177000D02*
D03*
X12000Y179500D02*
D03*
D43*
X52500Y12500D02*
D03*
X62500D02*
D03*
X72500D02*
D03*
X82500D02*
D03*
X92500D02*
D03*
X102500D02*
D03*
X112500D02*
D03*
X122500D02*
D03*
X132500D02*
D03*
X142500D02*
D03*
X52500Y22500D02*
D03*
X62500D02*
D03*
X72500D02*
D03*
X82500D02*
D03*
X92500D02*
D03*
X102500D02*
D03*
X112500D02*
D03*
X122500D02*
D03*
X132500D02*
D03*
D44*
X142500D02*
D03*
D45*
X214783Y35823D02*
D03*
Y153933D02*
D03*
X22500Y157000D02*
D03*
Y38890D02*
D03*
D46*
X222500Y142122D02*
D03*
Y130311D02*
D03*
Y118500D02*
D03*
Y106689D02*
D03*
Y94878D02*
D03*
Y83067D02*
D03*
Y71256D02*
D03*
Y59445D02*
D03*
Y47634D02*
D03*
X14783Y50701D02*
D03*
Y62512D02*
D03*
Y74323D02*
D03*
Y86134D02*
D03*
Y97945D02*
D03*
Y109756D02*
D03*
Y121567D02*
D03*
Y133378D02*
D03*
Y145189D02*
D03*
D47*
X122079Y54079D02*
D03*
X71250Y139500D02*
D03*
X99858Y111142D02*
D03*
X121500Y89500D02*
D03*
X185500Y176500D02*
D03*
X140500D02*
D03*
X109500D02*
D03*
X193500Y59000D02*
D03*
X150234Y82809D02*
D03*
X130000Y76000D02*
D03*
X120937Y82527D02*
D03*
X141000Y90000D02*
D03*
X55500Y73500D02*
D03*
X33000D02*
D03*
X45000Y81000D02*
D03*
Y92500D02*
D03*
X131000Y176500D02*
D03*
X76052Y84052D02*
D03*
X82500Y85500D02*
D03*
X77000Y58500D02*
D03*
X103500Y38500D02*
D03*
X163500Y176500D02*
D03*
X176000D02*
D03*
X119000D02*
D03*
X154000D02*
D03*
X91000Y56500D02*
D03*
M02*
